G75*
G70*
%OFA0B0*%
%FSLAX24Y24*%
%IPPOS*%
%LPD*%
%AMOC8*
5,1,8,0,0,1.08239X$1,22.5*
%
%ADD10C,0.0040*%
%ADD11R,0.0500X0.0220*%
%ADD12R,0.0220X0.0500*%
%ADD13C,0.0555*%
%ADD14R,0.0472X0.0217*%
%ADD15R,0.0354X0.0276*%
%ADD16R,0.0276X0.0354*%
%ADD17R,0.0394X0.1811*%
%ADD18R,0.0630X0.1339*%
%ADD19R,0.0315X0.0315*%
%ADD20R,0.0591X0.0512*%
%ADD21R,0.0394X0.0709*%
%ADD22R,0.0472X0.0197*%
%ADD23R,0.0197X0.0472*%
%ADD24R,0.0669X0.0276*%
%ADD25R,0.0390X0.0320*%
%ADD26R,0.0280X0.0590*%
%ADD27OC8,0.0640*%
%ADD28C,0.0100*%
%ADD29C,0.0080*%
%ADD30C,0.0436*%
D10*
X000361Y013244D02*
X000328Y013277D01*
X000461Y013410D01*
X000461Y013277D01*
X000428Y013244D01*
X000361Y013244D01*
X000328Y013277D02*
X000328Y013410D01*
X000361Y013444D01*
X000428Y013444D01*
X000461Y013410D01*
X000549Y013444D02*
X000549Y013344D01*
X000615Y013377D01*
X000649Y013377D01*
X000682Y013344D01*
X000682Y013277D01*
X000649Y013244D01*
X000582Y013244D01*
X000549Y013277D01*
X000549Y013444D02*
X000682Y013444D01*
X000770Y013244D02*
X000903Y013444D01*
X000991Y013410D02*
X001024Y013444D01*
X001091Y013444D01*
X001124Y013410D01*
X001124Y013377D01*
X000991Y013244D01*
X001124Y013244D01*
X001212Y013277D02*
X001212Y013410D01*
X001245Y013444D01*
X001312Y013444D01*
X001345Y013410D01*
X001212Y013277D01*
X001245Y013244D01*
X001312Y013244D01*
X001345Y013277D01*
X001345Y013410D01*
X001433Y013377D02*
X001499Y013444D01*
X001499Y013244D01*
X001433Y013244D02*
X001566Y013244D01*
X001654Y013277D02*
X001654Y013410D01*
X001687Y013444D01*
X001754Y013444D01*
X001787Y013410D01*
X001654Y013277D01*
X001687Y013244D01*
X001754Y013244D01*
X001787Y013277D01*
X001787Y013410D01*
D11*
X003156Y006492D03*
X003156Y006177D03*
X003156Y005862D03*
X003156Y005547D03*
X003156Y005232D03*
X003156Y004917D03*
X003156Y004602D03*
X003156Y004287D03*
X006536Y004287D03*
X006536Y004602D03*
X006536Y004917D03*
X006536Y005232D03*
X006536Y005547D03*
X006536Y005862D03*
X006536Y006177D03*
X006536Y006492D03*
D12*
X005948Y007079D03*
X005633Y007079D03*
X005318Y007079D03*
X005003Y007079D03*
X004688Y007079D03*
X004373Y007079D03*
X004058Y007079D03*
X003743Y007079D03*
X003743Y003699D03*
X004058Y003699D03*
X004373Y003699D03*
X004688Y003699D03*
X005003Y003699D03*
X005318Y003699D03*
X005633Y003699D03*
X005948Y003699D03*
D13*
X010003Y003909D03*
X010003Y004697D03*
X010003Y005484D03*
X010003Y006271D03*
X010003Y007059D03*
X010003Y007846D03*
X010003Y008634D03*
X010003Y009421D03*
X010003Y010208D03*
X010003Y010996D03*
X001342Y010996D03*
X001342Y010208D03*
X001342Y009421D03*
X001342Y008634D03*
X001342Y007846D03*
X001342Y007059D03*
X001342Y006271D03*
X001342Y005484D03*
X001342Y004697D03*
X001342Y003909D03*
D14*
X006000Y008997D03*
X006000Y009371D03*
X006000Y009745D03*
X007024Y009745D03*
X007024Y008997D03*
D15*
X007662Y010765D03*
X007662Y011277D03*
X008312Y011277D03*
X008312Y010765D03*
X009112Y008727D03*
X009112Y008215D03*
X007444Y005449D03*
X007444Y004937D03*
X002347Y005515D03*
X002347Y006026D03*
D16*
X005356Y007771D03*
X005356Y008271D03*
X005868Y008271D03*
X005868Y007771D03*
X008140Y005129D03*
X008652Y005129D03*
X008490Y003810D03*
X009002Y003810D03*
D17*
X004205Y010615D03*
X003418Y010615D03*
D18*
X002473Y012662D03*
X005150Y012662D03*
D19*
X009716Y012621D03*
X009716Y013171D03*
X010307Y013171D03*
X010307Y012621D03*
X010307Y012061D03*
X009716Y012061D03*
D20*
X007812Y009745D03*
X007812Y008997D03*
X005112Y008997D03*
X005112Y009745D03*
D21*
X005860Y010671D03*
X006963Y010671D03*
D22*
X008163Y007503D03*
X008163Y007188D03*
X008163Y006873D03*
X008163Y006558D03*
X008163Y006243D03*
X008163Y005928D03*
X009029Y005928D03*
X009029Y006243D03*
X009029Y006558D03*
X009029Y006873D03*
X009029Y007188D03*
X009029Y007503D03*
D23*
X008596Y007542D03*
X008596Y005889D03*
D24*
X002365Y004578D03*
X002365Y004105D03*
X002365Y003633D03*
D25*
X005925Y012307D03*
X005925Y013177D03*
X008795Y013177D03*
X008795Y012307D03*
D26*
X008240Y012057D03*
X007060Y012057D03*
X006470Y012057D03*
D27*
X004712Y007971D03*
X002712Y007971D03*
X002712Y008971D03*
X002712Y001971D03*
X002712Y000971D03*
X003712Y000971D03*
X003712Y001971D03*
X004712Y001971D03*
X004712Y000971D03*
X005712Y000971D03*
X005712Y001971D03*
X006712Y001971D03*
X006712Y000971D03*
X007712Y000971D03*
X007712Y001971D03*
X008712Y001971D03*
X008712Y000971D03*
X009712Y000971D03*
X009712Y001971D03*
X001712Y001971D03*
X001712Y000971D03*
X000712Y000971D03*
X000712Y001971D03*
D28*
X000712Y003279D01*
X001342Y003909D01*
X001712Y003539D01*
X001712Y002871D01*
X002712Y002871D01*
X002912Y003071D01*
X002712Y003621D02*
X002377Y003621D01*
X002365Y003633D01*
X002712Y003621D02*
X003156Y004065D01*
X003156Y004287D01*
X003156Y004602D02*
X002390Y004602D01*
X002365Y004578D01*
X002512Y004921D02*
X002362Y005071D01*
X002362Y005500D01*
X002347Y005515D01*
X003123Y005515D01*
X003156Y005547D01*
X003156Y005862D02*
X003521Y005862D01*
X003612Y005771D01*
X003612Y005571D01*
X004112Y005571D01*
X004612Y005571D01*
X005312Y004871D01*
X005712Y004871D01*
X005912Y005071D01*
X005912Y005471D01*
X005987Y005547D01*
X006536Y005547D01*
X006932Y005547D01*
X007031Y005449D01*
X007444Y005449D01*
X007444Y004937D02*
X007227Y004937D01*
X006932Y005232D01*
X006536Y005232D01*
X006536Y004917D02*
X006966Y004917D01*
X007262Y004621D01*
X007262Y002521D01*
X006712Y001971D01*
X006212Y002271D02*
X006212Y000721D01*
X006512Y000421D01*
X010012Y000421D01*
X010462Y000871D01*
X010462Y004221D01*
X010003Y004680D01*
X010003Y004697D01*
X009562Y004271D02*
X009562Y003771D01*
X009712Y003621D01*
X009712Y001971D01*
X009212Y001471D02*
X009212Y002871D01*
X009262Y002921D01*
X008712Y002971D02*
X008712Y001971D01*
X009212Y001471D02*
X009712Y000971D01*
X008212Y001471D02*
X008212Y003019D01*
X009002Y003810D01*
X009002Y004412D01*
X009462Y004871D01*
X009462Y005121D01*
X009112Y005471D01*
X008762Y005471D01*
X008612Y005621D01*
X008612Y005873D01*
X008596Y005889D01*
X008412Y006271D02*
X008462Y006321D01*
X008762Y006321D01*
X008812Y006271D01*
X009001Y006271D01*
X009029Y006243D01*
X009066Y006521D02*
X009029Y006558D01*
X009066Y006521D02*
X009312Y006521D01*
X009412Y006621D01*
X009412Y007321D01*
X009230Y007503D01*
X009029Y007503D01*
X008990Y007542D02*
X008596Y007542D01*
X008612Y007558D01*
X008612Y008171D01*
X006312Y008171D01*
X006212Y008271D01*
X005868Y008271D01*
X005538Y008571D02*
X005112Y008997D01*
X004236Y008997D01*
X003412Y009821D01*
X003412Y010608D01*
X003418Y010615D01*
X004205Y010615D02*
X004362Y010771D01*
X004862Y010771D01*
X005860Y010494D02*
X005112Y009745D01*
X005662Y009321D02*
X005950Y009321D01*
X006000Y009371D01*
X005662Y009321D02*
X005338Y008997D01*
X005112Y008997D01*
X005538Y008571D02*
X007212Y008571D01*
X007638Y008997D01*
X007812Y008997D01*
X007812Y009745D02*
X008288Y009745D01*
X008612Y009421D01*
X008612Y008171D01*
X009112Y008171D02*
X009512Y007771D01*
X009512Y007550D01*
X010003Y007059D01*
X009412Y006421D02*
X009312Y006521D01*
X009412Y006421D02*
X009412Y006021D01*
X009318Y005928D01*
X009029Y005928D01*
X008412Y006271D02*
X008362Y006271D01*
X008333Y006243D01*
X008163Y006243D01*
X008163Y006558D01*
X008163Y006873D01*
X007910Y006873D01*
X007612Y007171D01*
X007612Y007771D02*
X005868Y007771D01*
X005412Y007471D02*
X006712Y007471D01*
X007012Y007171D01*
X007012Y006671D01*
X007755Y005928D01*
X008163Y005928D01*
X008162Y005926D01*
X008162Y005150D01*
X008140Y005129D01*
X008140Y003250D01*
X007712Y002821D01*
X007712Y001971D01*
X008212Y001471D02*
X007712Y000971D01*
X006212Y002271D02*
X005948Y002535D01*
X005948Y003699D01*
X005633Y003699D02*
X005633Y002050D01*
X005712Y001971D01*
X005318Y002378D02*
X005212Y002271D01*
X005212Y001471D01*
X005712Y000971D01*
X004712Y000971D02*
X004212Y001471D01*
X004212Y002171D01*
X004688Y002648D01*
X004688Y003699D01*
X004373Y003699D02*
X004373Y002633D01*
X003712Y001971D01*
X003212Y002171D02*
X003212Y001471D01*
X003712Y000971D01*
X002712Y000971D02*
X002212Y001471D01*
X002712Y001971D02*
X003743Y003003D01*
X003743Y003699D01*
X003512Y004071D02*
X004362Y004921D01*
X004612Y004921D01*
X005062Y004471D01*
X005412Y004471D01*
X005562Y004621D01*
X006516Y004621D01*
X006536Y004602D01*
X006536Y004287D02*
X006536Y004197D01*
X006862Y003871D01*
X005512Y005221D02*
X005512Y005471D01*
X005912Y005871D01*
X006526Y005871D01*
X006536Y005862D01*
X006541Y006171D02*
X006536Y006177D01*
X006541Y006171D02*
X007012Y006171D01*
X007262Y005921D01*
X006536Y006492D02*
X006512Y006516D01*
X006512Y006971D01*
X005948Y007079D02*
X005948Y006458D01*
X005462Y005971D01*
X005112Y006171D02*
X005112Y005571D01*
X005112Y006171D02*
X005633Y006693D01*
X005633Y007079D01*
X005318Y007079D02*
X005312Y007086D01*
X005312Y007371D01*
X005412Y007471D01*
X005356Y007771D02*
X004912Y007771D01*
X004712Y007971D01*
X005012Y008271D01*
X005356Y008271D01*
X004712Y007971D02*
X004688Y007948D01*
X004688Y007079D01*
X004373Y007079D02*
X004373Y007510D01*
X002912Y008971D01*
X002712Y008971D01*
X002712Y007971D02*
X003412Y007971D01*
X004058Y007325D01*
X004058Y007079D01*
X003743Y007079D02*
X003735Y007071D01*
X002312Y007071D01*
X001812Y006571D01*
X001812Y005171D01*
X001342Y004701D01*
X001342Y004697D01*
X001538Y004105D02*
X001342Y003909D01*
X001538Y004105D02*
X002365Y004105D01*
X002512Y004921D02*
X003151Y004921D01*
X003156Y004917D01*
X003156Y005232D02*
X003522Y005232D01*
X003612Y005321D01*
X003612Y005571D01*
X003156Y005862D02*
X003146Y005871D01*
X002712Y005871D01*
X002557Y006026D01*
X002347Y006026D01*
X002262Y006471D02*
X003135Y006471D01*
X003156Y006492D01*
X003156Y006177D02*
X003211Y006121D01*
X003762Y006121D01*
X004812Y006421D02*
X005003Y006613D01*
X005003Y007079D01*
X006000Y008997D02*
X006288Y008997D01*
X006412Y009121D01*
X006412Y009621D01*
X006312Y009721D01*
X006024Y009721D01*
X006000Y009745D01*
X006000Y010532D01*
X005860Y010671D01*
X005860Y010494D01*
X006470Y011164D02*
X006963Y010671D01*
X006470Y011164D02*
X006470Y012057D01*
X007012Y011471D02*
X007060Y011519D01*
X007060Y012057D01*
X007512Y011671D02*
X007662Y011521D01*
X007662Y011277D01*
X007512Y011671D02*
X007512Y012921D01*
X007762Y013171D01*
X008162Y013171D01*
X008562Y012771D01*
X009212Y012771D01*
X009612Y013171D01*
X009716Y013171D01*
X009716Y012621D02*
X008372Y011277D01*
X008312Y011277D01*
X008312Y010765D02*
X008312Y010471D01*
X007812Y009971D01*
X007812Y009745D01*
X007024Y009745D01*
X007612Y010321D02*
X007662Y010371D01*
X007662Y010765D01*
X009512Y009121D02*
X009118Y008727D01*
X009112Y008727D01*
X009512Y009121D02*
X009512Y011071D01*
X009712Y011271D01*
X009712Y012057D01*
X009716Y012061D01*
X009716Y012621D02*
X009712Y012621D01*
X010307Y012621D02*
X010307Y012061D01*
X010307Y011576D01*
X010312Y011571D01*
X010307Y012621D02*
X010307Y013171D01*
X009112Y008215D02*
X009112Y008171D01*
X009029Y006873D02*
X008163Y006873D01*
X008652Y005129D02*
X008652Y004462D01*
X008512Y004321D01*
X008490Y004300D01*
X008490Y003810D01*
X008652Y004462D02*
X008662Y004471D01*
X008662Y005119D01*
X008652Y005129D01*
X005318Y003699D02*
X005318Y002378D01*
X005003Y002263D02*
X004712Y001971D01*
X005003Y002263D02*
X005003Y003699D01*
X004058Y003699D02*
X004058Y003018D01*
X003212Y002171D01*
X002912Y002471D02*
X003512Y003071D01*
X003512Y004071D01*
X002912Y002471D02*
X001512Y002471D01*
X001212Y002171D01*
X001212Y001471D01*
X000712Y000971D01*
D29*
X000332Y000743D02*
X000332Y000291D01*
X006415Y000291D01*
X006352Y000355D01*
X006052Y000655D01*
X006052Y000703D01*
X005890Y000541D01*
X005534Y000541D01*
X005282Y000793D01*
X005282Y001149D01*
X005294Y001162D01*
X005052Y001405D01*
X005052Y001538D01*
X005052Y001703D01*
X004890Y001541D01*
X004534Y001541D01*
X004372Y001703D01*
X004372Y001538D01*
X004521Y001388D01*
X004534Y001401D01*
X004890Y001401D01*
X005142Y001149D01*
X005142Y000793D01*
X004890Y000541D01*
X004534Y000541D01*
X004282Y000793D01*
X004282Y001149D01*
X004294Y001162D01*
X004052Y001405D01*
X004052Y001538D01*
X004052Y001703D01*
X003890Y001541D01*
X003534Y001541D01*
X003372Y001703D01*
X003372Y001538D01*
X003521Y001388D01*
X003534Y001401D01*
X003890Y001401D01*
X004142Y001149D01*
X004142Y000793D01*
X003890Y000541D01*
X003534Y000541D01*
X003282Y000793D01*
X003282Y001149D01*
X003294Y001162D01*
X003052Y001405D01*
X003052Y001538D01*
X003052Y001703D01*
X002890Y001541D01*
X002538Y001541D01*
X002540Y001537D01*
X002540Y001406D01*
X002538Y001401D01*
X002890Y001401D01*
X003142Y001149D01*
X003142Y000793D01*
X002890Y000541D01*
X002534Y000541D01*
X002282Y000793D01*
X002282Y001145D01*
X002277Y001143D01*
X002146Y001143D01*
X002142Y001145D01*
X002142Y000793D01*
X001890Y000541D01*
X001534Y000541D01*
X001282Y000793D01*
X001282Y001149D01*
X001534Y001401D01*
X001886Y001401D01*
X001884Y001406D01*
X001884Y001511D01*
X001752Y001511D01*
X001752Y001931D01*
X001752Y002011D01*
X002172Y002011D01*
X002172Y002162D01*
X002022Y002311D01*
X002444Y002311D01*
X002282Y002149D01*
X002282Y001797D01*
X002277Y001799D01*
X002172Y001799D01*
X002172Y001931D01*
X001752Y001931D01*
X001672Y001931D01*
X001672Y001511D01*
X001521Y001511D01*
X001372Y001661D01*
X001372Y001405D01*
X001278Y001311D01*
X001129Y001162D01*
X001142Y001149D01*
X001142Y000793D01*
X000890Y000541D01*
X000534Y000541D01*
X000332Y000743D01*
X000332Y000721D02*
X000354Y000721D01*
X000332Y000643D02*
X000432Y000643D01*
X000511Y000564D02*
X000332Y000564D01*
X000332Y000486D02*
X006221Y000486D01*
X006143Y000564D02*
X005912Y000564D01*
X005991Y000643D02*
X006064Y000643D01*
X006300Y000407D02*
X000332Y000407D01*
X000332Y000328D02*
X006378Y000328D01*
X006930Y000581D02*
X007142Y000793D01*
X007142Y001149D01*
X006890Y001401D01*
X006534Y001401D01*
X006372Y001239D01*
X006372Y001703D01*
X006534Y001541D01*
X006890Y001541D01*
X007142Y001793D01*
X007142Y002149D01*
X007129Y002162D01*
X007422Y002455D01*
X007422Y002588D01*
X007422Y004555D01*
X007422Y004688D01*
X007420Y004689D01*
X007667Y004689D01*
X007731Y004753D01*
X007731Y005120D01*
X007672Y005179D01*
X007675Y005180D01*
X007707Y005199D01*
X007733Y005225D01*
X007752Y005257D01*
X007761Y005292D01*
X007761Y005420D01*
X007473Y005420D01*
X007473Y005477D01*
X007761Y005477D01*
X007761Y005605D01*
X007752Y005640D01*
X007733Y005672D01*
X007707Y005698D01*
X007675Y005717D01*
X007640Y005726D01*
X007531Y005726D01*
X007540Y005735D01*
X007590Y005856D01*
X007590Y005867D01*
X007689Y005768D01*
X007821Y005768D01*
X007833Y005768D01*
X007881Y005720D01*
X008002Y005720D01*
X008002Y005416D01*
X007957Y005416D01*
X007893Y005352D01*
X007893Y004906D01*
X007957Y004842D01*
X007980Y004842D01*
X007980Y003494D01*
X007897Y003577D01*
X007787Y003623D01*
X007668Y003623D01*
X007558Y003577D01*
X007473Y003492D01*
X007427Y003382D01*
X007427Y003263D01*
X007473Y003153D01*
X007558Y003068D01*
X007668Y003023D01*
X007687Y003023D01*
X007645Y002981D01*
X007552Y002888D01*
X007552Y002401D01*
X007534Y002401D01*
X007282Y002149D01*
X007282Y001793D01*
X007534Y001541D01*
X007890Y001541D01*
X008052Y001703D01*
X008052Y001538D01*
X007903Y001388D01*
X007890Y001401D01*
X007534Y001401D01*
X007282Y001149D01*
X007282Y000793D01*
X007494Y000581D01*
X006930Y000581D01*
X006991Y000643D02*
X007432Y000643D01*
X007354Y000721D02*
X007069Y000721D01*
X007142Y000800D02*
X007282Y000800D01*
X007282Y000878D02*
X007142Y000878D01*
X007142Y000957D02*
X007282Y000957D01*
X007282Y001035D02*
X007142Y001035D01*
X007142Y001114D02*
X007282Y001114D01*
X007325Y001192D02*
X007099Y001192D01*
X007020Y001271D02*
X007403Y001271D01*
X007482Y001349D02*
X006942Y001349D01*
X006934Y001585D02*
X007490Y001585D01*
X007411Y001664D02*
X007012Y001664D01*
X007091Y001742D02*
X007333Y001742D01*
X007282Y001821D02*
X007142Y001821D01*
X007142Y001899D02*
X007282Y001899D01*
X007282Y001978D02*
X007142Y001978D01*
X007142Y002056D02*
X007282Y002056D01*
X007282Y002135D02*
X007142Y002135D01*
X007180Y002213D02*
X007346Y002213D01*
X007424Y002292D02*
X007259Y002292D01*
X007337Y002371D02*
X007503Y002371D01*
X007552Y002449D02*
X007416Y002449D01*
X007422Y002528D02*
X007552Y002528D01*
X007552Y002606D02*
X007422Y002606D01*
X007422Y002685D02*
X007552Y002685D01*
X007552Y002763D02*
X007422Y002763D01*
X007422Y002842D02*
X007552Y002842D01*
X007584Y002920D02*
X007422Y002920D01*
X007422Y002999D02*
X007663Y002999D01*
X007548Y003077D02*
X007422Y003077D01*
X007422Y003156D02*
X007472Y003156D01*
X007439Y003235D02*
X007422Y003235D01*
X007422Y003313D02*
X007427Y003313D01*
X007422Y003392D02*
X007431Y003392D01*
X007422Y003470D02*
X007464Y003470D01*
X007422Y003549D02*
X007529Y003549D01*
X007422Y003627D02*
X007980Y003627D01*
X007980Y003549D02*
X007926Y003549D01*
X007980Y003706D02*
X007422Y003706D01*
X007422Y003784D02*
X007980Y003784D01*
X007980Y003863D02*
X007422Y003863D01*
X007422Y003941D02*
X007980Y003941D01*
X007980Y004020D02*
X007422Y004020D01*
X007422Y004099D02*
X007980Y004099D01*
X007980Y004177D02*
X007422Y004177D01*
X007422Y004256D02*
X007980Y004256D01*
X007980Y004334D02*
X007422Y004334D01*
X007422Y004413D02*
X007980Y004413D01*
X007980Y004491D02*
X007422Y004491D01*
X007422Y004570D02*
X007980Y004570D01*
X007980Y004648D02*
X007422Y004648D01*
X007705Y004727D02*
X007980Y004727D01*
X007980Y004805D02*
X007731Y004805D01*
X007731Y004884D02*
X007915Y004884D01*
X007893Y004962D02*
X007731Y004962D01*
X007731Y005041D02*
X007893Y005041D01*
X007893Y005120D02*
X007731Y005120D01*
X007706Y005198D02*
X007893Y005198D01*
X007893Y005277D02*
X007757Y005277D01*
X007761Y005355D02*
X007896Y005355D01*
X008002Y005434D02*
X007473Y005434D01*
X007415Y005434D02*
X006925Y005434D01*
X006925Y005418D02*
X006918Y005392D01*
X006998Y005392D01*
X007140Y005250D01*
X007136Y005257D01*
X007127Y005292D01*
X007127Y005420D01*
X007415Y005420D01*
X007415Y005477D01*
X007127Y005477D01*
X007127Y005605D01*
X007131Y005620D01*
X007076Y005643D01*
X006984Y005735D01*
X006934Y005856D01*
X006934Y005987D01*
X006944Y006011D01*
X006895Y006011D01*
X006895Y005745D01*
X006898Y005743D01*
X006916Y005711D01*
X006925Y005675D01*
X006925Y005562D01*
X006551Y005562D01*
X006551Y005532D01*
X006925Y005532D01*
X006925Y005418D01*
X006925Y005512D02*
X007127Y005512D01*
X007127Y005591D02*
X006925Y005591D01*
X006925Y005669D02*
X007050Y005669D01*
X006978Y005748D02*
X006895Y005748D01*
X006895Y005826D02*
X006946Y005826D01*
X006934Y005905D02*
X006895Y005905D01*
X006895Y005984D02*
X006934Y005984D01*
X006520Y005562D02*
X006520Y005532D01*
X006146Y005532D01*
X006146Y005418D01*
X006155Y005383D01*
X006173Y005351D01*
X006176Y005349D01*
X006176Y005076D01*
X006177Y005074D01*
X006176Y005073D01*
X006176Y004781D01*
X005628Y004781D01*
X005495Y004781D01*
X005345Y004631D01*
X005128Y004631D01*
X004929Y004830D01*
X004940Y004856D01*
X004940Y004987D01*
X004890Y005107D01*
X004797Y005199D01*
X004677Y005249D01*
X004546Y005249D01*
X004426Y005199D01*
X004334Y005107D01*
X004323Y005081D01*
X004295Y005081D01*
X003515Y004301D01*
X003515Y004443D01*
X003514Y004445D01*
X003515Y004446D01*
X003515Y004758D01*
X003514Y004760D01*
X003515Y004761D01*
X003515Y005034D01*
X003518Y005036D01*
X003536Y005068D01*
X003545Y005104D01*
X003545Y005217D01*
X003171Y005217D01*
X003171Y005247D01*
X003545Y005247D01*
X003545Y005360D01*
X003536Y005396D01*
X003518Y005428D01*
X003515Y005430D01*
X003515Y005664D01*
X003518Y005666D01*
X003536Y005698D01*
X003545Y005733D01*
X003545Y005847D01*
X003171Y005847D01*
X003171Y005877D01*
X003542Y005877D01*
X003576Y005843D01*
X003696Y005793D01*
X003827Y005793D01*
X003947Y005843D01*
X004040Y005935D01*
X004090Y006056D01*
X004090Y006187D01*
X004040Y006307D01*
X003947Y006399D01*
X003827Y006449D01*
X003696Y006449D01*
X003576Y006399D01*
X003515Y006339D01*
X003515Y006647D01*
X003451Y006712D01*
X002860Y006712D01*
X002796Y006647D01*
X002796Y006631D01*
X002550Y006631D01*
X002540Y006657D01*
X002447Y006749D01*
X002327Y006799D01*
X002266Y006799D01*
X002378Y006911D01*
X003523Y006911D01*
X003523Y006784D01*
X003588Y006719D01*
X003899Y006719D01*
X003901Y006721D01*
X003903Y006719D01*
X004214Y006719D01*
X004216Y006721D01*
X004217Y006719D01*
X004529Y006719D01*
X004531Y006721D01*
X004532Y006719D01*
X004674Y006719D01*
X004626Y006699D01*
X004534Y006607D01*
X004484Y006487D01*
X004484Y006356D01*
X004534Y006235D01*
X004626Y006143D01*
X004746Y006093D01*
X004877Y006093D01*
X004952Y006124D01*
X004952Y005860D01*
X004926Y005849D01*
X004834Y005757D01*
X004784Y005637D01*
X004784Y005506D01*
X004834Y005385D01*
X004926Y005293D01*
X005046Y005243D01*
X005177Y005243D01*
X005184Y005246D01*
X005184Y005156D01*
X005234Y005035D01*
X005326Y004943D01*
X005446Y004893D01*
X005577Y004893D01*
X005697Y004943D01*
X005790Y005035D01*
X005840Y005156D01*
X005840Y005287D01*
X005790Y005407D01*
X005732Y005465D01*
X005978Y005711D01*
X006155Y005711D01*
X006146Y005675D01*
X006146Y005562D01*
X006520Y005562D01*
X006171Y005355D02*
X005811Y005355D01*
X005840Y005277D02*
X006176Y005277D01*
X006176Y005198D02*
X005840Y005198D01*
X005825Y005120D02*
X006176Y005120D01*
X006176Y005041D02*
X005792Y005041D01*
X005717Y004962D02*
X006176Y004962D01*
X006176Y004884D02*
X004940Y004884D01*
X004940Y004962D02*
X005306Y004962D01*
X005231Y005041D02*
X004917Y005041D01*
X004877Y005120D02*
X005199Y005120D01*
X005184Y005198D02*
X004799Y005198D01*
X004966Y005277D02*
X003545Y005277D01*
X003545Y005355D02*
X004864Y005355D01*
X004813Y005434D02*
X003515Y005434D01*
X003515Y005512D02*
X004784Y005512D01*
X004784Y005591D02*
X003515Y005591D01*
X003519Y005669D02*
X004797Y005669D01*
X004830Y005748D02*
X003545Y005748D01*
X003545Y005826D02*
X003616Y005826D01*
X003907Y005826D02*
X004903Y005826D01*
X004952Y005905D02*
X004009Y005905D01*
X004060Y005984D02*
X004952Y005984D01*
X004952Y006062D02*
X004090Y006062D01*
X004090Y006141D02*
X004632Y006141D01*
X004550Y006219D02*
X004076Y006219D01*
X004044Y006298D02*
X004508Y006298D01*
X004484Y006376D02*
X003971Y006376D01*
X003553Y006376D02*
X003515Y006376D01*
X003515Y006455D02*
X004484Y006455D01*
X004503Y006533D02*
X003515Y006533D01*
X003515Y006612D02*
X004538Y006612D01*
X004617Y006690D02*
X003472Y006690D01*
X003538Y006769D02*
X002400Y006769D01*
X002314Y006848D02*
X003523Y006848D01*
X003523Y007231D02*
X002245Y007231D01*
X002152Y007138D01*
X001652Y006638D01*
X001652Y006509D01*
X001561Y006600D01*
X001419Y006659D01*
X001264Y006659D01*
X001122Y006600D01*
X001013Y006491D01*
X000954Y006348D01*
X000954Y006194D01*
X001013Y006052D01*
X001122Y005943D01*
X001264Y005884D01*
X001419Y005884D01*
X001561Y005943D01*
X001652Y006034D01*
X001652Y005722D01*
X001561Y005812D01*
X001419Y005871D01*
X001264Y005871D01*
X001122Y005812D01*
X001013Y005703D01*
X000954Y005561D01*
X000954Y005407D01*
X001013Y005264D01*
X001122Y005155D01*
X001264Y005096D01*
X001419Y005096D01*
X001561Y005155D01*
X001652Y005246D01*
X001652Y005238D01*
X001475Y005061D01*
X001419Y005084D01*
X001264Y005084D01*
X001122Y005025D01*
X001013Y004916D01*
X000954Y004774D01*
X000954Y004619D01*
X001013Y004477D01*
X001122Y004368D01*
X001246Y004317D01*
X001244Y004316D01*
X001181Y004296D01*
X001123Y004266D01*
X001070Y004228D01*
X001023Y004181D01*
X000985Y004128D01*
X000955Y004069D01*
X000934Y004007D01*
X000925Y003948D01*
X001303Y003948D01*
X001303Y003870D01*
X001380Y003870D01*
X001380Y003493D01*
X001439Y003502D01*
X001502Y003522D01*
X001560Y003552D01*
X001614Y003591D01*
X001660Y003637D01*
X001699Y003690D01*
X001728Y003749D01*
X001749Y003811D01*
X001758Y003870D01*
X001381Y003870D01*
X001381Y003948D01*
X001758Y003948D01*
X001749Y004007D01*
X001728Y004069D01*
X001699Y004128D01*
X001660Y004181D01*
X001614Y004228D01*
X001560Y004266D01*
X001502Y004296D01*
X001439Y004316D01*
X001437Y004317D01*
X001561Y004368D01*
X001670Y004477D01*
X001729Y004619D01*
X001729Y004774D01*
X001703Y004836D01*
X001878Y005011D01*
X001972Y005105D01*
X001972Y006314D01*
X001984Y006285D01*
X002044Y006225D01*
X002039Y006218D01*
X002030Y006183D01*
X002030Y006055D01*
X002318Y006055D01*
X002318Y005997D01*
X002030Y005997D01*
X002030Y005870D01*
X002039Y005835D01*
X002058Y005803D01*
X002084Y005777D01*
X002116Y005758D01*
X002119Y005757D01*
X002060Y005698D01*
X002060Y005331D01*
X002109Y005282D01*
X002084Y005257D01*
X002034Y005137D01*
X002034Y005006D01*
X002084Y004885D01*
X002144Y004825D01*
X001985Y004825D01*
X001921Y004761D01*
X001921Y004394D01*
X001954Y004361D01*
X001945Y004355D01*
X001919Y004329D01*
X001900Y004297D01*
X001891Y004261D01*
X001891Y004134D01*
X002336Y004134D01*
X002336Y004076D01*
X001891Y004076D01*
X001891Y003949D01*
X001900Y003913D01*
X001919Y003881D01*
X001945Y003855D01*
X001954Y003850D01*
X001921Y003816D01*
X001921Y003449D01*
X001985Y003385D01*
X002745Y003385D01*
X002810Y003449D01*
X002810Y003493D01*
X002872Y003555D01*
X003315Y003999D01*
X003315Y004067D01*
X003352Y004067D01*
X003352Y004005D01*
X003352Y003138D01*
X002845Y002631D01*
X001445Y002631D01*
X001352Y002538D01*
X001074Y002260D01*
X000902Y002431D01*
X000752Y002431D01*
X000752Y002011D01*
X000672Y002011D01*
X000672Y002431D01*
X000521Y002431D01*
X000332Y002242D01*
X000332Y013114D01*
X000415Y013114D01*
X000482Y013114D01*
X000505Y013137D01*
X000528Y013114D01*
X000636Y013114D01*
X000703Y013114D01*
X000714Y013125D01*
X000742Y013106D01*
X000848Y013127D01*
X000878Y013172D01*
X000927Y013124D01*
X000887Y013107D01*
X000676Y012896D01*
X000562Y012621D01*
X000562Y012322D01*
X000676Y012047D01*
X000887Y011836D01*
X001162Y011721D01*
X001461Y011721D01*
X001736Y011836D01*
X001947Y012047D01*
X002048Y012290D01*
X002048Y011947D01*
X002113Y011883D01*
X002834Y011883D01*
X002898Y011947D01*
X002898Y013377D01*
X002838Y013437D01*
X004786Y013437D01*
X004725Y013377D01*
X004725Y011947D01*
X004790Y011883D01*
X005511Y011883D01*
X005575Y011947D01*
X005575Y013377D01*
X005515Y013437D01*
X005674Y013437D01*
X005620Y013383D01*
X005620Y012972D01*
X005684Y012907D01*
X006165Y012907D01*
X006230Y012972D01*
X006230Y013383D01*
X006175Y013437D01*
X008544Y013437D01*
X008490Y013383D01*
X008490Y013069D01*
X008322Y013238D01*
X008228Y013331D01*
X007828Y013331D01*
X007695Y013331D01*
X007445Y013081D01*
X007352Y012988D01*
X007352Y011738D01*
X007352Y011605D01*
X007435Y011521D01*
X007374Y011461D01*
X007374Y011094D01*
X007439Y011029D01*
X007884Y011029D01*
X007949Y011094D01*
X007949Y011461D01*
X007884Y011525D01*
X007822Y011525D01*
X007822Y011588D01*
X007728Y011681D01*
X007672Y011738D01*
X007672Y012643D01*
X007700Y012575D01*
X007783Y012492D01*
X007891Y012447D01*
X008008Y012447D01*
X008117Y012492D01*
X008200Y012575D01*
X008245Y012684D01*
X008245Y012801D01*
X008201Y012905D01*
X008495Y012611D01*
X008628Y012611D01*
X009278Y012611D01*
X009372Y012705D01*
X009449Y012782D01*
X009449Y012580D01*
X009100Y012231D01*
X009100Y012513D01*
X009035Y012577D01*
X008554Y012577D01*
X008490Y012513D01*
X008490Y012102D01*
X008554Y012037D01*
X008906Y012037D01*
X008394Y011525D01*
X008089Y011525D01*
X008024Y011461D01*
X008024Y011094D01*
X008089Y011029D01*
X008534Y011029D01*
X008599Y011094D01*
X008599Y011278D01*
X009449Y012128D01*
X009449Y011858D01*
X009513Y011794D01*
X009552Y011794D01*
X009552Y011338D01*
X009352Y011138D01*
X009352Y011005D01*
X009352Y009188D01*
X009139Y008975D01*
X008889Y008975D01*
X008824Y008911D01*
X008824Y008544D01*
X008889Y008479D01*
X009334Y008479D01*
X009399Y008544D01*
X009399Y008782D01*
X009578Y008961D01*
X009672Y009055D01*
X009672Y009209D01*
X009674Y009201D01*
X009784Y009092D01*
X009926Y009033D01*
X010080Y009033D01*
X010222Y009092D01*
X010331Y009201D01*
X010390Y009344D01*
X010390Y009498D01*
X010331Y009640D01*
X010222Y009749D01*
X010080Y009808D01*
X009926Y009808D01*
X009784Y009749D01*
X009674Y009640D01*
X009672Y009633D01*
X009672Y009996D01*
X009674Y009989D01*
X009672Y009989D01*
X009674Y009989D02*
X009784Y009880D01*
X009926Y009821D01*
X010080Y009821D01*
X010222Y009880D01*
X010331Y009989D01*
X010390Y010131D01*
X010390Y010285D01*
X010331Y010428D01*
X010222Y010537D01*
X010080Y010596D01*
X009926Y010596D01*
X009784Y010537D01*
X009674Y010428D01*
X009672Y010421D01*
X009672Y010783D01*
X009674Y010776D01*
X009784Y010667D01*
X009926Y010608D01*
X010080Y010608D01*
X010222Y010667D01*
X010331Y010776D01*
X010390Y010919D01*
X010390Y011073D01*
X010331Y011215D01*
X010222Y011324D01*
X010080Y011383D01*
X009926Y011383D01*
X009872Y011361D01*
X009872Y011794D01*
X009919Y011794D01*
X009984Y011858D01*
X009984Y012264D01*
X009919Y012329D01*
X009650Y012329D01*
X009675Y012354D01*
X009919Y012354D01*
X009984Y012418D01*
X009984Y012824D01*
X009919Y012889D01*
X009555Y012889D01*
X009570Y012904D01*
X009919Y012904D01*
X009984Y012968D01*
X009984Y013374D01*
X009921Y013437D01*
X010060Y013437D01*
X010037Y013415D01*
X010019Y013383D01*
X010009Y013347D01*
X010009Y013210D01*
X010268Y013210D01*
X010268Y013133D01*
X010009Y013133D01*
X010009Y012995D01*
X010019Y012960D01*
X010037Y012928D01*
X010063Y012902D01*
X010073Y012896D01*
X010063Y012891D01*
X010037Y012865D01*
X010019Y012833D01*
X010009Y012797D01*
X010009Y012660D01*
X010268Y012660D01*
X010268Y012583D01*
X010009Y012583D01*
X010009Y012445D01*
X010019Y012410D01*
X010037Y012378D01*
X010063Y012352D01*
X010082Y012341D01*
X010063Y012331D01*
X010037Y012305D01*
X010019Y012273D01*
X010009Y012237D01*
X010009Y012100D01*
X010268Y012100D01*
X010268Y012023D01*
X010009Y012023D01*
X010009Y011885D01*
X010019Y011850D01*
X010037Y011818D01*
X010063Y011792D01*
X010095Y011773D01*
X010131Y011764D01*
X010268Y011764D01*
X010268Y012022D01*
X010346Y012022D01*
X010346Y011764D01*
X010483Y011764D01*
X010518Y011773D01*
X010525Y011777D01*
X010525Y004384D01*
X010361Y004548D01*
X010390Y004619D01*
X010390Y004774D01*
X010331Y004916D01*
X010222Y005025D01*
X010080Y005084D01*
X009926Y005084D01*
X009784Y005025D01*
X009772Y005014D01*
X009790Y005056D01*
X009790Y005153D01*
X009926Y005096D01*
X010080Y005096D01*
X010222Y005155D01*
X010331Y005264D01*
X010390Y005407D01*
X010390Y005561D01*
X010331Y005703D01*
X010222Y005812D01*
X010080Y005871D01*
X009926Y005871D01*
X009784Y005812D01*
X009674Y005703D01*
X009616Y005561D01*
X009616Y005413D01*
X009527Y005449D01*
X009396Y005449D01*
X009371Y005439D01*
X009272Y005538D01*
X009178Y005631D01*
X008828Y005631D01*
X008805Y005654D01*
X008805Y005720D01*
X009311Y005720D01*
X009360Y005768D01*
X009385Y005768D01*
X009478Y005861D01*
X009572Y005955D01*
X009572Y006355D01*
X009572Y006488D01*
X009538Y006521D01*
X009572Y006555D01*
X009572Y006688D01*
X009572Y007264D01*
X009640Y007195D01*
X009616Y007136D01*
X009616Y006982D01*
X009674Y006839D01*
X009784Y006730D01*
X009926Y006671D01*
X010080Y006671D01*
X010222Y006730D01*
X010331Y006839D01*
X010390Y006982D01*
X010390Y007136D01*
X010331Y007278D01*
X010222Y007387D01*
X010080Y007446D01*
X009926Y007446D01*
X009866Y007421D01*
X009672Y007616D01*
X009672Y007634D01*
X009674Y007627D01*
X009784Y007518D01*
X009926Y007459D01*
X010080Y007459D01*
X010222Y007518D01*
X010331Y007627D01*
X010390Y007769D01*
X010390Y007923D01*
X010331Y008066D01*
X010222Y008175D01*
X010080Y008234D01*
X009926Y008234D01*
X009784Y008175D01*
X009674Y008066D01*
X009616Y007923D01*
X009616Y007894D01*
X009578Y007931D01*
X009399Y008110D01*
X009399Y008399D01*
X009334Y008463D01*
X008889Y008463D01*
X008836Y008411D01*
X008797Y008449D01*
X008772Y008460D01*
X008772Y009488D01*
X008678Y009581D01*
X008354Y009905D01*
X008221Y009905D01*
X008217Y009905D01*
X008217Y010047D01*
X008165Y010099D01*
X008472Y010405D01*
X008472Y010518D01*
X008534Y010518D01*
X008599Y010582D01*
X008599Y010949D01*
X008534Y011013D01*
X008089Y011013D01*
X008024Y010949D01*
X008024Y010582D01*
X008089Y010518D01*
X008132Y010518D01*
X007940Y010326D01*
X007940Y010387D01*
X007890Y010507D01*
X007879Y010518D01*
X007884Y010518D01*
X007949Y010582D01*
X007949Y010949D01*
X007884Y011013D01*
X007439Y011013D01*
X007374Y010949D01*
X007374Y010582D01*
X007391Y010565D01*
X007334Y010507D01*
X007284Y010387D01*
X007284Y010256D01*
X007334Y010135D01*
X007414Y010055D01*
X007406Y010047D01*
X007406Y009905D01*
X007364Y009905D01*
X007305Y009964D01*
X006742Y009964D01*
X006677Y009899D01*
X006677Y009591D01*
X006742Y009527D01*
X007305Y009527D01*
X007364Y009585D01*
X007406Y009585D01*
X007406Y009444D01*
X007466Y009385D01*
X007462Y009384D01*
X007430Y009365D01*
X007404Y009339D01*
X007386Y009307D01*
X007376Y009272D01*
X007376Y009037D01*
X007771Y009037D01*
X007771Y008957D01*
X007376Y008957D01*
X007376Y008723D01*
X007386Y008687D01*
X007404Y008655D01*
X007430Y008629D01*
X007462Y008611D01*
X007498Y008601D01*
X007772Y008601D01*
X007772Y008957D01*
X007852Y008957D01*
X007852Y009037D01*
X008247Y009037D01*
X008247Y009272D01*
X008237Y009307D01*
X008219Y009339D01*
X008193Y009365D01*
X008161Y009384D01*
X008158Y009385D01*
X008217Y009444D01*
X008217Y009585D01*
X008221Y009585D01*
X008452Y009355D01*
X008452Y008460D01*
X008426Y008449D01*
X008334Y008357D01*
X008323Y008331D01*
X006600Y008331D01*
X006590Y008357D01*
X006497Y008449D01*
X006377Y008499D01*
X006246Y008499D01*
X006126Y008449D01*
X006115Y008439D01*
X006115Y008494D01*
X006051Y008558D01*
X005684Y008558D01*
X005620Y008494D01*
X005620Y008049D01*
X005647Y008021D01*
X005620Y007994D01*
X005620Y007631D01*
X005604Y007631D01*
X005604Y007994D01*
X005576Y008021D01*
X005604Y008049D01*
X005604Y008494D01*
X005539Y008558D01*
X005172Y008558D01*
X005108Y008494D01*
X005108Y008431D01*
X005078Y008431D01*
X004945Y008431D01*
X004903Y008388D01*
X004890Y008401D01*
X004534Y008401D01*
X004282Y008149D01*
X004282Y007828D01*
X003142Y008968D01*
X005071Y008968D01*
X005071Y008957D02*
X004676Y008957D01*
X004676Y008723D01*
X004686Y008687D01*
X004704Y008655D01*
X004730Y008629D01*
X004762Y008611D01*
X004798Y008601D01*
X005072Y008601D01*
X005072Y008957D01*
X005152Y008957D01*
X005152Y009037D01*
X005547Y009037D01*
X005547Y009272D01*
X005537Y009307D01*
X005519Y009339D01*
X005493Y009365D01*
X005461Y009384D01*
X005458Y009385D01*
X005517Y009444D01*
X005517Y009924D01*
X005800Y010207D01*
X005840Y010207D01*
X005840Y009964D01*
X005718Y009964D01*
X005654Y009899D01*
X005654Y009591D01*
X005666Y009580D01*
X005652Y009566D01*
X005633Y009534D01*
X005624Y009498D01*
X005624Y009385D01*
X005985Y009385D01*
X005985Y009357D01*
X005624Y009357D01*
X005624Y009245D01*
X005633Y009209D01*
X005652Y009177D01*
X005666Y009163D01*
X005654Y009151D01*
X005654Y008843D01*
X005718Y008779D01*
X006282Y008779D01*
X006340Y008837D01*
X006354Y008837D01*
X006478Y008961D01*
X006572Y009055D01*
X006572Y009555D01*
X006572Y009688D01*
X006472Y009788D01*
X006378Y009881D01*
X006346Y009881D01*
X006346Y009899D01*
X006282Y009964D01*
X006160Y009964D01*
X006160Y010264D01*
X006167Y010271D01*
X006167Y011071D01*
X006103Y011136D01*
X005618Y011136D01*
X005554Y011071D01*
X005554Y010414D01*
X005251Y010111D01*
X004771Y010111D01*
X004706Y010047D01*
X004706Y009444D01*
X004766Y009385D01*
X004762Y009384D01*
X004730Y009365D01*
X004704Y009339D01*
X004686Y009307D01*
X004676Y009272D01*
X004676Y009037D01*
X005071Y009037D01*
X005071Y008957D01*
X005072Y008890D02*
X005152Y008890D01*
X005152Y008957D02*
X005152Y008601D01*
X005425Y008601D01*
X005461Y008611D01*
X005493Y008629D01*
X005519Y008655D01*
X005537Y008687D01*
X005547Y008723D01*
X005547Y008957D01*
X005152Y008957D01*
X005152Y008968D02*
X005654Y008968D01*
X005654Y008890D02*
X005547Y008890D01*
X005547Y008811D02*
X005686Y008811D01*
X005547Y008733D02*
X007376Y008733D01*
X007376Y008811D02*
X007337Y008811D01*
X007305Y008779D02*
X007370Y008843D01*
X007370Y009151D01*
X007305Y009216D01*
X006742Y009216D01*
X006677Y009151D01*
X006677Y008843D01*
X006742Y008779D01*
X007305Y008779D01*
X007370Y008890D02*
X007376Y008890D01*
X007370Y008968D02*
X007771Y008968D01*
X007772Y008890D02*
X007852Y008890D01*
X007852Y008957D02*
X007852Y008601D01*
X008125Y008601D01*
X008161Y008611D01*
X008193Y008629D01*
X008219Y008655D01*
X008237Y008687D01*
X008247Y008723D01*
X008247Y008957D01*
X007852Y008957D01*
X007852Y008968D02*
X008452Y008968D01*
X008452Y008890D02*
X008247Y008890D01*
X008247Y008811D02*
X008452Y008811D01*
X008452Y008733D02*
X008247Y008733D01*
X008218Y008654D02*
X008452Y008654D01*
X008452Y008575D02*
X003534Y008575D01*
X003612Y008497D02*
X005111Y008497D01*
X005072Y008654D02*
X005152Y008654D01*
X005152Y008733D02*
X005072Y008733D01*
X005072Y008811D02*
X005152Y008811D01*
X005518Y008654D02*
X007406Y008654D01*
X007772Y008654D02*
X007852Y008654D01*
X007852Y008733D02*
X007772Y008733D01*
X007772Y008811D02*
X007852Y008811D01*
X008247Y009047D02*
X008452Y009047D01*
X008452Y009125D02*
X008247Y009125D01*
X008247Y009204D02*
X008452Y009204D01*
X008452Y009282D02*
X008244Y009282D01*
X008197Y009361D02*
X008446Y009361D01*
X008367Y009439D02*
X008212Y009439D01*
X008217Y009518D02*
X008289Y009518D01*
X008506Y009754D02*
X009352Y009754D01*
X009352Y009832D02*
X008427Y009832D01*
X008584Y009675D02*
X009352Y009675D01*
X009352Y009597D02*
X008663Y009597D01*
X008678Y009581D02*
X008678Y009581D01*
X008741Y009518D02*
X009352Y009518D01*
X009352Y009439D02*
X008772Y009439D01*
X008772Y009361D02*
X009352Y009361D01*
X009352Y009282D02*
X008772Y009282D01*
X008772Y009204D02*
X009352Y009204D01*
X009289Y009125D02*
X008772Y009125D01*
X008772Y009047D02*
X009211Y009047D01*
X009428Y008811D02*
X009657Y008811D01*
X009674Y008853D02*
X009616Y008711D01*
X009616Y008556D01*
X009674Y008414D01*
X009784Y008305D01*
X009926Y008246D01*
X010080Y008246D01*
X010222Y008305D01*
X010331Y008414D01*
X010390Y008556D01*
X010390Y008711D01*
X010331Y008853D01*
X010222Y008962D01*
X010080Y009021D01*
X009926Y009021D01*
X009784Y008962D01*
X009674Y008853D01*
X009711Y008890D02*
X009506Y008890D01*
X009585Y008968D02*
X009798Y008968D01*
X009894Y009047D02*
X009663Y009047D01*
X009672Y009125D02*
X009751Y009125D01*
X009674Y009204D02*
X009672Y009204D01*
X009672Y009675D02*
X009709Y009675D01*
X009672Y009754D02*
X009794Y009754D01*
X009899Y009832D02*
X009672Y009832D01*
X009672Y009911D02*
X009753Y009911D01*
X010107Y009832D02*
X010525Y009832D01*
X010525Y009754D02*
X010212Y009754D01*
X010297Y009675D02*
X010525Y009675D01*
X010525Y009597D02*
X010350Y009597D01*
X010382Y009518D02*
X010525Y009518D01*
X010525Y009439D02*
X010390Y009439D01*
X010390Y009361D02*
X010525Y009361D01*
X010525Y009282D02*
X010365Y009282D01*
X010332Y009204D02*
X010525Y009204D01*
X010525Y009125D02*
X010255Y009125D01*
X010112Y009047D02*
X010525Y009047D01*
X010525Y008968D02*
X010208Y008968D01*
X010295Y008890D02*
X010525Y008890D01*
X010525Y008811D02*
X010349Y008811D01*
X010381Y008733D02*
X010525Y008733D01*
X010525Y008654D02*
X010390Y008654D01*
X010390Y008575D02*
X010525Y008575D01*
X010525Y008497D02*
X010366Y008497D01*
X010333Y008418D02*
X010525Y008418D01*
X010525Y008340D02*
X010257Y008340D01*
X010117Y008261D02*
X010525Y008261D01*
X010525Y008183D02*
X010203Y008183D01*
X010293Y008104D02*
X010525Y008104D01*
X010525Y008026D02*
X010348Y008026D01*
X010381Y007947D02*
X010525Y007947D01*
X010525Y007869D02*
X010390Y007869D01*
X010390Y007790D02*
X010525Y007790D01*
X010525Y007711D02*
X010367Y007711D01*
X010334Y007633D02*
X010525Y007633D01*
X010525Y007554D02*
X010259Y007554D01*
X010122Y007476D02*
X010525Y007476D01*
X010525Y007397D02*
X010198Y007397D01*
X010291Y007319D02*
X010525Y007319D01*
X010525Y007240D02*
X010347Y007240D01*
X010380Y007162D02*
X010525Y007162D01*
X010525Y007083D02*
X010390Y007083D01*
X010390Y007005D02*
X010525Y007005D01*
X010525Y006926D02*
X010367Y006926D01*
X010335Y006848D02*
X010525Y006848D01*
X010525Y006769D02*
X010261Y006769D01*
X010126Y006690D02*
X010525Y006690D01*
X010525Y006612D02*
X010193Y006612D01*
X010222Y006600D02*
X010080Y006659D01*
X009926Y006659D01*
X009784Y006600D01*
X009674Y006491D01*
X009616Y006348D01*
X009616Y006194D01*
X009674Y006052D01*
X009784Y005943D01*
X009926Y005884D01*
X010080Y005884D01*
X010222Y005943D01*
X010331Y006052D01*
X010390Y006194D01*
X010390Y006348D01*
X010331Y006491D01*
X010222Y006600D01*
X010289Y006533D02*
X010525Y006533D01*
X010525Y006455D02*
X010346Y006455D01*
X010379Y006376D02*
X010525Y006376D01*
X010525Y006298D02*
X010390Y006298D01*
X010390Y006219D02*
X010525Y006219D01*
X010525Y006141D02*
X010368Y006141D01*
X010336Y006062D02*
X010525Y006062D01*
X010525Y005984D02*
X010263Y005984D01*
X010131Y005905D02*
X010525Y005905D01*
X010525Y005826D02*
X010189Y005826D01*
X010287Y005748D02*
X010525Y005748D01*
X010525Y005669D02*
X010346Y005669D01*
X010378Y005591D02*
X010525Y005591D01*
X010525Y005512D02*
X010390Y005512D01*
X010390Y005434D02*
X010525Y005434D01*
X010525Y005355D02*
X010369Y005355D01*
X010336Y005277D02*
X010525Y005277D01*
X010525Y005198D02*
X010265Y005198D01*
X010136Y005120D02*
X010525Y005120D01*
X010525Y005041D02*
X010184Y005041D01*
X010285Y004962D02*
X010525Y004962D01*
X010525Y004884D02*
X010345Y004884D01*
X010377Y004805D02*
X010525Y004805D01*
X010525Y004727D02*
X010390Y004727D01*
X010390Y004648D02*
X010525Y004648D01*
X010525Y004570D02*
X010370Y004570D01*
X010418Y004491D02*
X010525Y004491D01*
X010525Y004413D02*
X010497Y004413D01*
X009870Y005120D02*
X009790Y005120D01*
X009784Y005041D02*
X009822Y005041D01*
X009616Y005434D02*
X009565Y005434D01*
X009616Y005512D02*
X009297Y005512D01*
X009218Y005591D02*
X009628Y005591D01*
X009660Y005669D02*
X008805Y005669D01*
X008741Y006234D02*
X008740Y006235D01*
X008452Y006235D01*
X008451Y006234D01*
X008173Y006234D01*
X008173Y006252D01*
X008539Y006252D01*
X008539Y006360D01*
X008530Y006395D01*
X008527Y006400D01*
X008530Y006405D01*
X008539Y006441D01*
X008539Y006549D01*
X008173Y006549D01*
X008173Y006567D01*
X008539Y006567D01*
X008539Y006675D01*
X008530Y006710D01*
X008527Y006715D01*
X008530Y006720D01*
X008539Y006756D01*
X008539Y006864D01*
X008173Y006864D01*
X008173Y006882D01*
X008539Y006882D01*
X008539Y006990D01*
X008530Y007025D01*
X008511Y007057D01*
X008509Y007059D01*
X008509Y007196D01*
X008740Y007196D01*
X008741Y007197D01*
X009020Y007197D01*
X009020Y007179D01*
X008653Y007179D01*
X008653Y007071D01*
X008663Y007035D01*
X008666Y007030D01*
X008663Y007025D01*
X008653Y006990D01*
X008653Y006882D01*
X009020Y006882D01*
X009020Y006864D01*
X008653Y006864D01*
X008653Y006756D01*
X008663Y006720D01*
X008681Y006689D01*
X008683Y006686D01*
X008683Y006429D01*
X008681Y006427D01*
X008663Y006395D01*
X008653Y006360D01*
X008653Y006252D01*
X009020Y006252D01*
X009020Y006234D01*
X008741Y006234D01*
X008653Y006298D02*
X008539Y006298D01*
X008535Y006376D02*
X008658Y006376D01*
X008683Y006455D02*
X008539Y006455D01*
X008539Y006533D02*
X008683Y006533D01*
X008683Y006612D02*
X008539Y006612D01*
X008535Y006690D02*
X008680Y006690D01*
X008653Y006769D02*
X008539Y006769D01*
X008539Y006848D02*
X008653Y006848D01*
X008653Y006926D02*
X008539Y006926D01*
X008535Y007005D02*
X008657Y007005D01*
X008653Y007083D02*
X008509Y007083D01*
X008509Y007162D02*
X008653Y007162D01*
X009020Y007162D02*
X009039Y007162D01*
X009039Y007178D02*
X009039Y007111D01*
X009039Y006882D01*
X009020Y006882D01*
X009020Y007111D01*
X009020Y007178D01*
X009039Y007178D01*
X009029Y007188D02*
X009029Y006873D01*
X009020Y006926D02*
X009039Y006926D01*
X009039Y007005D02*
X009020Y007005D01*
X009020Y007083D02*
X009039Y007083D01*
X009029Y007503D02*
X009069Y007542D01*
X009029Y007503D02*
X008990Y007542D01*
X009484Y008026D02*
X009658Y008026D01*
X009625Y007947D02*
X009562Y007947D01*
X009713Y008104D02*
X009405Y008104D01*
X009399Y008183D02*
X009803Y008183D01*
X009889Y008261D02*
X009399Y008261D01*
X009399Y008340D02*
X009749Y008340D01*
X009673Y008418D02*
X009379Y008418D01*
X009352Y008497D02*
X009640Y008497D01*
X009616Y008575D02*
X009399Y008575D01*
X009399Y008654D02*
X009616Y008654D01*
X009625Y008733D02*
X009399Y008733D01*
X008882Y008968D02*
X008772Y008968D01*
X008772Y008890D02*
X008824Y008890D01*
X008824Y008811D02*
X008772Y008811D01*
X008772Y008733D02*
X008824Y008733D01*
X008824Y008654D02*
X008772Y008654D01*
X008772Y008575D02*
X008824Y008575D01*
X008871Y008497D02*
X008772Y008497D01*
X008829Y008418D02*
X008844Y008418D01*
X008452Y008497D02*
X006383Y008497D01*
X006240Y008497D02*
X006112Y008497D01*
X006314Y008811D02*
X006710Y008811D01*
X006677Y008890D02*
X006406Y008890D01*
X006485Y008968D02*
X006677Y008968D01*
X006677Y009047D02*
X006563Y009047D01*
X006572Y009125D02*
X006677Y009125D01*
X006730Y009204D02*
X006572Y009204D01*
X006572Y009282D02*
X007379Y009282D01*
X007376Y009204D02*
X007317Y009204D01*
X007370Y009125D02*
X007376Y009125D01*
X007370Y009047D02*
X007376Y009047D01*
X007426Y009361D02*
X006572Y009361D01*
X006572Y009439D02*
X007411Y009439D01*
X007406Y009518D02*
X006572Y009518D01*
X006572Y009597D02*
X006677Y009597D01*
X006677Y009675D02*
X006572Y009675D01*
X006506Y009754D02*
X006677Y009754D01*
X006677Y009832D02*
X006427Y009832D01*
X006334Y009911D02*
X006689Y009911D01*
X006720Y010207D02*
X007205Y010207D01*
X007270Y010271D01*
X007270Y011071D01*
X007205Y011136D01*
X006725Y011136D01*
X006630Y011231D01*
X006630Y011652D01*
X006655Y011652D01*
X006720Y011717D01*
X006794Y011717D01*
X006810Y011733D02*
X006734Y011657D01*
X006684Y011537D01*
X006684Y011406D01*
X006734Y011285D01*
X006826Y011193D01*
X006946Y011143D01*
X007077Y011143D01*
X007197Y011193D01*
X007290Y011285D01*
X007340Y011406D01*
X007340Y011537D01*
X007290Y011657D01*
X007270Y011677D01*
X007310Y011717D01*
X007352Y011717D01*
X007310Y011717D02*
X007310Y012398D01*
X007245Y012462D01*
X006874Y012462D01*
X006810Y012398D01*
X006810Y011733D01*
X006810Y011796D02*
X006720Y011796D01*
X006720Y011874D02*
X006810Y011874D01*
X006810Y011953D02*
X006720Y011953D01*
X006720Y012031D02*
X006810Y012031D01*
X006810Y012110D02*
X006720Y012110D01*
X006720Y012188D02*
X006810Y012188D01*
X006810Y012267D02*
X006720Y012267D01*
X006720Y012346D02*
X006810Y012346D01*
X006836Y012424D02*
X006693Y012424D01*
X006711Y012447D02*
X006603Y012492D01*
X006520Y012575D01*
X006475Y012684D01*
X006475Y012801D01*
X006520Y012909D01*
X006603Y012992D01*
X006711Y013037D01*
X006828Y013037D01*
X006937Y012992D01*
X007020Y012909D01*
X007065Y012801D01*
X007065Y012684D01*
X007020Y012575D01*
X006937Y012492D01*
X006828Y012447D01*
X006711Y012447D01*
X006720Y012398D02*
X006655Y012462D01*
X006284Y012462D01*
X006230Y012408D01*
X006230Y012513D01*
X006165Y012577D01*
X005684Y012577D01*
X005620Y012513D01*
X005620Y012102D01*
X005684Y012037D01*
X006165Y012037D01*
X006220Y012092D01*
X006220Y011717D01*
X000332Y011717D01*
X000332Y011639D02*
X003146Y011639D01*
X003135Y011632D02*
X003167Y011651D01*
X003203Y011660D01*
X003378Y011660D01*
X003378Y010655D01*
X003458Y010655D01*
X003458Y011660D01*
X003633Y011660D01*
X003669Y011651D01*
X003701Y011632D01*
X003727Y011606D01*
X003745Y011574D01*
X003755Y011539D01*
X003755Y010655D01*
X003458Y010655D01*
X003458Y010575D01*
X003755Y010575D01*
X003755Y009691D01*
X003745Y009655D01*
X003727Y009623D01*
X003701Y009597D01*
X003669Y009579D01*
X003633Y009569D01*
X003458Y009569D01*
X003458Y010574D01*
X003378Y010574D01*
X003378Y009569D01*
X003203Y009569D01*
X003167Y009579D01*
X003135Y009597D01*
X003109Y009623D01*
X003091Y009655D01*
X003081Y009691D01*
X003081Y010575D01*
X003378Y010575D01*
X003378Y010655D01*
X003081Y010655D01*
X003081Y011539D01*
X003091Y011574D01*
X003109Y011606D01*
X003135Y011632D01*
X003087Y011560D02*
X000332Y011560D01*
X000332Y011482D02*
X003081Y011482D01*
X003081Y011403D02*
X000332Y011403D01*
X000332Y011324D02*
X001123Y011324D01*
X001122Y011324D02*
X001013Y011215D01*
X000954Y011073D01*
X000954Y010919D01*
X001013Y010776D01*
X001122Y010667D01*
X001264Y010608D01*
X001419Y010608D01*
X001561Y010667D01*
X001670Y010776D01*
X001729Y010919D01*
X001729Y011073D01*
X001670Y011215D01*
X001561Y011324D01*
X001419Y011383D01*
X001264Y011383D01*
X001122Y011324D01*
X001044Y011246D02*
X000332Y011246D01*
X000332Y011167D02*
X000993Y011167D01*
X000961Y011089D02*
X000332Y011089D01*
X000332Y011010D02*
X000954Y011010D01*
X000954Y010932D02*
X000332Y010932D01*
X000332Y010853D02*
X000981Y010853D01*
X001015Y010775D02*
X000332Y010775D01*
X000332Y010696D02*
X001093Y010696D01*
X001122Y010537D02*
X001264Y010596D01*
X001419Y010596D01*
X001561Y010537D01*
X001670Y010428D01*
X001729Y010285D01*
X001729Y010131D01*
X001670Y009989D01*
X001561Y009880D01*
X001419Y009821D01*
X001264Y009821D01*
X001122Y009880D01*
X001013Y009989D01*
X000954Y010131D01*
X000954Y010285D01*
X001013Y010428D01*
X001122Y010537D01*
X001128Y010539D02*
X000332Y010539D01*
X000332Y010461D02*
X001046Y010461D01*
X000994Y010382D02*
X000332Y010382D01*
X000332Y010303D02*
X000962Y010303D01*
X000954Y010225D02*
X000332Y010225D01*
X000332Y010146D02*
X000954Y010146D01*
X000980Y010068D02*
X000332Y010068D01*
X000332Y009989D02*
X001013Y009989D01*
X001091Y009911D02*
X000332Y009911D01*
X000332Y009832D02*
X001237Y009832D01*
X001264Y009808D02*
X001122Y009749D01*
X001013Y009640D01*
X000954Y009498D01*
X000954Y009344D01*
X001013Y009201D01*
X001122Y009092D01*
X001264Y009033D01*
X001419Y009033D01*
X001561Y009092D01*
X001670Y009201D01*
X001729Y009344D01*
X001729Y009498D01*
X001670Y009640D01*
X001561Y009749D01*
X001419Y009808D01*
X001264Y009808D01*
X001132Y009754D02*
X000332Y009754D01*
X000332Y009675D02*
X001048Y009675D01*
X000995Y009597D02*
X000332Y009597D01*
X000332Y009518D02*
X000962Y009518D01*
X000954Y009439D02*
X000332Y009439D01*
X000332Y009361D02*
X000954Y009361D01*
X000980Y009282D02*
X000332Y009282D01*
X000332Y009204D02*
X001012Y009204D01*
X001089Y009125D02*
X000332Y009125D01*
X000332Y009047D02*
X001232Y009047D01*
X001264Y009021D02*
X001122Y008962D01*
X001013Y008853D01*
X000954Y008711D01*
X000954Y008556D01*
X001013Y008414D01*
X001122Y008305D01*
X001264Y008246D01*
X001419Y008246D01*
X001561Y008305D01*
X001670Y008414D01*
X001729Y008556D01*
X001729Y008711D01*
X001670Y008853D01*
X001561Y008962D01*
X001419Y009021D01*
X001264Y009021D01*
X001137Y008968D02*
X000332Y008968D01*
X000332Y008890D02*
X001050Y008890D01*
X000996Y008811D02*
X000332Y008811D01*
X000332Y008733D02*
X000963Y008733D01*
X000954Y008654D02*
X000332Y008654D01*
X000332Y008575D02*
X000954Y008575D01*
X000979Y008497D02*
X000332Y008497D01*
X000332Y008418D02*
X001011Y008418D01*
X001087Y008340D02*
X000332Y008340D01*
X000332Y008261D02*
X001228Y008261D01*
X001264Y008234D02*
X001122Y008175D01*
X001013Y008066D01*
X000954Y007923D01*
X000954Y007769D01*
X001013Y007627D01*
X001122Y007518D01*
X001264Y007459D01*
X001419Y007459D01*
X001561Y007518D01*
X001670Y007627D01*
X001729Y007769D01*
X001729Y007923D01*
X001670Y008066D01*
X001561Y008175D01*
X001419Y008234D01*
X001264Y008234D01*
X001142Y008183D02*
X000332Y008183D01*
X000332Y008104D02*
X001052Y008104D01*
X000997Y008026D02*
X000332Y008026D01*
X000332Y007947D02*
X000964Y007947D01*
X000954Y007869D02*
X000332Y007869D01*
X000332Y007790D02*
X000954Y007790D01*
X000978Y007711D02*
X000332Y007711D01*
X000332Y007633D02*
X001010Y007633D01*
X001085Y007554D02*
X000332Y007554D01*
X000332Y007476D02*
X001223Y007476D01*
X001264Y007446D02*
X001122Y007387D01*
X001013Y007278D01*
X000954Y007136D01*
X000954Y006982D01*
X001013Y006839D01*
X001122Y006730D01*
X001264Y006671D01*
X001419Y006671D01*
X001561Y006730D01*
X001670Y006839D01*
X001729Y006982D01*
X001729Y007136D01*
X001670Y007278D01*
X001561Y007387D01*
X001419Y007446D01*
X001264Y007446D01*
X001147Y007397D02*
X000332Y007397D01*
X000332Y007319D02*
X001054Y007319D01*
X000997Y007240D02*
X000332Y007240D01*
X000332Y007162D02*
X000965Y007162D01*
X000954Y007083D02*
X000332Y007083D01*
X000332Y007005D02*
X000954Y007005D01*
X000977Y006926D02*
X000332Y006926D01*
X000332Y006848D02*
X001010Y006848D01*
X001083Y006769D02*
X000332Y006769D01*
X000332Y006690D02*
X001218Y006690D01*
X001151Y006612D02*
X000332Y006612D01*
X000332Y006533D02*
X001056Y006533D01*
X000998Y006455D02*
X000332Y006455D01*
X000332Y006376D02*
X000966Y006376D01*
X000954Y006298D02*
X000332Y006298D01*
X000332Y006219D02*
X000954Y006219D01*
X000976Y006141D02*
X000332Y006141D01*
X000332Y006062D02*
X001009Y006062D01*
X001081Y005984D02*
X000332Y005984D01*
X000332Y005905D02*
X001213Y005905D01*
X001156Y005826D02*
X000332Y005826D01*
X000332Y005748D02*
X001058Y005748D01*
X000999Y005669D02*
X000332Y005669D01*
X000332Y005591D02*
X000966Y005591D01*
X000954Y005512D02*
X000332Y005512D01*
X000332Y005434D02*
X000954Y005434D01*
X000975Y005355D02*
X000332Y005355D01*
X000332Y005277D02*
X001008Y005277D01*
X001079Y005198D02*
X000332Y005198D01*
X000332Y005120D02*
X001209Y005120D01*
X001161Y005041D02*
X000332Y005041D01*
X000332Y004962D02*
X001060Y004962D01*
X001000Y004884D02*
X000332Y004884D01*
X000332Y004805D02*
X000967Y004805D01*
X000954Y004727D02*
X000332Y004727D01*
X000332Y004648D02*
X000954Y004648D01*
X000975Y004570D02*
X000332Y004570D01*
X000332Y004491D02*
X001007Y004491D01*
X001077Y004413D02*
X000332Y004413D01*
X000332Y004334D02*
X001204Y004334D01*
X001108Y004256D02*
X000332Y004256D01*
X000332Y004177D02*
X001020Y004177D01*
X000970Y004099D02*
X000332Y004099D01*
X000332Y004020D02*
X000939Y004020D01*
X000925Y003870D02*
X000934Y003811D01*
X000955Y003749D01*
X000985Y003690D01*
X001023Y003637D01*
X001070Y003591D01*
X001123Y003552D01*
X001181Y003522D01*
X001244Y003502D01*
X001303Y003493D01*
X001303Y003870D01*
X000925Y003870D01*
X000926Y003863D02*
X000332Y003863D01*
X000332Y003941D02*
X001303Y003941D01*
X001381Y003941D02*
X001893Y003941D01*
X001891Y004020D02*
X001745Y004020D01*
X001714Y004099D02*
X002336Y004099D01*
X002394Y004099D02*
X002829Y004099D01*
X002840Y004076D02*
X002840Y003976D01*
X002931Y004067D01*
X002860Y004067D01*
X002796Y004131D01*
X002796Y004134D01*
X002394Y004134D01*
X002394Y004076D01*
X002840Y004076D01*
X002840Y004020D02*
X002884Y004020D01*
X003101Y003784D02*
X003352Y003784D01*
X003352Y003706D02*
X003022Y003706D01*
X002944Y003627D02*
X003352Y003627D01*
X003352Y003549D02*
X002865Y003549D01*
X002810Y003470D02*
X003352Y003470D01*
X003352Y003392D02*
X002752Y003392D01*
X003213Y002999D02*
X000332Y002999D01*
X000332Y003077D02*
X003291Y003077D01*
X003352Y003156D02*
X000332Y003156D01*
X000332Y003235D02*
X003352Y003235D01*
X003352Y003313D02*
X000332Y003313D01*
X000332Y003392D02*
X001978Y003392D01*
X001921Y003470D02*
X000332Y003470D01*
X000332Y003549D02*
X001129Y003549D01*
X001033Y003627D02*
X000332Y003627D01*
X000332Y003706D02*
X000977Y003706D01*
X000943Y003784D02*
X000332Y003784D01*
X000332Y002920D02*
X003134Y002920D01*
X003056Y002842D02*
X000332Y002842D01*
X000332Y002763D02*
X002977Y002763D01*
X002899Y002685D02*
X000332Y002685D01*
X000332Y002606D02*
X001420Y002606D01*
X001342Y002528D02*
X000332Y002528D01*
X000332Y002449D02*
X001263Y002449D01*
X001185Y002371D02*
X000963Y002371D01*
X001041Y002292D02*
X001106Y002292D01*
X000752Y002292D02*
X000672Y002292D01*
X000672Y002371D02*
X000752Y002371D01*
X000752Y002213D02*
X000672Y002213D01*
X000672Y002135D02*
X000752Y002135D01*
X000752Y002056D02*
X000672Y002056D01*
X000672Y001931D02*
X000752Y001931D01*
X000752Y001511D01*
X000902Y001511D01*
X001052Y001661D01*
X001052Y001538D01*
X000903Y001388D01*
X000890Y001401D01*
X000534Y001401D01*
X000332Y001199D01*
X000332Y001701D01*
X000521Y001511D01*
X000672Y001511D01*
X000672Y001931D01*
X000672Y001899D02*
X000752Y001899D01*
X000752Y001821D02*
X000672Y001821D01*
X000672Y001742D02*
X000752Y001742D01*
X000752Y001664D02*
X000672Y001664D01*
X000672Y001585D02*
X000752Y001585D01*
X000942Y001428D02*
X000332Y001428D01*
X000332Y001349D02*
X000482Y001349D01*
X000403Y001271D02*
X000332Y001271D01*
X000332Y001507D02*
X001021Y001507D01*
X001052Y001585D02*
X000976Y001585D01*
X001237Y001271D02*
X001403Y001271D01*
X001325Y001192D02*
X001159Y001192D01*
X001142Y001114D02*
X001282Y001114D01*
X001282Y001035D02*
X001142Y001035D01*
X001142Y000957D02*
X001282Y000957D01*
X001282Y000878D02*
X001142Y000878D01*
X001142Y000800D02*
X001282Y000800D01*
X001354Y000721D02*
X001070Y000721D01*
X000991Y000643D02*
X001432Y000643D01*
X001511Y000564D02*
X000912Y000564D01*
X001316Y001349D02*
X001482Y001349D01*
X001372Y001428D02*
X001884Y001428D01*
X001884Y001507D02*
X001372Y001507D01*
X001372Y001585D02*
X001447Y001585D01*
X001672Y001585D02*
X001752Y001585D01*
X001752Y001664D02*
X001672Y001664D01*
X001672Y001742D02*
X001752Y001742D01*
X001752Y001821D02*
X001672Y001821D01*
X001672Y001899D02*
X001752Y001899D01*
X001752Y001978D02*
X002282Y001978D01*
X002282Y002056D02*
X002172Y002056D01*
X002172Y002135D02*
X002282Y002135D01*
X002346Y002213D02*
X002120Y002213D01*
X002041Y002292D02*
X002424Y002292D01*
X002282Y001899D02*
X002172Y001899D01*
X002172Y001821D02*
X002282Y001821D01*
X002540Y001507D02*
X003052Y001507D01*
X003052Y001585D02*
X002933Y001585D01*
X003012Y001664D02*
X003052Y001664D01*
X003052Y001428D02*
X002540Y001428D01*
X002282Y001114D02*
X002142Y001114D01*
X002142Y001035D02*
X002282Y001035D01*
X002282Y000957D02*
X002142Y000957D01*
X002142Y000878D02*
X002282Y000878D01*
X002282Y000800D02*
X002142Y000800D01*
X002070Y000721D02*
X002354Y000721D01*
X002432Y000643D02*
X001991Y000643D01*
X001912Y000564D02*
X002511Y000564D01*
X002912Y000564D02*
X003511Y000564D01*
X003432Y000643D02*
X002991Y000643D01*
X003070Y000721D02*
X003354Y000721D01*
X003282Y000800D02*
X003142Y000800D01*
X003142Y000878D02*
X003282Y000878D01*
X003282Y000957D02*
X003142Y000957D01*
X003142Y001035D02*
X003282Y001035D01*
X003282Y001114D02*
X003142Y001114D01*
X003099Y001192D02*
X003264Y001192D01*
X003186Y001271D02*
X003020Y001271D01*
X002942Y001349D02*
X003107Y001349D01*
X003403Y001507D02*
X004052Y001507D01*
X004052Y001585D02*
X003933Y001585D01*
X004012Y001664D02*
X004052Y001664D01*
X004052Y001428D02*
X003481Y001428D01*
X003490Y001585D02*
X003372Y001585D01*
X003372Y001664D02*
X003411Y001664D01*
X003942Y001349D02*
X004107Y001349D01*
X004186Y001271D02*
X004020Y001271D01*
X004099Y001192D02*
X004264Y001192D01*
X004282Y001114D02*
X004142Y001114D01*
X004142Y001035D02*
X004282Y001035D01*
X004282Y000957D02*
X004142Y000957D01*
X004142Y000878D02*
X004282Y000878D01*
X004282Y000800D02*
X004142Y000800D01*
X004070Y000721D02*
X004354Y000721D01*
X004432Y000643D02*
X003991Y000643D01*
X003912Y000564D02*
X004511Y000564D01*
X004912Y000564D02*
X005511Y000564D01*
X005432Y000643D02*
X004991Y000643D01*
X005070Y000721D02*
X005354Y000721D01*
X005282Y000800D02*
X005142Y000800D01*
X005142Y000878D02*
X005282Y000878D01*
X005282Y000957D02*
X005142Y000957D01*
X005142Y001035D02*
X005282Y001035D01*
X005282Y001114D02*
X005142Y001114D01*
X005099Y001192D02*
X005264Y001192D01*
X005186Y001271D02*
X005020Y001271D01*
X004942Y001349D02*
X005107Y001349D01*
X005052Y001428D02*
X004481Y001428D01*
X004403Y001507D02*
X005052Y001507D01*
X005052Y001585D02*
X004933Y001585D01*
X005012Y001664D02*
X005052Y001664D01*
X004490Y001585D02*
X004372Y001585D01*
X004372Y001664D02*
X004411Y001664D01*
X003352Y003863D02*
X003179Y003863D01*
X003258Y003941D02*
X003352Y003941D01*
X003352Y004020D02*
X003315Y004020D01*
X003515Y004334D02*
X003548Y004334D01*
X003515Y004413D02*
X003627Y004413D01*
X003705Y004491D02*
X003515Y004491D01*
X003515Y004570D02*
X003784Y004570D01*
X003862Y004648D02*
X003515Y004648D01*
X003515Y004727D02*
X003941Y004727D01*
X004019Y004805D02*
X003515Y004805D01*
X003515Y004884D02*
X004098Y004884D01*
X004177Y004962D02*
X003515Y004962D01*
X003520Y005041D02*
X004255Y005041D01*
X004346Y005120D02*
X003545Y005120D01*
X003545Y005198D02*
X004424Y005198D01*
X004954Y004805D02*
X006176Y004805D01*
X006146Y005434D02*
X005763Y005434D01*
X005779Y005512D02*
X006146Y005512D01*
X006146Y005591D02*
X005857Y005591D01*
X005936Y005669D02*
X006146Y005669D01*
X006155Y005711D02*
X006155Y005711D01*
X005441Y004727D02*
X005032Y004727D01*
X005111Y004648D02*
X005362Y004648D01*
X007035Y005355D02*
X007127Y005355D01*
X007131Y005277D02*
X007114Y005277D01*
X007545Y005748D02*
X007853Y005748D01*
X007735Y005669D02*
X008002Y005669D01*
X008002Y005591D02*
X007761Y005591D01*
X007761Y005512D02*
X008002Y005512D01*
X007630Y005826D02*
X007577Y005826D01*
X007788Y006121D02*
X007172Y006738D01*
X007172Y007105D01*
X007172Y007238D01*
X006872Y007538D01*
X006798Y007611D01*
X007323Y007611D01*
X007334Y007585D01*
X007426Y007493D01*
X007546Y007443D01*
X007677Y007443D01*
X007797Y007493D01*
X007817Y007513D01*
X007817Y007359D01*
X007831Y007345D01*
X007817Y007332D01*
X007817Y007059D01*
X007815Y007057D01*
X007797Y007025D01*
X007787Y006990D01*
X007787Y006882D01*
X008154Y006882D01*
X008154Y006864D01*
X007787Y006864D01*
X007787Y006756D01*
X007797Y006720D01*
X007799Y006715D01*
X007797Y006710D01*
X007787Y006675D01*
X007787Y006567D01*
X008154Y006567D01*
X008154Y006549D01*
X007787Y006549D01*
X007787Y006441D01*
X007797Y006405D01*
X007799Y006400D01*
X007797Y006395D01*
X007787Y006360D01*
X007787Y006252D01*
X008154Y006252D01*
X008154Y006234D01*
X007787Y006234D01*
X007787Y006126D01*
X007788Y006121D01*
X007787Y006141D02*
X007769Y006141D01*
X007787Y006219D02*
X007690Y006219D01*
X007611Y006298D02*
X007787Y006298D01*
X007791Y006376D02*
X007533Y006376D01*
X007454Y006455D02*
X007787Y006455D01*
X007787Y006533D02*
X007376Y006533D01*
X007297Y006612D02*
X007787Y006612D01*
X007791Y006690D02*
X007219Y006690D01*
X007172Y006769D02*
X007787Y006769D01*
X007787Y006848D02*
X007172Y006848D01*
X007172Y006926D02*
X007787Y006926D01*
X007791Y007005D02*
X007172Y007005D01*
X007172Y007083D02*
X007817Y007083D01*
X007817Y007162D02*
X007172Y007162D01*
X007169Y007240D02*
X007817Y007240D01*
X007817Y007319D02*
X007090Y007319D01*
X007012Y007397D02*
X007817Y007397D01*
X007817Y007476D02*
X007756Y007476D01*
X007468Y007476D02*
X006933Y007476D01*
X006855Y007554D02*
X007365Y007554D01*
X008154Y006863D02*
X008172Y006863D01*
X008172Y006796D01*
X008172Y006567D01*
X008154Y006567D01*
X008154Y006796D01*
X008154Y006863D01*
X008154Y006848D02*
X008172Y006848D01*
X008172Y006769D02*
X008154Y006769D01*
X008154Y006690D02*
X008172Y006690D01*
X008172Y006612D02*
X008154Y006612D01*
X008154Y006548D02*
X008172Y006548D01*
X008172Y006481D01*
X008172Y006252D01*
X008154Y006252D01*
X008154Y006481D01*
X008154Y006548D01*
X008154Y006533D02*
X008172Y006533D01*
X008172Y006455D02*
X008154Y006455D01*
X008154Y006376D02*
X008172Y006376D01*
X008172Y006298D02*
X008154Y006298D01*
X009339Y005748D02*
X009719Y005748D01*
X009817Y005826D02*
X009443Y005826D01*
X009522Y005905D02*
X009875Y005905D01*
X009743Y005984D02*
X009572Y005984D01*
X009572Y006062D02*
X009670Y006062D01*
X009638Y006141D02*
X009572Y006141D01*
X009572Y006219D02*
X009616Y006219D01*
X009616Y006298D02*
X009572Y006298D01*
X009572Y006376D02*
X009627Y006376D01*
X009660Y006455D02*
X009572Y006455D01*
X009550Y006533D02*
X009717Y006533D01*
X009813Y006612D02*
X009572Y006612D01*
X009572Y006690D02*
X009880Y006690D01*
X009745Y006769D02*
X009572Y006769D01*
X009572Y006848D02*
X009671Y006848D01*
X009639Y006926D02*
X009572Y006926D01*
X009572Y007005D02*
X009616Y007005D01*
X009616Y007083D02*
X009572Y007083D01*
X009572Y007162D02*
X009626Y007162D01*
X009595Y007240D02*
X009572Y007240D01*
X009812Y007476D02*
X009884Y007476D01*
X009747Y007554D02*
X009734Y007554D01*
X009672Y007633D02*
X009672Y007633D01*
X008395Y008418D02*
X006529Y008418D01*
X006597Y008340D02*
X008326Y008340D01*
X008217Y009911D02*
X009352Y009911D01*
X009352Y009989D02*
X008217Y009989D01*
X008196Y010068D02*
X009352Y010068D01*
X009352Y010146D02*
X008213Y010146D01*
X008291Y010225D02*
X009352Y010225D01*
X009352Y010303D02*
X008370Y010303D01*
X008449Y010382D02*
X009352Y010382D01*
X009352Y010461D02*
X008472Y010461D01*
X008556Y010539D02*
X009352Y010539D01*
X009352Y010618D02*
X008599Y010618D01*
X008599Y010696D02*
X009352Y010696D01*
X009352Y010775D02*
X008599Y010775D01*
X008599Y010853D02*
X009352Y010853D01*
X009352Y010932D02*
X008599Y010932D01*
X008537Y011010D02*
X009352Y011010D01*
X009352Y011089D02*
X009233Y011089D01*
X009208Y011078D02*
X009318Y011124D01*
X009402Y011208D01*
X009448Y011319D01*
X009448Y011438D01*
X009402Y011548D01*
X009318Y011633D01*
X009208Y011678D01*
X009088Y011678D01*
X008978Y011633D01*
X008894Y011548D01*
X008848Y011438D01*
X008848Y011319D01*
X008894Y011208D01*
X008978Y011124D01*
X009088Y011078D01*
X009208Y011078D01*
X009361Y011167D02*
X009381Y011167D01*
X009418Y011246D02*
X009460Y011246D01*
X009448Y011324D02*
X009539Y011324D01*
X009552Y011403D02*
X009448Y011403D01*
X009430Y011482D02*
X009552Y011482D01*
X009552Y011560D02*
X009390Y011560D01*
X009303Y011639D02*
X009552Y011639D01*
X009552Y011717D02*
X009038Y011717D01*
X008993Y011639D02*
X008960Y011639D01*
X008906Y011560D02*
X008881Y011560D01*
X008866Y011482D02*
X008803Y011482D01*
X008848Y011403D02*
X008724Y011403D01*
X008646Y011324D02*
X008848Y011324D01*
X008878Y011246D02*
X008599Y011246D01*
X008599Y011167D02*
X008934Y011167D01*
X009063Y011089D02*
X008594Y011089D01*
X008429Y011560D02*
X007822Y011560D01*
X007771Y011639D02*
X008507Y011639D01*
X008490Y011717D02*
X008490Y012398D01*
X008425Y012462D01*
X008054Y012462D01*
X007990Y012398D01*
X007990Y011717D01*
X007692Y011717D01*
X007672Y011796D02*
X007990Y011796D01*
X007990Y011874D02*
X007672Y011874D01*
X007672Y011953D02*
X007990Y011953D01*
X007990Y012031D02*
X007672Y012031D01*
X007672Y012110D02*
X007990Y012110D01*
X007990Y012188D02*
X007672Y012188D01*
X007672Y012267D02*
X007990Y012267D01*
X007990Y012346D02*
X007672Y012346D01*
X007672Y012424D02*
X008016Y012424D01*
X008127Y012503D02*
X008490Y012503D01*
X008490Y012424D02*
X008463Y012424D01*
X008490Y012346D02*
X008490Y012346D01*
X008490Y012267D02*
X008490Y012267D01*
X008490Y012188D02*
X008490Y012188D01*
X008490Y012110D02*
X008490Y012110D01*
X008490Y012031D02*
X008900Y012031D01*
X008822Y011953D02*
X008490Y011953D01*
X008490Y011874D02*
X008743Y011874D01*
X008665Y011796D02*
X008490Y011796D01*
X008490Y011717D02*
X008586Y011717D01*
X008490Y011717D02*
X008425Y011652D01*
X008054Y011652D01*
X007990Y011717D01*
X008045Y011482D02*
X007928Y011482D01*
X007949Y011403D02*
X008024Y011403D01*
X008024Y011324D02*
X007949Y011324D01*
X007949Y011246D02*
X008024Y011246D01*
X008024Y011167D02*
X007949Y011167D01*
X007944Y011089D02*
X008029Y011089D01*
X008086Y011010D02*
X007887Y011010D01*
X007949Y010932D02*
X008024Y010932D01*
X008024Y010853D02*
X007949Y010853D01*
X007949Y010775D02*
X008024Y010775D01*
X008024Y010696D02*
X007949Y010696D01*
X007949Y010618D02*
X008024Y010618D01*
X008067Y010539D02*
X007906Y010539D01*
X007909Y010461D02*
X008075Y010461D01*
X007996Y010382D02*
X007940Y010382D01*
X007365Y010539D02*
X007270Y010539D01*
X007270Y010461D02*
X007314Y010461D01*
X007284Y010382D02*
X007270Y010382D01*
X007270Y010303D02*
X007284Y010303D01*
X007296Y010225D02*
X007223Y010225D01*
X007329Y010146D02*
X006160Y010146D01*
X006160Y010068D02*
X007401Y010068D01*
X007406Y009989D02*
X006160Y009989D01*
X006160Y010225D02*
X006703Y010225D01*
X006720Y010207D02*
X006656Y010271D01*
X006656Y010752D01*
X006310Y011098D01*
X006310Y011231D01*
X006310Y011652D01*
X006284Y011652D01*
X006220Y011717D01*
X006220Y011796D02*
X001640Y011796D01*
X001775Y011874D02*
X006220Y011874D01*
X006220Y011953D02*
X005575Y011953D01*
X005575Y012031D02*
X006220Y012031D01*
X006230Y012424D02*
X006246Y012424D01*
X006230Y012503D02*
X006592Y012503D01*
X006517Y012581D02*
X005575Y012581D01*
X005575Y012503D02*
X005620Y012503D01*
X005620Y012424D02*
X005575Y012424D01*
X005575Y012346D02*
X005620Y012346D01*
X005620Y012267D02*
X005575Y012267D01*
X005575Y012188D02*
X005620Y012188D01*
X005620Y012110D02*
X005575Y012110D01*
X005575Y012660D02*
X006485Y012660D01*
X006475Y012738D02*
X005575Y012738D01*
X005575Y012817D02*
X006481Y012817D01*
X006514Y012895D02*
X005575Y012895D01*
X005575Y012974D02*
X005620Y012974D01*
X005620Y013052D02*
X005575Y013052D01*
X005575Y013131D02*
X005620Y013131D01*
X005620Y013210D02*
X005575Y013210D01*
X005575Y013288D02*
X005620Y013288D01*
X005620Y013367D02*
X005575Y013367D01*
X006230Y013367D02*
X008490Y013367D01*
X008490Y013288D02*
X008271Y013288D01*
X008350Y013210D02*
X008490Y013210D01*
X008490Y013131D02*
X008428Y013131D01*
X008211Y012895D02*
X008206Y012895D01*
X008238Y012817D02*
X008290Y012817D01*
X008245Y012738D02*
X008368Y012738D01*
X008447Y012660D02*
X008235Y012660D01*
X008202Y012581D02*
X009449Y012581D01*
X009449Y012660D02*
X009326Y012660D01*
X009405Y012738D02*
X009449Y012738D01*
X009562Y012895D02*
X010071Y012895D01*
X010015Y012817D02*
X009984Y012817D01*
X009984Y012738D02*
X010009Y012738D01*
X009984Y012660D02*
X010268Y012660D01*
X010268Y012919D01*
X010268Y013132D01*
X010346Y013132D01*
X010346Y012919D01*
X010346Y012660D01*
X010268Y012660D01*
X010268Y012582D02*
X010346Y012582D01*
X010346Y012324D01*
X010346Y012100D01*
X010268Y012100D01*
X010268Y012324D01*
X010268Y012582D01*
X010268Y012581D02*
X010346Y012581D01*
X010346Y012503D02*
X010268Y012503D01*
X010268Y012424D02*
X010346Y012424D01*
X010346Y012346D02*
X010268Y012346D01*
X010268Y012267D02*
X010346Y012267D01*
X010346Y012188D02*
X010268Y012188D01*
X010268Y012110D02*
X010346Y012110D01*
X010268Y012031D02*
X009984Y012031D01*
X009984Y011953D02*
X010009Y011953D01*
X010012Y011874D02*
X009984Y011874D01*
X009921Y011796D02*
X010060Y011796D01*
X009872Y011717D02*
X010525Y011717D01*
X010525Y011639D02*
X009872Y011639D01*
X009872Y011560D02*
X010525Y011560D01*
X010525Y011482D02*
X009872Y011482D01*
X009872Y011403D02*
X010525Y011403D01*
X010525Y011324D02*
X010222Y011324D01*
X010301Y011246D02*
X010525Y011246D01*
X010525Y011167D02*
X010351Y011167D01*
X010384Y011089D02*
X010525Y011089D01*
X010525Y011010D02*
X010390Y011010D01*
X010390Y010932D02*
X010525Y010932D01*
X010525Y010853D02*
X010363Y010853D01*
X010330Y010775D02*
X010525Y010775D01*
X010525Y010696D02*
X010251Y010696D01*
X010103Y010618D02*
X010525Y010618D01*
X010525Y010539D02*
X010217Y010539D01*
X010299Y010461D02*
X010525Y010461D01*
X010525Y010382D02*
X010350Y010382D01*
X010383Y010303D02*
X010525Y010303D01*
X010525Y010225D02*
X010390Y010225D01*
X010390Y010146D02*
X010525Y010146D01*
X010525Y010068D02*
X010364Y010068D01*
X010332Y009989D02*
X010525Y009989D01*
X010525Y009911D02*
X010253Y009911D01*
X009789Y010539D02*
X009672Y010539D01*
X009672Y010461D02*
X009707Y010461D01*
X009672Y010618D02*
X009903Y010618D01*
X009755Y010696D02*
X009672Y010696D01*
X009672Y010775D02*
X009676Y010775D01*
X009511Y011796D02*
X009117Y011796D01*
X009196Y011874D02*
X009449Y011874D01*
X009449Y011953D02*
X009274Y011953D01*
X009353Y012031D02*
X009449Y012031D01*
X009449Y012110D02*
X009431Y012110D01*
X009214Y012346D02*
X009100Y012346D01*
X009100Y012424D02*
X009293Y012424D01*
X009371Y012503D02*
X009100Y012503D01*
X009100Y012267D02*
X009136Y012267D01*
X009667Y012346D02*
X010074Y012346D01*
X010017Y012267D02*
X009981Y012267D01*
X009984Y012188D02*
X010009Y012188D01*
X010009Y012110D02*
X009984Y012110D01*
X009984Y012424D02*
X010015Y012424D01*
X010009Y012503D02*
X009984Y012503D01*
X009984Y012581D02*
X010009Y012581D01*
X010268Y012738D02*
X010346Y012738D01*
X010346Y012817D02*
X010268Y012817D01*
X010268Y012895D02*
X010346Y012895D01*
X010346Y012974D02*
X010268Y012974D01*
X010268Y013052D02*
X010346Y013052D01*
X010346Y013131D02*
X010268Y013131D01*
X010268Y013210D02*
X009984Y013210D01*
X009984Y013288D02*
X010009Y013288D01*
X010015Y013367D02*
X009984Y013367D01*
X009984Y013131D02*
X010009Y013131D01*
X010009Y013052D02*
X009984Y013052D01*
X009984Y012974D02*
X010015Y012974D01*
X010268Y011953D02*
X010346Y011953D01*
X010346Y011874D02*
X010268Y011874D01*
X010268Y011796D02*
X010346Y011796D01*
X007772Y012503D02*
X007672Y012503D01*
X007672Y012581D02*
X007697Y012581D01*
X007416Y013052D02*
X006230Y013052D01*
X006230Y012974D02*
X006584Y012974D01*
X006230Y013131D02*
X007495Y013131D01*
X007574Y013210D02*
X006230Y013210D01*
X006230Y013288D02*
X007652Y013288D01*
X007352Y012974D02*
X006955Y012974D01*
X007026Y012895D02*
X007352Y012895D01*
X007352Y012817D02*
X007058Y012817D01*
X007065Y012738D02*
X007352Y012738D01*
X007352Y012660D02*
X007055Y012660D01*
X007022Y012581D02*
X007352Y012581D01*
X007352Y012503D02*
X006947Y012503D01*
X006720Y012398D02*
X006720Y011717D01*
X006726Y011639D02*
X006630Y011639D01*
X006630Y011560D02*
X006693Y011560D01*
X006684Y011482D02*
X006630Y011482D01*
X006630Y011403D02*
X006685Y011403D01*
X006717Y011324D02*
X006630Y011324D01*
X006630Y011246D02*
X006773Y011246D01*
X006693Y011167D02*
X006888Y011167D01*
X007135Y011167D02*
X007374Y011167D01*
X007379Y011089D02*
X007252Y011089D01*
X007270Y011010D02*
X007436Y011010D01*
X007374Y010932D02*
X007270Y010932D01*
X007270Y010853D02*
X007374Y010853D01*
X007374Y010775D02*
X007270Y010775D01*
X007270Y010696D02*
X007374Y010696D01*
X007374Y010618D02*
X007270Y010618D01*
X007250Y011246D02*
X007374Y011246D01*
X007374Y011324D02*
X007306Y011324D01*
X007338Y011403D02*
X007374Y011403D01*
X007396Y011482D02*
X007340Y011482D01*
X007330Y011560D02*
X007397Y011560D01*
X007352Y011639D02*
X007297Y011639D01*
X007310Y011796D02*
X007352Y011796D01*
X007352Y011874D02*
X007310Y011874D01*
X007310Y011953D02*
X007352Y011953D01*
X007352Y012031D02*
X007310Y012031D01*
X007310Y012110D02*
X007352Y012110D01*
X007352Y012188D02*
X007310Y012188D01*
X007310Y012267D02*
X007352Y012267D01*
X007352Y012346D02*
X007310Y012346D01*
X007283Y012424D02*
X007352Y012424D01*
X006310Y011639D02*
X003690Y011639D01*
X003749Y011560D02*
X003899Y011560D01*
X003899Y011566D02*
X003899Y009664D01*
X003963Y009599D01*
X004448Y009599D01*
X004512Y009664D01*
X004512Y010611D01*
X004573Y010611D01*
X004584Y010585D01*
X004676Y010493D01*
X004796Y010443D01*
X004927Y010443D01*
X005047Y010493D01*
X005140Y010585D01*
X005190Y010706D01*
X005190Y010837D01*
X005140Y010957D01*
X005047Y011049D01*
X004927Y011099D01*
X004796Y011099D01*
X004676Y011049D01*
X004584Y010957D01*
X004573Y010931D01*
X004512Y010931D01*
X004512Y011566D01*
X004448Y011630D01*
X003963Y011630D01*
X003899Y011566D01*
X003899Y011482D02*
X003755Y011482D01*
X003755Y011403D02*
X003899Y011403D01*
X003899Y011324D02*
X003755Y011324D01*
X003755Y011246D02*
X003899Y011246D01*
X003899Y011167D02*
X003755Y011167D01*
X003755Y011089D02*
X003899Y011089D01*
X003899Y011010D02*
X003755Y011010D01*
X003755Y010932D02*
X003899Y010932D01*
X003899Y010853D02*
X003755Y010853D01*
X003755Y010775D02*
X003899Y010775D01*
X003899Y010696D02*
X003755Y010696D01*
X003755Y010539D02*
X003899Y010539D01*
X003899Y010461D02*
X003755Y010461D01*
X003755Y010382D02*
X003899Y010382D01*
X003899Y010303D02*
X003755Y010303D01*
X003755Y010225D02*
X003899Y010225D01*
X003899Y010146D02*
X003755Y010146D01*
X003755Y010068D02*
X003899Y010068D01*
X003899Y009989D02*
X003755Y009989D01*
X003755Y009911D02*
X003899Y009911D01*
X003899Y009832D02*
X003755Y009832D01*
X003755Y009754D02*
X003899Y009754D01*
X003899Y009675D02*
X003751Y009675D01*
X003700Y009597D02*
X004706Y009597D01*
X004706Y009675D02*
X004512Y009675D01*
X004512Y009754D02*
X004706Y009754D01*
X004706Y009832D02*
X004512Y009832D01*
X004512Y009911D02*
X004706Y009911D01*
X004706Y009989D02*
X004512Y009989D01*
X004512Y010068D02*
X004727Y010068D01*
X004512Y010146D02*
X005286Y010146D01*
X005365Y010225D02*
X004512Y010225D01*
X004512Y010303D02*
X005444Y010303D01*
X005522Y010382D02*
X004512Y010382D01*
X004512Y010461D02*
X004755Y010461D01*
X004630Y010539D02*
X004512Y010539D01*
X004512Y010932D02*
X004573Y010932D01*
X004512Y011010D02*
X004637Y011010D01*
X004512Y011089D02*
X004771Y011089D01*
X004952Y011089D02*
X005571Y011089D01*
X005554Y011010D02*
X005087Y011010D01*
X005150Y010932D02*
X005554Y010932D01*
X005554Y010853D02*
X005183Y010853D01*
X005190Y010775D02*
X005554Y010775D01*
X005554Y010696D02*
X005186Y010696D01*
X005153Y010618D02*
X005554Y010618D01*
X005554Y010539D02*
X005093Y010539D01*
X004969Y010461D02*
X005554Y010461D01*
X005739Y010146D02*
X005840Y010146D01*
X005840Y010068D02*
X005660Y010068D01*
X005582Y009989D02*
X005840Y009989D01*
X005665Y009911D02*
X005517Y009911D01*
X005517Y009832D02*
X005654Y009832D01*
X005654Y009754D02*
X005517Y009754D01*
X005517Y009675D02*
X005654Y009675D01*
X005654Y009597D02*
X005517Y009597D01*
X005517Y009518D02*
X005629Y009518D01*
X005624Y009439D02*
X005512Y009439D01*
X005497Y009361D02*
X005985Y009361D01*
X005636Y009204D02*
X005547Y009204D01*
X005544Y009282D02*
X005624Y009282D01*
X005654Y009125D02*
X005547Y009125D01*
X005547Y009047D02*
X005654Y009047D01*
X005623Y008497D02*
X005601Y008497D01*
X005604Y008418D02*
X005620Y008418D01*
X005620Y008340D02*
X005604Y008340D01*
X005604Y008261D02*
X005620Y008261D01*
X005620Y008183D02*
X005604Y008183D01*
X005604Y008104D02*
X005620Y008104D01*
X005643Y008026D02*
X005581Y008026D01*
X005604Y007947D02*
X005620Y007947D01*
X005620Y007869D02*
X005604Y007869D01*
X005604Y007790D02*
X005620Y007790D01*
X005620Y007711D02*
X005604Y007711D01*
X005604Y007633D02*
X005620Y007633D01*
X004932Y008418D02*
X003691Y008418D01*
X003769Y008340D02*
X004472Y008340D01*
X004394Y008261D02*
X003848Y008261D01*
X003926Y008183D02*
X004315Y008183D01*
X004282Y008104D02*
X004005Y008104D01*
X004084Y008026D02*
X004282Y008026D01*
X004282Y007947D02*
X004162Y007947D01*
X004241Y007869D02*
X004282Y007869D01*
X004024Y007633D02*
X003976Y007633D01*
X003945Y007711D02*
X003898Y007711D01*
X003867Y007790D02*
X003819Y007790D01*
X003788Y007869D02*
X003741Y007869D01*
X003710Y007947D02*
X003662Y007947D01*
X003631Y008026D02*
X003584Y008026D01*
X003572Y008038D02*
X003478Y008131D01*
X003142Y008131D01*
X003142Y008149D01*
X002890Y008401D01*
X002534Y008401D01*
X002282Y008149D01*
X002282Y007793D01*
X002534Y007541D01*
X002890Y007541D01*
X003142Y007793D01*
X003142Y007811D01*
X003345Y007811D01*
X003717Y007439D01*
X003588Y007439D01*
X003523Y007375D01*
X003523Y007231D01*
X003523Y007240D02*
X001686Y007240D01*
X001718Y007162D02*
X002176Y007162D01*
X002097Y007083D02*
X001729Y007083D01*
X001729Y007005D02*
X002019Y007005D01*
X001940Y006926D02*
X001706Y006926D01*
X001673Y006848D02*
X001862Y006848D01*
X001783Y006769D02*
X001600Y006769D01*
X001704Y006690D02*
X001465Y006690D01*
X001532Y006612D02*
X001652Y006612D01*
X001652Y006533D02*
X001627Y006533D01*
X001972Y006298D02*
X001978Y006298D01*
X001972Y006219D02*
X002040Y006219D01*
X002030Y006141D02*
X001972Y006141D01*
X001972Y006062D02*
X002030Y006062D01*
X002030Y005984D02*
X001972Y005984D01*
X001972Y005905D02*
X002030Y005905D01*
X002044Y005826D02*
X001972Y005826D01*
X001972Y005748D02*
X002110Y005748D01*
X002060Y005669D02*
X001972Y005669D01*
X001972Y005591D02*
X002060Y005591D01*
X002060Y005512D02*
X001972Y005512D01*
X001972Y005434D02*
X002060Y005434D01*
X002060Y005355D02*
X001972Y005355D01*
X001972Y005277D02*
X002103Y005277D01*
X002059Y005198D02*
X001972Y005198D01*
X001972Y005120D02*
X002034Y005120D01*
X002034Y005041D02*
X001908Y005041D01*
X001829Y004962D02*
X002052Y004962D01*
X002085Y004884D02*
X001751Y004884D01*
X001716Y004805D02*
X001965Y004805D01*
X001921Y004727D02*
X001729Y004727D01*
X001729Y004648D02*
X001921Y004648D01*
X001921Y004570D02*
X001708Y004570D01*
X001676Y004491D02*
X001921Y004491D01*
X001921Y004413D02*
X001606Y004413D01*
X001479Y004334D02*
X001924Y004334D01*
X001891Y004256D02*
X001575Y004256D01*
X001663Y004177D02*
X001891Y004177D01*
X001937Y003863D02*
X001757Y003863D01*
X001740Y003784D02*
X001921Y003784D01*
X001921Y003706D02*
X001706Y003706D01*
X001650Y003627D02*
X001921Y003627D01*
X001921Y003549D02*
X001554Y003549D01*
X001380Y003549D02*
X001303Y003549D01*
X001303Y003627D02*
X001380Y003627D01*
X001380Y003706D02*
X001303Y003706D01*
X001303Y003784D02*
X001380Y003784D01*
X001380Y003863D02*
X001303Y003863D01*
X001474Y005120D02*
X001534Y005120D01*
X001604Y005198D02*
X001612Y005198D01*
X001626Y005748D02*
X001652Y005748D01*
X001652Y005826D02*
X001527Y005826D01*
X001470Y005905D02*
X001652Y005905D01*
X001652Y005984D02*
X001602Y005984D01*
X002376Y005997D02*
X002376Y006055D01*
X002664Y006055D01*
X002664Y006183D01*
X002655Y006218D01*
X002636Y006250D01*
X002610Y006276D01*
X002578Y006295D01*
X002547Y006303D01*
X002550Y006311D01*
X002796Y006311D01*
X002796Y006060D01*
X002793Y006058D01*
X002775Y006026D01*
X002766Y005990D01*
X002766Y005877D01*
X003140Y005877D01*
X003140Y005847D01*
X002766Y005847D01*
X002766Y005733D01*
X002775Y005698D01*
X002788Y005675D01*
X002634Y005675D01*
X002634Y005698D01*
X002575Y005757D01*
X002578Y005758D01*
X002610Y005777D01*
X002636Y005803D01*
X002655Y005835D01*
X002664Y005870D01*
X002664Y005997D01*
X002376Y005997D01*
X002584Y005748D02*
X002766Y005748D01*
X002766Y005826D02*
X002650Y005826D01*
X002664Y005905D02*
X002766Y005905D01*
X002766Y005984D02*
X002664Y005984D01*
X002664Y006062D02*
X002796Y006062D01*
X002796Y006141D02*
X002664Y006141D01*
X002654Y006219D02*
X002796Y006219D01*
X002796Y006298D02*
X002567Y006298D01*
X002506Y006690D02*
X002839Y006690D01*
X002903Y007554D02*
X003602Y007554D01*
X003681Y007476D02*
X001460Y007476D01*
X001537Y007397D02*
X003545Y007397D01*
X003523Y007319D02*
X001629Y007319D01*
X001598Y007554D02*
X002520Y007554D01*
X002442Y007633D02*
X001673Y007633D01*
X001705Y007711D02*
X002363Y007711D01*
X002285Y007790D02*
X001729Y007790D01*
X001729Y007869D02*
X002282Y007869D01*
X002282Y007947D02*
X001719Y007947D01*
X001687Y008026D02*
X002282Y008026D01*
X002282Y008104D02*
X001631Y008104D01*
X001541Y008183D02*
X002315Y008183D01*
X002394Y008261D02*
X001455Y008261D01*
X001596Y008340D02*
X002472Y008340D01*
X002534Y008541D02*
X002890Y008541D01*
X003003Y008654D01*
X003002Y008654D01*
X003003Y008654D02*
X004213Y007444D01*
X004213Y007439D01*
X004170Y007439D01*
X003572Y008038D01*
X003552Y008104D02*
X003505Y008104D01*
X003474Y008183D02*
X003108Y008183D01*
X003030Y008261D02*
X003395Y008261D01*
X003317Y008340D02*
X002951Y008340D01*
X002924Y008575D02*
X003081Y008575D01*
X003160Y008497D02*
X001704Y008497D01*
X001729Y008575D02*
X002499Y008575D01*
X002534Y008541D02*
X002282Y008793D01*
X002282Y009149D01*
X002534Y009401D01*
X002890Y009401D01*
X003142Y009149D01*
X003142Y008968D01*
X003142Y009047D02*
X004676Y009047D01*
X004676Y009125D02*
X003142Y009125D01*
X003087Y009204D02*
X004676Y009204D01*
X004679Y009282D02*
X003009Y009282D01*
X002930Y009361D02*
X004726Y009361D01*
X004711Y009439D02*
X001729Y009439D01*
X001729Y009361D02*
X002493Y009361D01*
X002415Y009282D02*
X001704Y009282D01*
X001671Y009204D02*
X002336Y009204D01*
X002282Y009125D02*
X001594Y009125D01*
X001451Y009047D02*
X002282Y009047D01*
X002282Y008968D02*
X001546Y008968D01*
X001633Y008890D02*
X002282Y008890D01*
X002282Y008811D02*
X001687Y008811D01*
X001720Y008733D02*
X002342Y008733D01*
X002421Y008654D02*
X001729Y008654D01*
X001672Y008418D02*
X003238Y008418D01*
X003455Y008654D02*
X004706Y008654D01*
X004676Y008733D02*
X003377Y008733D01*
X003298Y008811D02*
X004676Y008811D01*
X004676Y008890D02*
X003220Y008890D01*
X003136Y009597D02*
X001688Y009597D01*
X001721Y009518D02*
X004706Y009518D01*
X003899Y010618D02*
X003458Y010618D01*
X003458Y010696D02*
X003378Y010696D01*
X003378Y010618D02*
X001441Y010618D01*
X001556Y010539D02*
X003081Y010539D01*
X003081Y010461D02*
X001637Y010461D01*
X001689Y010382D02*
X003081Y010382D01*
X003081Y010303D02*
X001722Y010303D01*
X001729Y010225D02*
X003081Y010225D01*
X003081Y010146D02*
X001729Y010146D01*
X001703Y010068D02*
X003081Y010068D01*
X003081Y009989D02*
X001670Y009989D01*
X001592Y009911D02*
X003081Y009911D01*
X003081Y009832D02*
X001446Y009832D01*
X001551Y009754D02*
X003081Y009754D01*
X003085Y009675D02*
X001635Y009675D01*
X001242Y010618D02*
X000332Y010618D01*
X000332Y011796D02*
X000983Y011796D01*
X000848Y011874D02*
X000332Y011874D01*
X000332Y011953D02*
X000770Y011953D01*
X000691Y012031D02*
X000332Y012031D01*
X000332Y012110D02*
X000650Y012110D01*
X000617Y012188D02*
X000332Y012188D01*
X000332Y012267D02*
X000585Y012267D01*
X000562Y012346D02*
X000332Y012346D01*
X000332Y012424D02*
X000562Y012424D01*
X000562Y012503D02*
X000332Y012503D01*
X000332Y012581D02*
X000562Y012581D01*
X000578Y012660D02*
X000332Y012660D01*
X000332Y012738D02*
X000611Y012738D01*
X000643Y012817D02*
X000332Y012817D01*
X000332Y012895D02*
X000676Y012895D01*
X000754Y012974D02*
X000332Y012974D01*
X000332Y013052D02*
X000832Y013052D01*
X000851Y013131D02*
X000920Y013131D01*
X000511Y013131D02*
X000499Y013131D01*
X001854Y011953D02*
X002048Y011953D01*
X002048Y012031D02*
X001932Y012031D01*
X001974Y012110D02*
X002048Y012110D01*
X002048Y012188D02*
X002006Y012188D01*
X002039Y012267D02*
X002048Y012267D01*
X001560Y011324D02*
X003081Y011324D01*
X003081Y011246D02*
X001639Y011246D01*
X001690Y011167D02*
X003081Y011167D01*
X003081Y011089D02*
X001722Y011089D01*
X001729Y011010D02*
X003081Y011010D01*
X003081Y010932D02*
X001729Y010932D01*
X001702Y010853D02*
X003081Y010853D01*
X003081Y010775D02*
X001668Y010775D01*
X001590Y010696D02*
X003081Y010696D01*
X003378Y010775D02*
X003458Y010775D01*
X003458Y010853D02*
X003378Y010853D01*
X003378Y010932D02*
X003458Y010932D01*
X003458Y011010D02*
X003378Y011010D01*
X003378Y011089D02*
X003458Y011089D01*
X003458Y011167D02*
X003378Y011167D01*
X003378Y011246D02*
X003458Y011246D01*
X003458Y011324D02*
X003378Y011324D01*
X003378Y011403D02*
X003458Y011403D01*
X003458Y011482D02*
X003378Y011482D01*
X003378Y011560D02*
X003458Y011560D01*
X003458Y011639D02*
X003378Y011639D01*
X002898Y011953D02*
X004725Y011953D01*
X004725Y012031D02*
X002898Y012031D01*
X002898Y012110D02*
X004725Y012110D01*
X004725Y012188D02*
X002898Y012188D01*
X002898Y012267D02*
X004725Y012267D01*
X004725Y012346D02*
X002898Y012346D01*
X002898Y012424D02*
X004725Y012424D01*
X004725Y012503D02*
X002898Y012503D01*
X002898Y012581D02*
X004725Y012581D01*
X004725Y012660D02*
X002898Y012660D01*
X002898Y012738D02*
X004725Y012738D01*
X004725Y012817D02*
X002898Y012817D01*
X002898Y012895D02*
X004725Y012895D01*
X004725Y012974D02*
X002898Y012974D01*
X002898Y013052D02*
X004725Y013052D01*
X004725Y013131D02*
X002898Y013131D01*
X002898Y013210D02*
X004725Y013210D01*
X004725Y013288D02*
X002898Y013288D01*
X002898Y013367D02*
X004725Y013367D01*
X004512Y011560D02*
X006310Y011560D01*
X006310Y011482D02*
X004512Y011482D01*
X004512Y011403D02*
X006310Y011403D01*
X006310Y011324D02*
X004512Y011324D01*
X004512Y011246D02*
X006310Y011246D01*
X006310Y011167D02*
X004512Y011167D01*
X003458Y010539D02*
X003378Y010539D01*
X003378Y010461D02*
X003458Y010461D01*
X003458Y010382D02*
X003378Y010382D01*
X003378Y010303D02*
X003458Y010303D01*
X003458Y010225D02*
X003378Y010225D01*
X003378Y010146D02*
X003458Y010146D01*
X003458Y010068D02*
X003378Y010068D01*
X003378Y009989D02*
X003458Y009989D01*
X003458Y009911D02*
X003378Y009911D01*
X003378Y009832D02*
X003458Y009832D01*
X003458Y009754D02*
X003378Y009754D01*
X003378Y009675D02*
X003458Y009675D01*
X003458Y009597D02*
X003378Y009597D01*
X003367Y007790D02*
X003138Y007790D01*
X003060Y007711D02*
X003445Y007711D01*
X003524Y007633D02*
X002981Y007633D01*
X004055Y007554D02*
X004102Y007554D01*
X004133Y007476D02*
X004181Y007476D01*
X002766Y005355D02*
X002634Y005355D01*
X002634Y005331D01*
X002600Y005297D01*
X002640Y005257D01*
X002690Y005137D01*
X002690Y005081D01*
X002771Y005081D01*
X002766Y005104D01*
X002766Y005217D01*
X003140Y005217D01*
X003140Y005247D01*
X002766Y005247D01*
X002766Y005355D01*
X002766Y005277D02*
X002620Y005277D01*
X002664Y005198D02*
X002766Y005198D01*
X002766Y005120D02*
X002690Y005120D01*
X000460Y002371D02*
X000332Y002371D01*
X000332Y002292D02*
X000382Y002292D01*
X000369Y001664D02*
X000332Y001664D01*
X000332Y001585D02*
X000447Y001585D01*
X006372Y001585D02*
X006490Y001585D01*
X006411Y001664D02*
X006372Y001664D01*
X006372Y001507D02*
X008021Y001507D01*
X008052Y001585D02*
X007933Y001585D01*
X008012Y001664D02*
X008052Y001664D01*
X007942Y001428D02*
X006372Y001428D01*
X006372Y001349D02*
X006482Y001349D01*
X006403Y001271D02*
X006372Y001271D01*
X007358Y009911D02*
X007406Y009911D01*
X006656Y010303D02*
X006167Y010303D01*
X006167Y010382D02*
X006656Y010382D01*
X006656Y010461D02*
X006167Y010461D01*
X006167Y010539D02*
X006656Y010539D01*
X006656Y010618D02*
X006167Y010618D01*
X006167Y010696D02*
X006656Y010696D01*
X006633Y010775D02*
X006167Y010775D01*
X006167Y010853D02*
X006555Y010853D01*
X006476Y010932D02*
X006167Y010932D01*
X006167Y011010D02*
X006398Y011010D01*
X006319Y011089D02*
X006150Y011089D01*
D30*
X007012Y011471D03*
X007612Y010321D03*
X007212Y008571D03*
X007612Y007771D03*
X007612Y007171D03*
X007262Y005921D03*
X006512Y006971D03*
X006312Y008171D03*
X004812Y006421D03*
X005462Y005971D03*
X005112Y005571D03*
X005512Y005221D03*
X004612Y004921D03*
X004112Y005571D03*
X003762Y006121D03*
X002362Y005071D03*
X002262Y006471D03*
X002912Y003071D03*
X001712Y002871D03*
X002212Y001471D03*
X006862Y003871D03*
X008512Y004321D03*
X009462Y005121D03*
X009562Y004271D03*
X008712Y002971D03*
X009262Y002921D03*
X008612Y008171D03*
X010312Y011571D03*
X004862Y010771D03*
M02*
