G75*
G70*
%OFA0B0*%
%FSLAX24Y24*%
%IPPOS*%
%LPD*%
%AMOC8*
5,1,8,0,0,1.08239X$1,22.5*
%
%ADD10R,0.0580X0.0300*%
%ADD11R,0.0300X0.0580*%
%ADD12C,0.0635*%
%ADD13R,0.0552X0.0297*%
%ADD14R,0.0434X0.0356*%
%ADD15R,0.0356X0.0434*%
%ADD16R,0.0474X0.1891*%
%ADD17R,0.0710X0.1419*%
%ADD18R,0.0395X0.0395*%
%ADD19R,0.0395X0.0395*%
%ADD20R,0.0592X0.0671*%
%ADD21R,0.0474X0.0789*%
%ADD22R,0.0552X0.0277*%
%ADD23R,0.0277X0.0552*%
%ADD24R,0.0749X0.0356*%
%ADD25C,0.0440*%
%ADD26R,0.0470X0.0400*%
%ADD27R,0.0360X0.0670*%
%ADD28C,0.0430*%
%ADD29OC8,0.0720*%
D10*
X002585Y004278D03*
X002585Y004593D03*
X002585Y004908D03*
X002585Y005223D03*
X002585Y005538D03*
X002585Y005853D03*
X002585Y006168D03*
X002585Y006483D03*
X005965Y006483D03*
X005965Y006168D03*
X005965Y005853D03*
X005965Y005538D03*
X005965Y005223D03*
X005965Y004908D03*
X005965Y004593D03*
X005965Y004278D03*
D11*
X005377Y003690D03*
X005062Y003690D03*
X004747Y003690D03*
X004432Y003690D03*
X004117Y003690D03*
X003803Y003690D03*
X003488Y003690D03*
X003173Y003690D03*
X003173Y007070D03*
X003488Y007070D03*
X003803Y007070D03*
X004117Y007070D03*
X004432Y007070D03*
X004747Y007070D03*
X005062Y007070D03*
X005377Y007070D03*
D12*
X009432Y007049D03*
X009432Y007837D03*
X009432Y008624D03*
X009432Y009412D03*
X009432Y010199D03*
X009432Y010986D03*
X009432Y006262D03*
X009432Y005475D03*
X009432Y004687D03*
X009432Y003900D03*
X000771Y003900D03*
X000771Y004687D03*
X000771Y005475D03*
X000771Y006262D03*
X000771Y007049D03*
X000771Y007837D03*
X000771Y008624D03*
X000771Y009412D03*
X000771Y010199D03*
X000771Y010986D03*
D13*
X003684Y009494D03*
X003684Y008746D03*
X004708Y008746D03*
X004708Y009120D03*
X004708Y009494D03*
D14*
X007621Y011030D03*
X007621Y011542D03*
X008173Y011542D03*
X008173Y011030D03*
X008684Y011030D03*
X008684Y011542D03*
X006873Y005439D03*
X006873Y004927D03*
X001677Y006305D03*
X001677Y006817D03*
D15*
X007110Y009317D03*
X007110Y009868D03*
X007621Y009868D03*
X007621Y009317D03*
X007720Y005420D03*
X008232Y005420D03*
X008232Y004750D03*
X007720Y004750D03*
D16*
X006054Y010656D03*
X005267Y010656D03*
D17*
X004322Y012703D03*
X006999Y012703D03*
D18*
G36*
X009322Y012193D02*
X009044Y012471D01*
X009322Y012749D01*
X009600Y012471D01*
X009322Y012193D01*
G37*
G36*
X009740Y012610D02*
X009462Y012888D01*
X009740Y013166D01*
X010018Y012888D01*
X009740Y012610D01*
G37*
D19*
X009621Y011754D03*
X010212Y011754D03*
X008582Y012695D03*
X008582Y013286D03*
D20*
X002680Y009790D03*
X001932Y009790D03*
X001932Y008845D03*
X002680Y008845D03*
D21*
X002858Y010742D03*
X001755Y010742D03*
D22*
X007543Y008294D03*
X007543Y007979D03*
X007543Y007664D03*
X007543Y007349D03*
X007543Y007034D03*
X007543Y006719D03*
X008409Y006719D03*
X008409Y007034D03*
X008409Y007349D03*
X008409Y007664D03*
X008409Y007979D03*
X008409Y008294D03*
D23*
X007976Y008333D03*
X007976Y006679D03*
D24*
X001834Y004868D03*
X001834Y004396D03*
X001834Y003923D03*
D25*
X007911Y004255D03*
X007911Y012435D03*
D26*
X003537Y012004D03*
X003537Y012874D03*
X000667Y012874D03*
X000667Y012004D03*
D27*
X001212Y011754D03*
X001802Y011754D03*
X002982Y011754D03*
D28*
X002692Y012439D03*
X001512Y012439D03*
D29*
X000838Y000983D03*
X000838Y001983D03*
X001838Y001983D03*
X001838Y000983D03*
X002838Y000983D03*
X002838Y001983D03*
X003838Y001983D03*
X003838Y000983D03*
X004838Y000983D03*
X004838Y001983D03*
X005838Y001983D03*
X005838Y000983D03*
X006838Y000983D03*
X006838Y001983D03*
X007838Y001983D03*
X007838Y000983D03*
X008838Y000983D03*
X008838Y001983D03*
X008830Y003018D03*
X007830Y003018D03*
X009838Y001983D03*
X009838Y000983D03*
X001834Y003018D03*
M02*
