%
M48
M72
T01C0.0200
T02C0.0236
T03C0.0315
T04C0.0350
T05C0.0360
T06C0.0400
%
T01
X3723Y4484
X4274Y4681
X4865Y5350
X5061Y5822
X5416Y6137
X5691Y7043
X6479Y5822
X5298Y4799
X4392Y5586
X4431Y6295
X3723Y5783
X3565Y6295
X3093Y6137
X3329Y5192
X2620Y7043
X3211Y7633
X3762Y7633
X3920Y10074
X3683Y11295
X3172Y12397
X7581Y10468
X8172Y10468
X8920Y4248
X7306Y3578
X6479Y4248
X6046Y3106
X5613Y2830
X5022Y2830
X4392Y2830
X1597Y5626
T02
X2620Y7988
X5180Y9287
X6991Y7633
X6518Y6689
X7345Y5980
X8369Y6255
X8644Y5429
X8408Y8736
T03
X9392Y8594
X9392Y7807
X9392Y7019
X9392Y6232
X9392Y5444
X9392Y4657
X9392Y3870
X9392Y9381
X9392Y10169
X9392Y10956
X731Y10956
X731Y10169
X731Y9381
X731Y8594
X731Y7807
X731Y7019
X731Y6232
X731Y5444
X731Y4657
X731Y3870
T04
X1471Y12409
X2651Y12409
T05
X7871Y12404
X7871Y4224
T06
X798Y952
X798Y1952
X1798Y1952
X1798Y952
X2798Y952
X2798Y1952
X1794Y3145
X3798Y1952
X3798Y952
X4798Y952
X4798Y1952
X5798Y1952
X5798Y952
X6798Y952
X6798Y1952
X7798Y1952
X7790Y2988
X8790Y2988
X8798Y1952
X8798Y952
X7798Y952
X9798Y952
X9798Y1952
M30
