%
M48
M72
T01C0.0200
T02C0.0315
T03C0.0350
T04C0.0360
T05C0.0400
%
T01
X3724Y4553
X3724Y5262
X3291Y5813
X3291Y6364
X2582Y7073
X3251Y7664
X3803Y7860
X4472Y6483
X4866Y5853
X4866Y5341
X5338Y4790
X4354Y5262
X5299Y6168
X6007Y7073
X6558Y6719
X6519Y5853
X7543Y6010
X8409Y6207
X8684Y5459
X8960Y4278
X7346Y3609
X6519Y4278
X5653Y2900
X7031Y7664
X8330Y8923
X8173Y10498
X7621Y10498
X5535Y9120
X3724Y11325
X3212Y12427
X2661Y8018
X1677Y5656
T02
X771Y5475
X771Y6262
X771Y7049
X771Y7837
X771Y8624
X771Y9412
X771Y10199
X771Y10986
X771Y4687
X771Y3900
X9432Y3900
X9432Y4687
X9432Y5475
X9432Y6262
X9432Y7049
X9432Y7837
X9432Y8624
X9432Y9412
X9432Y10199
X9432Y10986
T03
X2692Y12439
X1512Y12439
T04
X7911Y12435
X7911Y4255
T05
X838Y983
X838Y1983
X1838Y1983
X1838Y983
X2838Y983
X2838Y1983
X3838Y1983
X3838Y983
X4838Y983
X4838Y1983
X5838Y1983
X5838Y983
X6838Y983
X6838Y1983
X7838Y1983
X7838Y983
X8838Y983
X8838Y1983
X8830Y3018
X7830Y3018
X9838Y1983
X9838Y983
X1834Y3018
M30
