G75*
G70*
%OFA0B0*%
%FSLAX24Y24*%
%IPPOS*%
%LPD*%
%AMOC8*
5,1,8,0,0,1.08239X$1,22.5*
%
%ADD10C,0.1340*%
%ADD11C,0.0635*%
%ADD12C,0.0086*%
%ADD13C,0.0440*%
%ADD14C,0.0430*%
%ADD15OC8,0.0720*%
D10*
X001312Y012471D03*
D11*
X001342Y010996D03*
X001342Y010208D03*
X001342Y009421D03*
X001342Y008634D03*
X001342Y007846D03*
X001342Y007059D03*
X001342Y006271D03*
X001342Y005484D03*
X001342Y004697D03*
X001342Y003909D03*
X010003Y003909D03*
X010003Y004697D03*
X010003Y005484D03*
X010003Y006271D03*
X010003Y007059D03*
X010003Y007846D03*
X010003Y008634D03*
X010003Y009421D03*
X010003Y010208D03*
X010003Y010996D03*
D12*
X006922Y011158D02*
X006750Y010180D01*
X005280Y010440D01*
X005452Y011418D01*
X006922Y011158D01*
X006765Y010265D02*
X006269Y010265D01*
X005789Y010350D02*
X006780Y010350D01*
X006795Y010435D02*
X005308Y010435D01*
X005294Y010520D02*
X006810Y010520D01*
X006825Y010605D02*
X005309Y010605D01*
X005324Y010690D02*
X006840Y010690D01*
X006855Y010775D02*
X005339Y010775D01*
X005354Y010860D02*
X006870Y010860D01*
X006885Y010945D02*
X005369Y010945D01*
X005384Y011030D02*
X006899Y011030D01*
X006914Y011115D02*
X005399Y011115D01*
X005414Y011200D02*
X006685Y011200D01*
X006204Y011285D02*
X005429Y011285D01*
X005444Y011370D02*
X005723Y011370D01*
X005630Y003831D02*
X005458Y002853D01*
X003988Y003113D01*
X004160Y004091D01*
X005630Y003831D01*
X005473Y002938D02*
X004977Y002938D01*
X004497Y003023D02*
X005488Y003023D01*
X005503Y003108D02*
X004016Y003108D01*
X004002Y003193D02*
X005518Y003193D01*
X005533Y003278D02*
X004017Y003278D01*
X004032Y003363D02*
X005548Y003363D01*
X005563Y003448D02*
X004047Y003448D01*
X004062Y003533D02*
X005578Y003533D01*
X005593Y003618D02*
X004077Y003618D01*
X004092Y003703D02*
X005607Y003703D01*
X005622Y003788D02*
X004107Y003788D01*
X004122Y003873D02*
X005393Y003873D01*
X004912Y003958D02*
X004137Y003958D01*
X004152Y004043D02*
X004431Y004043D01*
D13*
X007727Y003323D03*
X009148Y011378D03*
D14*
X007950Y012742D03*
X006770Y012742D03*
D15*
X000712Y000971D03*
X000712Y001971D03*
X001712Y001971D03*
X001712Y000971D03*
X002712Y000971D03*
X002712Y001971D03*
X003712Y001971D03*
X003712Y000971D03*
X004712Y000971D03*
X004712Y001971D03*
X005712Y001971D03*
X005712Y000971D03*
X006712Y000971D03*
X006712Y001971D03*
X007712Y001971D03*
X007712Y000971D03*
X008712Y000971D03*
X008712Y001971D03*
X009712Y001971D03*
X009712Y000971D03*
X004712Y007971D03*
X002712Y007971D03*
X002712Y008971D03*
M02*
