G75*
G70*
%OFA0B0*%
%FSLAX24Y24*%
%IPPOS*%
%LPD*%
%AMOC8*
5,1,8,0,0,1.08239X$1,22.5*
%
%ADD10C,0.0040*%
%ADD11C,0.0080*%
%ADD12C,0.0060*%
%ADD13R,0.0059X0.0118*%
%ADD14R,0.0118X0.0118*%
%ADD15R,0.0118X0.0059*%
%ADD16R,0.0118X0.0118*%
D10*
X000568Y000321D02*
X000535Y000355D01*
X000568Y000321D02*
X000635Y000321D01*
X000669Y000355D01*
X000669Y000388D01*
X000635Y000421D01*
X000602Y000421D01*
X000635Y000421D02*
X000669Y000455D01*
X000669Y000488D01*
X000635Y000522D01*
X000568Y000522D01*
X000535Y000488D01*
X000756Y000522D02*
X000756Y000388D01*
X000823Y000321D01*
X000890Y000388D01*
X000890Y000522D01*
X000977Y000488D02*
X001010Y000522D01*
X001077Y000522D01*
X001111Y000488D01*
X001111Y000455D01*
X001077Y000421D01*
X001111Y000388D01*
X001111Y000355D01*
X001077Y000321D01*
X001010Y000321D01*
X000977Y000355D01*
X001044Y000421D02*
X001077Y000421D01*
X001559Y000361D02*
X001659Y000361D01*
X001692Y000394D01*
X001692Y000528D01*
X001659Y000561D01*
X001559Y000561D01*
X001559Y000361D01*
X001780Y000394D02*
X001813Y000361D01*
X001880Y000361D01*
X001913Y000394D01*
X001913Y000427D01*
X001880Y000461D01*
X001846Y000461D01*
X001880Y000461D02*
X001913Y000494D01*
X001913Y000528D01*
X001880Y000561D01*
X001813Y000561D01*
X001780Y000528D01*
X002001Y000494D02*
X002001Y000294D01*
X002001Y000361D02*
X002101Y000361D01*
X002134Y000394D01*
X002134Y000461D01*
X002101Y000494D01*
X002001Y000494D01*
X002661Y000561D02*
X002661Y000361D01*
X002761Y000361D01*
X002795Y000394D01*
X002795Y000528D01*
X002761Y000561D01*
X002661Y000561D01*
X002882Y000461D02*
X003016Y000461D01*
X002982Y000361D02*
X002982Y000561D01*
X002882Y000461D01*
X003527Y000561D02*
X003527Y000361D01*
X003627Y000361D01*
X003661Y000394D01*
X003661Y000528D01*
X003627Y000561D01*
X003527Y000561D01*
X003748Y000461D02*
X003748Y000394D01*
X003782Y000361D01*
X003848Y000361D01*
X003882Y000394D01*
X003882Y000427D01*
X003848Y000461D01*
X003748Y000461D01*
X003815Y000528D01*
X003882Y000561D01*
X003969Y000494D02*
X004069Y000494D01*
X004103Y000461D01*
X004103Y000394D01*
X004069Y000361D01*
X003969Y000361D01*
X003969Y000294D02*
X003969Y000494D01*
X004669Y000561D02*
X004669Y000361D01*
X004769Y000361D01*
X004802Y000394D01*
X004802Y000528D01*
X004769Y000561D01*
X004669Y000561D01*
X004890Y000528D02*
X004890Y000494D01*
X004923Y000461D01*
X004990Y000461D01*
X005023Y000427D01*
X005023Y000394D01*
X004990Y000361D01*
X004923Y000361D01*
X004890Y000394D01*
X004890Y000427D01*
X004923Y000461D01*
X004990Y000461D02*
X005023Y000494D01*
X005023Y000528D01*
X004990Y000561D01*
X004923Y000561D01*
X004890Y000528D01*
X005456Y000561D02*
X005456Y000361D01*
X005556Y000361D01*
X005590Y000394D01*
X005590Y000528D01*
X005556Y000561D01*
X005456Y000561D01*
X005677Y000494D02*
X005744Y000561D01*
X005744Y000361D01*
X005677Y000361D02*
X005811Y000361D01*
X005898Y000394D02*
X005898Y000528D01*
X005932Y000561D01*
X005998Y000561D01*
X006032Y000528D01*
X005898Y000394D01*
X005932Y000361D01*
X005998Y000361D01*
X006032Y000394D01*
X006032Y000528D01*
X006119Y000494D02*
X006119Y000294D01*
X006119Y000361D02*
X006219Y000361D01*
X006253Y000394D01*
X006253Y000461D01*
X006219Y000494D01*
X006119Y000494D01*
X006677Y000494D02*
X006677Y000361D01*
X006677Y000461D02*
X006810Y000461D01*
X006810Y000494D02*
X006810Y000361D01*
X006898Y000361D02*
X006898Y000394D01*
X007031Y000528D01*
X007031Y000561D01*
X006898Y000561D01*
X006810Y000494D02*
X006744Y000561D01*
X006677Y000494D01*
X007267Y000494D02*
X007267Y000361D01*
X007267Y000461D02*
X007401Y000461D01*
X007401Y000494D02*
X007401Y000361D01*
X007488Y000394D02*
X007522Y000361D01*
X007588Y000361D01*
X007622Y000394D01*
X007622Y000461D01*
X007588Y000494D01*
X007555Y000494D01*
X007488Y000461D01*
X007488Y000561D01*
X007622Y000561D01*
X007709Y000361D02*
X007843Y000561D01*
X007930Y000528D02*
X007930Y000494D01*
X007964Y000461D01*
X008030Y000461D01*
X008064Y000427D01*
X008064Y000394D01*
X008030Y000361D01*
X007964Y000361D01*
X007930Y000394D01*
X007930Y000528D02*
X007964Y000561D01*
X008030Y000561D01*
X008064Y000528D01*
X008151Y000528D02*
X008151Y000394D01*
X008185Y000361D01*
X008251Y000361D01*
X008285Y000394D01*
X008372Y000361D02*
X008506Y000361D01*
X008372Y000361D02*
X008372Y000561D01*
X008285Y000528D02*
X008251Y000561D01*
X008185Y000561D01*
X008151Y000528D01*
X008645Y000494D02*
X008645Y000361D01*
X008645Y000461D02*
X008779Y000461D01*
X008779Y000494D02*
X008779Y000361D01*
X008866Y000394D02*
X008900Y000361D01*
X008966Y000361D01*
X009000Y000394D01*
X009000Y000427D01*
X008966Y000461D01*
X008933Y000461D01*
X008966Y000461D02*
X009000Y000494D01*
X009000Y000528D01*
X008966Y000561D01*
X008900Y000561D01*
X008866Y000528D01*
X008779Y000494D02*
X008712Y000561D01*
X008645Y000494D01*
X009669Y000494D02*
X009669Y000361D01*
X009669Y000461D02*
X009802Y000461D01*
X009802Y000494D02*
X009802Y000361D01*
X009890Y000361D02*
X010023Y000361D01*
X009957Y000361D02*
X009957Y000561D01*
X009890Y000494D01*
X009802Y000494D02*
X009736Y000561D01*
X009669Y000494D01*
X009669Y002447D02*
X009669Y002581D01*
X009736Y002648D01*
X009802Y002581D01*
X009802Y002447D01*
X009890Y002481D02*
X009890Y002614D01*
X009923Y002648D01*
X009990Y002648D01*
X010023Y002614D01*
X009890Y002481D01*
X009923Y002447D01*
X009990Y002447D01*
X010023Y002481D01*
X010023Y002614D01*
X009802Y002547D02*
X009669Y002547D01*
X009531Y002837D02*
X009330Y002837D01*
X009330Y002937D01*
X009364Y002971D01*
X009430Y002971D01*
X009464Y002937D01*
X009464Y002837D01*
X009464Y002904D02*
X009531Y002971D01*
X009531Y003058D02*
X009330Y003192D01*
X009330Y003058D02*
X009531Y003192D01*
X009000Y002614D02*
X008966Y002648D01*
X008900Y002648D01*
X008866Y002614D01*
X008779Y002581D02*
X008779Y002447D01*
X008866Y002447D02*
X009000Y002581D01*
X009000Y002614D01*
X009000Y002447D02*
X008866Y002447D01*
X008779Y002547D02*
X008645Y002547D01*
X008645Y002581D02*
X008712Y002648D01*
X008779Y002581D01*
X008645Y002581D02*
X008645Y002447D01*
X008506Y002447D02*
X008506Y002581D01*
X008439Y002648D01*
X008372Y002581D01*
X008372Y002447D01*
X008285Y002481D02*
X008285Y002614D01*
X008251Y002648D01*
X008151Y002648D01*
X008151Y002447D01*
X008251Y002447D01*
X008285Y002481D01*
X008372Y002547D02*
X008506Y002547D01*
X008064Y002514D02*
X008064Y002481D01*
X008030Y002447D01*
X007964Y002447D01*
X007930Y002481D01*
X007964Y002547D02*
X007930Y002581D01*
X007930Y002614D01*
X007964Y002648D01*
X008030Y002648D01*
X008064Y002614D01*
X008030Y002547D02*
X008064Y002514D01*
X008030Y002547D02*
X007964Y002547D01*
X007843Y002648D02*
X007709Y002447D01*
X007622Y002481D02*
X007622Y002514D01*
X007588Y002547D01*
X007488Y002547D01*
X007488Y002481D01*
X007522Y002447D01*
X007588Y002447D01*
X007622Y002481D01*
X007555Y002614D02*
X007488Y002547D01*
X007401Y002547D02*
X007267Y002547D01*
X007267Y002581D02*
X007334Y002648D01*
X007401Y002581D01*
X007401Y002447D01*
X007555Y002614D02*
X007622Y002648D01*
X007326Y002904D02*
X007126Y002904D01*
X007126Y002837D02*
X007126Y002971D01*
X007126Y003058D02*
X007326Y003192D01*
X007326Y003058D02*
X007126Y003192D01*
X007031Y002648D02*
X006965Y002614D01*
X006898Y002547D01*
X006998Y002547D01*
X007031Y002514D01*
X007031Y002481D01*
X006998Y002447D01*
X006931Y002447D01*
X006898Y002481D01*
X006898Y002547D01*
X006810Y002547D02*
X006677Y002547D01*
X006677Y002581D02*
X006744Y002648D01*
X006810Y002581D01*
X006810Y002447D01*
X006677Y002447D02*
X006677Y002581D01*
X006253Y002547D02*
X006253Y002481D01*
X006219Y002447D01*
X006119Y002447D01*
X006119Y002381D02*
X006119Y002581D01*
X006219Y002581D01*
X006253Y002547D01*
X006032Y002447D02*
X005898Y002447D01*
X005965Y002447D02*
X005965Y002648D01*
X005898Y002581D01*
X005811Y002447D02*
X005677Y002447D01*
X005744Y002447D02*
X005744Y002648D01*
X005677Y002581D01*
X005590Y002614D02*
X005556Y002648D01*
X005456Y002648D01*
X005456Y002447D01*
X005556Y002447D01*
X005590Y002481D01*
X005590Y002614D01*
X005126Y002547D02*
X005126Y002481D01*
X005093Y002447D01*
X004993Y002447D01*
X004993Y002381D02*
X004993Y002581D01*
X005093Y002581D01*
X005126Y002547D01*
X004905Y002547D02*
X004805Y002547D01*
X004772Y002581D01*
X004772Y002614D01*
X004805Y002648D01*
X004872Y002648D01*
X004905Y002614D01*
X004905Y002481D01*
X004872Y002447D01*
X004805Y002447D01*
X004772Y002481D01*
X004684Y002481D02*
X004684Y002614D01*
X004651Y002648D01*
X004551Y002648D01*
X004551Y002447D01*
X004651Y002447D01*
X004684Y002481D01*
X004039Y002614D02*
X003906Y002481D01*
X003906Y002447D01*
X003818Y002481D02*
X003818Y002614D01*
X003785Y002648D01*
X003685Y002648D01*
X003685Y002447D01*
X003785Y002447D01*
X003818Y002481D01*
X003906Y002648D02*
X004039Y002648D01*
X004039Y002614D01*
X003158Y002547D02*
X003158Y002481D01*
X003124Y002447D01*
X003024Y002447D01*
X003024Y002381D02*
X003024Y002581D01*
X003124Y002581D01*
X003158Y002547D01*
X002937Y002547D02*
X002937Y002481D01*
X002903Y002447D01*
X002837Y002447D01*
X002803Y002481D01*
X002803Y002547D02*
X002870Y002581D01*
X002903Y002581D01*
X002937Y002547D01*
X002937Y002648D02*
X002803Y002648D01*
X002803Y002547D01*
X002716Y002481D02*
X002716Y002614D01*
X002682Y002648D01*
X002582Y002648D01*
X002582Y002447D01*
X002682Y002447D01*
X002716Y002481D01*
X002542Y002762D02*
X002342Y002762D01*
X002342Y002862D01*
X002376Y002896D01*
X002442Y002896D01*
X002476Y002862D01*
X002476Y002762D01*
X002476Y002829D02*
X002542Y002896D01*
X002509Y002983D02*
X002542Y003017D01*
X002542Y003083D01*
X002509Y003117D01*
X002476Y003117D01*
X002442Y003083D01*
X002442Y003017D01*
X002409Y002983D01*
X002376Y002983D01*
X002342Y003017D01*
X002342Y003083D01*
X002376Y003117D01*
X002342Y003204D02*
X002342Y003338D01*
X002342Y003271D02*
X002542Y003271D01*
X001867Y002547D02*
X001734Y002447D01*
X001646Y002481D02*
X001646Y002614D01*
X001613Y002648D01*
X001513Y002648D01*
X001513Y002447D01*
X001613Y002447D01*
X001646Y002481D01*
X001734Y002648D02*
X001867Y002547D01*
X001425Y002447D02*
X001425Y002648D01*
X001292Y002648D02*
X001425Y002447D01*
X001292Y002447D02*
X001292Y002648D01*
X001204Y002614D02*
X001171Y002648D01*
X001104Y002648D01*
X001071Y002614D01*
X001071Y002481D01*
X001104Y002447D01*
X001171Y002447D01*
X001204Y002481D01*
X001204Y002547D01*
X001138Y002547D01*
X000984Y002447D02*
X000850Y002547D01*
X000984Y002648D01*
X001785Y006780D02*
X001922Y006878D01*
X002558Y007476D01*
X002245Y008238D01*
X002185Y008298D01*
X002788Y008298D01*
X002788Y008265D01*
X002772Y008233D01*
X002788Y008205D01*
X002788Y008178D01*
X002925Y007832D01*
X003314Y008216D01*
X003336Y008244D01*
X003353Y008276D01*
X003358Y008298D01*
X003704Y008298D01*
X003632Y008249D01*
X003578Y008211D01*
X003501Y008145D01*
X002986Y007662D01*
X003293Y006906D01*
X003380Y006785D01*
X003397Y006785D01*
X003430Y006818D01*
X003473Y006950D01*
X003539Y007196D01*
X003616Y007509D01*
X003759Y008090D01*
X003780Y008189D01*
X003780Y008298D01*
X005025Y008298D01*
X005091Y008282D01*
X005135Y008255D01*
X005167Y008194D01*
X005189Y008139D01*
X005189Y008046D01*
X005173Y008002D01*
X005107Y007728D01*
X005085Y007673D01*
X005003Y007591D01*
X004937Y007564D01*
X004850Y007542D01*
X004740Y007542D01*
X004899Y007520D01*
X005014Y007465D01*
X005019Y007454D01*
X005019Y007306D01*
X004959Y007065D01*
X004921Y007005D01*
X004910Y006939D01*
X004828Y006846D01*
X004762Y006813D01*
X004658Y006780D01*
X002755Y006780D01*
X002788Y006840D01*
X002788Y006878D01*
X002613Y007312D01*
X002158Y006867D01*
X002108Y006780D01*
X001785Y006780D01*
X003918Y006966D02*
X004044Y007449D01*
X004543Y007449D01*
X004586Y007432D01*
X004614Y007394D01*
X004614Y007377D01*
X004532Y007054D01*
X004510Y007021D01*
X004471Y006977D01*
X004449Y006966D01*
X003918Y006966D01*
X004082Y007646D02*
X004197Y008112D01*
X004701Y008112D01*
X004751Y008085D01*
X004756Y007997D01*
X004680Y007706D01*
X004663Y007668D01*
X004630Y007646D01*
X004082Y007646D01*
X005250Y007553D02*
X005140Y007065D01*
X005129Y006977D01*
X005129Y006922D01*
X005146Y006862D01*
X005173Y006824D01*
X005217Y006791D01*
X005261Y006780D01*
X006346Y006780D01*
X006423Y006966D01*
X006352Y006955D01*
X005562Y006955D01*
X005540Y006972D01*
X005535Y007010D01*
X005546Y007043D01*
X005590Y007229D01*
X006489Y007229D01*
X006582Y007608D01*
X006582Y007799D01*
X006560Y007821D01*
X006489Y007876D01*
X006428Y007898D01*
X005568Y007898D01*
X005535Y007893D01*
X005469Y007871D01*
X005381Y007816D01*
X005332Y007745D01*
X005266Y007613D01*
X005250Y007553D01*
X005639Y007405D02*
X005644Y007399D01*
X006116Y007399D01*
X006176Y007635D01*
X006176Y007706D01*
X006160Y007723D01*
X006138Y007728D01*
X005749Y007728D01*
X005716Y007712D01*
X005694Y007673D01*
X005677Y007630D01*
X005639Y007405D01*
X006598Y007065D02*
X006587Y006977D01*
X006587Y006922D01*
X006604Y006862D01*
X006631Y006824D01*
X006675Y006791D01*
X006719Y006780D01*
X007804Y006780D01*
X007881Y006966D01*
X007810Y006955D01*
X007020Y006955D01*
X006999Y006972D01*
X006993Y007010D01*
X007004Y007043D01*
X007048Y007229D01*
X007947Y007229D01*
X008040Y007608D01*
X008040Y007799D01*
X008018Y007821D01*
X007947Y007876D01*
X007887Y007898D01*
X007026Y007898D01*
X006993Y007893D01*
X006927Y007871D01*
X006840Y007816D01*
X006790Y007745D01*
X006724Y007613D01*
X006708Y007553D01*
X006598Y007065D01*
X007097Y007405D02*
X007103Y007399D01*
X007574Y007399D01*
X007634Y007635D01*
X007634Y007706D01*
X007618Y007723D01*
X007596Y007728D01*
X007207Y007728D01*
X007174Y007712D01*
X007152Y007673D01*
X007136Y007630D01*
X007097Y007405D01*
X009393Y012054D02*
X009393Y012187D01*
X009460Y012254D01*
X009527Y012187D01*
X009527Y012054D01*
X009614Y012087D02*
X009648Y012054D01*
X009714Y012054D01*
X009748Y012087D01*
X009748Y012120D01*
X009714Y012154D01*
X009648Y012154D01*
X009614Y012187D01*
X009614Y012220D01*
X009648Y012254D01*
X009714Y012254D01*
X009748Y012220D01*
X009835Y012220D02*
X009835Y012187D01*
X009869Y012154D01*
X009935Y012154D01*
X009969Y012120D01*
X009969Y012087D01*
X009935Y012054D01*
X009869Y012054D01*
X009835Y012087D01*
X009835Y012220D02*
X009869Y012254D01*
X009935Y012254D01*
X009969Y012220D01*
X010056Y012220D02*
X010056Y012087D01*
X010090Y012054D01*
X010156Y012054D01*
X010190Y012087D01*
X010190Y012220D01*
X010156Y012254D01*
X010090Y012254D01*
X010056Y012220D01*
X010277Y012220D02*
X010277Y012087D01*
X010311Y012054D01*
X010377Y012054D01*
X010411Y012087D01*
X010411Y012220D02*
X010377Y012254D01*
X010311Y012254D01*
X010277Y012220D01*
X009527Y012154D02*
X009393Y012154D01*
X009039Y012613D02*
X008897Y012755D01*
X008968Y012825D01*
X009015Y012825D01*
X009062Y012778D01*
X009062Y012731D01*
X008992Y012660D01*
X009039Y012707D02*
X009133Y012707D01*
X009171Y012793D02*
X009219Y012793D01*
X009266Y012840D01*
X009266Y012887D01*
X009242Y012911D01*
X009195Y012911D01*
X009148Y012864D01*
X009101Y012864D01*
X009077Y012887D01*
X009077Y012934D01*
X009124Y012982D01*
X009171Y012982D01*
X009233Y013044D02*
X009257Y013020D01*
X009304Y013020D01*
X009351Y013067D01*
X009398Y013067D01*
X009422Y013044D01*
X009422Y012996D01*
X009375Y012949D01*
X009328Y012949D01*
X009233Y013044D02*
X009233Y013091D01*
X009280Y013138D01*
X009328Y013138D01*
X009366Y013223D02*
X009413Y013270D01*
X009389Y013247D02*
X009531Y013105D01*
X009507Y013082D02*
X009555Y013129D01*
X008314Y013080D02*
X008247Y013147D01*
X008314Y013214D01*
X008114Y013214D01*
X008114Y013301D02*
X008114Y013401D01*
X008147Y013435D01*
X008214Y013435D01*
X008247Y013401D01*
X008247Y013301D01*
X008314Y013301D02*
X008114Y013301D01*
X008247Y013368D02*
X008314Y013435D01*
X008314Y013080D02*
X008114Y013080D01*
X008147Y012993D02*
X008214Y012993D01*
X008247Y012959D01*
X008247Y012859D01*
X008314Y012859D02*
X008114Y012859D01*
X008114Y012959D01*
X008147Y012993D01*
X001243Y013258D02*
X001243Y013392D01*
X001243Y013325D02*
X001176Y013258D01*
X001143Y013258D01*
X001059Y013292D02*
X001026Y013258D01*
X000959Y013258D01*
X000926Y013292D01*
X000926Y013325D01*
X001059Y013325D01*
X001059Y013358D02*
X001059Y013292D01*
X001059Y013358D02*
X001026Y013392D01*
X000959Y013392D01*
X000838Y013258D02*
X000771Y013392D01*
X000705Y013258D01*
X000617Y013292D02*
X000517Y013292D01*
X000484Y013325D01*
X000484Y013358D01*
X000517Y013392D01*
X000617Y013392D01*
X000617Y013191D01*
X000517Y013191D01*
X000484Y013225D01*
X000484Y013258D01*
X000517Y013292D01*
X007267Y002581D02*
X007267Y002447D01*
X007334Y000561D02*
X007401Y000494D01*
X007334Y000561D02*
X007267Y000494D01*
D11*
X009866Y002729D02*
X000338Y002729D01*
X000338Y011026D01*
X002828Y013516D01*
X007375Y013516D01*
X009866Y011026D01*
X009866Y002729D01*
X010026Y002960D02*
X009956Y003030D01*
X009956Y003170D01*
X010026Y003240D01*
X010167Y003170D02*
X010237Y003240D01*
X010307Y003240D01*
X010377Y003170D01*
X010377Y003030D01*
X010307Y002960D01*
X010167Y003030D02*
X010167Y003170D01*
X010167Y003030D02*
X010096Y002960D01*
X010026Y002960D01*
X010167Y003420D02*
X010096Y003490D01*
X010096Y003630D01*
X010167Y003700D01*
X010237Y003700D01*
X010237Y003420D01*
X010307Y003420D02*
X010377Y003490D01*
X010377Y003630D01*
X010307Y003420D02*
X010167Y003420D01*
X010096Y003880D02*
X010096Y004090D01*
X010167Y004160D01*
X010377Y004160D01*
X010377Y004341D02*
X010377Y004551D01*
X010307Y004621D01*
X010237Y004551D01*
X010237Y004411D01*
X010167Y004341D01*
X010096Y004411D01*
X010096Y004621D01*
X010167Y004801D02*
X010096Y004871D01*
X010096Y005011D01*
X010167Y005081D01*
X010237Y005081D01*
X010237Y004801D01*
X010307Y004801D02*
X010377Y004871D01*
X010377Y005011D01*
X010307Y004801D02*
X010167Y004801D01*
X010096Y005261D02*
X010026Y005261D01*
X009956Y005331D01*
X009956Y005471D01*
X010026Y005542D01*
X010167Y005471D02*
X010237Y005542D01*
X010307Y005542D01*
X010377Y005471D01*
X010377Y005331D01*
X010307Y005261D01*
X010167Y005331D02*
X010167Y005471D01*
X010167Y005331D02*
X010096Y005261D01*
X010096Y005722D02*
X010096Y005862D01*
X010026Y005792D02*
X010307Y005792D01*
X010377Y005862D01*
X010307Y006029D02*
X010237Y006099D01*
X010237Y006309D01*
X010167Y006309D02*
X010377Y006309D01*
X010377Y006099D01*
X010307Y006029D01*
X010096Y006099D02*
X010096Y006239D01*
X010167Y006309D01*
X010167Y006489D02*
X010307Y006489D01*
X010377Y006559D01*
X010377Y006769D01*
X010447Y006769D02*
X010096Y006769D01*
X010096Y006559D01*
X010167Y006489D01*
X010447Y006769D02*
X010517Y006699D01*
X010517Y006629D01*
X010307Y006949D02*
X010167Y006949D01*
X010096Y007019D01*
X010096Y007159D01*
X010167Y007229D01*
X010237Y007229D01*
X010237Y006949D01*
X010307Y006949D02*
X010377Y007019D01*
X010377Y007159D01*
X010377Y008078D02*
X009956Y008078D01*
X010096Y008218D01*
X009956Y008358D01*
X010377Y008358D01*
X010377Y008538D02*
X010377Y008678D01*
X010377Y008608D02*
X010096Y008608D01*
X010096Y008538D01*
X009956Y008608D02*
X009886Y008608D01*
X010096Y008845D02*
X010096Y009055D01*
X010167Y009125D01*
X010377Y009125D01*
X010377Y009305D02*
X010377Y009445D01*
X010377Y009375D02*
X010096Y009375D01*
X010096Y009305D01*
X009956Y009375D02*
X009886Y009375D01*
X009956Y009612D02*
X009956Y009822D01*
X010026Y009892D01*
X010096Y009892D01*
X010167Y009822D01*
X010167Y009612D01*
X010377Y009612D02*
X010377Y009822D01*
X010307Y009892D01*
X010237Y009892D01*
X010167Y009822D01*
X010167Y010072D02*
X010096Y010143D01*
X010096Y010283D01*
X010167Y010353D01*
X010237Y010353D01*
X010237Y010072D01*
X010307Y010072D02*
X010377Y010143D01*
X010377Y010283D01*
X010307Y010072D02*
X010167Y010072D01*
X010377Y009612D02*
X009956Y009612D01*
X010096Y008845D02*
X010377Y008845D01*
X010307Y010533D02*
X010167Y010533D01*
X010096Y010603D01*
X010096Y010743D01*
X010167Y010813D01*
X010237Y010813D01*
X010237Y010533D01*
X010307Y010533D02*
X010377Y010603D01*
X010377Y010743D01*
X008566Y008490D02*
X008251Y008490D01*
X007700Y008490D02*
X007385Y008490D01*
X007937Y007112D02*
X007939Y007124D01*
X007944Y007135D01*
X007953Y007144D01*
X007964Y007149D01*
X007976Y007151D01*
X007988Y007149D01*
X007999Y007144D01*
X008008Y007135D01*
X008013Y007124D01*
X008015Y007112D01*
X008013Y007100D01*
X008008Y007089D01*
X007999Y007080D01*
X007988Y007075D01*
X007976Y007073D01*
X007964Y007075D01*
X007953Y007080D01*
X007944Y007089D01*
X007939Y007100D01*
X007937Y007112D01*
X007700Y006522D02*
X007385Y006522D01*
X008251Y006522D02*
X008566Y006522D01*
X010096Y003880D02*
X010377Y003880D01*
X004365Y008560D02*
X004027Y008560D01*
X003877Y009015D02*
X003877Y009226D01*
X004027Y009680D02*
X004365Y009680D01*
X002556Y010442D02*
X002056Y010442D01*
X002056Y011042D02*
X002556Y011042D01*
X002090Y005105D02*
X001578Y005105D01*
X001578Y003687D02*
X002090Y003687D01*
D12*
X002895Y004000D02*
X002895Y006620D01*
X003035Y006760D01*
X005655Y006760D01*
X005655Y004000D01*
X002895Y004000D01*
X003054Y006460D02*
X003056Y006483D01*
X003062Y006506D01*
X003071Y006527D01*
X003084Y006547D01*
X003100Y006564D01*
X003118Y006578D01*
X003138Y006589D01*
X003160Y006597D01*
X003183Y006601D01*
X003207Y006601D01*
X003230Y006597D01*
X003252Y006589D01*
X003272Y006578D01*
X003290Y006564D01*
X003306Y006547D01*
X003319Y006527D01*
X003328Y006506D01*
X003334Y006483D01*
X003336Y006460D01*
X003334Y006437D01*
X003328Y006414D01*
X003319Y006393D01*
X003306Y006373D01*
X003290Y006356D01*
X003272Y006342D01*
X003252Y006331D01*
X003230Y006323D01*
X003207Y006319D01*
X003183Y006319D01*
X003160Y006323D01*
X003138Y006331D01*
X003118Y006342D01*
X003100Y006356D01*
X003084Y006373D01*
X003071Y006393D01*
X003062Y006414D01*
X003056Y006437D01*
X003054Y006460D01*
X001801Y006484D02*
X008029Y006484D01*
X008029Y008572D02*
X001801Y008572D01*
D13*
X008434Y013049D03*
X008730Y013049D03*
G36*
X009447Y012764D02*
X009406Y012805D01*
X009489Y012888D01*
X009530Y012847D01*
X009447Y012764D01*
G37*
G36*
X009656Y012555D02*
X009615Y012596D01*
X009698Y012679D01*
X009739Y012638D01*
X009656Y012555D01*
G37*
D14*
G36*
X009573Y012638D02*
X009490Y012721D01*
X009573Y012804D01*
X009656Y012721D01*
X009573Y012638D01*
G37*
D15*
X009976Y011902D03*
X009976Y011607D03*
D16*
X009976Y011754D03*
X008582Y013049D03*
M02*
