G75*
G70*
%OFA0B0*%
%FSLAX24Y24*%
%IPPOS*%
%LPD*%
%AMOC8*
5,1,8,0,0,1.08239X$1,22.5*
%
%ADD10C,0.0000*%
%ADD11R,0.0500X0.0220*%
%ADD12R,0.0220X0.0500*%
%ADD13C,0.0555*%
%ADD14R,0.0472X0.0217*%
%ADD15R,0.0354X0.0276*%
%ADD16R,0.0276X0.0354*%
%ADD17R,0.0394X0.1811*%
%ADD18R,0.0630X0.1339*%
%ADD19R,0.0315X0.0315*%
%ADD20R,0.0315X0.0315*%
%ADD21R,0.0512X0.0591*%
%ADD22R,0.0394X0.0709*%
%ADD23R,0.0472X0.0197*%
%ADD24R,0.0197X0.0472*%
%ADD25R,0.0669X0.0276*%
%ADD26R,0.0390X0.0320*%
%ADD27R,0.0280X0.0590*%
%ADD28OC8,0.0640*%
%ADD29C,0.0080*%
%ADD30OC8,0.0400*%
D10*
X000141Y000262D02*
X000141Y013648D01*
X010574Y013648D01*
X010574Y000262D01*
X000141Y000262D01*
X007731Y004255D02*
X007733Y004281D01*
X007739Y004307D01*
X007748Y004331D01*
X007761Y004354D01*
X007777Y004375D01*
X007796Y004393D01*
X007817Y004409D01*
X007841Y004421D01*
X007865Y004429D01*
X007891Y004434D01*
X007918Y004435D01*
X007944Y004432D01*
X007969Y004425D01*
X007993Y004415D01*
X008016Y004401D01*
X008036Y004385D01*
X008053Y004365D01*
X008068Y004343D01*
X008079Y004319D01*
X008087Y004294D01*
X008091Y004268D01*
X008091Y004242D01*
X008087Y004216D01*
X008079Y004191D01*
X008068Y004167D01*
X008053Y004145D01*
X008036Y004125D01*
X008016Y004109D01*
X007993Y004095D01*
X007969Y004085D01*
X007944Y004078D01*
X007918Y004075D01*
X007891Y004076D01*
X007865Y004081D01*
X007841Y004089D01*
X007817Y004101D01*
X007796Y004117D01*
X007777Y004135D01*
X007761Y004156D01*
X007748Y004179D01*
X007739Y004203D01*
X007733Y004229D01*
X007731Y004255D01*
X007731Y012435D02*
X007733Y012461D01*
X007739Y012487D01*
X007748Y012511D01*
X007761Y012534D01*
X007777Y012555D01*
X007796Y012573D01*
X007817Y012589D01*
X007841Y012601D01*
X007865Y012609D01*
X007891Y012614D01*
X007918Y012615D01*
X007944Y012612D01*
X007969Y012605D01*
X007993Y012595D01*
X008016Y012581D01*
X008036Y012565D01*
X008053Y012545D01*
X008068Y012523D01*
X008079Y012499D01*
X008087Y012474D01*
X008091Y012448D01*
X008091Y012422D01*
X008087Y012396D01*
X008079Y012371D01*
X008068Y012347D01*
X008053Y012325D01*
X008036Y012305D01*
X008016Y012289D01*
X007993Y012275D01*
X007969Y012265D01*
X007944Y012258D01*
X007918Y012255D01*
X007891Y012256D01*
X007865Y012261D01*
X007841Y012269D01*
X007817Y012281D01*
X007796Y012297D01*
X007777Y012315D01*
X007761Y012336D01*
X007748Y012359D01*
X007739Y012383D01*
X007733Y012409D01*
X007731Y012435D01*
X002517Y012439D02*
X002519Y012465D01*
X002525Y012491D01*
X002534Y012515D01*
X002547Y012538D01*
X002564Y012558D01*
X002583Y012576D01*
X002605Y012591D01*
X002628Y012602D01*
X002653Y012610D01*
X002679Y012614D01*
X002705Y012614D01*
X002731Y012610D01*
X002756Y012602D01*
X002780Y012591D01*
X002801Y012576D01*
X002820Y012558D01*
X002837Y012538D01*
X002850Y012515D01*
X002859Y012491D01*
X002865Y012465D01*
X002867Y012439D01*
X002865Y012413D01*
X002859Y012387D01*
X002850Y012363D01*
X002837Y012340D01*
X002820Y012320D01*
X002801Y012302D01*
X002779Y012287D01*
X002756Y012276D01*
X002731Y012268D01*
X002705Y012264D01*
X002679Y012264D01*
X002653Y012268D01*
X002628Y012276D01*
X002604Y012287D01*
X002583Y012302D01*
X002564Y012320D01*
X002547Y012340D01*
X002534Y012363D01*
X002525Y012387D01*
X002519Y012413D01*
X002517Y012439D01*
X001337Y012439D02*
X001339Y012465D01*
X001345Y012491D01*
X001354Y012515D01*
X001367Y012538D01*
X001384Y012558D01*
X001403Y012576D01*
X001425Y012591D01*
X001448Y012602D01*
X001473Y012610D01*
X001499Y012614D01*
X001525Y012614D01*
X001551Y012610D01*
X001576Y012602D01*
X001600Y012591D01*
X001621Y012576D01*
X001640Y012558D01*
X001657Y012538D01*
X001670Y012515D01*
X001679Y012491D01*
X001685Y012465D01*
X001687Y012439D01*
X001685Y012413D01*
X001679Y012387D01*
X001670Y012363D01*
X001657Y012340D01*
X001640Y012320D01*
X001621Y012302D01*
X001599Y012287D01*
X001576Y012276D01*
X001551Y012268D01*
X001525Y012264D01*
X001499Y012264D01*
X001473Y012268D01*
X001448Y012276D01*
X001424Y012287D01*
X001403Y012302D01*
X001384Y012320D01*
X001367Y012340D01*
X001354Y012363D01*
X001345Y012387D01*
X001339Y012413D01*
X001337Y012439D01*
D11*
X002585Y006483D03*
X002585Y006168D03*
X002585Y005853D03*
X002585Y005538D03*
X002585Y005223D03*
X002585Y004908D03*
X002585Y004593D03*
X002585Y004278D03*
X005965Y004278D03*
X005965Y004593D03*
X005965Y004908D03*
X005965Y005223D03*
X005965Y005538D03*
X005965Y005853D03*
X005965Y006168D03*
X005965Y006483D03*
D12*
X005377Y007070D03*
X005062Y007070D03*
X004747Y007070D03*
X004432Y007070D03*
X004117Y007070D03*
X003803Y007070D03*
X003488Y007070D03*
X003173Y007070D03*
X003173Y003690D03*
X003488Y003690D03*
X003803Y003690D03*
X004117Y003690D03*
X004432Y003690D03*
X004747Y003690D03*
X005062Y003690D03*
X005377Y003690D03*
D13*
X009432Y003900D03*
X009432Y004687D03*
X009432Y005475D03*
X009432Y006262D03*
X009432Y007049D03*
X009432Y007837D03*
X009432Y008624D03*
X009432Y009412D03*
X009432Y010199D03*
X009432Y010986D03*
X000771Y010986D03*
X000771Y010199D03*
X000771Y009412D03*
X000771Y008624D03*
X000771Y007837D03*
X000771Y007049D03*
X000771Y006262D03*
X000771Y005475D03*
X000771Y004687D03*
X000771Y003900D03*
D14*
X003684Y008746D03*
X003684Y009494D03*
X004708Y009494D03*
X004708Y009120D03*
X004708Y008746D03*
D15*
X006873Y005439D03*
X006873Y004927D03*
X007621Y011030D03*
X007621Y011542D03*
X008173Y011542D03*
X008173Y011030D03*
X008684Y011030D03*
X008684Y011542D03*
X001677Y006817D03*
X001677Y006305D03*
D16*
X007110Y009317D03*
X007110Y009868D03*
X007621Y009868D03*
X007621Y009317D03*
X007720Y005420D03*
X008232Y005420D03*
X008232Y004750D03*
X007720Y004750D03*
D17*
X006054Y010656D03*
X005267Y010656D03*
D18*
X004322Y012703D03*
X006999Y012703D03*
D19*
G36*
X009322Y012249D02*
X009100Y012471D01*
X009322Y012693D01*
X009544Y012471D01*
X009322Y012249D01*
G37*
G36*
X009740Y012666D02*
X009518Y012888D01*
X009740Y013110D01*
X009962Y012888D01*
X009740Y012666D01*
G37*
D20*
X009621Y011754D03*
X010212Y011754D03*
X008582Y012695D03*
X008582Y013286D03*
D21*
X002680Y009790D03*
X001932Y009790D03*
X001932Y008845D03*
X002680Y008845D03*
D22*
X002858Y010742D03*
X001755Y010742D03*
D23*
X007543Y008294D03*
X007543Y007979D03*
X007543Y007664D03*
X007543Y007349D03*
X007543Y007034D03*
X007543Y006719D03*
X008409Y006719D03*
X008409Y007034D03*
X008409Y007349D03*
X008409Y007664D03*
X008409Y007979D03*
X008409Y008294D03*
D24*
X007976Y008333D03*
X007976Y006679D03*
D25*
X001834Y004868D03*
X001834Y004396D03*
X001834Y003923D03*
D26*
X000667Y012004D03*
X000667Y012874D03*
X003537Y012874D03*
X003537Y012004D03*
D27*
X002982Y011754D03*
X001802Y011754D03*
X001212Y011754D03*
D28*
X001834Y003018D03*
X001838Y001983D03*
X001838Y000983D03*
X002838Y000983D03*
X002838Y001983D03*
X003838Y001983D03*
X003838Y000983D03*
X004838Y000983D03*
X004838Y001983D03*
X005838Y001983D03*
X005838Y000983D03*
X006838Y000983D03*
X006838Y001983D03*
X007838Y001983D03*
X007838Y000983D03*
X008838Y000983D03*
X008838Y001983D03*
X008830Y003018D03*
X007830Y003018D03*
X009838Y001983D03*
X009838Y000983D03*
X000838Y000983D03*
X000838Y001983D03*
D29*
X000771Y002049D01*
X000771Y003900D01*
X000771Y004018D01*
X001165Y004412D01*
X001180Y004396D01*
X001834Y004396D01*
X001805Y004425D02*
X001805Y004367D01*
X001359Y004367D01*
X001359Y004200D01*
X001421Y004138D01*
X001389Y004107D01*
X001389Y003740D01*
X001454Y003676D01*
X002214Y003676D01*
X002279Y003740D01*
X002279Y003773D01*
X002323Y003773D01*
X002447Y003773D01*
X002634Y003960D01*
X002732Y004058D01*
X002881Y004058D01*
X002945Y004122D01*
X002945Y004433D01*
X002943Y004435D01*
X002945Y004437D01*
X002945Y004748D01*
X002943Y004750D01*
X002945Y004752D01*
X002945Y004758D01*
X002959Y004758D01*
X003077Y004758D01*
X003490Y004758D01*
X003414Y004682D01*
X003414Y004425D01*
X002945Y004425D01*
X002945Y004503D02*
X003414Y004503D01*
X003414Y004425D02*
X003574Y004265D01*
X003574Y004216D01*
X003653Y004137D01*
X003739Y004050D01*
X003647Y004050D01*
X003645Y004048D01*
X003643Y004050D01*
X003332Y004050D01*
X003330Y004048D01*
X003328Y004050D01*
X003017Y004050D01*
X002953Y003986D01*
X002953Y003395D01*
X003017Y003330D01*
X003023Y003330D01*
X003023Y002608D01*
X002827Y002412D01*
X002660Y002412D01*
X002408Y002161D01*
X002408Y001804D01*
X002660Y001553D01*
X003016Y001553D01*
X003180Y001717D01*
X003180Y001696D01*
X003268Y001608D01*
X003562Y001314D01*
X003408Y001161D01*
X003408Y000804D01*
X003660Y000553D01*
X004016Y000553D01*
X004268Y000804D01*
X004268Y001161D01*
X004016Y001412D01*
X003888Y001412D01*
X003748Y001553D01*
X004016Y001553D01*
X004204Y001740D01*
X004204Y001657D01*
X004292Y001569D01*
X004554Y001306D01*
X004408Y001161D01*
X004408Y000804D01*
X004660Y000553D01*
X005016Y000553D01*
X005268Y000804D01*
X005268Y001161D01*
X005016Y001412D01*
X004872Y001412D01*
X004732Y001553D01*
X005016Y001553D01*
X005188Y001724D01*
X005188Y001657D01*
X005276Y001569D01*
X005546Y001299D01*
X005408Y001161D01*
X005408Y000804D01*
X005660Y000553D01*
X006016Y000553D01*
X006268Y000804D01*
X006268Y001161D01*
X006016Y001412D01*
X005856Y001412D01*
X005716Y001553D01*
X006016Y001553D01*
X006172Y001709D01*
X006172Y001657D01*
X006260Y001569D01*
X006538Y001291D01*
X006408Y001161D01*
X006408Y000804D01*
X006660Y000553D01*
X007016Y000553D01*
X007268Y000804D01*
X007268Y001161D01*
X007016Y001412D01*
X006841Y001412D01*
X006700Y001553D01*
X007016Y001553D01*
X007268Y001804D01*
X007268Y002161D01*
X007016Y002412D01*
X006988Y002412D01*
X006988Y002455D01*
X007126Y002317D01*
X007250Y002317D01*
X007559Y002317D01*
X007562Y002314D01*
X007408Y002161D01*
X007408Y001804D01*
X007660Y001553D01*
X007991Y001553D01*
X007851Y001412D01*
X007660Y001412D01*
X007408Y001161D01*
X007408Y000804D01*
X007660Y000553D01*
X008016Y000553D01*
X008268Y000804D01*
X008268Y001161D01*
X008146Y001283D01*
X008530Y001283D01*
X008452Y001205D02*
X008224Y001205D01*
X008268Y001126D02*
X008408Y001126D01*
X008408Y001161D02*
X008408Y000804D01*
X008660Y000553D01*
X009016Y000553D01*
X009268Y000804D01*
X009268Y001161D01*
X009016Y001412D01*
X008660Y001412D01*
X008408Y001161D01*
X008408Y001047D02*
X008268Y001047D01*
X008268Y000969D02*
X008408Y000969D01*
X008408Y000890D02*
X008268Y000890D01*
X008268Y000812D02*
X008408Y000812D01*
X008479Y000733D02*
X008197Y000733D01*
X008118Y000655D02*
X008558Y000655D01*
X008636Y000576D02*
X008040Y000576D01*
X007636Y000576D02*
X007040Y000576D01*
X007118Y000655D02*
X007558Y000655D01*
X007479Y000733D02*
X007197Y000733D01*
X007268Y000812D02*
X007408Y000812D01*
X007408Y000890D02*
X007268Y000890D01*
X007268Y000969D02*
X007408Y000969D01*
X007408Y001047D02*
X007268Y001047D01*
X007268Y001126D02*
X007408Y001126D01*
X007452Y001205D02*
X007224Y001205D01*
X007145Y001283D02*
X007530Y001283D01*
X007609Y001362D02*
X007067Y001362D01*
X007061Y001597D02*
X007615Y001597D01*
X007537Y001676D02*
X007139Y001676D01*
X007218Y001754D02*
X007458Y001754D01*
X007408Y001833D02*
X007268Y001833D01*
X007268Y001911D02*
X007408Y001911D01*
X007408Y001990D02*
X007268Y001990D01*
X007268Y002069D02*
X007408Y002069D01*
X007408Y002147D02*
X007268Y002147D01*
X007203Y002226D02*
X007473Y002226D01*
X007552Y002304D02*
X007124Y002304D01*
X007060Y002383D02*
X007046Y002383D01*
X007188Y002467D02*
X007031Y002624D01*
X007031Y004435D01*
X007267Y004671D01*
X007267Y005341D01*
X007346Y005420D01*
X007720Y005420D01*
X007720Y005833D01*
X007543Y006010D01*
X007543Y006719D01*
X007393Y006510D02*
X007393Y006298D01*
X007233Y006138D01*
X007233Y005882D01*
X007414Y005700D01*
X007530Y005700D01*
X007472Y005642D01*
X007472Y005569D01*
X007284Y005569D01*
X007196Y005482D01*
X007191Y005476D01*
X007191Y005635D01*
X007109Y005717D01*
X006902Y005717D01*
X006902Y005468D01*
X006844Y005468D01*
X006844Y005410D01*
X006556Y005410D01*
X006556Y005243D01*
X006638Y005162D01*
X006636Y005160D01*
X006424Y005373D01*
X006355Y005373D01*
X006355Y005523D01*
X005980Y005523D01*
X005980Y005553D01*
X006355Y005553D01*
X006355Y005578D01*
X006391Y005543D01*
X006556Y005543D01*
X006556Y005468D01*
X006844Y005468D01*
X006844Y005717D01*
X006822Y005717D01*
X006829Y005724D01*
X006829Y005981D01*
X006669Y006141D01*
X006669Y006308D01*
X006581Y006396D01*
X006569Y006409D01*
X006687Y006409D01*
X006868Y006590D01*
X006868Y006847D01*
X006708Y007007D01*
X006708Y007450D01*
X006621Y007538D01*
X006566Y007592D01*
X006621Y007592D01*
X007172Y008144D01*
X007196Y008168D01*
X007196Y008150D01*
X007210Y008136D01*
X007196Y008123D01*
X007196Y007850D01*
X007166Y007820D01*
X007166Y007673D01*
X007533Y007673D01*
X007533Y007654D01*
X007166Y007654D01*
X007166Y007507D01*
X007168Y007506D01*
X007166Y007505D01*
X007166Y007358D01*
X007533Y007358D01*
X007533Y007339D01*
X007552Y007339D01*
X007552Y007110D01*
X007552Y007043D01*
X007919Y007043D01*
X007919Y007190D01*
X007918Y007191D01*
X007919Y007192D01*
X007919Y007339D01*
X007552Y007339D01*
X007552Y007358D01*
X007533Y007358D01*
X007533Y007425D01*
X007533Y007654D01*
X007552Y007654D01*
X007552Y007425D01*
X007552Y007358D01*
X007919Y007358D01*
X007919Y007505D01*
X007918Y007506D01*
X007919Y007507D01*
X007919Y007654D01*
X007552Y007654D01*
X007552Y007673D01*
X007919Y007673D01*
X007919Y007820D01*
X007889Y007850D01*
X007889Y007987D01*
X008120Y007987D01*
X008121Y007988D01*
X008399Y007988D01*
X008399Y007969D01*
X008033Y007969D01*
X008033Y007822D01*
X008034Y007821D01*
X008033Y007820D01*
X008033Y007673D01*
X008399Y007673D01*
X008399Y007654D01*
X008033Y007654D01*
X008033Y007507D01*
X008063Y007477D01*
X008063Y007220D01*
X008033Y007190D01*
X008033Y007043D01*
X008399Y007043D01*
X008399Y007024D01*
X008121Y007024D01*
X008120Y007026D01*
X007832Y007026D01*
X007831Y007024D01*
X007552Y007024D01*
X007552Y007043D01*
X007533Y007043D01*
X007533Y007024D01*
X007166Y007024D01*
X007166Y006877D01*
X007196Y006847D01*
X007196Y006575D01*
X007261Y006510D01*
X007393Y006510D01*
X007393Y006467D02*
X006745Y006467D01*
X006824Y006546D02*
X007226Y006546D01*
X007196Y006624D02*
X006868Y006624D01*
X006868Y006703D02*
X007196Y006703D01*
X007196Y006781D02*
X006868Y006781D01*
X006856Y006860D02*
X007184Y006860D01*
X007166Y006938D02*
X006777Y006938D01*
X006708Y007017D02*
X007166Y007017D01*
X007166Y007043D02*
X007533Y007043D01*
X007533Y007110D01*
X007533Y007339D01*
X007166Y007339D01*
X007166Y007192D01*
X007168Y007191D01*
X007166Y007190D01*
X007166Y007043D01*
X007166Y007095D02*
X006708Y007095D01*
X006708Y007174D02*
X007166Y007174D01*
X007166Y007252D02*
X006708Y007252D01*
X006708Y007331D02*
X007166Y007331D01*
X007166Y007409D02*
X006708Y007409D01*
X006671Y007488D02*
X007166Y007488D01*
X007166Y007567D02*
X006592Y007567D01*
X006673Y007645D02*
X007166Y007645D01*
X007166Y007724D02*
X006752Y007724D01*
X006830Y007802D02*
X007166Y007802D01*
X007196Y007881D02*
X006909Y007881D01*
X006987Y007959D02*
X007196Y007959D01*
X007196Y008038D02*
X007066Y008038D01*
X007145Y008116D02*
X007196Y008116D01*
X007110Y008294D02*
X007110Y008569D01*
X007267Y008727D01*
X007582Y008727D01*
X008173Y009317D01*
X008488Y009317D01*
X009039Y008766D01*
X009039Y005971D01*
X008921Y005853D01*
X008054Y005853D01*
X007976Y005931D01*
X007976Y006679D01*
X008133Y007034D02*
X008409Y007034D01*
X008409Y006719D02*
X008409Y006207D01*
X008409Y006719D02*
X008684Y006719D01*
X008803Y006837D01*
X008803Y007270D01*
X008724Y007349D01*
X008409Y007349D01*
X008409Y007664D02*
X008409Y007979D01*
X008418Y007969D02*
X008418Y007740D01*
X008418Y007673D01*
X008400Y007673D01*
X008400Y007902D01*
X008400Y007969D01*
X008418Y007969D01*
X008418Y007959D02*
X008400Y007959D01*
X008400Y007881D02*
X008418Y007881D01*
X008418Y007802D02*
X008400Y007802D01*
X008400Y007724D02*
X008418Y007724D01*
X008409Y007664D02*
X007543Y007664D01*
X007031Y007664D01*
X006558Y007742D02*
X007110Y008294D01*
X006873Y008412D02*
X006873Y009238D01*
X006952Y009317D01*
X007110Y009317D01*
X007110Y009868D01*
X006834Y010183D02*
X006834Y009514D01*
X006637Y009317D01*
X006637Y008530D01*
X006362Y008254D01*
X003763Y008254D01*
X003684Y008333D01*
X003684Y008746D01*
X003389Y008746D01*
X003251Y008609D01*
X003251Y008175D01*
X003094Y008018D01*
X002661Y008018D01*
X002149Y008018D01*
X001932Y008234D01*
X001932Y008845D01*
X002285Y009199D02*
X002234Y009250D01*
X001631Y009250D01*
X001567Y009186D01*
X001567Y008504D01*
X001631Y008439D01*
X001782Y008439D01*
X001782Y008297D01*
X001782Y008172D01*
X001999Y007956D01*
X002087Y007868D01*
X002372Y007868D01*
X002532Y007708D01*
X002789Y007708D01*
X002949Y007868D01*
X003017Y007868D01*
X002941Y007792D01*
X002941Y007535D01*
X003046Y007430D01*
X003017Y007430D01*
X002953Y007366D01*
X002953Y007223D01*
X002870Y007223D01*
X002710Y007383D01*
X002454Y007383D01*
X002272Y007201D01*
X002272Y006945D01*
X002454Y006763D01*
X002710Y006763D01*
X002870Y006923D01*
X002953Y006923D01*
X002953Y006775D01*
X003017Y006710D01*
X003328Y006710D01*
X003330Y006712D01*
X003332Y006710D01*
X003338Y006710D01*
X003338Y006696D01*
X003359Y006674D01*
X003162Y006674D01*
X003120Y006632D01*
X003110Y006632D01*
X002945Y006632D01*
X002945Y006638D01*
X002881Y006702D01*
X002289Y006702D01*
X002225Y006638D01*
X002225Y006327D01*
X002227Y006325D01*
X002225Y006323D01*
X002225Y006051D01*
X002195Y006021D01*
X002195Y005868D01*
X002570Y005868D01*
X002570Y005838D01*
X002195Y005838D01*
X002195Y005688D01*
X001986Y005688D01*
X001986Y005784D01*
X001826Y005944D01*
X001826Y006058D01*
X001899Y006058D01*
X001964Y006122D01*
X001964Y006489D01*
X001912Y006540D01*
X001994Y006621D01*
X001994Y006788D01*
X001706Y006788D01*
X001706Y006846D01*
X001994Y006846D01*
X001994Y007013D01*
X001912Y007095D01*
X001705Y007095D01*
X001705Y006846D01*
X001648Y006846D01*
X001648Y007095D01*
X001441Y007095D01*
X001359Y007013D01*
X001359Y006846D01*
X001647Y006846D01*
X001647Y006788D01*
X001359Y006788D01*
X001359Y006621D01*
X001441Y006540D01*
X001389Y006489D01*
X001389Y006122D01*
X001454Y006058D01*
X001527Y006058D01*
X001527Y005944D01*
X001367Y005784D01*
X001367Y005527D01*
X001548Y005346D01*
X001805Y005346D01*
X001847Y005388D01*
X001857Y005388D01*
X002195Y005388D01*
X002195Y005238D01*
X002570Y005238D01*
X002570Y005208D01*
X002195Y005208D01*
X002195Y005116D01*
X001454Y005116D01*
X001389Y005052D01*
X001389Y004685D01*
X001421Y004653D01*
X001359Y004592D01*
X001359Y004425D01*
X001057Y004425D01*
X001099Y004468D02*
X000990Y004359D01*
X000872Y004310D01*
X001007Y004254D01*
X001125Y004136D01*
X001188Y003983D01*
X001188Y003939D01*
X000810Y003939D01*
X000732Y003939D01*
X000732Y004300D01*
X000810Y004300D01*
X000810Y003939D01*
X000810Y003861D01*
X001188Y003861D01*
X001188Y003817D01*
X001125Y003663D01*
X001007Y003546D01*
X000854Y003482D01*
X000810Y003482D01*
X000810Y003861D01*
X000732Y003861D01*
X000354Y003861D01*
X000354Y003817D01*
X000417Y003663D01*
X000535Y003546D01*
X000688Y003482D01*
X000732Y003482D01*
X000732Y003861D01*
X000732Y003939D01*
X000354Y003939D01*
X000354Y003983D01*
X000417Y004136D01*
X000535Y004254D01*
X000670Y004310D01*
X000552Y004359D01*
X000443Y004468D01*
X000384Y004610D01*
X000384Y004764D01*
X000443Y004907D01*
X000552Y005016D01*
X000694Y005075D01*
X000848Y005075D01*
X000990Y005016D01*
X001099Y004907D01*
X001158Y004764D01*
X001158Y004610D01*
X001099Y004468D01*
X001114Y004503D02*
X001359Y004503D01*
X001359Y004425D02*
X001805Y004425D01*
X001834Y004868D02*
X002031Y004868D01*
X002306Y004593D01*
X002585Y004593D01*
X002585Y004908D02*
X002897Y004908D01*
X004196Y004908D01*
X004629Y004475D01*
X005535Y004475D01*
X005653Y004593D01*
X005965Y004593D01*
X005965Y004908D02*
X006362Y004908D01*
X006838Y004431D01*
X006838Y001983D01*
X006598Y002467D02*
X006598Y004199D01*
X006519Y004278D01*
X005965Y004278D02*
X005574Y004278D01*
X005495Y004199D01*
X003803Y004199D01*
X003724Y004278D01*
X003724Y004553D01*
X003492Y004346D02*
X002945Y004346D01*
X002945Y004268D02*
X003571Y004268D01*
X003600Y004189D02*
X002945Y004189D01*
X002933Y004111D02*
X003679Y004111D01*
X003803Y003690D02*
X003803Y002018D01*
X003838Y001983D01*
X004139Y001676D02*
X004204Y001676D01*
X004263Y001597D02*
X004061Y001597D01*
X003860Y001440D02*
X004420Y001440D01*
X004499Y001362D02*
X004067Y001362D01*
X004145Y001283D02*
X004531Y001283D01*
X004452Y001205D02*
X004224Y001205D01*
X004268Y001126D02*
X004408Y001126D01*
X004408Y001047D02*
X004268Y001047D01*
X004268Y000969D02*
X004408Y000969D01*
X004408Y000890D02*
X004268Y000890D01*
X004268Y000812D02*
X004408Y000812D01*
X004479Y000733D02*
X004197Y000733D01*
X004118Y000655D02*
X004558Y000655D01*
X004636Y000576D02*
X004040Y000576D01*
X003838Y000983D02*
X003838Y001250D01*
X003330Y001758D01*
X003330Y002388D01*
X003488Y002546D01*
X003488Y003690D01*
X003173Y003690D02*
X003173Y002546D01*
X002838Y002211D01*
X002838Y001983D01*
X003139Y001676D02*
X003200Y001676D01*
X003268Y001608D02*
X003268Y001608D01*
X003279Y001597D02*
X003061Y001597D01*
X003016Y001412D02*
X002660Y001412D01*
X002408Y001161D01*
X002408Y000804D01*
X002660Y000553D01*
X003016Y000553D01*
X003268Y000804D01*
X003268Y001161D01*
X003016Y001412D01*
X003067Y001362D02*
X003514Y001362D01*
X003531Y001283D02*
X003145Y001283D01*
X003224Y001205D02*
X003452Y001205D01*
X003408Y001126D02*
X003268Y001126D01*
X003268Y001047D02*
X003408Y001047D01*
X003408Y000969D02*
X003268Y000969D01*
X003268Y000890D02*
X003408Y000890D01*
X003408Y000812D02*
X003268Y000812D01*
X003197Y000733D02*
X003479Y000733D01*
X003558Y000655D02*
X003118Y000655D01*
X003040Y000576D02*
X003636Y000576D01*
X003436Y001440D02*
X000261Y001440D01*
X000261Y001362D02*
X000609Y001362D01*
X000660Y001412D02*
X000408Y001161D01*
X000408Y000804D01*
X000660Y000553D01*
X001016Y000553D01*
X001268Y000804D01*
X001268Y001161D01*
X001016Y001412D01*
X000660Y001412D01*
X000647Y001523D02*
X000798Y001523D01*
X000798Y001942D01*
X000878Y001942D01*
X000878Y001523D01*
X001028Y001523D01*
X001298Y001792D01*
X001298Y001943D01*
X000878Y001943D01*
X000878Y002022D01*
X001298Y002022D01*
X001298Y002173D01*
X001028Y002442D01*
X000878Y002442D01*
X000878Y002023D01*
X000798Y002023D01*
X000798Y002442D01*
X000647Y002442D01*
X000378Y002173D01*
X000378Y002022D01*
X000798Y002022D01*
X000798Y001943D01*
X000378Y001943D01*
X000378Y001792D01*
X000647Y001523D01*
X000573Y001597D02*
X000261Y001597D01*
X000261Y001519D02*
X003357Y001519D01*
X003782Y001519D02*
X004342Y001519D01*
X004354Y001719D02*
X004354Y002270D01*
X004117Y002506D01*
X004117Y003690D01*
X004432Y003690D02*
X004432Y002624D01*
X004838Y002219D01*
X004838Y001983D01*
X005139Y001676D02*
X005188Y001676D01*
X005247Y001597D02*
X005061Y001597D01*
X005067Y001362D02*
X005483Y001362D01*
X005531Y001283D02*
X005145Y001283D01*
X005224Y001205D02*
X005452Y001205D01*
X005408Y001126D02*
X005268Y001126D01*
X005268Y001047D02*
X005408Y001047D01*
X005408Y000969D02*
X005268Y000969D01*
X005268Y000890D02*
X005408Y000890D01*
X005408Y000812D02*
X005268Y000812D01*
X005197Y000733D02*
X005479Y000733D01*
X005558Y000655D02*
X005118Y000655D01*
X005040Y000576D02*
X005636Y000576D01*
X005838Y000983D02*
X005838Y001219D01*
X005338Y001719D01*
X005338Y002191D01*
X004747Y002782D01*
X004747Y003690D01*
X005062Y003690D02*
X005062Y002979D01*
X005838Y002203D01*
X005838Y001983D01*
X006139Y001676D02*
X006172Y001676D01*
X006231Y001597D02*
X006061Y001597D01*
X006067Y001362D02*
X006467Y001362D01*
X006531Y001283D02*
X006145Y001283D01*
X006224Y001205D02*
X006452Y001205D01*
X006408Y001126D02*
X006268Y001126D01*
X006268Y001047D02*
X006408Y001047D01*
X006408Y000969D02*
X006268Y000969D01*
X006268Y000890D02*
X006408Y000890D01*
X006408Y000812D02*
X006268Y000812D01*
X006197Y000733D02*
X006479Y000733D01*
X006558Y000655D02*
X006118Y000655D01*
X006040Y000576D02*
X006636Y000576D01*
X006838Y000983D02*
X006838Y001203D01*
X006322Y001719D01*
X006322Y002191D01*
X006598Y002467D01*
X007188Y002467D02*
X007621Y002467D01*
X007838Y002250D01*
X007838Y001983D01*
X007957Y001519D02*
X006734Y001519D01*
X006813Y001440D02*
X007879Y001440D01*
X007838Y001187D02*
X008330Y001679D01*
X008330Y002231D01*
X008566Y002467D01*
X009117Y002467D01*
X009354Y002703D01*
X009354Y003136D01*
X008921Y003569D01*
X008527Y003569D01*
X008232Y003864D01*
X008232Y004750D01*
X008881Y004750D01*
X009039Y004908D01*
X009039Y005734D01*
X008921Y005853D01*
X009133Y005853D02*
X009189Y005797D01*
X009189Y005779D01*
X009213Y005803D01*
X009355Y005862D01*
X009509Y005862D01*
X009652Y005803D01*
X009761Y005694D01*
X009820Y005552D01*
X009820Y005398D01*
X009761Y005255D01*
X009652Y005146D01*
X009509Y005087D01*
X009355Y005087D01*
X009213Y005146D01*
X009189Y005170D01*
X009189Y004991D01*
X009213Y005016D01*
X009355Y005075D01*
X009509Y005075D01*
X009652Y005016D01*
X009761Y004907D01*
X009820Y004764D01*
X009820Y004610D01*
X009761Y004468D01*
X009652Y004359D01*
X009509Y004300D01*
X009355Y004300D01*
X009270Y004335D01*
X009270Y004252D01*
X009355Y004287D01*
X009509Y004287D01*
X009652Y004228D01*
X009761Y004119D01*
X009820Y003977D01*
X009820Y003823D01*
X009761Y003680D01*
X009652Y003571D01*
X009509Y003512D01*
X009465Y003512D01*
X009652Y003325D01*
X010454Y003325D01*
X010454Y003247D02*
X009731Y003247D01*
X009740Y003238D02*
X009652Y003325D01*
X009574Y003404D02*
X010454Y003404D01*
X010454Y003482D02*
X009495Y003482D01*
X009627Y003561D02*
X010454Y003561D01*
X010454Y003639D02*
X009720Y003639D01*
X009776Y003718D02*
X010454Y003718D01*
X010454Y003796D02*
X009809Y003796D01*
X009820Y003875D02*
X010454Y003875D01*
X010454Y003954D02*
X009820Y003954D01*
X009797Y004032D02*
X010454Y004032D01*
X010454Y004111D02*
X009764Y004111D01*
X009691Y004189D02*
X010454Y004189D01*
X010454Y004268D02*
X009557Y004268D01*
X009622Y004346D02*
X010454Y004346D01*
X010454Y004425D02*
X009718Y004425D01*
X009776Y004503D02*
X010454Y004503D01*
X010454Y004582D02*
X009808Y004582D01*
X009820Y004660D02*
X010454Y004660D01*
X010454Y004739D02*
X009820Y004739D01*
X009798Y004818D02*
X010454Y004818D01*
X010454Y004896D02*
X009765Y004896D01*
X009693Y004975D02*
X010454Y004975D01*
X010454Y005053D02*
X009561Y005053D01*
X009617Y005132D02*
X010454Y005132D01*
X010454Y005210D02*
X009716Y005210D01*
X009775Y005289D02*
X010454Y005289D01*
X010454Y005367D02*
X009807Y005367D01*
X009820Y005446D02*
X010454Y005446D01*
X010454Y005524D02*
X009820Y005524D01*
X009799Y005603D02*
X010454Y005603D01*
X010454Y005682D02*
X009766Y005682D01*
X009695Y005760D02*
X010454Y005760D01*
X010454Y005839D02*
X009566Y005839D01*
X009509Y005875D02*
X009652Y005934D01*
X009761Y006043D01*
X009820Y006185D01*
X009820Y006339D01*
X009761Y006481D01*
X009652Y006591D01*
X009509Y006649D01*
X009355Y006649D01*
X009213Y006591D01*
X009189Y006566D01*
X009189Y006745D01*
X009213Y006721D01*
X009355Y006662D01*
X009509Y006662D01*
X009652Y006721D01*
X009761Y006830D01*
X009820Y006972D01*
X009820Y007126D01*
X009791Y007196D01*
X010134Y007538D01*
X010134Y007663D01*
X010134Y011112D01*
X010046Y011199D01*
X009758Y011487D01*
X009824Y011487D01*
X009889Y011551D01*
X009889Y011957D01*
X009824Y012022D01*
X009418Y012022D01*
X009354Y011957D01*
X009354Y011904D01*
X009333Y011904D01*
X009209Y011904D01*
X008996Y011692D01*
X008972Y011692D01*
X008972Y011725D01*
X008907Y011789D01*
X008462Y011789D01*
X008429Y011756D01*
X008395Y011789D01*
X008377Y011789D01*
X008510Y011923D01*
X008987Y011923D01*
X009075Y012011D01*
X009239Y012175D01*
X009276Y012138D01*
X009368Y012138D01*
X009655Y012425D01*
X009655Y012516D01*
X009368Y012803D01*
X009276Y012803D01*
X008989Y012516D01*
X008989Y012425D01*
X009027Y012387D01*
X008862Y012223D01*
X008510Y012223D01*
X008495Y012223D01*
X008700Y012428D01*
X008785Y012428D01*
X008849Y012492D01*
X008849Y012898D01*
X008785Y012963D01*
X008379Y012963D01*
X008315Y012898D01*
X008315Y012492D01*
X008327Y012479D01*
X008203Y012355D01*
X008211Y012375D01*
X008211Y012494D01*
X008165Y012605D01*
X008081Y012689D01*
X007971Y012735D01*
X007851Y012735D01*
X007741Y012689D01*
X007657Y012605D01*
X007611Y012494D01*
X007611Y012375D01*
X007657Y012265D01*
X007727Y012194D01*
X007668Y012135D01*
X007559Y012026D01*
X007471Y011938D01*
X007471Y011789D01*
X007399Y011789D01*
X007334Y011725D01*
X007334Y011358D01*
X007399Y011294D01*
X007844Y011294D01*
X007897Y011347D01*
X007950Y011294D01*
X008395Y011294D01*
X008429Y011327D01*
X008462Y011294D01*
X008889Y011294D01*
X008889Y011278D01*
X008462Y011278D01*
X008429Y011244D01*
X008395Y011278D01*
X007950Y011278D01*
X007897Y011225D01*
X007844Y011278D01*
X007399Y011278D01*
X007334Y011213D01*
X007334Y010846D01*
X007399Y010782D01*
X007467Y010782D01*
X007333Y010648D01*
X007087Y010648D01*
X006999Y010560D01*
X006772Y010333D01*
X006772Y010333D01*
X006684Y010245D01*
X006684Y009576D01*
X006487Y009379D01*
X006487Y009255D01*
X006487Y008592D01*
X006299Y008404D01*
X003834Y008404D01*
X003834Y008528D01*
X003966Y008528D01*
X004031Y008592D01*
X004031Y008900D01*
X003966Y008965D01*
X003403Y008965D01*
X003338Y008900D01*
X003338Y008896D01*
X003327Y008896D01*
X003101Y008671D01*
X003101Y008546D01*
X003101Y008238D01*
X003032Y008168D01*
X002949Y008168D01*
X002789Y008328D01*
X002532Y008328D01*
X002372Y008168D01*
X002211Y008168D01*
X002082Y008297D01*
X002082Y008439D01*
X002234Y008439D01*
X002285Y008491D01*
X002367Y008409D01*
X002641Y008409D01*
X002641Y008805D01*
X002720Y008805D01*
X002720Y008409D01*
X002994Y008409D01*
X003076Y008491D01*
X003076Y008805D01*
X002721Y008805D01*
X002721Y008885D01*
X003076Y008885D01*
X003076Y009198D01*
X002994Y009280D01*
X002720Y009280D01*
X002720Y008885D01*
X002641Y008885D01*
X002641Y009280D01*
X002367Y009280D01*
X002285Y009199D01*
X002268Y009216D02*
X002303Y009216D01*
X002367Y009354D02*
X002641Y009354D01*
X002641Y009749D01*
X002720Y009749D01*
X002720Y009354D01*
X002994Y009354D01*
X003076Y009436D01*
X003076Y009750D01*
X002721Y009750D01*
X002721Y009829D01*
X003076Y009829D01*
X003076Y010073D01*
X004173Y010073D01*
X004534Y009713D01*
X004426Y009713D01*
X004362Y009648D01*
X004362Y009577D01*
X004252Y009467D01*
X004164Y009379D01*
X004164Y008861D01*
X004252Y008773D01*
X004362Y008664D01*
X004362Y008592D01*
X004426Y008528D01*
X004990Y008528D01*
X005054Y008592D01*
X005054Y008900D01*
X005042Y008912D01*
X005084Y008954D01*
X005084Y009106D01*
X004722Y009106D01*
X004722Y009134D01*
X005084Y009134D01*
X005084Y009287D01*
X005042Y009329D01*
X005054Y009340D01*
X005054Y009610D01*
X005227Y009610D01*
X005227Y010616D01*
X004930Y010616D01*
X004930Y009713D01*
X004858Y009713D01*
X004858Y009812D01*
X004386Y010285D01*
X004298Y010373D01*
X003164Y010373D01*
X003164Y011142D01*
X003132Y011175D01*
X003435Y011175D01*
X003595Y011015D01*
X003852Y011015D01*
X004034Y011197D01*
X004034Y011423D01*
X004219Y011608D01*
X004930Y011608D01*
X004930Y010696D01*
X005227Y010696D01*
X005227Y010616D01*
X005307Y010616D01*
X005307Y010696D01*
X005604Y010696D01*
X005604Y011608D01*
X005749Y011608D01*
X005748Y011607D01*
X005748Y009705D01*
X005812Y009640D01*
X006297Y009640D01*
X006361Y009705D01*
X006361Y011607D01*
X006297Y011671D01*
X006149Y011671D01*
X006000Y011820D01*
X005912Y011908D01*
X004219Y011908D01*
X004095Y011908D01*
X003822Y011635D01*
X003595Y011635D01*
X003435Y011475D01*
X003232Y011475D01*
X003232Y012095D01*
X003209Y012117D01*
X003232Y012117D01*
X003232Y011799D01*
X003296Y011734D01*
X003777Y011734D01*
X003842Y011799D01*
X003842Y012210D01*
X003777Y012274D01*
X003497Y012274D01*
X003522Y012299D01*
X003522Y012556D01*
X003473Y012604D01*
X003777Y012604D01*
X003842Y012669D01*
X003842Y013080D01*
X003777Y013144D01*
X003296Y013144D01*
X003232Y013080D01*
X003232Y012737D01*
X003114Y012737D01*
X002968Y012883D01*
X002968Y012883D01*
X002880Y012971D01*
X001378Y012971D01*
X001290Y012883D01*
X000984Y012577D01*
X000433Y012577D01*
X000345Y012490D01*
X000261Y012405D01*
X000261Y013528D01*
X008311Y013528D01*
X008285Y013501D01*
X008285Y013324D01*
X008543Y013324D01*
X008543Y013247D01*
X008285Y013247D01*
X008285Y013070D01*
X008367Y012988D01*
X008543Y012988D01*
X008543Y013247D01*
X008621Y013247D01*
X008621Y013324D01*
X008879Y013324D01*
X008879Y013501D01*
X008853Y013528D01*
X010454Y013528D01*
X010454Y012025D01*
X010427Y012052D01*
X010251Y012052D01*
X010251Y011793D01*
X010173Y011793D01*
X010173Y011715D01*
X010251Y011715D01*
X010251Y011457D01*
X010427Y011457D01*
X010454Y011483D01*
X010454Y000382D01*
X000261Y000382D01*
X000261Y007174D01*
X000276Y007159D01*
X000384Y007052D01*
X000384Y006972D01*
X000443Y006830D01*
X000552Y006721D01*
X000694Y006662D01*
X000848Y006662D01*
X000990Y006721D01*
X001099Y006830D01*
X001158Y006972D01*
X001158Y007126D01*
X001099Y007269D01*
X000990Y007378D01*
X000848Y007437D01*
X000694Y007437D01*
X000552Y007378D01*
X000516Y007343D01*
X000488Y007371D01*
X000488Y007572D01*
X000552Y007508D01*
X000694Y007449D01*
X000848Y007449D01*
X000990Y007508D01*
X001099Y007617D01*
X001158Y007760D01*
X001158Y007914D01*
X001099Y008056D01*
X000990Y008165D01*
X000848Y008224D01*
X000694Y008224D01*
X000552Y008165D01*
X000488Y008102D01*
X000488Y008359D01*
X000552Y008296D01*
X000694Y008237D01*
X000848Y008237D01*
X000990Y008296D01*
X001099Y008405D01*
X001158Y008547D01*
X001158Y008701D01*
X001099Y008844D01*
X000990Y008953D01*
X000848Y009012D01*
X000694Y009012D01*
X000552Y008953D01*
X000488Y008889D01*
X000488Y009147D01*
X000552Y009083D01*
X000694Y009024D01*
X000848Y009024D01*
X000990Y009083D01*
X001099Y009192D01*
X001158Y009335D01*
X001158Y009489D01*
X001099Y009631D01*
X000990Y009740D01*
X000848Y009799D01*
X000694Y009799D01*
X000552Y009740D01*
X000488Y009676D01*
X000488Y009934D01*
X000552Y009871D01*
X000694Y009812D01*
X000848Y009812D01*
X000990Y009871D01*
X001099Y009980D01*
X001158Y010122D01*
X001158Y010276D01*
X001099Y010419D01*
X000990Y010528D01*
X000848Y010586D01*
X000694Y010586D01*
X000552Y010528D01*
X000488Y010464D01*
X000488Y010722D01*
X000552Y010658D01*
X000694Y010599D01*
X000848Y010599D01*
X000990Y010658D01*
X001099Y010767D01*
X001158Y010909D01*
X001158Y011064D01*
X001114Y011172D01*
X001448Y010837D01*
X001448Y010342D01*
X001513Y010278D01*
X001953Y010278D01*
X001870Y010195D01*
X001631Y010195D01*
X001567Y010130D01*
X001567Y009449D01*
X001631Y009384D01*
X002234Y009384D01*
X002285Y009436D01*
X002367Y009354D01*
X002348Y009373D02*
X001158Y009373D01*
X001158Y009452D02*
X001567Y009452D01*
X001567Y009530D02*
X001141Y009530D01*
X001109Y009609D02*
X001567Y009609D01*
X001567Y009687D02*
X001043Y009687D01*
X000929Y009766D02*
X001567Y009766D01*
X001567Y009844D02*
X000927Y009844D01*
X001043Y009923D02*
X001567Y009923D01*
X001567Y010001D02*
X001109Y010001D01*
X001141Y010080D02*
X001567Y010080D01*
X001595Y010159D02*
X001158Y010159D01*
X001158Y010237D02*
X001912Y010237D01*
X001932Y010046D02*
X002110Y010223D01*
X002661Y010223D01*
X002858Y010420D01*
X002858Y010742D01*
X003164Y010708D02*
X004930Y010708D01*
X004930Y010787D02*
X003164Y010787D01*
X003164Y010865D02*
X004930Y010865D01*
X004930Y010944D02*
X003164Y010944D01*
X003164Y011022D02*
X003588Y011022D01*
X003509Y011101D02*
X003164Y011101D01*
X003232Y011494D02*
X003454Y011494D01*
X003533Y011572D02*
X003232Y011572D01*
X003232Y011651D02*
X003837Y011651D01*
X003916Y011729D02*
X003232Y011729D01*
X003232Y011808D02*
X003232Y011808D01*
X003232Y011886D02*
X003232Y011886D01*
X003232Y011965D02*
X003232Y011965D01*
X003232Y012044D02*
X003232Y012044D01*
X003502Y012279D02*
X003897Y012279D01*
X003897Y012201D02*
X003842Y012201D01*
X003842Y012122D02*
X003897Y012122D01*
X003897Y012044D02*
X003842Y012044D01*
X003897Y011988D02*
X003962Y011924D01*
X004683Y011924D01*
X004747Y011988D01*
X004747Y013418D01*
X004683Y013482D01*
X003962Y013482D01*
X003897Y013418D01*
X003897Y011988D01*
X003920Y011965D02*
X003842Y011965D01*
X003842Y011886D02*
X004073Y011886D01*
X003995Y011808D02*
X003842Y011808D01*
X004157Y011758D02*
X003724Y011325D01*
X001873Y011325D01*
X001802Y011397D01*
X001802Y011754D01*
X001212Y011754D02*
X001212Y011286D01*
X001755Y010742D01*
X001448Y010708D02*
X001041Y010708D01*
X001108Y010787D02*
X001448Y010787D01*
X001420Y010865D02*
X001140Y010865D01*
X001158Y010944D02*
X001342Y010944D01*
X001263Y011022D02*
X001158Y011022D01*
X001143Y011101D02*
X001184Y011101D01*
X000922Y010630D02*
X001448Y010630D01*
X001448Y010551D02*
X000933Y010551D01*
X001045Y010473D02*
X001448Y010473D01*
X001448Y010394D02*
X001110Y010394D01*
X001142Y010316D02*
X001475Y010316D01*
X001932Y010046D02*
X001932Y009790D01*
X001598Y009317D02*
X002680Y009317D01*
X002680Y009790D01*
X002721Y009766D02*
X004480Y009766D01*
X004402Y009844D02*
X003076Y009844D01*
X003076Y009923D02*
X004323Y009923D01*
X004245Y010001D02*
X003076Y010001D01*
X003076Y009687D02*
X003377Y009687D01*
X003403Y009713D02*
X003338Y009648D01*
X003338Y009340D01*
X003403Y009276D01*
X003966Y009276D01*
X004031Y009340D01*
X004031Y009648D01*
X003966Y009713D01*
X003403Y009713D01*
X003338Y009609D02*
X003076Y009609D01*
X003076Y009530D02*
X003338Y009530D01*
X003338Y009452D02*
X003076Y009452D01*
X003013Y009373D02*
X003338Y009373D01*
X003384Y009295D02*
X001142Y009295D01*
X001109Y009216D02*
X001597Y009216D01*
X001567Y009137D02*
X001045Y009137D01*
X000932Y009059D02*
X001567Y009059D01*
X001567Y008980D02*
X000924Y008980D01*
X001041Y008902D02*
X001567Y008902D01*
X001567Y008823D02*
X001108Y008823D01*
X001141Y008745D02*
X001567Y008745D01*
X001567Y008666D02*
X001158Y008666D01*
X001158Y008588D02*
X001567Y008588D01*
X001567Y008509D02*
X001143Y008509D01*
X001110Y008431D02*
X001782Y008431D01*
X001782Y008352D02*
X001047Y008352D01*
X000937Y008273D02*
X001782Y008273D01*
X001782Y008195D02*
X000919Y008195D01*
X001039Y008116D02*
X001838Y008116D01*
X001917Y008038D02*
X001107Y008038D01*
X001140Y007959D02*
X001995Y007959D01*
X002074Y007881D02*
X001158Y007881D01*
X001158Y007802D02*
X002438Y007802D01*
X002517Y007724D02*
X001144Y007724D01*
X001111Y007645D02*
X002941Y007645D01*
X002941Y007567D02*
X001049Y007567D01*
X000941Y007488D02*
X002989Y007488D01*
X002996Y007409D02*
X000914Y007409D01*
X001037Y007331D02*
X002402Y007331D01*
X002323Y007252D02*
X001106Y007252D01*
X001139Y007174D02*
X002272Y007174D01*
X002272Y007095D02*
X001158Y007095D01*
X001158Y007017D02*
X001363Y007017D01*
X001359Y006938D02*
X001144Y006938D01*
X001112Y006860D02*
X001359Y006860D01*
X001359Y006781D02*
X001051Y006781D01*
X000946Y006703D02*
X001359Y006703D01*
X001359Y006624D02*
X000909Y006624D01*
X000848Y006649D02*
X000694Y006649D01*
X000552Y006591D01*
X000443Y006481D01*
X000384Y006339D01*
X000384Y006185D01*
X000443Y006043D01*
X000552Y005934D01*
X000694Y005875D01*
X000848Y005875D01*
X000990Y005934D01*
X001099Y006043D01*
X001158Y006185D01*
X001158Y006339D01*
X001099Y006481D01*
X000990Y006591D01*
X000848Y006649D01*
X001035Y006546D02*
X001435Y006546D01*
X001389Y006467D02*
X001106Y006467D01*
X001165Y006522D02*
X001165Y005144D01*
X001322Y005301D01*
X002188Y005301D01*
X002267Y005223D01*
X002585Y005223D01*
X002600Y005210D02*
X002983Y005210D01*
X002975Y005208D02*
X002600Y005208D01*
X002600Y005238D01*
X002975Y005238D01*
X002975Y005366D01*
X002983Y005357D01*
X002983Y005088D01*
X002975Y005080D01*
X002975Y005208D01*
X002975Y005132D02*
X002983Y005132D01*
X002975Y005289D02*
X002983Y005289D01*
X003133Y005420D02*
X003015Y005538D01*
X002585Y005538D01*
X001795Y005538D01*
X001677Y005656D01*
X001677Y006305D01*
X001916Y006074D02*
X002225Y006074D01*
X002225Y006153D02*
X001964Y006153D01*
X001964Y006231D02*
X002225Y006231D01*
X002225Y006310D02*
X001964Y006310D01*
X001964Y006388D02*
X002225Y006388D01*
X002225Y006467D02*
X001964Y006467D01*
X001918Y006546D02*
X002225Y006546D01*
X002225Y006624D02*
X001994Y006624D01*
X001994Y006703D02*
X003338Y006703D01*
X003488Y006758D02*
X003842Y006404D01*
X003842Y005380D01*
X003724Y005262D01*
X004039Y005616D02*
X004039Y006483D01*
X003803Y006719D01*
X003803Y007070D01*
X003803Y007860D01*
X004117Y007427D02*
X004708Y008018D01*
X006480Y008018D01*
X006873Y008412D01*
X006483Y008588D02*
X005049Y008588D01*
X005054Y008666D02*
X006487Y008666D01*
X006487Y008745D02*
X005054Y008745D01*
X005054Y008823D02*
X006487Y008823D01*
X006487Y008902D02*
X005053Y008902D01*
X005084Y008980D02*
X006487Y008980D01*
X006487Y009059D02*
X005084Y009059D01*
X005062Y009120D02*
X005299Y008884D01*
X005299Y008648D01*
X005102Y008451D01*
X004236Y008451D01*
X004117Y008569D01*
X004117Y008923D01*
X004039Y009002D01*
X003133Y009002D01*
X002976Y008845D01*
X002680Y008845D01*
X002680Y009317D01*
X002641Y009373D02*
X002720Y009373D01*
X002720Y009452D02*
X002641Y009452D01*
X002641Y009530D02*
X002720Y009530D01*
X002720Y009609D02*
X002641Y009609D01*
X002641Y009687D02*
X002720Y009687D01*
X002720Y009216D02*
X002641Y009216D01*
X002641Y009137D02*
X002720Y009137D01*
X002720Y009059D02*
X002641Y009059D01*
X002641Y008980D02*
X002720Y008980D01*
X002720Y008902D02*
X002641Y008902D01*
X002721Y008823D02*
X003254Y008823D01*
X003175Y008745D02*
X003076Y008745D01*
X003076Y008666D02*
X003101Y008666D01*
X003101Y008588D02*
X003076Y008588D01*
X003076Y008509D02*
X003101Y008509D01*
X003101Y008431D02*
X003015Y008431D01*
X003101Y008352D02*
X002082Y008352D01*
X002082Y008431D02*
X002345Y008431D01*
X002478Y008273D02*
X002106Y008273D01*
X002184Y008195D02*
X002399Y008195D01*
X002641Y008431D02*
X002720Y008431D01*
X002720Y008509D02*
X002641Y008509D01*
X002641Y008588D02*
X002720Y008588D01*
X002720Y008666D02*
X002641Y008666D01*
X002641Y008745D02*
X002720Y008745D01*
X003076Y008902D02*
X003340Y008902D01*
X003076Y008980D02*
X004164Y008980D01*
X004164Y008902D02*
X004029Y008902D01*
X004031Y008823D02*
X004202Y008823D01*
X004281Y008745D02*
X004031Y008745D01*
X004031Y008666D02*
X004359Y008666D01*
X004367Y008588D02*
X004026Y008588D01*
X003834Y008509D02*
X006404Y008509D01*
X006326Y008431D02*
X003834Y008431D01*
X004164Y009059D02*
X003076Y009059D01*
X003076Y009137D02*
X004164Y009137D01*
X004164Y009216D02*
X003058Y009216D01*
X003101Y008273D02*
X002844Y008273D01*
X002922Y008195D02*
X003059Y008195D01*
X002952Y007802D02*
X002883Y007802D01*
X002941Y007724D02*
X002805Y007724D01*
X002763Y007331D02*
X002953Y007331D01*
X002953Y007252D02*
X002841Y007252D01*
X002582Y007073D02*
X003170Y007073D01*
X003173Y007070D01*
X002953Y006860D02*
X002807Y006860D01*
X002729Y006781D02*
X002953Y006781D01*
X003173Y006483D02*
X002585Y006483D01*
X002585Y006168D02*
X002936Y006168D01*
X003291Y005813D01*
X002981Y005839D02*
X002600Y005839D01*
X002600Y005838D02*
X002600Y005868D01*
X002975Y005868D01*
X002975Y005917D01*
X002981Y005911D01*
X002981Y005688D01*
X002975Y005688D01*
X002975Y005838D01*
X002600Y005838D01*
X002585Y005853D02*
X002228Y005853D01*
X002110Y005971D01*
X002110Y006601D01*
X001893Y006817D01*
X001677Y006817D01*
X001677Y008136D01*
X001401Y008412D01*
X001401Y009120D01*
X001598Y009317D01*
X000610Y009059D02*
X000488Y009059D01*
X000488Y009137D02*
X000497Y009137D01*
X000488Y008980D02*
X000618Y008980D01*
X000501Y008902D02*
X000488Y008902D01*
X000488Y008352D02*
X000495Y008352D01*
X000488Y008273D02*
X000605Y008273D01*
X000623Y008195D02*
X000488Y008195D01*
X000488Y008116D02*
X000503Y008116D01*
X000488Y007567D02*
X000493Y007567D01*
X000488Y007488D02*
X000601Y007488D01*
X000628Y007409D02*
X000488Y007409D01*
X000338Y007309D02*
X000338Y012270D01*
X000495Y012427D01*
X001047Y012427D01*
X001440Y012821D01*
X002818Y012821D01*
X003212Y012427D01*
X003232Y012750D02*
X003101Y012750D01*
X003022Y012829D02*
X003232Y012829D01*
X003232Y012908D02*
X002944Y012908D01*
X003232Y012986D02*
X000972Y012986D01*
X000972Y012908D02*
X001315Y012908D01*
X001236Y012829D02*
X000972Y012829D01*
X000972Y012750D02*
X001158Y012750D01*
X001079Y012672D02*
X000972Y012672D01*
X000972Y012669D02*
X000972Y013080D01*
X000907Y013144D01*
X000426Y013144D01*
X000362Y013080D01*
X000362Y012669D01*
X000426Y012604D01*
X000907Y012604D01*
X000972Y012669D01*
X001000Y012593D02*
X000261Y012593D01*
X000261Y012515D02*
X000371Y012515D01*
X000292Y012436D02*
X000261Y012436D01*
X000261Y012672D02*
X000362Y012672D01*
X000362Y012750D02*
X000261Y012750D01*
X000261Y012829D02*
X000362Y012829D01*
X000362Y012908D02*
X000261Y012908D01*
X000261Y012986D02*
X000362Y012986D01*
X000362Y013065D02*
X000261Y013065D01*
X000261Y013143D02*
X000425Y013143D01*
X000261Y013222D02*
X003897Y013222D01*
X003897Y013300D02*
X000261Y013300D01*
X000261Y013379D02*
X003897Y013379D01*
X003937Y013457D02*
X000261Y013457D01*
X000908Y013143D02*
X003295Y013143D01*
X003232Y013065D02*
X000972Y013065D01*
X000501Y010708D02*
X000488Y010708D01*
X000488Y010630D02*
X000620Y010630D01*
X000609Y010551D02*
X000488Y010551D01*
X000488Y010473D02*
X000497Y010473D01*
X000488Y009923D02*
X000499Y009923D01*
X000488Y009844D02*
X000615Y009844D01*
X000614Y009766D02*
X000488Y009766D01*
X000488Y009687D02*
X000499Y009687D01*
X000338Y007309D02*
X000598Y007049D01*
X000771Y007049D01*
X000491Y006781D02*
X000261Y006781D01*
X000261Y006703D02*
X000596Y006703D01*
X000633Y006624D02*
X000261Y006624D01*
X000261Y006546D02*
X000507Y006546D01*
X000437Y006467D02*
X000261Y006467D01*
X000261Y006388D02*
X000404Y006388D01*
X000384Y006310D02*
X000261Y006310D01*
X000261Y006231D02*
X000384Y006231D01*
X000397Y006153D02*
X000261Y006153D01*
X000261Y006074D02*
X000429Y006074D01*
X000489Y005996D02*
X000261Y005996D01*
X000261Y005917D02*
X000591Y005917D01*
X000637Y005839D02*
X000261Y005839D01*
X000261Y005760D02*
X000509Y005760D01*
X000552Y005803D02*
X000443Y005694D01*
X000384Y005552D01*
X000384Y005398D01*
X000443Y005255D01*
X000552Y005146D01*
X000694Y005087D01*
X000848Y005087D01*
X000990Y005146D01*
X001099Y005255D01*
X001158Y005398D01*
X001158Y005552D01*
X001099Y005694D01*
X000990Y005803D01*
X000848Y005862D01*
X000694Y005862D01*
X000552Y005803D01*
X000437Y005682D02*
X000261Y005682D01*
X000261Y005603D02*
X000405Y005603D01*
X000384Y005524D02*
X000261Y005524D01*
X000261Y005446D02*
X000384Y005446D01*
X000396Y005367D02*
X000261Y005367D01*
X000261Y005289D02*
X000429Y005289D01*
X000487Y005210D02*
X000261Y005210D01*
X000261Y005132D02*
X000586Y005132D01*
X000642Y005053D02*
X000261Y005053D01*
X000261Y004975D02*
X000510Y004975D01*
X000438Y004896D02*
X000261Y004896D01*
X000261Y004818D02*
X000406Y004818D01*
X000384Y004739D02*
X000261Y004739D01*
X000261Y004660D02*
X000384Y004660D01*
X000395Y004582D02*
X000261Y004582D01*
X000261Y004503D02*
X000428Y004503D01*
X000485Y004425D02*
X000261Y004425D01*
X000261Y004346D02*
X000582Y004346D01*
X000568Y004268D02*
X000261Y004268D01*
X000261Y004189D02*
X000470Y004189D01*
X000406Y004111D02*
X000261Y004111D01*
X000261Y004032D02*
X000374Y004032D01*
X000354Y003954D02*
X000261Y003954D01*
X000261Y003875D02*
X000732Y003875D01*
X000810Y003875D02*
X001389Y003875D01*
X001389Y003796D02*
X001180Y003796D01*
X001148Y003718D02*
X001411Y003718D01*
X001389Y003954D02*
X001188Y003954D01*
X001168Y004032D02*
X001389Y004032D01*
X001393Y004111D02*
X001136Y004111D01*
X001072Y004189D02*
X001370Y004189D01*
X001359Y004268D02*
X000974Y004268D01*
X000960Y004346D02*
X001359Y004346D01*
X001165Y004412D02*
X001165Y005144D01*
X001055Y005210D02*
X002570Y005210D01*
X002195Y005132D02*
X000956Y005132D01*
X000900Y005053D02*
X001391Y005053D01*
X001389Y004975D02*
X001032Y004975D01*
X001104Y004896D02*
X001389Y004896D01*
X001389Y004818D02*
X001136Y004818D01*
X001158Y004739D02*
X001389Y004739D01*
X001414Y004660D02*
X001158Y004660D01*
X001147Y004582D02*
X001359Y004582D01*
X000810Y004268D02*
X000732Y004268D01*
X000732Y004189D02*
X000810Y004189D01*
X000810Y004111D02*
X000732Y004111D01*
X000732Y004032D02*
X000810Y004032D01*
X000810Y003954D02*
X000732Y003954D01*
X000732Y003796D02*
X000810Y003796D01*
X000810Y003718D02*
X000732Y003718D01*
X000732Y003639D02*
X000810Y003639D01*
X000810Y003561D02*
X000732Y003561D01*
X000520Y003561D02*
X000261Y003561D01*
X000261Y003639D02*
X000441Y003639D01*
X000394Y003718D02*
X000261Y003718D01*
X000261Y003796D02*
X000362Y003796D01*
X000261Y003482D02*
X002953Y003482D01*
X002953Y003404D02*
X002056Y003404D01*
X002012Y003448D02*
X001656Y003448D01*
X001404Y003196D01*
X001404Y002840D01*
X001656Y002588D01*
X002012Y002588D01*
X002264Y002840D01*
X002264Y003196D01*
X002012Y003448D01*
X002135Y003325D02*
X003023Y003325D01*
X003023Y003247D02*
X002213Y003247D01*
X002264Y003168D02*
X003023Y003168D01*
X003023Y003090D02*
X002264Y003090D01*
X002264Y003011D02*
X003023Y003011D01*
X003023Y002933D02*
X002264Y002933D01*
X002264Y002854D02*
X003023Y002854D01*
X003023Y002775D02*
X002200Y002775D01*
X002121Y002697D02*
X003023Y002697D01*
X003023Y002618D02*
X002042Y002618D01*
X002028Y002442D02*
X001878Y002442D01*
X001878Y002023D01*
X001798Y002023D01*
X001798Y002442D01*
X001647Y002442D01*
X001378Y002173D01*
X001378Y002022D01*
X001798Y002022D01*
X001798Y001943D01*
X001378Y001943D01*
X001378Y001792D01*
X001647Y001523D01*
X001798Y001523D01*
X001798Y001942D01*
X001878Y001942D01*
X001878Y001523D01*
X002028Y001523D01*
X002298Y001792D01*
X002298Y001943D01*
X001878Y001943D01*
X001878Y002022D01*
X002298Y002022D01*
X002298Y002173D01*
X002028Y002442D01*
X002088Y002383D02*
X002630Y002383D01*
X002552Y002304D02*
X002167Y002304D01*
X002245Y002226D02*
X002473Y002226D01*
X002408Y002147D02*
X002298Y002147D01*
X002298Y002069D02*
X002408Y002069D01*
X002408Y001990D02*
X001878Y001990D01*
X001838Y001983D02*
X000838Y001983D01*
X000878Y001990D02*
X001798Y001990D01*
X001798Y002069D02*
X001878Y002069D01*
X001878Y002147D02*
X001798Y002147D01*
X001798Y002226D02*
X001878Y002226D01*
X001878Y002304D02*
X001798Y002304D01*
X001798Y002383D02*
X001878Y002383D01*
X001626Y002618D02*
X000261Y002618D01*
X000261Y002540D02*
X002955Y002540D01*
X002876Y002461D02*
X000261Y002461D01*
X000261Y002383D02*
X000588Y002383D01*
X000509Y002304D02*
X000261Y002304D01*
X000261Y002226D02*
X000431Y002226D01*
X000378Y002147D02*
X000261Y002147D01*
X000261Y002069D02*
X000378Y002069D01*
X000261Y001990D02*
X000798Y001990D01*
X000798Y002069D02*
X000878Y002069D01*
X000878Y002147D02*
X000798Y002147D01*
X000798Y002226D02*
X000878Y002226D01*
X000878Y002304D02*
X000798Y002304D01*
X000798Y002383D02*
X000878Y002383D01*
X001088Y002383D02*
X001588Y002383D01*
X001509Y002304D02*
X001167Y002304D01*
X001245Y002226D02*
X001431Y002226D01*
X001378Y002147D02*
X001298Y002147D01*
X001298Y002069D02*
X001378Y002069D01*
X001378Y001911D02*
X001298Y001911D01*
X001298Y001833D02*
X001378Y001833D01*
X001416Y001754D02*
X001260Y001754D01*
X001182Y001676D02*
X001494Y001676D01*
X001573Y001597D02*
X001103Y001597D01*
X000878Y001597D02*
X000798Y001597D01*
X000798Y001676D02*
X000878Y001676D01*
X000878Y001754D02*
X000798Y001754D01*
X000798Y001833D02*
X000878Y001833D01*
X000878Y001911D02*
X000798Y001911D01*
X000494Y001676D02*
X000261Y001676D01*
X000261Y001754D02*
X000416Y001754D01*
X000378Y001833D02*
X000261Y001833D01*
X000261Y001911D02*
X000378Y001911D01*
X000261Y001283D02*
X000530Y001283D01*
X000452Y001205D02*
X000261Y001205D01*
X000261Y001126D02*
X000408Y001126D01*
X000408Y001047D02*
X000261Y001047D01*
X000261Y000969D02*
X000408Y000969D01*
X000408Y000890D02*
X000261Y000890D01*
X000261Y000812D02*
X000408Y000812D01*
X000479Y000733D02*
X000261Y000733D01*
X000261Y000655D02*
X000558Y000655D01*
X000636Y000576D02*
X000261Y000576D01*
X000261Y000498D02*
X010454Y000498D01*
X010454Y000576D02*
X010040Y000576D01*
X010016Y000553D02*
X010268Y000804D01*
X010268Y001161D01*
X010016Y001412D01*
X009660Y001412D01*
X009408Y001161D01*
X009408Y000804D01*
X009660Y000553D01*
X010016Y000553D01*
X010118Y000655D02*
X010454Y000655D01*
X010454Y000733D02*
X010197Y000733D01*
X010268Y000812D02*
X010454Y000812D01*
X010454Y000890D02*
X010268Y000890D01*
X010268Y000969D02*
X010454Y000969D01*
X010454Y001047D02*
X010268Y001047D01*
X010268Y001126D02*
X010454Y001126D01*
X010454Y001205D02*
X010224Y001205D01*
X010145Y001283D02*
X010454Y001283D01*
X010454Y001362D02*
X010067Y001362D01*
X010016Y001553D02*
X010268Y001804D01*
X010268Y002161D01*
X010016Y002412D01*
X009740Y002412D01*
X009740Y003238D01*
X009740Y003168D02*
X010454Y003168D01*
X010454Y003090D02*
X009740Y003090D01*
X009740Y003011D02*
X010454Y003011D01*
X010454Y002933D02*
X009740Y002933D01*
X009740Y002854D02*
X010454Y002854D01*
X010454Y002775D02*
X009740Y002775D01*
X009740Y002697D02*
X010454Y002697D01*
X010454Y002618D02*
X009740Y002618D01*
X009740Y002540D02*
X010454Y002540D01*
X010454Y002461D02*
X009740Y002461D01*
X009590Y002467D02*
X009590Y003175D01*
X008960Y003805D01*
X008960Y004278D01*
X009270Y004268D02*
X009308Y004268D01*
X009303Y005053D02*
X009189Y005053D01*
X009189Y005132D02*
X009248Y005132D01*
X008684Y005459D02*
X008645Y005420D01*
X008232Y005420D01*
X008232Y005164D01*
X008133Y005065D01*
X007818Y005065D01*
X007720Y004967D01*
X007720Y004750D01*
X007472Y005603D02*
X007191Y005603D01*
X007191Y005524D02*
X007239Y005524D01*
X007144Y005682D02*
X007511Y005682D01*
X007354Y005760D02*
X006829Y005760D01*
X006829Y005839D02*
X007276Y005839D01*
X007233Y005917D02*
X006829Y005917D01*
X006814Y005996D02*
X007233Y005996D01*
X007233Y006074D02*
X006736Y006074D01*
X006669Y006153D02*
X007247Y006153D01*
X007326Y006231D02*
X006669Y006231D01*
X006668Y006310D02*
X007393Y006310D01*
X007393Y006388D02*
X006589Y006388D01*
X006519Y006246D02*
X006519Y005853D01*
X006556Y005524D02*
X005980Y005524D01*
X005965Y005538D02*
X006362Y005538D01*
X006460Y005439D01*
X006873Y005439D01*
X006873Y006404D01*
X006991Y006522D01*
X006991Y006916D01*
X007110Y007034D01*
X007543Y007034D01*
X007779Y007034D01*
X007858Y007112D01*
X008054Y007112D01*
X008133Y007034D01*
X008033Y007095D02*
X007919Y007095D01*
X007919Y007174D02*
X008033Y007174D01*
X008063Y007252D02*
X007919Y007252D01*
X007919Y007331D02*
X008063Y007331D01*
X008063Y007409D02*
X007919Y007409D01*
X007919Y007488D02*
X008052Y007488D01*
X008033Y007567D02*
X007919Y007567D01*
X007919Y007645D02*
X008033Y007645D01*
X008033Y007724D02*
X007919Y007724D01*
X007919Y007802D02*
X008033Y007802D01*
X008033Y007881D02*
X007889Y007881D01*
X007889Y007959D02*
X008033Y007959D01*
X007976Y008333D02*
X008369Y008333D01*
X008409Y008294D01*
X008409Y008569D01*
X008330Y008648D01*
X008330Y008923D01*
X008448Y008333D02*
X008409Y008294D01*
X008724Y008294D01*
X008803Y008215D01*
X008803Y007427D01*
X008724Y007349D01*
X009189Y006703D02*
X009257Y006703D01*
X009294Y006624D02*
X009189Y006624D01*
X009571Y006624D02*
X010454Y006624D01*
X010454Y006546D02*
X009697Y006546D01*
X009767Y006467D02*
X010454Y006467D01*
X010454Y006388D02*
X009799Y006388D01*
X009820Y006310D02*
X010454Y006310D01*
X010454Y006231D02*
X009820Y006231D01*
X009807Y006153D02*
X010454Y006153D01*
X010454Y006074D02*
X009774Y006074D01*
X009714Y005996D02*
X010454Y005996D01*
X010454Y005917D02*
X009612Y005917D01*
X009509Y005875D02*
X009355Y005875D01*
X009213Y005934D01*
X009189Y005958D01*
X009189Y005909D01*
X009133Y005853D01*
X009147Y005839D02*
X009299Y005839D01*
X009252Y005917D02*
X009189Y005917D01*
X009608Y006703D02*
X010454Y006703D01*
X010454Y006781D02*
X009712Y006781D01*
X009773Y006860D02*
X010454Y006860D01*
X010454Y006938D02*
X009806Y006938D01*
X009820Y007017D02*
X010454Y007017D01*
X010454Y007095D02*
X009820Y007095D01*
X009800Y007174D02*
X010454Y007174D01*
X010454Y007252D02*
X009848Y007252D01*
X009926Y007331D02*
X010454Y007331D01*
X010454Y007409D02*
X010005Y007409D01*
X010083Y007488D02*
X010454Y007488D01*
X010454Y007567D02*
X010134Y007567D01*
X010134Y007645D02*
X010454Y007645D01*
X010454Y007724D02*
X010134Y007724D01*
X010134Y007802D02*
X010454Y007802D01*
X010454Y007881D02*
X010134Y007881D01*
X010134Y007959D02*
X010454Y007959D01*
X010454Y008038D02*
X010134Y008038D01*
X010134Y008116D02*
X010454Y008116D01*
X010454Y008195D02*
X010134Y008195D01*
X010134Y008273D02*
X010454Y008273D01*
X010454Y008352D02*
X010134Y008352D01*
X010134Y008431D02*
X010454Y008431D01*
X010454Y008509D02*
X010134Y008509D01*
X010134Y008588D02*
X010454Y008588D01*
X010454Y008666D02*
X010134Y008666D01*
X010134Y008745D02*
X010454Y008745D01*
X010454Y008823D02*
X010134Y008823D01*
X010134Y008902D02*
X010454Y008902D01*
X010454Y008980D02*
X010134Y008980D01*
X010134Y009059D02*
X010454Y009059D01*
X010454Y009137D02*
X010134Y009137D01*
X010134Y009216D02*
X010454Y009216D01*
X010454Y009295D02*
X010134Y009295D01*
X010134Y009373D02*
X010454Y009373D01*
X010454Y009452D02*
X010134Y009452D01*
X010134Y009530D02*
X010454Y009530D01*
X010454Y009609D02*
X010134Y009609D01*
X010134Y009687D02*
X010454Y009687D01*
X010454Y009766D02*
X010134Y009766D01*
X010134Y009844D02*
X010454Y009844D01*
X010454Y009923D02*
X010134Y009923D01*
X010134Y010001D02*
X010454Y010001D01*
X010454Y010080D02*
X010134Y010080D01*
X010134Y010159D02*
X010454Y010159D01*
X010454Y010237D02*
X010134Y010237D01*
X010134Y010316D02*
X010454Y010316D01*
X010454Y010394D02*
X010134Y010394D01*
X010134Y010473D02*
X010454Y010473D01*
X010454Y010551D02*
X010134Y010551D01*
X010134Y010630D02*
X010454Y010630D01*
X010454Y010708D02*
X010134Y010708D01*
X010134Y010787D02*
X010454Y010787D01*
X010454Y010865D02*
X010134Y010865D01*
X010134Y010944D02*
X010454Y010944D01*
X010454Y011022D02*
X010134Y011022D01*
X010134Y011101D02*
X010454Y011101D01*
X010454Y011180D02*
X010066Y011180D01*
X009987Y011258D02*
X010454Y011258D01*
X010454Y011337D02*
X009909Y011337D01*
X009830Y011415D02*
X010454Y011415D01*
X010251Y011494D02*
X010173Y011494D01*
X010173Y011457D02*
X009996Y011457D01*
X009914Y011539D01*
X009914Y011715D01*
X010173Y011715D01*
X010173Y011457D01*
X010173Y011572D02*
X010251Y011572D01*
X010251Y011651D02*
X010173Y011651D01*
X010173Y011729D02*
X009889Y011729D01*
X009914Y011793D02*
X010173Y011793D01*
X010173Y012052D01*
X009996Y012052D01*
X009914Y011970D01*
X009914Y011793D01*
X009914Y011808D02*
X009889Y011808D01*
X009889Y011886D02*
X009914Y011886D01*
X009914Y011965D02*
X009881Y011965D01*
X009988Y012044D02*
X009107Y012044D01*
X009186Y012122D02*
X010454Y012122D01*
X010454Y012044D02*
X010436Y012044D01*
X010454Y012201D02*
X009430Y012201D01*
X009509Y012279D02*
X010454Y012279D01*
X010454Y012358D02*
X009587Y012358D01*
X009655Y012436D02*
X010454Y012436D01*
X010454Y012515D02*
X009655Y012515D01*
X009682Y012525D02*
X009798Y012525D01*
X009923Y012650D01*
X009740Y012833D01*
X009795Y012888D01*
X009977Y012705D01*
X010102Y012830D01*
X010102Y012946D01*
X009977Y013071D01*
X009795Y012888D01*
X009740Y012943D01*
X009923Y013126D01*
X009798Y013251D01*
X009682Y013251D01*
X009557Y013126D01*
X009739Y012943D01*
X009685Y012888D01*
X009739Y012833D01*
X009557Y012650D01*
X009682Y012525D01*
X009614Y012593D02*
X009577Y012593D01*
X009578Y012672D02*
X009499Y012672D01*
X009502Y012705D02*
X009377Y012830D01*
X009377Y012946D01*
X009502Y013071D01*
X009685Y012888D01*
X009502Y012705D01*
X009547Y012750D02*
X009657Y012750D01*
X009626Y012829D02*
X009735Y012829D01*
X009744Y012829D02*
X009854Y012829D01*
X009822Y012750D02*
X009932Y012750D01*
X009901Y012672D02*
X010454Y012672D01*
X010454Y012750D02*
X010023Y012750D01*
X010101Y012829D02*
X010454Y012829D01*
X010454Y012908D02*
X010102Y012908D01*
X010062Y012986D02*
X010454Y012986D01*
X010454Y013065D02*
X009984Y013065D01*
X009971Y013065D02*
X009861Y013065D01*
X009892Y012986D02*
X009783Y012986D01*
X009775Y012908D02*
X009814Y012908D01*
X009740Y012888D02*
X010212Y012416D01*
X010212Y011754D01*
X010173Y011808D02*
X010251Y011808D01*
X010251Y011886D02*
X010173Y011886D01*
X010173Y011965D02*
X010251Y011965D01*
X010251Y012044D02*
X010173Y012044D01*
X009914Y011651D02*
X009889Y011651D01*
X009889Y011572D02*
X009914Y011572D01*
X009959Y011494D02*
X009831Y011494D01*
X009590Y011443D02*
X009984Y011049D01*
X009984Y007601D01*
X009432Y007049D01*
X009432Y008624D02*
X009432Y008805D01*
X008684Y009553D01*
X008015Y009553D01*
X007779Y009317D01*
X007621Y009317D01*
X007621Y009868D02*
X007621Y010498D01*
X007149Y010498D01*
X006834Y010183D01*
X006684Y010159D02*
X006361Y010159D01*
X006361Y010237D02*
X006684Y010237D01*
X006754Y010316D02*
X006361Y010316D01*
X006361Y010394D02*
X006833Y010394D01*
X006911Y010473D02*
X006361Y010473D01*
X006361Y010551D02*
X006990Y010551D01*
X006999Y010560D02*
X006999Y010560D01*
X007068Y010630D02*
X006361Y010630D01*
X006361Y010708D02*
X007393Y010708D01*
X007394Y010787D02*
X006361Y010787D01*
X006361Y010865D02*
X007334Y010865D01*
X007334Y010944D02*
X006361Y010944D01*
X006361Y011022D02*
X007334Y011022D01*
X007334Y011101D02*
X006361Y011101D01*
X006361Y011180D02*
X007334Y011180D01*
X007379Y011258D02*
X006361Y011258D01*
X006361Y011337D02*
X007356Y011337D01*
X007334Y011415D02*
X006361Y011415D01*
X006361Y011494D02*
X007334Y011494D01*
X007334Y011572D02*
X006361Y011572D01*
X006317Y011651D02*
X007334Y011651D01*
X007339Y011729D02*
X006091Y011729D01*
X006012Y011808D02*
X007471Y011808D01*
X007471Y011886D02*
X005934Y011886D01*
X005850Y011758D02*
X004157Y011758D01*
X004183Y011572D02*
X004930Y011572D01*
X004930Y011494D02*
X004105Y011494D01*
X004034Y011415D02*
X004930Y011415D01*
X004930Y011337D02*
X004034Y011337D01*
X004034Y011258D02*
X004930Y011258D01*
X004930Y011180D02*
X004017Y011180D01*
X003938Y011101D02*
X004930Y011101D01*
X004930Y011022D02*
X003860Y011022D01*
X004355Y010316D02*
X004930Y010316D01*
X004930Y010394D02*
X003164Y010394D01*
X003164Y010473D02*
X004930Y010473D01*
X004930Y010551D02*
X003164Y010551D01*
X003164Y010630D02*
X005227Y010630D01*
X005267Y010656D02*
X005267Y009388D01*
X005535Y009120D01*
X006204Y009120D01*
X006519Y009435D01*
X006519Y011364D01*
X006657Y011502D01*
X006972Y011502D01*
X007503Y012034D01*
X007503Y013175D01*
X007614Y013286D01*
X008582Y013286D01*
X009342Y013286D01*
X009740Y012888D01*
X009704Y012908D02*
X009665Y012908D01*
X009696Y012986D02*
X009587Y012986D01*
X009618Y013065D02*
X009508Y013065D01*
X009495Y013065D02*
X008874Y013065D01*
X008879Y013070D02*
X008879Y013247D01*
X008621Y013247D01*
X008621Y012988D01*
X008798Y012988D01*
X008879Y013070D01*
X008879Y013143D02*
X009574Y013143D01*
X009653Y013222D02*
X008879Y013222D01*
X008879Y013379D02*
X010454Y013379D01*
X010454Y013457D02*
X008879Y013457D01*
X008621Y013300D02*
X010454Y013300D01*
X010454Y013222D02*
X009827Y013222D01*
X009905Y013143D02*
X010454Y013143D01*
X010454Y012593D02*
X009865Y012593D01*
X009457Y012750D02*
X009420Y012750D01*
X009378Y012829D02*
X008849Y012829D01*
X008849Y012750D02*
X009224Y012750D01*
X009145Y012672D02*
X008849Y012672D01*
X008849Y012593D02*
X009067Y012593D01*
X008989Y012515D02*
X008849Y012515D01*
X008794Y012436D02*
X008989Y012436D01*
X008997Y012358D02*
X008630Y012358D01*
X008551Y012279D02*
X008919Y012279D01*
X008925Y012073D02*
X008448Y012073D01*
X008173Y011797D01*
X008173Y011542D01*
X008395Y011808D02*
X009113Y011808D01*
X009191Y011886D02*
X008474Y011886D01*
X008684Y011542D02*
X009058Y011542D01*
X009271Y011754D01*
X009621Y011754D01*
X009362Y011965D02*
X009029Y011965D01*
X008925Y012073D02*
X009322Y012471D01*
X009377Y012908D02*
X008840Y012908D01*
X008621Y013065D02*
X008543Y013065D01*
X008543Y013143D02*
X008621Y013143D01*
X008621Y013222D02*
X008543Y013222D01*
X008543Y013300D02*
X007424Y013300D01*
X007424Y013222D02*
X008285Y013222D01*
X008285Y013143D02*
X007424Y013143D01*
X007424Y013065D02*
X008290Y013065D01*
X008324Y012908D02*
X007424Y012908D01*
X007424Y012986D02*
X009417Y012986D01*
X008582Y012695D02*
X008582Y012522D01*
X008133Y012073D01*
X007818Y012073D01*
X007621Y011876D01*
X007621Y011542D01*
X007887Y011337D02*
X007907Y011337D01*
X007930Y011258D02*
X007864Y011258D01*
X007621Y011030D02*
X007621Y010498D01*
X008173Y010498D02*
X008173Y011030D01*
X008415Y011258D02*
X008442Y011258D01*
X008684Y011030D02*
X008980Y011030D01*
X009039Y011089D01*
X009039Y011286D01*
X009196Y011443D01*
X009590Y011443D01*
X009034Y011729D02*
X008967Y011729D01*
X008284Y012436D02*
X008211Y012436D01*
X008204Y012358D02*
X008206Y012358D01*
X008203Y012515D02*
X008315Y012515D01*
X008315Y012593D02*
X008170Y012593D01*
X008098Y012672D02*
X008315Y012672D01*
X008315Y012750D02*
X007424Y012750D01*
X007424Y012672D02*
X007724Y012672D01*
X007652Y012593D02*
X007424Y012593D01*
X007424Y012515D02*
X007620Y012515D01*
X007611Y012436D02*
X007424Y012436D01*
X007424Y012358D02*
X007618Y012358D01*
X007651Y012279D02*
X007424Y012279D01*
X007424Y012201D02*
X007721Y012201D01*
X007668Y012135D02*
X007668Y012135D01*
X007655Y012122D02*
X007424Y012122D01*
X007424Y012044D02*
X007577Y012044D01*
X007559Y012026D02*
X007559Y012026D01*
X007498Y011965D02*
X007401Y011965D01*
X007424Y011988D02*
X007424Y013418D01*
X007360Y013482D01*
X006639Y013482D01*
X006574Y013418D01*
X006574Y011988D01*
X006639Y011924D01*
X007360Y011924D01*
X007424Y011988D01*
X007424Y012829D02*
X008315Y012829D01*
X008285Y013379D02*
X007424Y013379D01*
X007385Y013457D02*
X008285Y013457D01*
X006614Y013457D02*
X004708Y013457D01*
X004747Y013379D02*
X006574Y013379D01*
X006574Y013300D02*
X004747Y013300D01*
X004747Y013222D02*
X006574Y013222D01*
X006574Y013143D02*
X004747Y013143D01*
X004747Y013065D02*
X006574Y013065D01*
X006574Y012986D02*
X004747Y012986D01*
X004747Y012908D02*
X006574Y012908D01*
X006574Y012829D02*
X004747Y012829D01*
X004747Y012750D02*
X006574Y012750D01*
X006574Y012672D02*
X004747Y012672D01*
X004747Y012593D02*
X006574Y012593D01*
X006574Y012515D02*
X004747Y012515D01*
X004747Y012436D02*
X006574Y012436D01*
X006574Y012358D02*
X004747Y012358D01*
X004747Y012279D02*
X006574Y012279D01*
X006574Y012201D02*
X004747Y012201D01*
X004747Y012122D02*
X006574Y012122D01*
X006574Y012044D02*
X004747Y012044D01*
X004724Y011965D02*
X006598Y011965D01*
X006054Y011553D02*
X005850Y011758D01*
X005748Y011572D02*
X005604Y011572D01*
X005604Y011494D02*
X005748Y011494D01*
X005748Y011415D02*
X005604Y011415D01*
X005604Y011337D02*
X005748Y011337D01*
X005748Y011258D02*
X005604Y011258D01*
X005604Y011180D02*
X005748Y011180D01*
X005748Y011101D02*
X005604Y011101D01*
X005604Y011022D02*
X005748Y011022D01*
X005748Y010944D02*
X005604Y010944D01*
X005604Y010865D02*
X005748Y010865D01*
X005748Y010787D02*
X005604Y010787D01*
X005604Y010708D02*
X005748Y010708D01*
X005748Y010630D02*
X005307Y010630D01*
X005307Y010616D02*
X005604Y010616D01*
X005604Y009692D01*
X005522Y009610D01*
X005307Y009610D01*
X005307Y010616D01*
X005307Y010551D02*
X005227Y010551D01*
X005227Y010473D02*
X005307Y010473D01*
X005307Y010394D02*
X005227Y010394D01*
X005227Y010316D02*
X005307Y010316D01*
X005307Y010237D02*
X005227Y010237D01*
X005227Y010159D02*
X005307Y010159D01*
X005307Y010080D02*
X005227Y010080D01*
X005227Y010001D02*
X005307Y010001D01*
X005307Y009923D02*
X005227Y009923D01*
X005227Y009844D02*
X005307Y009844D01*
X005307Y009766D02*
X005227Y009766D01*
X005227Y009687D02*
X005307Y009687D01*
X005054Y009609D02*
X006684Y009609D01*
X006684Y009687D02*
X006344Y009687D01*
X006361Y009766D02*
X006684Y009766D01*
X006684Y009844D02*
X006361Y009844D01*
X006361Y009923D02*
X006684Y009923D01*
X006684Y010001D02*
X006361Y010001D01*
X006361Y010080D02*
X006684Y010080D01*
X006638Y009530D02*
X005054Y009530D01*
X005054Y009452D02*
X006559Y009452D01*
X006487Y009373D02*
X005054Y009373D01*
X005076Y009295D02*
X006487Y009295D01*
X006487Y009216D02*
X005084Y009216D01*
X005084Y009137D02*
X006487Y009137D01*
X005765Y009687D02*
X005599Y009687D01*
X005604Y009766D02*
X005748Y009766D01*
X005748Y009844D02*
X005604Y009844D01*
X005604Y009923D02*
X005748Y009923D01*
X005748Y010001D02*
X005604Y010001D01*
X005604Y010080D02*
X005748Y010080D01*
X005748Y010159D02*
X005604Y010159D01*
X005604Y010237D02*
X005748Y010237D01*
X005748Y010316D02*
X005604Y010316D01*
X005604Y010394D02*
X005748Y010394D01*
X005748Y010473D02*
X005604Y010473D01*
X005604Y010551D02*
X005748Y010551D01*
X006054Y010656D02*
X006054Y011553D01*
X004930Y010237D02*
X004433Y010237D01*
X004512Y010159D02*
X004930Y010159D01*
X004930Y010080D02*
X004590Y010080D01*
X004669Y010001D02*
X004930Y010001D01*
X004930Y009923D02*
X004747Y009923D01*
X004826Y009844D02*
X004930Y009844D01*
X004930Y009766D02*
X004858Y009766D01*
X004708Y009750D02*
X004708Y009494D01*
X004491Y009494D01*
X004314Y009317D01*
X004314Y008923D01*
X004491Y008746D01*
X004708Y008746D01*
X004708Y009120D02*
X005062Y009120D01*
X005535Y009120D01*
X004708Y009750D02*
X004236Y010223D01*
X002661Y010223D01*
X003991Y009687D02*
X004401Y009687D01*
X004362Y009609D02*
X004031Y009609D01*
X004031Y009530D02*
X004315Y009530D01*
X004237Y009452D02*
X004031Y009452D01*
X004031Y009373D02*
X004164Y009373D01*
X004164Y009295D02*
X003985Y009295D01*
X004747Y007742D02*
X006558Y007742D01*
X006440Y007506D02*
X006558Y007388D01*
X006558Y006719D01*
X006283Y006483D02*
X006519Y006246D01*
X006283Y006483D02*
X005965Y006483D01*
X005965Y006168D02*
X005299Y006168D01*
X005154Y005703D02*
X005575Y005703D01*
X005575Y005553D01*
X005950Y005553D01*
X005950Y005523D01*
X005575Y005523D01*
X005575Y005370D01*
X005605Y005340D01*
X005605Y005067D01*
X005607Y005065D01*
X005605Y005063D01*
X005605Y004752D01*
X005607Y004750D01*
X005605Y004748D01*
X005605Y004743D01*
X005591Y004743D01*
X005473Y004625D01*
X004691Y004625D01*
X004364Y004952D01*
X004482Y004952D01*
X004649Y005119D01*
X004737Y005031D01*
X004994Y005031D01*
X005175Y005212D01*
X005175Y005469D01*
X005048Y005597D01*
X005154Y005703D01*
X005133Y005682D02*
X005575Y005682D01*
X005575Y005603D02*
X005054Y005603D01*
X005120Y005524D02*
X005950Y005524D01*
X005965Y005538D02*
X005574Y005538D01*
X005338Y005301D01*
X005338Y004790D01*
X005509Y004660D02*
X004656Y004660D01*
X004577Y004739D02*
X005587Y004739D01*
X005605Y004818D02*
X004498Y004818D01*
X004420Y004896D02*
X005605Y004896D01*
X005605Y004975D02*
X004505Y004975D01*
X004583Y005053D02*
X004715Y005053D01*
X004866Y005341D02*
X004472Y005734D01*
X004314Y005734D01*
X004236Y005813D01*
X004236Y006049D01*
X004314Y006128D01*
X004669Y006128D01*
X004866Y006325D01*
X004866Y006601D01*
X005062Y006797D01*
X005062Y007070D01*
X004747Y007070D02*
X004747Y007427D01*
X004826Y007506D01*
X006440Y007506D01*
X006007Y007073D02*
X005380Y007073D01*
X005377Y007070D01*
X004747Y007742D02*
X004432Y007427D01*
X004432Y007070D01*
X004117Y007070D02*
X004117Y006719D01*
X004354Y006483D01*
X004472Y006483D01*
X004866Y005853D02*
X005965Y005853D01*
X005575Y005446D02*
X005175Y005446D01*
X005175Y005367D02*
X005577Y005367D01*
X005605Y005289D02*
X005175Y005289D01*
X005173Y005210D02*
X005605Y005210D01*
X005605Y005132D02*
X005095Y005132D01*
X005016Y005053D02*
X005605Y005053D01*
X005965Y005223D02*
X006362Y005223D01*
X006657Y004927D01*
X006873Y004927D01*
X006589Y005210D02*
X006586Y005210D01*
X006556Y005289D02*
X006508Y005289D01*
X006556Y005367D02*
X006429Y005367D01*
X006355Y005446D02*
X006844Y005446D01*
X006844Y005524D02*
X006902Y005524D01*
X006902Y005603D02*
X006844Y005603D01*
X006844Y005682D02*
X006902Y005682D01*
X007543Y007034D02*
X007543Y007349D01*
X007543Y007664D01*
X007533Y007645D02*
X007552Y007645D01*
X007552Y007567D02*
X007533Y007567D01*
X007533Y007488D02*
X007552Y007488D01*
X007552Y007409D02*
X007533Y007409D01*
X007533Y007331D02*
X007552Y007331D01*
X007552Y007252D02*
X007533Y007252D01*
X007533Y007174D02*
X007552Y007174D01*
X007552Y007095D02*
X007533Y007095D01*
X007346Y003609D02*
X008173Y003609D01*
X008330Y003451D01*
X008330Y003175D01*
X008488Y003018D01*
X008830Y003018D01*
X009408Y002073D02*
X009408Y001804D01*
X009660Y001553D01*
X010016Y001553D01*
X010061Y001597D02*
X010454Y001597D01*
X010454Y001519D02*
X008382Y001519D01*
X008392Y001529D02*
X008480Y001617D01*
X008480Y001732D01*
X008660Y001553D01*
X009016Y001553D01*
X009268Y001804D01*
X009268Y001933D01*
X009408Y002073D01*
X009408Y002069D02*
X009404Y002069D01*
X009408Y001990D02*
X009325Y001990D01*
X009268Y001911D02*
X009408Y001911D01*
X009408Y001833D02*
X009268Y001833D01*
X009218Y001754D02*
X009458Y001754D01*
X009537Y001676D02*
X009139Y001676D01*
X009061Y001597D02*
X009615Y001597D01*
X009609Y001362D02*
X009067Y001362D01*
X009145Y001283D02*
X009530Y001283D01*
X009452Y001205D02*
X009224Y001205D01*
X009268Y001126D02*
X009408Y001126D01*
X009408Y001047D02*
X009268Y001047D01*
X009268Y000969D02*
X009408Y000969D01*
X009408Y000890D02*
X009268Y000890D01*
X009268Y000812D02*
X009408Y000812D01*
X009479Y000733D02*
X009197Y000733D01*
X009118Y000655D02*
X009558Y000655D01*
X009636Y000576D02*
X009040Y000576D01*
X008609Y001362D02*
X008224Y001362D01*
X008303Y001440D02*
X010454Y001440D01*
X010454Y001676D02*
X010139Y001676D01*
X010218Y001754D02*
X010454Y001754D01*
X010454Y001833D02*
X010268Y001833D01*
X010268Y001911D02*
X010454Y001911D01*
X010454Y001990D02*
X010268Y001990D01*
X010268Y002069D02*
X010454Y002069D01*
X010454Y002147D02*
X010268Y002147D01*
X010203Y002226D02*
X010454Y002226D01*
X010454Y002304D02*
X010124Y002304D01*
X010046Y002383D02*
X010454Y002383D01*
X009590Y002467D02*
X009106Y001983D01*
X008838Y001983D01*
X008537Y001676D02*
X008480Y001676D01*
X008460Y001597D02*
X008615Y001597D01*
X008392Y001529D02*
X008146Y001283D01*
X007838Y001187D02*
X007838Y000983D01*
X006389Y001440D02*
X005829Y001440D01*
X005750Y001519D02*
X006310Y001519D01*
X005404Y001440D02*
X004844Y001440D01*
X004766Y001519D02*
X005326Y001519D01*
X004838Y001234D02*
X004838Y000983D01*
X004838Y001234D02*
X004354Y001719D01*
X005653Y002900D02*
X005377Y003175D01*
X005377Y003690D01*
X004354Y005262D02*
X004354Y005420D01*
X004236Y005538D01*
X004117Y005538D01*
X004039Y005616D01*
X003471Y004739D02*
X002945Y004739D01*
X002945Y004660D02*
X003414Y004660D01*
X003414Y004582D02*
X002945Y004582D01*
X002897Y004908D02*
X003015Y004908D01*
X003133Y005026D01*
X003133Y005420D01*
X002981Y005760D02*
X002975Y005760D01*
X002570Y005839D02*
X001932Y005839D01*
X001986Y005760D02*
X002195Y005760D01*
X002195Y005917D02*
X001853Y005917D01*
X001826Y005996D02*
X002195Y005996D01*
X002195Y005367D02*
X001827Y005367D01*
X001526Y005367D02*
X001146Y005367D01*
X001158Y005446D02*
X001448Y005446D01*
X001369Y005524D02*
X001158Y005524D01*
X001137Y005603D02*
X001367Y005603D01*
X001367Y005682D02*
X001105Y005682D01*
X001034Y005760D02*
X001367Y005760D01*
X001421Y005839D02*
X000905Y005839D01*
X000951Y005917D02*
X001500Y005917D01*
X001527Y005996D02*
X001053Y005996D01*
X001113Y006074D02*
X001437Y006074D01*
X001389Y006153D02*
X001145Y006153D01*
X001158Y006231D02*
X001389Y006231D01*
X001389Y006310D02*
X001158Y006310D01*
X001138Y006388D02*
X001389Y006388D01*
X001165Y006522D02*
X001460Y006817D01*
X001677Y006817D01*
X001637Y006857D01*
X001648Y006860D02*
X001705Y006860D01*
X001705Y006938D02*
X001648Y006938D01*
X001648Y007017D02*
X001705Y007017D01*
X001990Y007017D02*
X002272Y007017D01*
X002278Y006938D02*
X001994Y006938D01*
X001994Y006860D02*
X002357Y006860D01*
X002436Y006781D02*
X001994Y006781D01*
X003173Y006483D02*
X003291Y006364D01*
X003488Y006758D02*
X003488Y007070D01*
X003488Y007427D01*
X003251Y007664D01*
X004117Y007427D02*
X004117Y007070D01*
X002195Y005289D02*
X001113Y005289D01*
X001834Y003923D02*
X002385Y003923D01*
X002484Y004022D01*
X002585Y004123D01*
X002585Y004278D01*
X002706Y004032D02*
X002999Y004032D01*
X002953Y003954D02*
X002627Y003954D01*
X002549Y003875D02*
X002953Y003875D01*
X002953Y003796D02*
X002470Y003796D01*
X002256Y003718D02*
X002953Y003718D01*
X002953Y003639D02*
X001101Y003639D01*
X001022Y003561D02*
X002953Y003561D01*
X001612Y003404D02*
X000261Y003404D01*
X000261Y003325D02*
X001533Y003325D01*
X001455Y003247D02*
X000261Y003247D01*
X000261Y003168D02*
X001404Y003168D01*
X001404Y003090D02*
X000261Y003090D01*
X000261Y003011D02*
X001404Y003011D01*
X001404Y002933D02*
X000261Y002933D01*
X000261Y002854D02*
X001404Y002854D01*
X001468Y002775D02*
X000261Y002775D01*
X000261Y002697D02*
X001547Y002697D01*
X001798Y001911D02*
X001878Y001911D01*
X001878Y001833D02*
X001798Y001833D01*
X001798Y001754D02*
X001878Y001754D01*
X001878Y001676D02*
X001798Y001676D01*
X001798Y001597D02*
X001878Y001597D01*
X002016Y001412D02*
X001660Y001412D01*
X001408Y001161D01*
X001408Y000804D01*
X001660Y000553D01*
X002016Y000553D01*
X002268Y000804D01*
X002268Y001161D01*
X002016Y001412D01*
X002067Y001362D02*
X002609Y001362D01*
X002530Y001283D02*
X002145Y001283D01*
X002224Y001205D02*
X002452Y001205D01*
X002408Y001126D02*
X002268Y001126D01*
X002268Y001047D02*
X002408Y001047D01*
X002408Y000969D02*
X002268Y000969D01*
X002268Y000890D02*
X002408Y000890D01*
X002408Y000812D02*
X002268Y000812D01*
X002197Y000733D02*
X002479Y000733D01*
X002558Y000655D02*
X002118Y000655D01*
X002040Y000576D02*
X002636Y000576D01*
X002615Y001597D02*
X002103Y001597D01*
X002182Y001676D02*
X002537Y001676D01*
X002458Y001754D02*
X002260Y001754D01*
X002298Y001833D02*
X002408Y001833D01*
X002408Y001911D02*
X002298Y001911D01*
X001609Y001362D02*
X001067Y001362D01*
X001145Y001283D02*
X001530Y001283D01*
X001452Y001205D02*
X001224Y001205D01*
X001268Y001126D02*
X001408Y001126D01*
X001408Y001047D02*
X001268Y001047D01*
X001268Y000969D02*
X001408Y000969D01*
X001408Y000890D02*
X001268Y000890D01*
X001268Y000812D02*
X001408Y000812D01*
X001479Y000733D02*
X001197Y000733D01*
X001118Y000655D02*
X001558Y000655D01*
X001636Y000576D02*
X001040Y000576D01*
X000261Y000419D02*
X010454Y000419D01*
X003897Y012358D02*
X003522Y012358D01*
X003522Y012436D02*
X003897Y012436D01*
X003897Y012515D02*
X003522Y012515D01*
X003484Y012593D02*
X003897Y012593D01*
X003897Y012672D02*
X003842Y012672D01*
X003842Y012750D02*
X003897Y012750D01*
X003897Y012829D02*
X003842Y012829D01*
X003842Y012908D02*
X003897Y012908D01*
X003897Y012986D02*
X003842Y012986D01*
X003842Y013065D02*
X003897Y013065D01*
X003897Y013143D02*
X003778Y013143D01*
X000261Y007174D02*
X000261Y007174D01*
X000261Y007095D02*
X000340Y007095D01*
X000384Y007017D02*
X000261Y007017D01*
X000261Y006938D02*
X000398Y006938D01*
X000430Y006860D02*
X000261Y006860D01*
D30*
X001677Y005656D03*
X002582Y007073D03*
X003251Y007664D03*
X003803Y007860D03*
X004472Y006483D03*
X004866Y005853D03*
X004866Y005341D03*
X005338Y004790D03*
X004354Y005262D03*
X003724Y005262D03*
X003291Y005813D03*
X003291Y006364D03*
X002661Y008018D03*
X003724Y011325D03*
X003212Y012427D03*
X005535Y009120D03*
X007031Y007664D03*
X006558Y006719D03*
X006007Y007073D03*
X005299Y006168D03*
X006519Y005853D03*
X007543Y006010D03*
X008409Y006207D03*
X008684Y005459D03*
X008960Y004278D03*
X007346Y003609D03*
X006519Y004278D03*
X005653Y002900D03*
X003724Y004553D03*
X008330Y008923D03*
X008173Y010498D03*
X007621Y010498D03*
M02*
