%
M48
M72
T01C0.0236
T02C0.0315
T03C0.0350
T04C0.0360
T05C0.0400
T06C0.1260
%
T01
X2212Y1471
X1712Y2871
X2912Y3071
X2362Y5071
X2262Y6471
X3762Y6121
X4112Y5571
X4612Y4921
X5112Y5571
X5512Y5221
X5462Y5971
X4812Y6421
X6312Y8171
X7212Y8571
X7612Y7771
X7612Y7171
X7262Y5921
X6512Y6971
X8612Y8171
X7612Y10321
X7012Y11471
X4862Y10771
X9462Y5121
X9562Y4271
X8712Y2971
X9262Y2921
X8512Y4321
X6862Y3871
X10312Y11571
T02
X10003Y10996
X10003Y10208
X10003Y9421
X10003Y8634
X10003Y7846
X10003Y7059
X10003Y6271
X10003Y5484
X10003Y4697
X10003Y3909
X1342Y3909
X1342Y4697
X1342Y5484
X1342Y6271
X1342Y7059
X1342Y7846
X1342Y8634
X1342Y9421
X1342Y10208
X1342Y10996
T03
X6770Y12742
X7950Y12742
T04
X9148Y11378
X7727Y3323
T05
X712Y971
X712Y1971
X1712Y1971
X1712Y971
X2712Y971
X2712Y1971
X3712Y1971
X3712Y971
X4712Y971
X4712Y1971
X5712Y1971
X5712Y971
X6712Y971
X6712Y1971
X7712Y1971
X7712Y971
X8712Y971
X8712Y1971
X9712Y1971
X9712Y971
X4712Y7971
X2712Y7971
X2712Y8971
T06
X1312Y12471
M30
