G75*
G70*
%OFA0B0*%
%FSLAX24Y24*%
%IPPOS*%
%LPD*%
%AMOC8*
5,1,8,0,0,1.08239X$1,22.5*
%
%ADD10C,0.0050*%
%ADD11C,0.0100*%
%ADD12C,0.0080*%
%ADD13C,0.0120*%
%ADD14C,0.0160*%
%ADD15C,0.0060*%
%ADD16C,0.0040*%
%ADD17R,0.0059X0.0118*%
%ADD18R,0.0118X0.0118*%
%ADD19R,0.0118X0.0059*%
%ADD20R,0.0118X0.0118*%
D10*
X000519Y000367D02*
X000551Y000336D01*
X000615Y000336D01*
X000646Y000367D01*
X000646Y000399D01*
X000615Y000431D01*
X000583Y000431D01*
X000615Y000431D02*
X000646Y000462D01*
X000646Y000494D01*
X000615Y000526D01*
X000551Y000526D01*
X000519Y000494D01*
X000740Y000462D02*
X000804Y000336D01*
X000867Y000462D01*
X000961Y000494D02*
X000993Y000526D01*
X001057Y000526D01*
X001088Y000494D01*
X001088Y000462D01*
X001057Y000431D01*
X001088Y000399D01*
X001088Y000367D01*
X001057Y000336D01*
X000993Y000336D01*
X000961Y000367D01*
X001025Y000431D02*
X001057Y000431D01*
X001543Y000431D02*
X001543Y000367D01*
X001575Y000336D01*
X001670Y000336D01*
X001670Y000526D01*
X001670Y000462D02*
X001575Y000462D01*
X001543Y000431D01*
X001764Y000367D02*
X001764Y000336D01*
X001764Y000367D02*
X001891Y000494D01*
X001891Y000526D01*
X001764Y000526D01*
X001679Y001359D02*
X001806Y001454D01*
X001679Y001549D01*
X001585Y001549D02*
X001585Y001359D01*
X001490Y001359D01*
X001458Y001391D01*
X001458Y001454D01*
X001490Y001486D01*
X001585Y001486D01*
X001364Y001454D02*
X001364Y001359D01*
X001364Y001454D02*
X001332Y001486D01*
X001237Y001486D01*
X001237Y001359D01*
X001143Y001359D02*
X001048Y001359D01*
X001016Y001391D01*
X001016Y001454D01*
X001048Y001486D01*
X001143Y001486D01*
X001143Y001327D01*
X001111Y001296D01*
X001079Y001296D01*
X000922Y001359D02*
X000795Y001454D01*
X000922Y001549D01*
X001405Y002383D02*
X001405Y002510D01*
X001469Y002510D02*
X001500Y002510D01*
X001469Y002510D02*
X001405Y002446D01*
X001589Y002478D02*
X001621Y002510D01*
X001716Y002510D01*
X001685Y002446D02*
X001621Y002446D01*
X001589Y002478D01*
X001589Y002383D02*
X001685Y002383D01*
X001716Y002414D01*
X001685Y002446D01*
X001810Y002510D02*
X001874Y002510D01*
X001842Y002541D02*
X001842Y002414D01*
X001874Y002383D01*
X002579Y001486D02*
X002674Y001486D01*
X002674Y001549D02*
X002674Y001359D01*
X002579Y001359D01*
X002547Y001391D01*
X002547Y001454D01*
X002579Y001486D01*
X002768Y001454D02*
X002831Y001486D01*
X002863Y001486D01*
X002895Y001454D01*
X002895Y001391D01*
X002863Y001359D01*
X002800Y001359D01*
X002768Y001391D01*
X002768Y001454D02*
X002768Y001549D01*
X002895Y001549D01*
X003551Y001454D02*
X003583Y001486D01*
X003678Y001486D01*
X003678Y001549D02*
X003678Y001359D01*
X003583Y001359D01*
X003551Y001391D01*
X003551Y001454D01*
X003772Y001391D02*
X003804Y001359D01*
X003867Y001359D01*
X003899Y001391D01*
X003899Y001423D01*
X003867Y001454D01*
X003835Y001454D01*
X003867Y001454D02*
X003899Y001486D01*
X003899Y001518D01*
X003867Y001549D01*
X003804Y001549D01*
X003772Y001518D01*
X004535Y001454D02*
X004567Y001486D01*
X004662Y001486D01*
X004662Y001549D02*
X004662Y001359D01*
X004567Y001359D01*
X004535Y001391D01*
X004535Y001454D01*
X004756Y001486D02*
X004820Y001549D01*
X004820Y001359D01*
X004883Y001359D02*
X004756Y001359D01*
X004977Y001391D02*
X004977Y001518D01*
X005009Y001549D01*
X005072Y001549D01*
X005104Y001518D01*
X004977Y001391D01*
X005009Y001359D01*
X005072Y001359D01*
X005104Y001391D01*
X005104Y001518D01*
X005519Y001454D02*
X005551Y001486D01*
X005646Y001486D01*
X005646Y001549D02*
X005646Y001359D01*
X005551Y001359D01*
X005519Y001391D01*
X005519Y001454D01*
X005740Y001423D02*
X005772Y001454D01*
X005836Y001454D01*
X005867Y001423D01*
X005867Y001391D01*
X005836Y001359D01*
X005772Y001359D01*
X005740Y001391D01*
X005740Y001423D01*
X005772Y001454D02*
X005740Y001486D01*
X005740Y001518D01*
X005772Y001549D01*
X005836Y001549D01*
X005867Y001518D01*
X005867Y001486D01*
X005836Y001454D01*
X006618Y001391D02*
X006650Y001359D01*
X006745Y001359D01*
X006745Y001454D01*
X006713Y001486D01*
X006650Y001486D01*
X006650Y001423D02*
X006745Y001423D01*
X006650Y001423D02*
X006618Y001391D01*
X006839Y001391D02*
X006871Y001359D01*
X006934Y001359D01*
X006966Y001391D01*
X006966Y001423D01*
X006934Y001454D01*
X006839Y001454D01*
X006839Y001391D01*
X006839Y001454D02*
X006902Y001518D01*
X006966Y001549D01*
X007280Y001486D02*
X007343Y001486D01*
X007375Y001454D01*
X007375Y001359D01*
X007280Y001359D01*
X007248Y001391D01*
X007280Y001423D01*
X007375Y001423D01*
X007469Y001454D02*
X007596Y001454D01*
X007564Y001359D02*
X007564Y001549D01*
X007469Y001454D01*
X007690Y001359D02*
X007817Y001549D01*
X007911Y001454D02*
X007942Y001486D01*
X008038Y001486D01*
X008006Y001423D02*
X007942Y001423D01*
X007911Y001454D01*
X007911Y001359D02*
X008006Y001359D01*
X008038Y001391D01*
X008006Y001423D01*
X008132Y001454D02*
X008163Y001486D01*
X008259Y001486D01*
X008259Y001549D02*
X008259Y001359D01*
X008163Y001359D01*
X008132Y001391D01*
X008132Y001454D01*
X008353Y001391D02*
X008384Y001359D01*
X008480Y001359D01*
X008480Y001454D01*
X008448Y001486D01*
X008384Y001486D01*
X008384Y001423D02*
X008480Y001423D01*
X008384Y001423D02*
X008353Y001391D01*
X008626Y001391D02*
X008657Y001359D01*
X008753Y001359D01*
X008753Y001454D01*
X008721Y001486D01*
X008657Y001486D01*
X008657Y001423D02*
X008753Y001423D01*
X008657Y001423D02*
X008626Y001391D01*
X008847Y001359D02*
X008974Y001486D01*
X008974Y001518D01*
X008942Y001549D01*
X008878Y001549D01*
X008847Y001518D01*
X008847Y001359D02*
X008974Y001359D01*
X009649Y001391D02*
X009681Y001359D01*
X009776Y001359D01*
X009776Y001454D01*
X009744Y001486D01*
X009681Y001486D01*
X009681Y001423D02*
X009776Y001423D01*
X009681Y001423D02*
X009649Y001391D01*
X009870Y001391D02*
X009902Y001359D01*
X009965Y001359D01*
X009997Y001391D01*
X009997Y001518D01*
X009870Y001391D01*
X009870Y001518D01*
X009902Y001549D01*
X009965Y001549D01*
X009997Y001518D01*
X009934Y000526D02*
X009870Y000462D01*
X009934Y000526D02*
X009934Y000336D01*
X009997Y000336D02*
X009870Y000336D01*
X009776Y000336D02*
X009776Y000431D01*
X009744Y000462D01*
X009681Y000462D01*
X009681Y000399D02*
X009776Y000399D01*
X009776Y000336D02*
X009681Y000336D01*
X009649Y000367D01*
X009681Y000399D01*
X008974Y000399D02*
X008974Y000367D01*
X008942Y000336D01*
X008878Y000336D01*
X008847Y000367D01*
X008910Y000431D02*
X008942Y000431D01*
X008974Y000399D01*
X008942Y000431D02*
X008974Y000462D01*
X008974Y000494D01*
X008942Y000526D01*
X008878Y000526D01*
X008847Y000494D01*
X008753Y000431D02*
X008753Y000336D01*
X008657Y000336D01*
X008626Y000367D01*
X008657Y000399D01*
X008753Y000399D01*
X008753Y000431D02*
X008721Y000462D01*
X008657Y000462D01*
X008416Y000336D02*
X008353Y000336D01*
X008384Y000336D02*
X008384Y000526D01*
X008353Y000526D01*
X008259Y000462D02*
X008163Y000462D01*
X008132Y000431D01*
X008132Y000367D01*
X008163Y000336D01*
X008259Y000336D01*
X008038Y000367D02*
X008006Y000399D01*
X007942Y000399D01*
X007911Y000431D01*
X007942Y000462D01*
X008038Y000462D01*
X008038Y000367D02*
X008006Y000336D01*
X007911Y000336D01*
X007817Y000526D02*
X007690Y000336D01*
X007596Y000367D02*
X007596Y000431D01*
X007564Y000462D01*
X007532Y000462D01*
X007469Y000431D01*
X007469Y000526D01*
X007596Y000526D01*
X007596Y000367D02*
X007564Y000336D01*
X007501Y000336D01*
X007469Y000367D01*
X007375Y000336D02*
X007375Y000431D01*
X007343Y000462D01*
X007280Y000462D01*
X007280Y000399D02*
X007375Y000399D01*
X007375Y000336D02*
X007280Y000336D01*
X007248Y000367D01*
X007280Y000399D01*
X007005Y000399D02*
X006973Y000431D01*
X006878Y000431D01*
X006878Y000367D01*
X006910Y000336D01*
X006973Y000336D01*
X007005Y000367D01*
X007005Y000399D01*
X006942Y000494D02*
X006878Y000431D01*
X006942Y000494D02*
X007005Y000526D01*
X006784Y000431D02*
X006784Y000336D01*
X006689Y000336D01*
X006657Y000367D01*
X006689Y000399D01*
X006784Y000399D01*
X006784Y000431D02*
X006752Y000462D01*
X006689Y000462D01*
X005863Y000494D02*
X005863Y000367D01*
X005832Y000336D01*
X005768Y000336D01*
X005737Y000367D01*
X005768Y000431D02*
X005863Y000431D01*
X005863Y000494D02*
X005832Y000526D01*
X005768Y000526D01*
X005737Y000494D01*
X005737Y000462D01*
X005768Y000431D01*
X005642Y000462D02*
X005547Y000462D01*
X005516Y000431D01*
X005516Y000367D01*
X005547Y000336D01*
X005642Y000336D01*
X005642Y000526D01*
X005084Y000336D02*
X004958Y000336D01*
X005021Y000336D02*
X005021Y000526D01*
X004958Y000462D01*
X004863Y000336D02*
X004737Y000336D01*
X004800Y000336D02*
X004800Y000526D01*
X004737Y000462D01*
X004642Y000462D02*
X004547Y000462D01*
X004516Y000431D01*
X004516Y000367D01*
X004547Y000336D01*
X004642Y000336D01*
X004642Y000526D01*
X003899Y000431D02*
X003772Y000431D01*
X003867Y000526D01*
X003867Y000336D01*
X003678Y000336D02*
X003678Y000526D01*
X003678Y000462D02*
X003583Y000462D01*
X003551Y000431D01*
X003551Y000367D01*
X003583Y000336D01*
X003678Y000336D01*
X002895Y000367D02*
X002895Y000399D01*
X002863Y000431D01*
X002768Y000431D01*
X002768Y000367D01*
X002800Y000336D01*
X002863Y000336D01*
X002895Y000367D01*
X002831Y000494D02*
X002768Y000431D01*
X002831Y000494D02*
X002895Y000526D01*
X002674Y000526D02*
X002674Y000336D01*
X002579Y000336D01*
X002547Y000367D01*
X002547Y000431D01*
X002579Y000462D01*
X002674Y000462D01*
X007594Y002414D02*
X007626Y002383D01*
X007594Y002414D02*
X007594Y002541D01*
X007563Y002510D02*
X007626Y002510D01*
X007710Y002510D02*
X007837Y002383D01*
X007710Y002383D02*
X007837Y002510D01*
X008586Y002510D02*
X008586Y002383D01*
X008586Y002446D02*
X008650Y002510D01*
X008681Y002510D01*
X008771Y002510D02*
X008897Y002383D01*
X008771Y002383D02*
X008897Y002510D01*
X009626Y011280D02*
X009594Y011312D01*
X009626Y011344D01*
X009721Y011344D01*
X009721Y011376D02*
X009721Y011280D01*
X009626Y011280D01*
X009626Y011407D02*
X009689Y011407D01*
X009721Y011376D01*
X009815Y011376D02*
X009847Y011407D01*
X009942Y011407D01*
X009910Y011344D02*
X009847Y011344D01*
X009815Y011376D01*
X009815Y011280D02*
X009910Y011280D01*
X009942Y011312D01*
X009910Y011344D01*
X010036Y011376D02*
X010068Y011407D01*
X010131Y011407D01*
X010163Y011376D01*
X010163Y011312D01*
X010131Y011280D01*
X010068Y011280D01*
X010036Y011312D01*
X010036Y011376D01*
X010257Y011376D02*
X010257Y011312D01*
X010289Y011280D01*
X010384Y011280D01*
X010384Y011407D02*
X010289Y011407D01*
X010257Y011376D01*
X009628Y012039D02*
X009539Y012128D01*
X009584Y012084D02*
X009584Y012173D01*
X009606Y012196D01*
X009691Y012236D02*
X009691Y012281D01*
X009759Y012348D01*
X009781Y012281D02*
X009736Y012236D01*
X009691Y012236D01*
X009759Y012169D02*
X009826Y012236D01*
X009826Y012281D01*
X009781Y012281D01*
X009848Y012392D02*
X009848Y012437D01*
X009915Y012504D01*
X009937Y012437D02*
X009892Y012392D01*
X009848Y012392D01*
X009915Y012325D02*
X009982Y012392D01*
X009982Y012437D01*
X009937Y012437D01*
X010071Y012481D02*
X010116Y012526D01*
X010093Y012504D02*
X010004Y012594D01*
X009981Y012571D01*
X009959Y012638D02*
X009936Y012661D01*
X009001Y012674D02*
X008811Y012674D01*
X008811Y012769D01*
X008843Y012801D01*
X008906Y012801D01*
X008938Y012769D01*
X008938Y012674D01*
X008906Y012895D02*
X008938Y012927D01*
X008906Y012958D01*
X008938Y012990D01*
X008906Y013022D01*
X008811Y013022D01*
X008811Y013116D02*
X008938Y013116D01*
X008874Y013116D02*
X008811Y013179D01*
X008811Y013211D01*
X008811Y012895D02*
X008906Y012895D01*
D11*
X010205Y005425D02*
X010272Y005425D01*
X010272Y005158D01*
X010338Y005158D02*
X010405Y005225D01*
X010405Y005358D01*
X010338Y005158D02*
X010205Y005158D01*
X010138Y005225D01*
X010138Y005358D01*
X010205Y005425D01*
X010205Y004965D02*
X010272Y004965D01*
X010272Y004698D01*
X010338Y004698D02*
X010205Y004698D01*
X010138Y004765D01*
X010138Y004898D01*
X010205Y004965D01*
X010405Y004898D02*
X010405Y004765D01*
X010338Y004698D01*
X010338Y004504D02*
X010272Y004504D01*
X010205Y004438D01*
X010205Y004238D01*
X010138Y003997D02*
X010405Y003997D01*
X010405Y003931D02*
X010405Y004064D01*
X010405Y004238D02*
X010405Y004438D01*
X010338Y004504D01*
X010205Y004438D02*
X010138Y004504D01*
X010072Y004504D01*
X010005Y004438D01*
X010005Y004238D01*
X010405Y004238D01*
X010138Y003997D02*
X010138Y003931D01*
X010205Y003737D02*
X010405Y003737D01*
X010205Y003737D02*
X010138Y003670D01*
X010138Y003470D01*
X010405Y003470D01*
X010405Y003297D02*
X010405Y003163D01*
X010405Y003230D02*
X010138Y003230D01*
X010138Y003163D01*
X010005Y003230D02*
X009938Y003230D01*
X010005Y002970D02*
X010405Y002970D01*
X010405Y002703D02*
X010005Y002703D01*
X010138Y002836D01*
X010005Y002970D01*
X010005Y003997D02*
X009938Y003997D01*
D12*
X009825Y002698D02*
X000298Y002698D01*
X000298Y010996D01*
X002788Y013486D01*
X007335Y013486D01*
X009825Y010996D01*
X009825Y002698D01*
X009943Y005665D02*
X010455Y005665D01*
X010455Y006531D02*
X009943Y006531D01*
X008526Y006492D02*
X008211Y006492D01*
X007896Y007082D02*
X007898Y007094D01*
X007903Y007105D01*
X007912Y007114D01*
X007923Y007119D01*
X007935Y007121D01*
X007947Y007119D01*
X007958Y007114D01*
X007967Y007105D01*
X007972Y007094D01*
X007974Y007082D01*
X007972Y007070D01*
X007967Y007059D01*
X007958Y007050D01*
X007947Y007045D01*
X007935Y007043D01*
X007923Y007045D01*
X007912Y007050D01*
X007903Y007059D01*
X007898Y007070D01*
X007896Y007082D01*
X007660Y006492D02*
X007345Y006492D01*
X007345Y008460D02*
X007660Y008460D01*
X008211Y008460D02*
X008526Y008460D01*
X005849Y008145D02*
X005534Y008145D01*
X005534Y008381D01*
X005534Y009011D02*
X005534Y009248D01*
X005849Y009248D01*
X004207Y008727D02*
X003869Y008727D01*
X003719Y009181D02*
X003719Y009393D01*
X003869Y009847D02*
X004207Y009847D01*
X002516Y010412D02*
X002016Y010412D01*
X002016Y011012D02*
X002516Y011012D01*
X001931Y005074D02*
X001420Y005074D01*
X001420Y003657D02*
X001931Y003657D01*
D13*
X009943Y005862D02*
X010455Y005862D01*
X010455Y006334D02*
X009943Y006334D01*
D14*
X009943Y006098D02*
X010455Y006098D01*
D15*
X007989Y006454D02*
X001761Y006454D01*
X002855Y006590D02*
X002994Y006730D01*
X005615Y006730D01*
X005615Y003970D01*
X002855Y003970D01*
X002855Y006590D01*
X003014Y006430D02*
X003016Y006453D01*
X003022Y006476D01*
X003031Y006497D01*
X003044Y006517D01*
X003060Y006534D01*
X003078Y006548D01*
X003098Y006559D01*
X003120Y006567D01*
X003143Y006571D01*
X003167Y006571D01*
X003190Y006567D01*
X003212Y006559D01*
X003232Y006548D01*
X003250Y006534D01*
X003266Y006517D01*
X003279Y006497D01*
X003288Y006476D01*
X003294Y006453D01*
X003296Y006430D01*
X003294Y006407D01*
X003288Y006384D01*
X003279Y006363D01*
X003266Y006343D01*
X003250Y006326D01*
X003232Y006312D01*
X003212Y006301D01*
X003190Y006293D01*
X003167Y006289D01*
X003143Y006289D01*
X003120Y006293D01*
X003098Y006301D01*
X003078Y006312D01*
X003060Y006326D01*
X003044Y006343D01*
X003031Y006363D01*
X003022Y006384D01*
X003016Y006407D01*
X003014Y006430D01*
X001761Y008542D02*
X007989Y008542D01*
D16*
X007846Y007868D02*
X007907Y007846D01*
X007978Y007791D01*
X008000Y007769D01*
X008000Y007577D01*
X007907Y007199D01*
X007008Y007199D01*
X006964Y007013D01*
X006953Y006980D01*
X006958Y006941D01*
X006980Y006925D01*
X007770Y006925D01*
X007841Y006936D01*
X007764Y006750D01*
X006679Y006750D01*
X006635Y006761D01*
X006591Y006793D01*
X006564Y006832D01*
X006547Y006892D01*
X006547Y006947D01*
X006558Y007035D01*
X006668Y007523D01*
X006684Y007583D01*
X006750Y007714D01*
X006799Y007786D01*
X006887Y007841D01*
X006953Y007862D01*
X006986Y007868D01*
X007846Y007868D01*
X007594Y007676D02*
X007594Y007605D01*
X007534Y007369D01*
X007062Y007369D01*
X007057Y007375D01*
X007095Y007599D01*
X007112Y007643D01*
X007134Y007682D01*
X007167Y007698D01*
X007556Y007698D01*
X007578Y007692D01*
X007594Y007676D01*
X006542Y007769D02*
X006542Y007577D01*
X006448Y007199D01*
X005549Y007199D01*
X005505Y007013D01*
X005494Y006980D01*
X005500Y006941D01*
X005522Y006925D01*
X006311Y006925D01*
X006383Y006936D01*
X006306Y006750D01*
X005220Y006750D01*
X005176Y006761D01*
X005133Y006793D01*
X005105Y006832D01*
X005089Y006892D01*
X005089Y006947D01*
X005100Y007035D01*
X005209Y007523D01*
X005226Y007583D01*
X005292Y007714D01*
X005341Y007786D01*
X005429Y007841D01*
X005494Y007862D01*
X005527Y007868D01*
X006388Y007868D01*
X006448Y007846D01*
X006520Y007791D01*
X006542Y007769D01*
X006136Y007676D02*
X006136Y007605D01*
X006076Y007369D01*
X005604Y007369D01*
X005599Y007375D01*
X005637Y007599D01*
X005653Y007643D01*
X005675Y007682D01*
X005708Y007698D01*
X006098Y007698D01*
X006119Y007692D01*
X006136Y007676D01*
X005149Y008016D02*
X005133Y007972D01*
X005067Y007698D01*
X005045Y007643D01*
X004963Y007561D01*
X004897Y007534D01*
X004809Y007512D01*
X004700Y007512D01*
X004859Y007490D01*
X004974Y007435D01*
X004979Y007424D01*
X004979Y007276D01*
X004919Y007035D01*
X004880Y006974D01*
X004869Y006909D01*
X004787Y006815D01*
X004721Y006782D01*
X004617Y006750D01*
X002715Y006750D01*
X002748Y006810D01*
X002748Y006848D01*
X002572Y007281D01*
X002117Y006837D01*
X002068Y006750D01*
X001745Y006750D01*
X001882Y006848D01*
X002518Y007446D01*
X002205Y008208D01*
X002145Y008268D01*
X002748Y008268D01*
X002748Y008235D01*
X002731Y008202D01*
X002748Y008175D01*
X002748Y008148D01*
X002885Y007802D01*
X003274Y008186D01*
X003296Y008213D01*
X003313Y008246D01*
X003318Y008268D01*
X003663Y008268D01*
X003592Y008219D01*
X003537Y008180D01*
X003461Y008115D01*
X002945Y007632D01*
X003252Y006876D01*
X003340Y006755D01*
X003356Y006755D01*
X003389Y006788D01*
X003433Y006919D01*
X003499Y007166D01*
X003576Y007479D01*
X003718Y008060D01*
X003740Y008159D01*
X003740Y008268D01*
X004985Y008268D01*
X005050Y008252D01*
X005094Y008224D01*
X005127Y008164D01*
X005149Y008109D01*
X005149Y008016D01*
X004716Y007967D02*
X004639Y007676D01*
X004623Y007638D01*
X004590Y007616D01*
X004042Y007616D01*
X004157Y008082D01*
X004661Y008082D01*
X004711Y008054D01*
X004716Y007967D01*
X004502Y007418D02*
X004546Y007402D01*
X004573Y007364D01*
X004573Y007347D01*
X004491Y007024D01*
X004469Y006991D01*
X004431Y006947D01*
X004409Y006936D01*
X003877Y006936D01*
X004003Y007418D01*
X004502Y007418D01*
D17*
X008394Y013019D03*
X008689Y013019D03*
G36*
X009446Y012694D02*
X009405Y012735D01*
X009488Y012818D01*
X009529Y012777D01*
X009446Y012694D01*
G37*
G36*
X009655Y012485D02*
X009614Y012526D01*
X009697Y012609D01*
X009738Y012568D01*
X009655Y012485D01*
G37*
D18*
G36*
X009572Y012568D02*
X009489Y012651D01*
X009572Y012734D01*
X009655Y012651D01*
X009572Y012568D01*
G37*
D19*
X009935Y011872D03*
X009935Y011576D03*
D20*
X009935Y011724D03*
X008542Y013019D03*
M02*
