G75*
G70*
%OFA0B0*%
%FSLAX24Y24*%
%IPPOS*%
%LPD*%
%AMOC8*
5,1,8,0,0,1.08239X$1,22.5*
%
%ADD10C,0.1340*%
%ADD11C,0.0081*%
%ADD12C,0.0635*%
%ADD13C,0.0080*%
%ADD14C,0.0082*%
%ADD15C,0.0081*%
%ADD16C,0.0085*%
%ADD17C,0.0083*%
%ADD18C,0.0083*%
%ADD19C,0.0080*%
%ADD20C,0.0440*%
%ADD21C,0.0080*%
%ADD22C,0.0083*%
%ADD23C,0.0430*%
%ADD24OC8,0.0720*%
D10*
X001312Y012471D03*
D11*
X003633Y006829D02*
X003853Y006829D01*
X003633Y006829D02*
X003633Y007329D01*
X003853Y007329D01*
X003853Y006829D01*
X003853Y006909D02*
X003633Y006909D01*
X003633Y006989D02*
X003853Y006989D01*
X003853Y007069D02*
X003633Y007069D01*
X003633Y007149D02*
X003853Y007149D01*
X003853Y007229D02*
X003633Y007229D01*
X003633Y007309D02*
X003853Y007309D01*
X003948Y006829D02*
X004168Y006829D01*
X003948Y006829D02*
X003948Y007329D01*
X004168Y007329D01*
X004168Y006829D01*
X004168Y006909D02*
X003948Y006909D01*
X003948Y006989D02*
X004168Y006989D01*
X004168Y007069D02*
X003948Y007069D01*
X003948Y007149D02*
X004168Y007149D01*
X004168Y007229D02*
X003948Y007229D01*
X003948Y007309D02*
X004168Y007309D01*
X004263Y006829D02*
X004483Y006829D01*
X004263Y006829D02*
X004263Y007329D01*
X004483Y007329D01*
X004483Y006829D01*
X004483Y006909D02*
X004263Y006909D01*
X004263Y006989D02*
X004483Y006989D01*
X004483Y007069D02*
X004263Y007069D01*
X004263Y007149D02*
X004483Y007149D01*
X004483Y007229D02*
X004263Y007229D01*
X004263Y007309D02*
X004483Y007309D01*
X004578Y006829D02*
X004798Y006829D01*
X004578Y006829D02*
X004578Y007329D01*
X004798Y007329D01*
X004798Y006829D01*
X004798Y006909D02*
X004578Y006909D01*
X004578Y006989D02*
X004798Y006989D01*
X004798Y007069D02*
X004578Y007069D01*
X004578Y007149D02*
X004798Y007149D01*
X004798Y007229D02*
X004578Y007229D01*
X004578Y007309D02*
X004798Y007309D01*
X004893Y006829D02*
X005113Y006829D01*
X004893Y006829D02*
X004893Y007329D01*
X005113Y007329D01*
X005113Y006829D01*
X005113Y006909D02*
X004893Y006909D01*
X004893Y006989D02*
X005113Y006989D01*
X005113Y007069D02*
X004893Y007069D01*
X004893Y007149D02*
X005113Y007149D01*
X005113Y007229D02*
X004893Y007229D01*
X004893Y007309D02*
X005113Y007309D01*
X005208Y006829D02*
X005428Y006829D01*
X005208Y006829D02*
X005208Y007329D01*
X005428Y007329D01*
X005428Y006829D01*
X005428Y006909D02*
X005208Y006909D01*
X005208Y006989D02*
X005428Y006989D01*
X005428Y007069D02*
X005208Y007069D01*
X005208Y007149D02*
X005428Y007149D01*
X005428Y007229D02*
X005208Y007229D01*
X005208Y007309D02*
X005428Y007309D01*
X005523Y006829D02*
X005743Y006829D01*
X005523Y006829D02*
X005523Y007329D01*
X005743Y007329D01*
X005743Y006829D01*
X005743Y006909D02*
X005523Y006909D01*
X005523Y006989D02*
X005743Y006989D01*
X005743Y007069D02*
X005523Y007069D01*
X005523Y007149D02*
X005743Y007149D01*
X005743Y007229D02*
X005523Y007229D01*
X005523Y007309D02*
X005743Y007309D01*
X005838Y006829D02*
X006058Y006829D01*
X005838Y006829D02*
X005838Y007329D01*
X006058Y007329D01*
X006058Y006829D01*
X006058Y006909D02*
X005838Y006909D01*
X005838Y006989D02*
X006058Y006989D01*
X006058Y007069D02*
X005838Y007069D01*
X005838Y007149D02*
X006058Y007149D01*
X006058Y007229D02*
X005838Y007229D01*
X005838Y007309D02*
X006058Y007309D01*
X006286Y006382D02*
X006786Y006382D01*
X006286Y006382D02*
X006286Y006602D01*
X006786Y006602D01*
X006786Y006382D01*
X006786Y006462D02*
X006286Y006462D01*
X006286Y006542D02*
X006786Y006542D01*
X006786Y006067D02*
X006286Y006067D01*
X006286Y006287D01*
X006786Y006287D01*
X006786Y006067D01*
X006786Y006147D02*
X006286Y006147D01*
X006286Y006227D02*
X006786Y006227D01*
X006786Y005752D02*
X006286Y005752D01*
X006286Y005972D01*
X006786Y005972D01*
X006786Y005752D01*
X006786Y005832D02*
X006286Y005832D01*
X006286Y005912D02*
X006786Y005912D01*
X006786Y005437D02*
X006286Y005437D01*
X006286Y005657D01*
X006786Y005657D01*
X006786Y005437D01*
X006786Y005517D02*
X006286Y005517D01*
X006286Y005597D02*
X006786Y005597D01*
X006786Y005122D02*
X006286Y005122D01*
X006286Y005342D01*
X006786Y005342D01*
X006786Y005122D01*
X006786Y005202D02*
X006286Y005202D01*
X006286Y005282D02*
X006786Y005282D01*
X006786Y004807D02*
X006286Y004807D01*
X006286Y005027D01*
X006786Y005027D01*
X006786Y004807D01*
X006786Y004887D02*
X006286Y004887D01*
X006286Y004967D02*
X006786Y004967D01*
X006786Y004492D02*
X006286Y004492D01*
X006286Y004712D01*
X006786Y004712D01*
X006786Y004492D01*
X006786Y004572D02*
X006286Y004572D01*
X006286Y004652D02*
X006786Y004652D01*
X006786Y004177D02*
X006286Y004177D01*
X006286Y004397D01*
X006786Y004397D01*
X006786Y004177D01*
X006786Y004257D02*
X006286Y004257D01*
X006286Y004337D02*
X006786Y004337D01*
X006058Y003449D02*
X005838Y003449D01*
X005838Y003949D01*
X006058Y003949D01*
X006058Y003449D01*
X006058Y003529D02*
X005838Y003529D01*
X005838Y003609D02*
X006058Y003609D01*
X006058Y003689D02*
X005838Y003689D01*
X005838Y003769D02*
X006058Y003769D01*
X006058Y003849D02*
X005838Y003849D01*
X005838Y003929D02*
X006058Y003929D01*
X005743Y003449D02*
X005523Y003449D01*
X005523Y003949D01*
X005743Y003949D01*
X005743Y003449D01*
X005743Y003529D02*
X005523Y003529D01*
X005523Y003609D02*
X005743Y003609D01*
X005743Y003689D02*
X005523Y003689D01*
X005523Y003769D02*
X005743Y003769D01*
X005743Y003849D02*
X005523Y003849D01*
X005523Y003929D02*
X005743Y003929D01*
X005428Y003449D02*
X005208Y003449D01*
X005208Y003949D01*
X005428Y003949D01*
X005428Y003449D01*
X005428Y003529D02*
X005208Y003529D01*
X005208Y003609D02*
X005428Y003609D01*
X005428Y003689D02*
X005208Y003689D01*
X005208Y003769D02*
X005428Y003769D01*
X005428Y003849D02*
X005208Y003849D01*
X005208Y003929D02*
X005428Y003929D01*
X005113Y003449D02*
X004893Y003449D01*
X004893Y003949D01*
X005113Y003949D01*
X005113Y003449D01*
X005113Y003529D02*
X004893Y003529D01*
X004893Y003609D02*
X005113Y003609D01*
X005113Y003689D02*
X004893Y003689D01*
X004893Y003769D02*
X005113Y003769D01*
X005113Y003849D02*
X004893Y003849D01*
X004893Y003929D02*
X005113Y003929D01*
X004798Y003449D02*
X004578Y003449D01*
X004578Y003949D01*
X004798Y003949D01*
X004798Y003449D01*
X004798Y003529D02*
X004578Y003529D01*
X004578Y003609D02*
X004798Y003609D01*
X004798Y003689D02*
X004578Y003689D01*
X004578Y003769D02*
X004798Y003769D01*
X004798Y003849D02*
X004578Y003849D01*
X004578Y003929D02*
X004798Y003929D01*
X004483Y003449D02*
X004263Y003449D01*
X004263Y003949D01*
X004483Y003949D01*
X004483Y003449D01*
X004483Y003529D02*
X004263Y003529D01*
X004263Y003609D02*
X004483Y003609D01*
X004483Y003689D02*
X004263Y003689D01*
X004263Y003769D02*
X004483Y003769D01*
X004483Y003849D02*
X004263Y003849D01*
X004263Y003929D02*
X004483Y003929D01*
X004168Y003449D02*
X003948Y003449D01*
X003948Y003949D01*
X004168Y003949D01*
X004168Y003449D01*
X004168Y003529D02*
X003948Y003529D01*
X003948Y003609D02*
X004168Y003609D01*
X004168Y003689D02*
X003948Y003689D01*
X003948Y003769D02*
X004168Y003769D01*
X004168Y003849D02*
X003948Y003849D01*
X003948Y003929D02*
X004168Y003929D01*
X003853Y003449D02*
X003633Y003449D01*
X003633Y003949D01*
X003853Y003949D01*
X003853Y003449D01*
X003853Y003529D02*
X003633Y003529D01*
X003633Y003609D02*
X003853Y003609D01*
X003853Y003689D02*
X003633Y003689D01*
X003633Y003769D02*
X003853Y003769D01*
X003853Y003849D02*
X003633Y003849D01*
X003633Y003929D02*
X003853Y003929D01*
X003406Y004177D02*
X002906Y004177D01*
X002906Y004397D01*
X003406Y004397D01*
X003406Y004177D01*
X003406Y004257D02*
X002906Y004257D01*
X002906Y004337D02*
X003406Y004337D01*
X003406Y004492D02*
X002906Y004492D01*
X002906Y004712D01*
X003406Y004712D01*
X003406Y004492D01*
X003406Y004572D02*
X002906Y004572D01*
X002906Y004652D02*
X003406Y004652D01*
X003406Y004807D02*
X002906Y004807D01*
X002906Y005027D01*
X003406Y005027D01*
X003406Y004807D01*
X003406Y004887D02*
X002906Y004887D01*
X002906Y004967D02*
X003406Y004967D01*
X003406Y005122D02*
X002906Y005122D01*
X002906Y005342D01*
X003406Y005342D01*
X003406Y005122D01*
X003406Y005202D02*
X002906Y005202D01*
X002906Y005282D02*
X003406Y005282D01*
X003406Y005437D02*
X002906Y005437D01*
X002906Y005657D01*
X003406Y005657D01*
X003406Y005437D01*
X003406Y005517D02*
X002906Y005517D01*
X002906Y005597D02*
X003406Y005597D01*
X003406Y005752D02*
X002906Y005752D01*
X002906Y005972D01*
X003406Y005972D01*
X003406Y005752D01*
X003406Y005832D02*
X002906Y005832D01*
X002906Y005912D02*
X003406Y005912D01*
X003406Y006067D02*
X002906Y006067D01*
X002906Y006287D01*
X003406Y006287D01*
X003406Y006067D01*
X003406Y006147D02*
X002906Y006147D01*
X002906Y006227D02*
X003406Y006227D01*
X003406Y006382D02*
X002906Y006382D01*
X002906Y006602D01*
X003406Y006602D01*
X003406Y006382D01*
X003406Y006462D02*
X002906Y006462D01*
X002906Y006542D02*
X003406Y006542D01*
D12*
X001342Y006271D03*
X001342Y005484D03*
X001342Y004697D03*
X001342Y003909D03*
X001342Y007059D03*
X001342Y007846D03*
X001342Y008634D03*
X001342Y009421D03*
X001342Y010208D03*
X001342Y010996D03*
X010003Y010996D03*
X010003Y010208D03*
X010003Y009421D03*
X010003Y008634D03*
X010003Y007846D03*
X010003Y007059D03*
X010003Y006271D03*
X010003Y005484D03*
X010003Y004697D03*
X010003Y003909D03*
D13*
X006788Y008889D02*
X006788Y009105D01*
X007260Y009105D01*
X007260Y008889D01*
X006788Y008889D01*
X006788Y008968D02*
X007260Y008968D01*
X007260Y009047D02*
X006788Y009047D01*
X006788Y009637D02*
X006788Y009853D01*
X007260Y009853D01*
X007260Y009637D01*
X006788Y009637D01*
X006788Y009716D02*
X007260Y009716D01*
X007260Y009795D02*
X006788Y009795D01*
X005764Y009853D02*
X005764Y009637D01*
X005764Y009853D02*
X006236Y009853D01*
X006236Y009637D01*
X005764Y009637D01*
X005764Y009716D02*
X006236Y009716D01*
X006236Y009795D02*
X005764Y009795D01*
X005764Y009479D02*
X005764Y009263D01*
X005764Y009479D02*
X006236Y009479D01*
X006236Y009263D01*
X005764Y009263D01*
X005764Y009342D02*
X006236Y009342D01*
X006236Y009421D02*
X005764Y009421D01*
X005764Y009105D02*
X005764Y008889D01*
X005764Y009105D02*
X006236Y009105D01*
X006236Y008889D01*
X005764Y008889D01*
X005764Y008968D02*
X006236Y008968D01*
X006236Y009047D02*
X005764Y009047D01*
D14*
X005731Y008095D02*
X006005Y008095D01*
X005731Y008095D02*
X005731Y008447D01*
X006005Y008447D01*
X006005Y008095D01*
X006005Y008176D02*
X005731Y008176D01*
X005731Y008257D02*
X006005Y008257D01*
X006005Y008338D02*
X005731Y008338D01*
X005731Y008419D02*
X006005Y008419D01*
X006005Y007947D02*
X005731Y007947D01*
X006005Y007947D02*
X006005Y007595D01*
X005731Y007595D01*
X005731Y007947D01*
X005731Y007676D02*
X006005Y007676D01*
X006005Y007757D02*
X005731Y007757D01*
X005731Y007838D02*
X006005Y007838D01*
X006005Y007919D02*
X005731Y007919D01*
X005493Y007947D02*
X005219Y007947D01*
X005493Y007947D02*
X005493Y007595D01*
X005219Y007595D01*
X005219Y007947D01*
X005219Y007676D02*
X005493Y007676D01*
X005493Y007757D02*
X005219Y007757D01*
X005219Y007838D02*
X005493Y007838D01*
X005493Y007919D02*
X005219Y007919D01*
X005219Y008095D02*
X005493Y008095D01*
X005219Y008095D02*
X005219Y008447D01*
X005493Y008447D01*
X005493Y008095D01*
X005493Y008176D02*
X005219Y008176D01*
X005219Y008257D02*
X005493Y008257D01*
X005493Y008338D02*
X005219Y008338D01*
X005219Y008419D02*
X005493Y008419D01*
X007838Y010628D02*
X007838Y010902D01*
X007838Y010628D02*
X007486Y010628D01*
X007486Y010902D01*
X007838Y010902D01*
X007838Y010709D02*
X007486Y010709D01*
X007486Y010790D02*
X007838Y010790D01*
X007838Y010871D02*
X007486Y010871D01*
X007838Y011140D02*
X007838Y011414D01*
X007838Y011140D02*
X007486Y011140D01*
X007486Y011414D01*
X007838Y011414D01*
X007838Y011221D02*
X007486Y011221D01*
X007486Y011302D02*
X007838Y011302D01*
X007838Y011383D02*
X007486Y011383D01*
X008488Y011414D02*
X008488Y011140D01*
X008136Y011140D01*
X008136Y011414D01*
X008488Y011414D01*
X008488Y011221D02*
X008136Y011221D01*
X008136Y011302D02*
X008488Y011302D01*
X008488Y011383D02*
X008136Y011383D01*
X008488Y010902D02*
X008488Y010628D01*
X008136Y010628D01*
X008136Y010902D01*
X008488Y010902D01*
X008488Y010709D02*
X008136Y010709D01*
X008136Y010790D02*
X008488Y010790D01*
X008488Y010871D02*
X008136Y010871D01*
X009288Y008864D02*
X009288Y008590D01*
X008936Y008590D01*
X008936Y008864D01*
X009288Y008864D01*
X009288Y008671D02*
X008936Y008671D01*
X008936Y008752D02*
X009288Y008752D01*
X009288Y008833D02*
X008936Y008833D01*
X009288Y008352D02*
X009288Y008078D01*
X008936Y008078D01*
X008936Y008352D01*
X009288Y008352D01*
X009288Y008159D02*
X008936Y008159D01*
X008936Y008240D02*
X009288Y008240D01*
X009288Y008321D02*
X008936Y008321D01*
X007268Y005586D02*
X007268Y005312D01*
X007268Y005586D02*
X007620Y005586D01*
X007620Y005312D01*
X007268Y005312D01*
X007268Y005393D02*
X007620Y005393D01*
X007620Y005474D02*
X007268Y005474D01*
X007268Y005555D02*
X007620Y005555D01*
X007268Y005074D02*
X007268Y004800D01*
X007268Y005074D02*
X007620Y005074D01*
X007620Y004800D01*
X007268Y004800D01*
X007268Y004881D02*
X007620Y004881D01*
X007620Y004962D02*
X007268Y004962D01*
X007268Y005043D02*
X007620Y005043D01*
X008003Y005305D02*
X008277Y005305D01*
X008277Y004953D01*
X008003Y004953D01*
X008003Y005305D01*
X008003Y005034D02*
X008277Y005034D01*
X008277Y005115D02*
X008003Y005115D01*
X008003Y005196D02*
X008277Y005196D01*
X008277Y005277D02*
X008003Y005277D01*
X008515Y005305D02*
X008789Y005305D01*
X008789Y004953D01*
X008515Y004953D01*
X008515Y005305D01*
X008515Y005034D02*
X008789Y005034D01*
X008789Y005115D02*
X008515Y005115D01*
X008515Y005196D02*
X008789Y005196D01*
X008789Y005277D02*
X008515Y005277D01*
X008627Y003634D02*
X008353Y003634D01*
X008353Y003986D01*
X008627Y003986D01*
X008627Y003634D01*
X008627Y003715D02*
X008353Y003715D01*
X008353Y003796D02*
X008627Y003796D01*
X008627Y003877D02*
X008353Y003877D01*
X008353Y003958D02*
X008627Y003958D01*
X008865Y003634D02*
X009139Y003634D01*
X008865Y003634D02*
X008865Y003986D01*
X009139Y003986D01*
X009139Y003634D01*
X009139Y003715D02*
X008865Y003715D01*
X008865Y003796D02*
X009139Y003796D01*
X009139Y003877D02*
X008865Y003877D01*
X008865Y003958D02*
X009139Y003958D01*
X002032Y003968D02*
X002032Y004242D01*
X002698Y004242D01*
X002698Y003968D01*
X002032Y003968D01*
X002032Y004049D02*
X002698Y004049D01*
X002698Y004130D02*
X002032Y004130D01*
X002032Y004211D02*
X002698Y004211D01*
X002032Y004441D02*
X002032Y004715D01*
X002698Y004715D01*
X002698Y004441D01*
X002032Y004441D01*
X002032Y004522D02*
X002698Y004522D01*
X002698Y004603D02*
X002032Y004603D01*
X002032Y004684D02*
X002698Y004684D01*
X002523Y005378D02*
X002523Y005652D01*
X002523Y005378D02*
X002171Y005378D01*
X002171Y005652D01*
X002523Y005652D01*
X002523Y005459D02*
X002171Y005459D01*
X002171Y005540D02*
X002523Y005540D01*
X002523Y005621D02*
X002171Y005621D01*
X002523Y005889D02*
X002523Y006163D01*
X002523Y005889D02*
X002171Y005889D01*
X002171Y006163D01*
X002523Y006163D01*
X002523Y005970D02*
X002171Y005970D01*
X002171Y006051D02*
X002523Y006051D01*
X002523Y006132D02*
X002171Y006132D01*
X002032Y003770D02*
X002032Y003496D01*
X002032Y003770D02*
X002698Y003770D01*
X002698Y003496D01*
X002032Y003496D01*
X002032Y003577D02*
X002698Y003577D01*
X002698Y003658D02*
X002032Y003658D01*
X002032Y003739D02*
X002698Y003739D01*
D15*
X003221Y009710D02*
X003615Y009710D01*
X003221Y009710D02*
X003221Y011520D01*
X003615Y011520D01*
X003615Y009710D01*
X003615Y009790D02*
X003221Y009790D01*
X003221Y009870D02*
X003615Y009870D01*
X003615Y009950D02*
X003221Y009950D01*
X003221Y010030D02*
X003615Y010030D01*
X003615Y010110D02*
X003221Y010110D01*
X003221Y010190D02*
X003615Y010190D01*
X003615Y010270D02*
X003221Y010270D01*
X003221Y010350D02*
X003615Y010350D01*
X003615Y010430D02*
X003221Y010430D01*
X003221Y010510D02*
X003615Y010510D01*
X003615Y010590D02*
X003221Y010590D01*
X003221Y010670D02*
X003615Y010670D01*
X003615Y010750D02*
X003221Y010750D01*
X003221Y010830D02*
X003615Y010830D01*
X003615Y010910D02*
X003221Y010910D01*
X003221Y010990D02*
X003615Y010990D01*
X003615Y011070D02*
X003221Y011070D01*
X003221Y011150D02*
X003615Y011150D01*
X003615Y011230D02*
X003221Y011230D01*
X003221Y011310D02*
X003615Y011310D01*
X003615Y011390D02*
X003221Y011390D01*
X003221Y011470D02*
X003615Y011470D01*
X004008Y009710D02*
X004402Y009710D01*
X004008Y009710D02*
X004008Y011520D01*
X004402Y011520D01*
X004402Y009710D01*
X004402Y009790D02*
X004008Y009790D01*
X004008Y009870D02*
X004402Y009870D01*
X004402Y009950D02*
X004008Y009950D01*
X004008Y010030D02*
X004402Y010030D01*
X004402Y010110D02*
X004008Y010110D01*
X004008Y010190D02*
X004402Y010190D01*
X004402Y010270D02*
X004008Y010270D01*
X004008Y010350D02*
X004402Y010350D01*
X004402Y010430D02*
X004008Y010430D01*
X004008Y010510D02*
X004402Y010510D01*
X004402Y010590D02*
X004008Y010590D01*
X004008Y010670D02*
X004402Y010670D01*
X004402Y010750D02*
X004008Y010750D01*
X004008Y010830D02*
X004402Y010830D01*
X004402Y010910D02*
X004008Y010910D01*
X004008Y010990D02*
X004402Y010990D01*
X004402Y011070D02*
X004008Y011070D01*
X004008Y011150D02*
X004402Y011150D01*
X004402Y011230D02*
X004008Y011230D01*
X004008Y011310D02*
X004402Y011310D01*
X004402Y011390D02*
X004008Y011390D01*
X004008Y011470D02*
X004402Y011470D01*
X005663Y011025D02*
X006057Y011025D01*
X006057Y010317D01*
X005663Y010317D01*
X005663Y011025D01*
X005663Y010397D02*
X006057Y010397D01*
X006057Y010477D02*
X005663Y010477D01*
X005663Y010557D02*
X006057Y010557D01*
X006057Y010637D02*
X005663Y010637D01*
X005663Y010717D02*
X006057Y010717D01*
X006057Y010797D02*
X005663Y010797D01*
X005663Y010877D02*
X006057Y010877D01*
X006057Y010957D02*
X005663Y010957D01*
X006766Y011025D02*
X007160Y011025D01*
X007160Y010317D01*
X006766Y010317D01*
X006766Y011025D01*
X006766Y010397D02*
X007160Y010397D01*
X007160Y010477D02*
X006766Y010477D01*
X006766Y010557D02*
X007160Y010557D01*
X007160Y010637D02*
X006766Y010637D01*
X006766Y010717D02*
X007160Y010717D01*
X007160Y010797D02*
X006766Y010797D01*
X006766Y010877D02*
X007160Y010877D01*
X007160Y010957D02*
X006766Y010957D01*
D16*
X005463Y011995D02*
X005463Y013329D01*
X005463Y011995D02*
X004837Y011995D01*
X004837Y013329D01*
X005463Y013329D01*
X005463Y012079D02*
X004837Y012079D01*
X004837Y012163D02*
X005463Y012163D01*
X005463Y012247D02*
X004837Y012247D01*
X004837Y012331D02*
X005463Y012331D01*
X005463Y012415D02*
X004837Y012415D01*
X004837Y012499D02*
X005463Y012499D01*
X005463Y012583D02*
X004837Y012583D01*
X004837Y012667D02*
X005463Y012667D01*
X005463Y012751D02*
X004837Y012751D01*
X004837Y012835D02*
X005463Y012835D01*
X005463Y012919D02*
X004837Y012919D01*
X004837Y013003D02*
X005463Y013003D01*
X005463Y013087D02*
X004837Y013087D01*
X004837Y013171D02*
X005463Y013171D01*
X005463Y013255D02*
X004837Y013255D01*
X002786Y013329D02*
X002786Y011995D01*
X002160Y011995D01*
X002160Y013329D01*
X002786Y013329D01*
X002786Y012079D02*
X002160Y012079D01*
X002160Y012163D02*
X002786Y012163D01*
X002786Y012247D02*
X002160Y012247D01*
X002160Y012331D02*
X002786Y012331D01*
X002786Y012415D02*
X002160Y012415D01*
X002160Y012499D02*
X002786Y012499D01*
X002786Y012583D02*
X002160Y012583D01*
X002160Y012667D02*
X002786Y012667D01*
X002786Y012751D02*
X002160Y012751D01*
X002160Y012835D02*
X002786Y012835D01*
X002786Y012919D02*
X002160Y012919D01*
X002160Y013003D02*
X002786Y013003D01*
X002786Y013087D02*
X002160Y013087D01*
X002160Y013171D02*
X002786Y013171D01*
X002786Y013255D02*
X002160Y013255D01*
D17*
X009560Y013327D02*
X009560Y013015D01*
X009560Y013327D02*
X009872Y013327D01*
X009872Y013015D01*
X009560Y013015D01*
X009560Y013097D02*
X009872Y013097D01*
X009872Y013179D02*
X009560Y013179D01*
X009560Y013261D02*
X009872Y013261D01*
X010151Y013327D02*
X010151Y013015D01*
X010151Y013327D02*
X010463Y013327D01*
X010463Y013015D01*
X010151Y013015D01*
X010151Y013097D02*
X010463Y013097D01*
X010463Y013179D02*
X010151Y013179D01*
X010151Y013261D02*
X010463Y013261D01*
X010151Y012777D02*
X010151Y012465D01*
X010151Y012777D02*
X010463Y012777D01*
X010463Y012465D01*
X010151Y012465D01*
X010151Y012547D02*
X010463Y012547D01*
X010463Y012629D02*
X010151Y012629D01*
X010151Y012711D02*
X010463Y012711D01*
X010151Y012217D02*
X010151Y011905D01*
X010151Y012217D02*
X010463Y012217D01*
X010463Y011905D01*
X010151Y011905D01*
X010151Y011987D02*
X010463Y011987D01*
X010463Y012069D02*
X010151Y012069D01*
X010151Y012151D02*
X010463Y012151D01*
X009560Y012217D02*
X009560Y011905D01*
X009560Y012217D02*
X009872Y012217D01*
X009872Y011905D01*
X009560Y011905D01*
X009560Y011987D02*
X009872Y011987D01*
X009872Y012069D02*
X009560Y012069D01*
X009560Y012151D02*
X009872Y012151D01*
X009560Y012465D02*
X009560Y012777D01*
X009872Y012777D01*
X009872Y012465D01*
X009560Y012465D01*
X009560Y012547D02*
X009872Y012547D01*
X009872Y012629D02*
X009560Y012629D01*
X009560Y012711D02*
X009872Y012711D01*
D18*
X007518Y010000D02*
X007518Y009490D01*
X007518Y010000D02*
X008106Y010000D01*
X008106Y009490D01*
X007518Y009490D01*
X007518Y009572D02*
X008106Y009572D01*
X008106Y009654D02*
X007518Y009654D01*
X007518Y009736D02*
X008106Y009736D01*
X008106Y009818D02*
X007518Y009818D01*
X007518Y009900D02*
X008106Y009900D01*
X008106Y009982D02*
X007518Y009982D01*
X007518Y009252D02*
X007518Y008742D01*
X007518Y009252D02*
X008106Y009252D01*
X008106Y008742D01*
X007518Y008742D01*
X007518Y008824D02*
X008106Y008824D01*
X008106Y008906D02*
X007518Y008906D01*
X007518Y008988D02*
X008106Y008988D01*
X008106Y009070D02*
X007518Y009070D01*
X007518Y009152D02*
X008106Y009152D01*
X008106Y009234D02*
X007518Y009234D01*
X004818Y009252D02*
X004818Y008742D01*
X004818Y009252D02*
X005406Y009252D01*
X005406Y008742D01*
X004818Y008742D01*
X004818Y008824D02*
X005406Y008824D01*
X005406Y008906D02*
X004818Y008906D01*
X004818Y008988D02*
X005406Y008988D01*
X005406Y009070D02*
X004818Y009070D01*
X004818Y009152D02*
X005406Y009152D01*
X005406Y009234D02*
X004818Y009234D01*
X004818Y009490D02*
X004818Y010000D01*
X005406Y010000D01*
X005406Y009490D01*
X004818Y009490D01*
X004818Y009572D02*
X005406Y009572D01*
X005406Y009654D02*
X004818Y009654D01*
X004818Y009736D02*
X005406Y009736D01*
X005406Y009818D02*
X004818Y009818D01*
X004818Y009900D02*
X005406Y009900D01*
X005406Y009982D02*
X004818Y009982D01*
D19*
X008399Y007601D02*
X008399Y007405D01*
X007927Y007405D01*
X007927Y007601D01*
X008399Y007601D01*
X008399Y007484D02*
X007927Y007484D01*
X007927Y007563D02*
X008399Y007563D01*
X008498Y007778D02*
X008694Y007778D01*
X008694Y007306D01*
X008498Y007306D01*
X008498Y007778D01*
X008498Y007385D02*
X008694Y007385D01*
X008694Y007464D02*
X008498Y007464D01*
X008498Y007543D02*
X008694Y007543D01*
X008694Y007622D02*
X008498Y007622D01*
X008498Y007701D02*
X008694Y007701D01*
X009265Y007601D02*
X009265Y007405D01*
X008793Y007405D01*
X008793Y007601D01*
X009265Y007601D01*
X009265Y007484D02*
X008793Y007484D01*
X008793Y007563D02*
X009265Y007563D01*
X009265Y007286D02*
X009265Y007090D01*
X008793Y007090D01*
X008793Y007286D01*
X009265Y007286D01*
X009265Y007169D02*
X008793Y007169D01*
X008793Y007248D02*
X009265Y007248D01*
X009265Y006971D02*
X009265Y006775D01*
X008793Y006775D01*
X008793Y006971D01*
X009265Y006971D01*
X009265Y006854D02*
X008793Y006854D01*
X008793Y006933D02*
X009265Y006933D01*
X009265Y006656D02*
X009265Y006460D01*
X008793Y006460D01*
X008793Y006656D01*
X009265Y006656D01*
X009265Y006539D02*
X008793Y006539D01*
X008793Y006618D02*
X009265Y006618D01*
X009265Y006341D02*
X009265Y006145D01*
X008793Y006145D01*
X008793Y006341D01*
X009265Y006341D01*
X009265Y006224D02*
X008793Y006224D01*
X008793Y006303D02*
X009265Y006303D01*
X008793Y006026D02*
X008793Y005830D01*
X008793Y006026D02*
X009265Y006026D01*
X009265Y005830D01*
X008793Y005830D01*
X008793Y005909D02*
X009265Y005909D01*
X009265Y005988D02*
X008793Y005988D01*
X008694Y005653D02*
X008498Y005653D01*
X008498Y006125D01*
X008694Y006125D01*
X008694Y005653D01*
X008694Y005732D02*
X008498Y005732D01*
X008498Y005811D02*
X008694Y005811D01*
X008694Y005890D02*
X008498Y005890D01*
X008498Y005969D02*
X008694Y005969D01*
X008694Y006048D02*
X008498Y006048D01*
X007927Y006026D02*
X007927Y005830D01*
X007927Y006026D02*
X008399Y006026D01*
X008399Y005830D01*
X007927Y005830D01*
X007927Y005909D02*
X008399Y005909D01*
X008399Y005988D02*
X007927Y005988D01*
X007927Y006145D02*
X007927Y006341D01*
X008399Y006341D01*
X008399Y006145D01*
X007927Y006145D01*
X007927Y006224D02*
X008399Y006224D01*
X008399Y006303D02*
X007927Y006303D01*
X007927Y006460D02*
X007927Y006656D01*
X008399Y006656D01*
X008399Y006460D01*
X007927Y006460D01*
X007927Y006539D02*
X008399Y006539D01*
X008399Y006618D02*
X007927Y006618D01*
X007927Y006775D02*
X007927Y006971D01*
X008399Y006971D01*
X008399Y006775D01*
X007927Y006775D01*
X007927Y006854D02*
X008399Y006854D01*
X008399Y006933D02*
X007927Y006933D01*
X008399Y007090D02*
X008399Y007286D01*
X008399Y007090D02*
X007927Y007090D01*
X007927Y007286D01*
X008399Y007286D01*
X008399Y007169D02*
X007927Y007169D01*
X007927Y007248D02*
X008399Y007248D01*
D20*
X007727Y003323D03*
X009148Y011378D03*
D21*
X008600Y012147D02*
X008600Y012467D01*
X008990Y012467D01*
X008990Y012147D01*
X008600Y012147D01*
X008600Y012226D02*
X008990Y012226D01*
X008990Y012305D02*
X008600Y012305D01*
X008600Y012384D02*
X008990Y012384D01*
X008990Y012463D02*
X008600Y012463D01*
X008600Y013017D02*
X008600Y013337D01*
X008990Y013337D01*
X008990Y013017D01*
X008600Y013017D01*
X008600Y013096D02*
X008990Y013096D01*
X008990Y013175D02*
X008600Y013175D01*
X008600Y013254D02*
X008990Y013254D01*
X008990Y013333D02*
X008600Y013333D01*
X005730Y013337D02*
X005730Y013017D01*
X005730Y013337D02*
X006120Y013337D01*
X006120Y013017D01*
X005730Y013017D01*
X005730Y013096D02*
X006120Y013096D01*
X006120Y013175D02*
X005730Y013175D01*
X005730Y013254D02*
X006120Y013254D01*
X006120Y013333D02*
X005730Y013333D01*
X005730Y012467D02*
X005730Y012147D01*
X005730Y012467D02*
X006120Y012467D01*
X006120Y012147D01*
X005730Y012147D01*
X005730Y012226D02*
X006120Y012226D01*
X006120Y012305D02*
X005730Y012305D01*
X005730Y012384D02*
X006120Y012384D01*
X006120Y012463D02*
X005730Y012463D01*
D22*
X006331Y012351D02*
X006609Y012351D01*
X006609Y011763D01*
X006331Y011763D01*
X006331Y012351D01*
X006331Y011845D02*
X006609Y011845D01*
X006609Y011927D02*
X006331Y011927D01*
X006331Y012009D02*
X006609Y012009D01*
X006609Y012091D02*
X006331Y012091D01*
X006331Y012173D02*
X006609Y012173D01*
X006609Y012255D02*
X006331Y012255D01*
X006331Y012337D02*
X006609Y012337D01*
X006921Y012351D02*
X007199Y012351D01*
X007199Y011763D01*
X006921Y011763D01*
X006921Y012351D01*
X006921Y011845D02*
X007199Y011845D01*
X007199Y011927D02*
X006921Y011927D01*
X006921Y012009D02*
X007199Y012009D01*
X007199Y012091D02*
X006921Y012091D01*
X006921Y012173D02*
X007199Y012173D01*
X007199Y012255D02*
X006921Y012255D01*
X006921Y012337D02*
X007199Y012337D01*
X008101Y012351D02*
X008379Y012351D01*
X008379Y011763D01*
X008101Y011763D01*
X008101Y012351D01*
X008101Y011845D02*
X008379Y011845D01*
X008379Y011927D02*
X008101Y011927D01*
X008101Y012009D02*
X008379Y012009D01*
X008379Y012091D02*
X008101Y012091D01*
X008101Y012173D02*
X008379Y012173D01*
X008379Y012255D02*
X008101Y012255D01*
X008101Y012337D02*
X008379Y012337D01*
D23*
X007950Y012742D03*
X006770Y012742D03*
D24*
X000712Y000971D03*
X000712Y001971D03*
X001712Y001971D03*
X001712Y000971D03*
X002712Y000971D03*
X002712Y001971D03*
X003712Y001971D03*
X003712Y000971D03*
X004712Y000971D03*
X004712Y001971D03*
X005712Y001971D03*
X005712Y000971D03*
X006712Y000971D03*
X006712Y001971D03*
X007712Y001971D03*
X007712Y000971D03*
X008712Y000971D03*
X008712Y001971D03*
X009712Y001971D03*
X009712Y000971D03*
X004712Y007971D03*
X002712Y007971D03*
X002712Y008971D03*
M02*
