G75*
G70*
%OFA0B0*%
%FSLAX24Y24*%
%IPPOS*%
%LPD*%
%AMOC8*
5,1,8,0,0,1.08239X$1,22.5*
%
%ADD10C,0.0555*%
%ADD11R,0.1000X0.1500*%
%ADD12OC8,0.0640*%
%ADD13C,0.0080*%
%ADD14C,0.0436*%
%ADD15C,0.0100*%
D10*
X001342Y003909D03*
X001342Y004697D03*
X001342Y005484D03*
X001342Y006271D03*
X001342Y007059D03*
X001342Y007846D03*
X001342Y008634D03*
X001342Y009421D03*
X001342Y010208D03*
X001342Y010996D03*
X010003Y010996D03*
X010003Y010208D03*
X010003Y009421D03*
X010003Y008634D03*
X010003Y007846D03*
X010003Y007059D03*
X010003Y006271D03*
X010003Y005484D03*
X010003Y004697D03*
X010003Y003909D03*
D11*
G36*
X005634Y003834D02*
X005460Y002850D01*
X003984Y003110D01*
X004158Y004094D01*
X005634Y003834D01*
G37*
G36*
X006926Y011161D02*
X006752Y010177D01*
X005276Y010437D01*
X005450Y011421D01*
X006926Y011161D01*
G37*
D12*
X004712Y007971D03*
X002712Y007971D03*
X002712Y008971D03*
X002712Y001971D03*
X002712Y000971D03*
X003712Y000971D03*
X003712Y001971D03*
X004712Y001971D03*
X004712Y000971D03*
X005712Y000971D03*
X005712Y001971D03*
X006712Y001971D03*
X006712Y000971D03*
X007712Y000971D03*
X007712Y001971D03*
X008712Y001971D03*
X008712Y000971D03*
X009712Y000971D03*
X009712Y001971D03*
X001712Y001971D03*
X001712Y000971D03*
X000712Y000971D03*
X000712Y001971D03*
D13*
X000332Y000743D02*
X000332Y000291D01*
X010525Y000291D01*
X010525Y003158D01*
X009778Y002411D01*
X009645Y002411D01*
X007495Y002411D01*
X007402Y002505D01*
X006702Y003205D01*
X006702Y003338D01*
X006702Y003582D01*
X006676Y003593D01*
X006622Y003647D01*
X006622Y003038D01*
X007278Y002381D01*
X007372Y002288D01*
X007372Y002239D01*
X007534Y002401D01*
X007890Y002401D01*
X008142Y002149D01*
X008142Y001793D01*
X007980Y001631D01*
X008278Y001631D01*
X008372Y001538D01*
X008521Y001388D01*
X008534Y001401D01*
X008890Y001401D01*
X009142Y001149D01*
X009142Y000793D01*
X008890Y000541D01*
X008534Y000541D01*
X008282Y000793D01*
X008282Y001149D01*
X008294Y001162D01*
X008145Y001311D01*
X007980Y001311D01*
X008142Y001149D01*
X008142Y000793D01*
X007890Y000541D01*
X007534Y000541D01*
X007282Y000793D01*
X007282Y001149D01*
X007444Y001312D01*
X007145Y001611D01*
X007053Y001704D01*
X006890Y001541D01*
X006534Y001541D01*
X006372Y001703D01*
X006372Y001538D01*
X006521Y001388D01*
X006534Y001401D01*
X006890Y001401D01*
X007142Y001149D01*
X007142Y000793D01*
X006890Y000541D01*
X006534Y000541D01*
X006282Y000793D01*
X006282Y001149D01*
X006294Y001162D01*
X006145Y001311D01*
X006052Y001405D01*
X006052Y001703D01*
X005890Y001541D01*
X005534Y001541D01*
X005282Y001793D01*
X005282Y002149D01*
X005534Y002401D01*
X005890Y002401D01*
X006052Y002239D01*
X006052Y004005D01*
X005445Y004611D01*
X005352Y004705D01*
X005352Y004932D01*
X005326Y004943D01*
X005234Y005035D01*
X005184Y005156D01*
X005184Y005246D01*
X005177Y005243D01*
X005046Y005243D01*
X004926Y005293D01*
X004834Y005385D01*
X004784Y005506D01*
X004784Y005617D01*
X004772Y005605D01*
X004772Y005210D01*
X004797Y005199D01*
X004890Y005107D01*
X004940Y004987D01*
X004940Y004856D01*
X004890Y004735D01*
X004797Y004643D01*
X004677Y004593D01*
X004546Y004593D01*
X004426Y004643D01*
X004334Y004735D01*
X004284Y004856D01*
X004284Y004987D01*
X004334Y005107D01*
X004426Y005199D01*
X004452Y005210D01*
X004452Y005605D01*
X004202Y005855D01*
X004202Y005988D01*
X004202Y006411D01*
X003919Y006411D01*
X003947Y006399D01*
X004040Y006307D01*
X004090Y006187D01*
X004090Y006056D01*
X004040Y005935D01*
X003947Y005843D01*
X003922Y005832D01*
X003922Y004405D01*
X003828Y004311D01*
X002372Y002855D01*
X002372Y002239D01*
X002534Y002401D01*
X002890Y002401D01*
X003142Y002149D01*
X003142Y001793D01*
X002890Y001541D01*
X002538Y001541D01*
X002540Y001537D01*
X002540Y001406D01*
X002538Y001401D01*
X002890Y001401D01*
X003142Y001149D01*
X003142Y000793D01*
X002890Y000541D01*
X002534Y000541D01*
X002282Y000793D01*
X002282Y001145D01*
X002277Y001143D01*
X002146Y001143D01*
X002142Y001145D01*
X002142Y000793D01*
X001890Y000541D01*
X001534Y000541D01*
X001282Y000793D01*
X001282Y001149D01*
X001319Y001187D01*
X001145Y001361D01*
X001052Y001455D01*
X001052Y001661D01*
X000902Y001511D01*
X000752Y001511D01*
X000752Y001931D01*
X000672Y001931D01*
X000672Y001511D01*
X000521Y001511D01*
X000332Y001701D01*
X000332Y001199D01*
X000534Y001401D01*
X000890Y001401D01*
X001142Y001149D01*
X001142Y000793D01*
X000890Y000541D01*
X000534Y000541D01*
X000332Y000743D01*
X000332Y000721D02*
X000354Y000721D01*
X000332Y000643D02*
X000432Y000643D01*
X000511Y000564D02*
X000332Y000564D01*
X000332Y000486D02*
X010525Y000486D01*
X010525Y000564D02*
X009912Y000564D01*
X009890Y000541D02*
X010142Y000793D01*
X010142Y001149D01*
X009890Y001401D01*
X009534Y001401D01*
X009282Y001149D01*
X009282Y000793D01*
X009534Y000541D01*
X009890Y000541D01*
X009991Y000643D02*
X010525Y000643D01*
X010525Y000721D02*
X010070Y000721D01*
X010142Y000800D02*
X010525Y000800D01*
X010525Y000878D02*
X010142Y000878D01*
X010142Y000957D02*
X010525Y000957D01*
X010525Y001035D02*
X010142Y001035D01*
X010142Y001114D02*
X010525Y001114D01*
X010525Y001192D02*
X010099Y001192D01*
X010020Y001271D02*
X010525Y001271D01*
X010525Y001349D02*
X009942Y001349D01*
X009890Y001541D02*
X010142Y001793D01*
X010142Y002149D01*
X009890Y002401D01*
X009534Y002401D01*
X009282Y002149D01*
X009282Y001793D01*
X009534Y001541D01*
X009890Y001541D01*
X009934Y001585D02*
X010525Y001585D01*
X010525Y001507D02*
X008403Y001507D01*
X008324Y001585D02*
X008490Y001585D01*
X008534Y001541D02*
X008890Y001541D01*
X009142Y001793D01*
X009142Y002149D01*
X008890Y002401D01*
X008534Y002401D01*
X008282Y002149D01*
X008282Y001793D01*
X008534Y001541D01*
X008481Y001428D02*
X010525Y001428D01*
X010525Y001664D02*
X010012Y001664D01*
X010091Y001742D02*
X010525Y001742D01*
X010525Y001821D02*
X010142Y001821D01*
X010142Y001899D02*
X010525Y001899D01*
X010525Y001978D02*
X010142Y001978D01*
X010142Y002056D02*
X010525Y002056D01*
X010525Y002135D02*
X010142Y002135D01*
X010078Y002213D02*
X010525Y002213D01*
X010525Y002292D02*
X009999Y002292D01*
X009920Y002371D02*
X010525Y002371D01*
X010525Y002449D02*
X009816Y002449D01*
X009894Y002528D02*
X010525Y002528D01*
X010525Y002606D02*
X009973Y002606D01*
X010051Y002685D02*
X010525Y002685D01*
X010525Y002763D02*
X010130Y002763D01*
X010208Y002842D02*
X010525Y002842D01*
X010525Y002920D02*
X010287Y002920D01*
X010365Y002999D02*
X010525Y002999D01*
X010525Y003077D02*
X010444Y003077D01*
X010523Y003156D02*
X010525Y003156D01*
X009503Y002371D02*
X008920Y002371D01*
X008999Y002292D02*
X009424Y002292D01*
X009346Y002213D02*
X009078Y002213D01*
X009142Y002135D02*
X009282Y002135D01*
X009282Y002056D02*
X009142Y002056D01*
X009142Y001978D02*
X009282Y001978D01*
X009282Y001899D02*
X009142Y001899D01*
X009142Y001821D02*
X009282Y001821D01*
X009333Y001742D02*
X009091Y001742D01*
X009012Y001664D02*
X009411Y001664D01*
X009490Y001585D02*
X008934Y001585D01*
X008942Y001349D02*
X009482Y001349D01*
X009403Y001271D02*
X009020Y001271D01*
X009099Y001192D02*
X009325Y001192D01*
X009282Y001114D02*
X009142Y001114D01*
X009142Y001035D02*
X009282Y001035D01*
X009282Y000957D02*
X009142Y000957D01*
X009142Y000878D02*
X009282Y000878D01*
X009282Y000800D02*
X009142Y000800D01*
X009070Y000721D02*
X009354Y000721D01*
X009432Y000643D02*
X008991Y000643D01*
X008912Y000564D02*
X009511Y000564D01*
X008511Y000564D02*
X007912Y000564D01*
X007991Y000643D02*
X008432Y000643D01*
X008354Y000721D02*
X008070Y000721D01*
X008142Y000800D02*
X008282Y000800D01*
X008282Y000878D02*
X008142Y000878D01*
X008142Y000957D02*
X008282Y000957D01*
X008282Y001035D02*
X008142Y001035D01*
X008142Y001114D02*
X008282Y001114D01*
X008264Y001192D02*
X008099Y001192D01*
X008020Y001271D02*
X008186Y001271D01*
X008012Y001664D02*
X008411Y001664D01*
X008333Y001742D02*
X008091Y001742D01*
X008142Y001821D02*
X008282Y001821D01*
X008282Y001899D02*
X008142Y001899D01*
X008142Y001978D02*
X008282Y001978D01*
X008282Y002056D02*
X008142Y002056D01*
X008142Y002135D02*
X008282Y002135D01*
X008346Y002213D02*
X008078Y002213D01*
X007999Y002292D02*
X008424Y002292D01*
X008503Y002371D02*
X007920Y002371D01*
X007503Y002371D02*
X007289Y002371D01*
X007210Y002449D02*
X007458Y002449D01*
X007379Y002528D02*
X007132Y002528D01*
X007053Y002606D02*
X007301Y002606D01*
X007222Y002685D02*
X006974Y002685D01*
X006896Y002763D02*
X007143Y002763D01*
X007065Y002842D02*
X006817Y002842D01*
X006739Y002920D02*
X006986Y002920D01*
X006908Y002999D02*
X006660Y002999D01*
X006622Y003077D02*
X006829Y003077D01*
X006751Y003156D02*
X006622Y003156D01*
X006622Y003235D02*
X006702Y003235D01*
X006702Y003313D02*
X006622Y003313D01*
X006622Y003392D02*
X006702Y003392D01*
X006702Y003470D02*
X006622Y003470D01*
X006622Y003549D02*
X006702Y003549D01*
X006642Y003627D02*
X006622Y003627D01*
X006052Y003627D02*
X005740Y003627D01*
X005726Y003549D02*
X006052Y003549D01*
X006052Y003470D02*
X005712Y003470D01*
X005699Y003392D02*
X006052Y003392D01*
X006052Y003313D02*
X005478Y003313D01*
X005492Y003392D02*
X005033Y003392D01*
X005047Y003470D02*
X004849Y003470D01*
X004855Y003504D02*
X005692Y003356D01*
X005775Y003828D01*
X005772Y003864D01*
X005760Y003899D01*
X005739Y003929D01*
X005710Y003953D01*
X005677Y003968D01*
X004959Y004095D01*
X004855Y003504D01*
X004777Y003518D01*
X004881Y004109D01*
X004163Y004235D01*
X004127Y004232D01*
X004092Y004219D01*
X004062Y004198D01*
X004038Y004170D01*
X004023Y004137D01*
X003939Y003665D01*
X004776Y003518D01*
X004763Y003439D01*
X004841Y003425D01*
X004737Y002834D01*
X005455Y002708D01*
X005491Y002711D01*
X005526Y002724D01*
X005556Y002745D01*
X005580Y002773D01*
X005595Y002806D01*
X005678Y003278D01*
X004842Y003425D01*
X004855Y003504D01*
X004863Y003549D02*
X004782Y003549D01*
X004796Y003627D02*
X004877Y003627D01*
X004891Y003706D02*
X004810Y003706D01*
X004824Y003784D02*
X004905Y003784D01*
X004919Y003863D02*
X004837Y003863D01*
X004851Y003941D02*
X004932Y003941D01*
X004946Y004020D02*
X004865Y004020D01*
X004879Y004099D02*
X005958Y004099D01*
X005880Y004177D02*
X004494Y004177D01*
X004044Y004177D02*
X003694Y004177D01*
X003772Y004256D02*
X005801Y004256D01*
X005723Y004334D02*
X003851Y004334D01*
X003922Y004413D02*
X005644Y004413D01*
X005565Y004491D02*
X003922Y004491D01*
X003922Y004570D02*
X005487Y004570D01*
X005408Y004648D02*
X004803Y004648D01*
X004881Y004727D02*
X005352Y004727D01*
X005352Y004805D02*
X004919Y004805D01*
X004940Y004884D02*
X005352Y004884D01*
X005306Y004962D02*
X004940Y004962D01*
X004917Y005041D02*
X005231Y005041D01*
X005199Y005120D02*
X004877Y005120D01*
X004799Y005198D02*
X005184Y005198D01*
X004966Y005277D02*
X004772Y005277D01*
X004772Y005355D02*
X004864Y005355D01*
X004813Y005434D02*
X004772Y005434D01*
X004772Y005512D02*
X004784Y005512D01*
X004772Y005591D02*
X004784Y005591D01*
X004452Y005591D02*
X003922Y005591D01*
X003922Y005669D02*
X004387Y005669D01*
X004309Y005748D02*
X003922Y005748D01*
X003922Y005826D02*
X004230Y005826D01*
X004202Y005905D02*
X004009Y005905D01*
X004060Y005984D02*
X004202Y005984D01*
X004202Y006062D02*
X004090Y006062D01*
X004090Y006141D02*
X004202Y006141D01*
X004202Y006219D02*
X004076Y006219D01*
X004044Y006298D02*
X004202Y006298D01*
X004202Y006376D02*
X003971Y006376D01*
X003605Y006411D02*
X003576Y006399D01*
X003484Y006307D01*
X003434Y006187D01*
X003434Y006056D01*
X003484Y005935D01*
X003576Y005843D01*
X003602Y005832D01*
X003602Y004538D01*
X002052Y002988D01*
X002052Y002855D01*
X002052Y002282D01*
X001902Y002431D01*
X001752Y002431D01*
X001752Y002011D01*
X001672Y002011D01*
X001672Y002431D01*
X001521Y002431D01*
X001372Y002282D01*
X001372Y003005D01*
X001878Y003511D01*
X001972Y003605D01*
X001972Y005955D01*
X002171Y006154D01*
X002196Y006143D01*
X002327Y006143D01*
X002379Y006165D01*
X002202Y005988D01*
X002202Y005855D01*
X002202Y005360D01*
X002176Y005349D01*
X002084Y005257D01*
X002034Y005137D01*
X002034Y005006D01*
X002084Y004885D01*
X002176Y004793D01*
X002296Y004743D01*
X002427Y004743D01*
X002547Y004793D01*
X002640Y004885D01*
X002690Y005006D01*
X002690Y005137D01*
X002640Y005257D01*
X002547Y005349D01*
X002522Y005360D01*
X002522Y005855D01*
X003078Y006411D01*
X003605Y006411D01*
X003553Y006376D02*
X003043Y006376D01*
X002964Y006298D02*
X003480Y006298D01*
X003447Y006219D02*
X002886Y006219D01*
X002807Y006141D02*
X003434Y006141D01*
X003434Y006062D02*
X002729Y006062D01*
X002650Y005984D02*
X003464Y005984D01*
X003514Y005905D02*
X002572Y005905D01*
X002522Y005826D02*
X003602Y005826D01*
X003602Y005748D02*
X002522Y005748D01*
X002522Y005669D02*
X003602Y005669D01*
X003602Y005591D02*
X002522Y005591D01*
X002522Y005512D02*
X003602Y005512D01*
X003602Y005434D02*
X002522Y005434D01*
X002534Y005355D02*
X003602Y005355D01*
X003602Y005277D02*
X002620Y005277D01*
X002664Y005198D02*
X003602Y005198D01*
X003602Y005120D02*
X002690Y005120D01*
X002690Y005041D02*
X003602Y005041D01*
X003602Y004962D02*
X002672Y004962D01*
X002638Y004884D02*
X003602Y004884D01*
X003602Y004805D02*
X002560Y004805D01*
X002164Y004805D02*
X001972Y004805D01*
X001972Y004727D02*
X003602Y004727D01*
X003602Y004648D02*
X001972Y004648D01*
X001972Y004570D02*
X003602Y004570D01*
X003555Y004491D02*
X001972Y004491D01*
X001972Y004413D02*
X003477Y004413D01*
X003398Y004334D02*
X001972Y004334D01*
X001972Y004256D02*
X003320Y004256D01*
X003241Y004177D02*
X001972Y004177D01*
X001972Y004099D02*
X003163Y004099D01*
X003084Y004020D02*
X001972Y004020D01*
X001972Y003941D02*
X003005Y003941D01*
X002927Y003863D02*
X001972Y003863D01*
X001972Y003784D02*
X002848Y003784D01*
X002770Y003706D02*
X001972Y003706D01*
X001972Y003627D02*
X002691Y003627D01*
X002613Y003549D02*
X001915Y003549D01*
X001837Y003470D02*
X002534Y003470D01*
X002456Y003392D02*
X001758Y003392D01*
X001680Y003313D02*
X002377Y003313D01*
X002299Y003235D02*
X001601Y003235D01*
X001523Y003156D02*
X002220Y003156D01*
X002141Y003077D02*
X001444Y003077D01*
X001372Y002999D02*
X002063Y002999D01*
X002052Y002920D02*
X001372Y002920D01*
X001372Y002842D02*
X002052Y002842D01*
X002052Y002763D02*
X001372Y002763D01*
X001372Y002685D02*
X002052Y002685D01*
X002052Y002606D02*
X001372Y002606D01*
X001372Y002528D02*
X002052Y002528D01*
X002052Y002449D02*
X001372Y002449D01*
X001372Y002371D02*
X001460Y002371D01*
X001382Y002292D02*
X001372Y002292D01*
X001672Y002292D02*
X001752Y002292D01*
X001752Y002371D02*
X001672Y002371D01*
X001672Y002213D02*
X001752Y002213D01*
X001752Y002135D02*
X001672Y002135D01*
X001672Y002056D02*
X001752Y002056D01*
X001752Y001931D02*
X001672Y001931D01*
X001672Y001511D01*
X001521Y001511D01*
X001372Y001661D01*
X001372Y001588D01*
X001558Y001401D01*
X001886Y001401D01*
X001884Y001406D01*
X001884Y001511D01*
X001752Y001511D01*
X001752Y001931D01*
X001752Y001899D02*
X001672Y001899D01*
X001672Y001821D02*
X001752Y001821D01*
X001752Y001742D02*
X001672Y001742D01*
X001672Y001664D02*
X001752Y001664D01*
X001752Y001585D02*
X001672Y001585D01*
X001531Y001428D02*
X001884Y001428D01*
X001884Y001507D02*
X001453Y001507D01*
X001447Y001585D02*
X001374Y001585D01*
X001157Y001349D02*
X000942Y001349D01*
X001020Y001271D02*
X001236Y001271D01*
X001314Y001192D02*
X001099Y001192D01*
X001142Y001114D02*
X001282Y001114D01*
X001282Y001035D02*
X001142Y001035D01*
X001142Y000957D02*
X001282Y000957D01*
X001282Y000878D02*
X001142Y000878D01*
X001142Y000800D02*
X001282Y000800D01*
X001354Y000721D02*
X001070Y000721D01*
X000991Y000643D02*
X001432Y000643D01*
X001511Y000564D02*
X000912Y000564D01*
X000332Y000407D02*
X010525Y000407D01*
X010525Y000328D02*
X000332Y000328D01*
X000332Y001271D02*
X000403Y001271D01*
X000332Y001349D02*
X000482Y001349D01*
X000332Y001428D02*
X001079Y001428D01*
X001052Y001507D02*
X000332Y001507D01*
X000332Y001585D02*
X000447Y001585D01*
X000369Y001664D02*
X000332Y001664D01*
X000672Y001664D02*
X000752Y001664D01*
X000752Y001742D02*
X000672Y001742D01*
X000672Y001821D02*
X000752Y001821D01*
X000752Y001899D02*
X000672Y001899D01*
X000672Y002011D02*
X000672Y002431D01*
X000521Y002431D01*
X000332Y002242D01*
X000332Y013437D01*
X010525Y013437D01*
X010525Y007551D01*
X010366Y007710D01*
X010390Y007769D01*
X010390Y007923D01*
X010331Y008066D01*
X010222Y008175D01*
X010080Y008234D01*
X009926Y008234D01*
X009784Y008175D01*
X009674Y008066D01*
X009616Y007923D01*
X009616Y007769D01*
X009674Y007627D01*
X009784Y007518D01*
X009926Y007459D01*
X010080Y007459D01*
X010140Y007483D01*
X010302Y007321D01*
X010302Y007308D01*
X010222Y007387D01*
X010080Y007446D01*
X009926Y007446D01*
X009784Y007387D01*
X009674Y007278D01*
X009616Y007136D01*
X009616Y006982D01*
X009674Y006839D01*
X009784Y006730D01*
X009926Y006671D01*
X010080Y006671D01*
X010222Y006730D01*
X010302Y006809D01*
X010302Y006521D01*
X010222Y006600D01*
X010080Y006659D01*
X009926Y006659D01*
X009784Y006600D01*
X009674Y006491D01*
X009616Y006348D01*
X009616Y006194D01*
X009674Y006052D01*
X009784Y005943D01*
X009926Y005884D01*
X010080Y005884D01*
X010222Y005943D01*
X010302Y006022D01*
X010302Y005733D01*
X010222Y005812D01*
X010080Y005871D01*
X009926Y005871D01*
X009784Y005812D01*
X009674Y005703D01*
X009616Y005561D01*
X009616Y005413D01*
X009527Y005449D01*
X009396Y005449D01*
X009276Y005399D01*
X009184Y005307D01*
X009173Y005281D01*
X009128Y005281D01*
X006972Y007438D01*
X006878Y007531D01*
X005898Y007531D01*
X006221Y007854D01*
X006246Y007843D01*
X006377Y007843D01*
X006497Y007893D01*
X006590Y007985D01*
X006640Y008106D01*
X006640Y008237D01*
X006590Y008357D01*
X006497Y008449D01*
X006377Y008499D01*
X006246Y008499D01*
X006221Y008489D01*
X003554Y011156D01*
X003421Y011156D01*
X001695Y011156D01*
X001670Y011215D01*
X001561Y011324D01*
X001419Y011383D01*
X001264Y011383D01*
X001154Y011337D01*
X001228Y011411D01*
X001878Y011411D01*
X001972Y011505D01*
X002278Y011811D01*
X007045Y011811D01*
X007057Y011799D01*
X006946Y011799D01*
X006826Y011749D01*
X006734Y011657D01*
X006684Y011537D01*
X006684Y011406D01*
X006694Y011380D01*
X006637Y011323D01*
X005423Y011537D01*
X005349Y011485D01*
X005256Y010959D01*
X005138Y010959D01*
X005047Y011049D01*
X004927Y011099D01*
X004796Y011099D01*
X004676Y011049D01*
X004584Y010957D01*
X004534Y010837D01*
X004534Y010706D01*
X004584Y010585D01*
X004676Y010493D01*
X004796Y010443D01*
X004927Y010443D01*
X005047Y010493D01*
X005140Y010585D01*
X005162Y010639D01*
X005200Y010639D01*
X005159Y010411D01*
X005212Y010336D01*
X006778Y010060D01*
X006853Y010112D01*
X007035Y011143D01*
X007077Y011143D01*
X007197Y011193D01*
X007290Y011285D01*
X007340Y011406D01*
X007340Y011517D01*
X007452Y011405D01*
X007452Y010610D01*
X007426Y010599D01*
X007334Y010507D01*
X007284Y010387D01*
X007284Y010256D01*
X007334Y010135D01*
X007426Y010043D01*
X007546Y009993D01*
X007677Y009993D01*
X007797Y010043D01*
X007890Y010135D01*
X007940Y010256D01*
X007940Y010387D01*
X007890Y010507D01*
X007797Y010599D01*
X007772Y010610D01*
X007772Y011405D01*
X007772Y011538D01*
X007272Y012038D01*
X007178Y012131D01*
X002278Y012131D01*
X002145Y012131D01*
X001745Y011731D01*
X001485Y011731D01*
X001736Y011836D01*
X001947Y012047D01*
X002062Y012322D01*
X002062Y012621D01*
X001947Y012896D01*
X001736Y013107D01*
X001461Y013221D01*
X001162Y013221D01*
X000887Y013107D01*
X000676Y012896D01*
X000562Y012621D01*
X000562Y012322D01*
X000676Y012047D01*
X000887Y011836D01*
X001139Y011731D01*
X001095Y011731D01*
X000752Y011388D01*
X000752Y011255D01*
X000752Y007555D01*
X000752Y007422D01*
X000979Y007195D01*
X000954Y007136D01*
X000954Y006982D01*
X001013Y006839D01*
X001122Y006730D01*
X001264Y006671D01*
X001419Y006671D01*
X001561Y006730D01*
X001670Y006839D01*
X001729Y006982D01*
X001729Y007136D01*
X001670Y007278D01*
X001561Y007387D01*
X001419Y007446D01*
X001264Y007446D01*
X001205Y007421D01*
X001072Y007555D01*
X001072Y007568D01*
X001122Y007518D01*
X001264Y007459D01*
X001419Y007459D01*
X001561Y007518D01*
X001670Y007627D01*
X001729Y007769D01*
X001729Y007923D01*
X001670Y008066D01*
X001561Y008175D01*
X001419Y008234D01*
X001264Y008234D01*
X001122Y008175D01*
X001072Y008124D01*
X001072Y008356D01*
X001122Y008305D01*
X001264Y008246D01*
X001419Y008246D01*
X001561Y008305D01*
X001670Y008414D01*
X001729Y008556D01*
X001729Y008711D01*
X001717Y008740D01*
X002294Y008162D01*
X002282Y008149D01*
X002282Y007793D01*
X002534Y007541D01*
X002890Y007541D01*
X003142Y007793D01*
X003142Y008149D01*
X002890Y008401D01*
X002534Y008401D01*
X002521Y008388D01*
X001681Y009228D01*
X001729Y009344D01*
X001729Y009498D01*
X001670Y009640D01*
X001561Y009749D01*
X001419Y009808D01*
X001264Y009808D01*
X001122Y009749D01*
X001072Y009699D01*
X001072Y009930D01*
X001122Y009880D01*
X001264Y009821D01*
X001419Y009821D01*
X001561Y009880D01*
X001569Y009888D01*
X002294Y009162D01*
X002282Y009149D01*
X002282Y008793D01*
X002534Y008541D01*
X002890Y008541D01*
X003142Y008793D01*
X003142Y009149D01*
X002890Y009401D01*
X002534Y009401D01*
X002521Y009388D01*
X001729Y010180D01*
X001729Y010285D01*
X001670Y010428D01*
X001561Y010537D01*
X001419Y010596D01*
X001264Y010596D01*
X001122Y010537D01*
X001072Y010486D01*
X001072Y010718D01*
X001122Y010667D01*
X001264Y010608D01*
X001419Y010608D01*
X001561Y010667D01*
X001670Y010776D01*
X001695Y010836D01*
X003421Y010836D01*
X005994Y008262D01*
X005984Y008237D01*
X005984Y008106D01*
X005994Y008080D01*
X005695Y007781D01*
X005345Y007781D01*
X005252Y007688D01*
X005252Y007688D01*
X004295Y006731D01*
X002945Y006731D01*
X002852Y006638D01*
X002568Y006354D01*
X002590Y006406D01*
X002590Y006537D01*
X002540Y006657D01*
X002447Y006749D01*
X002327Y006799D01*
X002196Y006799D01*
X002076Y006749D01*
X001984Y006657D01*
X001934Y006537D01*
X001934Y006406D01*
X001944Y006380D01*
X001708Y006144D01*
X001729Y006194D01*
X001729Y006348D01*
X001670Y006491D01*
X001561Y006600D01*
X001419Y006659D01*
X001264Y006659D01*
X001122Y006600D01*
X001013Y006491D01*
X000954Y006348D01*
X000954Y006194D01*
X001013Y006052D01*
X001122Y005943D01*
X001264Y005884D01*
X001419Y005884D01*
X001561Y005943D01*
X001652Y006034D01*
X001652Y005955D01*
X001652Y005722D01*
X001561Y005812D01*
X001419Y005871D01*
X001264Y005871D01*
X001122Y005812D01*
X001013Y005703D01*
X000954Y005561D01*
X000954Y005407D01*
X001013Y005264D01*
X001122Y005155D01*
X001264Y005096D01*
X001419Y005096D01*
X001561Y005155D01*
X001652Y005246D01*
X001652Y004934D01*
X001561Y005025D01*
X001419Y005084D01*
X001264Y005084D01*
X001122Y005025D01*
X001013Y004916D01*
X000954Y004774D01*
X000954Y004619D01*
X001013Y004477D01*
X001122Y004368D01*
X001246Y004317D01*
X001244Y004316D01*
X001181Y004296D01*
X001123Y004266D01*
X001070Y004228D01*
X001023Y004181D01*
X000985Y004128D01*
X000955Y004069D01*
X000934Y004007D01*
X000925Y003948D01*
X001303Y003948D01*
X001303Y003870D01*
X001380Y003870D01*
X001380Y003493D01*
X001412Y003498D01*
X001052Y003138D01*
X001052Y003005D01*
X001052Y002282D01*
X000902Y002431D01*
X000752Y002431D01*
X000752Y002011D01*
X000672Y002011D01*
X000672Y002056D02*
X000752Y002056D01*
X000752Y002135D02*
X000672Y002135D01*
X000672Y002213D02*
X000752Y002213D01*
X000752Y002292D02*
X000672Y002292D01*
X000672Y002371D02*
X000752Y002371D01*
X000963Y002371D02*
X001052Y002371D01*
X001052Y002449D02*
X000332Y002449D01*
X000332Y002371D02*
X000460Y002371D01*
X000382Y002292D02*
X000332Y002292D01*
X000332Y002528D02*
X001052Y002528D01*
X001052Y002606D02*
X000332Y002606D01*
X000332Y002685D02*
X001052Y002685D01*
X001052Y002763D02*
X000332Y002763D01*
X000332Y002842D02*
X001052Y002842D01*
X001052Y002920D02*
X000332Y002920D01*
X000332Y002999D02*
X001052Y002999D01*
X001052Y003077D02*
X000332Y003077D01*
X000332Y003156D02*
X001070Y003156D01*
X001149Y003235D02*
X000332Y003235D01*
X000332Y003313D02*
X001227Y003313D01*
X001306Y003392D02*
X000332Y003392D01*
X000332Y003470D02*
X001384Y003470D01*
X001380Y003549D02*
X001303Y003549D01*
X001303Y003493D02*
X001244Y003502D01*
X001181Y003522D01*
X001123Y003552D01*
X001070Y003591D01*
X001023Y003637D01*
X000985Y003690D01*
X000955Y003749D01*
X000934Y003811D01*
X000925Y003870D01*
X001303Y003870D01*
X001303Y003493D01*
X001303Y003627D02*
X001380Y003627D01*
X001380Y003706D02*
X001303Y003706D01*
X001303Y003784D02*
X001380Y003784D01*
X001380Y003863D02*
X001303Y003863D01*
X001303Y003941D02*
X000332Y003941D01*
X000332Y003863D02*
X000926Y003863D01*
X000943Y003784D02*
X000332Y003784D01*
X000332Y003706D02*
X000977Y003706D01*
X001033Y003627D02*
X000332Y003627D01*
X000332Y003549D02*
X001129Y003549D01*
X000939Y004020D02*
X000332Y004020D01*
X000332Y004099D02*
X000970Y004099D01*
X001020Y004177D02*
X000332Y004177D01*
X000332Y004256D02*
X001108Y004256D01*
X001204Y004334D02*
X000332Y004334D01*
X000332Y004413D02*
X001077Y004413D01*
X001007Y004491D02*
X000332Y004491D01*
X000332Y004570D02*
X000975Y004570D01*
X000954Y004648D02*
X000332Y004648D01*
X000332Y004727D02*
X000954Y004727D01*
X000967Y004805D02*
X000332Y004805D01*
X000332Y004884D02*
X001000Y004884D01*
X001060Y004962D02*
X000332Y004962D01*
X000332Y005041D02*
X001161Y005041D01*
X001209Y005120D02*
X000332Y005120D01*
X000332Y005198D02*
X001079Y005198D01*
X001008Y005277D02*
X000332Y005277D01*
X000332Y005355D02*
X000975Y005355D01*
X000954Y005434D02*
X000332Y005434D01*
X000332Y005512D02*
X000954Y005512D01*
X000966Y005591D02*
X000332Y005591D01*
X000332Y005669D02*
X000999Y005669D01*
X001058Y005748D02*
X000332Y005748D01*
X000332Y005826D02*
X001156Y005826D01*
X001213Y005905D02*
X000332Y005905D01*
X000332Y005984D02*
X001081Y005984D01*
X001009Y006062D02*
X000332Y006062D01*
X000332Y006141D02*
X000976Y006141D01*
X000954Y006219D02*
X000332Y006219D01*
X000332Y006298D02*
X000954Y006298D01*
X000966Y006376D02*
X000332Y006376D01*
X000332Y006455D02*
X000998Y006455D01*
X001056Y006533D02*
X000332Y006533D01*
X000332Y006612D02*
X001151Y006612D01*
X001218Y006690D02*
X000332Y006690D01*
X000332Y006769D02*
X001083Y006769D01*
X001010Y006848D02*
X000332Y006848D01*
X000332Y006926D02*
X000977Y006926D01*
X000954Y007005D02*
X000332Y007005D01*
X000332Y007083D02*
X000954Y007083D01*
X000965Y007162D02*
X000332Y007162D01*
X000332Y007240D02*
X000934Y007240D01*
X000855Y007319D02*
X000332Y007319D01*
X000332Y007397D02*
X000777Y007397D01*
X000752Y007476D02*
X000332Y007476D01*
X000332Y007554D02*
X000752Y007554D01*
X000752Y007633D02*
X000332Y007633D01*
X000332Y007711D02*
X000752Y007711D01*
X000752Y007790D02*
X000332Y007790D01*
X000332Y007869D02*
X000752Y007869D01*
X000752Y007947D02*
X000332Y007947D01*
X000332Y008026D02*
X000752Y008026D01*
X000752Y008104D02*
X000332Y008104D01*
X000332Y008183D02*
X000752Y008183D01*
X000752Y008261D02*
X000332Y008261D01*
X000332Y008340D02*
X000752Y008340D01*
X000752Y008418D02*
X000332Y008418D01*
X000332Y008497D02*
X000752Y008497D01*
X000752Y008575D02*
X000332Y008575D01*
X000332Y008654D02*
X000752Y008654D01*
X000752Y008733D02*
X000332Y008733D01*
X000332Y008811D02*
X000752Y008811D01*
X000752Y008890D02*
X000332Y008890D01*
X000332Y008968D02*
X000752Y008968D01*
X000752Y009047D02*
X000332Y009047D01*
X000332Y009125D02*
X000752Y009125D01*
X000752Y009204D02*
X000332Y009204D01*
X000332Y009282D02*
X000752Y009282D01*
X000752Y009361D02*
X000332Y009361D01*
X000332Y009439D02*
X000752Y009439D01*
X000752Y009518D02*
X000332Y009518D01*
X000332Y009597D02*
X000752Y009597D01*
X000752Y009675D02*
X000332Y009675D01*
X000332Y009754D02*
X000752Y009754D01*
X000752Y009832D02*
X000332Y009832D01*
X000332Y009911D02*
X000752Y009911D01*
X000752Y009989D02*
X000332Y009989D01*
X000332Y010068D02*
X000752Y010068D01*
X000752Y010146D02*
X000332Y010146D01*
X000332Y010225D02*
X000752Y010225D01*
X000752Y010303D02*
X000332Y010303D01*
X000332Y010382D02*
X000752Y010382D01*
X000752Y010461D02*
X000332Y010461D01*
X000332Y010539D02*
X000752Y010539D01*
X000752Y010618D02*
X000332Y010618D01*
X000332Y010696D02*
X000752Y010696D01*
X000752Y010775D02*
X000332Y010775D01*
X000332Y010853D02*
X000752Y010853D01*
X000752Y010932D02*
X000332Y010932D01*
X000332Y011010D02*
X000752Y011010D01*
X000752Y011089D02*
X000332Y011089D01*
X000332Y011167D02*
X000752Y011167D01*
X000752Y011246D02*
X000332Y011246D01*
X000332Y011324D02*
X000752Y011324D01*
X000767Y011403D02*
X000332Y011403D01*
X000332Y011482D02*
X000846Y011482D01*
X000924Y011560D02*
X000332Y011560D01*
X000332Y011639D02*
X001003Y011639D01*
X001081Y011717D02*
X000332Y011717D01*
X000332Y011796D02*
X000983Y011796D01*
X000848Y011874D02*
X000332Y011874D01*
X000332Y011953D02*
X000770Y011953D01*
X000691Y012031D02*
X000332Y012031D01*
X000332Y012110D02*
X000650Y012110D01*
X000617Y012188D02*
X000332Y012188D01*
X000332Y012267D02*
X000585Y012267D01*
X000562Y012346D02*
X000332Y012346D01*
X000332Y012424D02*
X000562Y012424D01*
X000562Y012503D02*
X000332Y012503D01*
X000332Y012581D02*
X000562Y012581D01*
X000578Y012660D02*
X000332Y012660D01*
X000332Y012738D02*
X000611Y012738D01*
X000643Y012817D02*
X000332Y012817D01*
X000332Y012895D02*
X000676Y012895D01*
X000754Y012974D02*
X000332Y012974D01*
X000332Y013052D02*
X000832Y013052D01*
X000945Y013131D02*
X000332Y013131D01*
X000332Y013210D02*
X001134Y013210D01*
X001489Y013210D02*
X010525Y013210D01*
X010525Y013288D02*
X000332Y013288D01*
X000332Y013367D02*
X010525Y013367D01*
X010525Y013131D02*
X001679Y013131D01*
X001791Y013052D02*
X010525Y013052D01*
X010525Y012974D02*
X008135Y012974D01*
X008117Y012992D02*
X008200Y012909D01*
X008245Y012801D01*
X008245Y012684D01*
X008200Y012575D01*
X008117Y012492D01*
X008008Y012447D01*
X007891Y012447D01*
X007783Y012492D01*
X007700Y012575D01*
X007655Y012684D01*
X007655Y012801D01*
X007700Y012909D01*
X007783Y012992D01*
X007891Y013037D01*
X008008Y013037D01*
X008117Y012992D01*
X008206Y012895D02*
X010525Y012895D01*
X010525Y012817D02*
X008238Y012817D01*
X008245Y012738D02*
X010525Y012738D01*
X010525Y012660D02*
X008235Y012660D01*
X008202Y012581D02*
X010525Y012581D01*
X010525Y012503D02*
X008127Y012503D01*
X007772Y012503D02*
X006947Y012503D01*
X006937Y012492D02*
X007020Y012575D01*
X007065Y012684D01*
X007065Y012801D01*
X007020Y012909D01*
X006937Y012992D01*
X006828Y013037D01*
X006711Y013037D01*
X006603Y012992D01*
X006520Y012909D01*
X006475Y012801D01*
X006475Y012684D01*
X006520Y012575D01*
X006603Y012492D01*
X006711Y012447D01*
X006828Y012447D01*
X006937Y012492D01*
X007022Y012581D02*
X007697Y012581D01*
X007665Y012660D02*
X007055Y012660D01*
X007065Y012738D02*
X007655Y012738D01*
X007661Y012817D02*
X007058Y012817D01*
X007026Y012895D02*
X007694Y012895D01*
X007764Y012974D02*
X006955Y012974D01*
X006584Y012974D02*
X001870Y012974D01*
X001948Y012895D02*
X006514Y012895D01*
X006481Y012817D02*
X001980Y012817D01*
X002013Y012738D02*
X006475Y012738D01*
X006485Y012660D02*
X002045Y012660D01*
X002062Y012581D02*
X006517Y012581D01*
X006592Y012503D02*
X002062Y012503D01*
X002062Y012424D02*
X010525Y012424D01*
X010525Y012346D02*
X002062Y012346D01*
X002039Y012267D02*
X010525Y012267D01*
X010525Y012188D02*
X002006Y012188D01*
X001974Y012110D02*
X002124Y012110D01*
X002045Y012031D02*
X001932Y012031D01*
X001967Y011953D02*
X001854Y011953D01*
X001888Y011874D02*
X001775Y011874D01*
X001810Y011796D02*
X001640Y011796D01*
X001948Y011482D02*
X005348Y011482D01*
X005334Y011403D02*
X001220Y011403D01*
X001560Y011324D02*
X005320Y011324D01*
X005307Y011246D02*
X001639Y011246D01*
X001690Y011167D02*
X005293Y011167D01*
X005279Y011089D02*
X004952Y011089D01*
X005087Y011010D02*
X005265Y011010D01*
X005196Y010618D02*
X005153Y010618D01*
X005182Y010539D02*
X005093Y010539D01*
X005168Y010461D02*
X004969Y010461D01*
X004755Y010461D02*
X004249Y010461D01*
X004170Y010539D02*
X004630Y010539D01*
X004570Y010618D02*
X004092Y010618D01*
X004013Y010696D02*
X004538Y010696D01*
X004534Y010775D02*
X003935Y010775D01*
X003856Y010853D02*
X004540Y010853D01*
X004573Y010932D02*
X003777Y010932D01*
X003699Y011010D02*
X004637Y011010D01*
X004771Y011089D02*
X003620Y011089D01*
X003482Y010775D02*
X001668Y010775D01*
X001590Y010696D02*
X003561Y010696D01*
X003639Y010618D02*
X001441Y010618D01*
X001556Y010539D02*
X003718Y010539D01*
X003796Y010461D02*
X001637Y010461D01*
X001689Y010382D02*
X003875Y010382D01*
X003953Y010303D02*
X001722Y010303D01*
X001729Y010225D02*
X004032Y010225D01*
X004110Y010146D02*
X001763Y010146D01*
X001841Y010068D02*
X004189Y010068D01*
X004267Y009989D02*
X001920Y009989D01*
X001999Y009911D02*
X004346Y009911D01*
X004425Y009832D02*
X002077Y009832D01*
X002156Y009754D02*
X004503Y009754D01*
X004582Y009675D02*
X002234Y009675D01*
X002313Y009597D02*
X004660Y009597D01*
X004739Y009518D02*
X002391Y009518D01*
X002470Y009439D02*
X004817Y009439D01*
X004896Y009361D02*
X002930Y009361D01*
X003009Y009282D02*
X004974Y009282D01*
X005053Y009204D02*
X003087Y009204D01*
X003142Y009125D02*
X005131Y009125D01*
X005210Y009047D02*
X003142Y009047D01*
X003142Y008968D02*
X005289Y008968D01*
X005367Y008890D02*
X003142Y008890D01*
X003142Y008811D02*
X005446Y008811D01*
X005524Y008733D02*
X003081Y008733D01*
X003002Y008654D02*
X005603Y008654D01*
X005681Y008575D02*
X002924Y008575D01*
X002951Y008340D02*
X004472Y008340D01*
X004534Y008401D02*
X004282Y008149D01*
X004282Y007793D01*
X004534Y007541D01*
X004890Y007541D01*
X005142Y007793D01*
X005142Y008149D01*
X004890Y008401D01*
X004534Y008401D01*
X004394Y008261D02*
X003030Y008261D01*
X003108Y008183D02*
X004315Y008183D01*
X004282Y008104D02*
X003142Y008104D01*
X003142Y008026D02*
X004282Y008026D01*
X004282Y007947D02*
X003142Y007947D01*
X003142Y007869D02*
X004282Y007869D01*
X004285Y007790D02*
X003138Y007790D01*
X003060Y007711D02*
X004363Y007711D01*
X004442Y007633D02*
X002981Y007633D01*
X002903Y007554D02*
X004520Y007554D01*
X004804Y007240D02*
X001686Y007240D01*
X001718Y007162D02*
X004726Y007162D01*
X004647Y007083D02*
X001729Y007083D01*
X001729Y007005D02*
X004569Y007005D01*
X004490Y006926D02*
X001706Y006926D01*
X001673Y006848D02*
X004412Y006848D01*
X004333Y006769D02*
X002400Y006769D01*
X002506Y006690D02*
X002904Y006690D01*
X002826Y006612D02*
X002559Y006612D01*
X002590Y006533D02*
X002747Y006533D01*
X002669Y006455D02*
X002590Y006455D01*
X002590Y006376D02*
X002577Y006376D01*
X002355Y006141D02*
X002157Y006141D01*
X002079Y006062D02*
X002276Y006062D01*
X002202Y005984D02*
X002000Y005984D01*
X001972Y005905D02*
X002202Y005905D01*
X002202Y005826D02*
X001972Y005826D01*
X001972Y005748D02*
X002202Y005748D01*
X002202Y005669D02*
X001972Y005669D01*
X001972Y005591D02*
X002202Y005591D01*
X002202Y005512D02*
X001972Y005512D01*
X001972Y005434D02*
X002202Y005434D01*
X002190Y005355D02*
X001972Y005355D01*
X001972Y005277D02*
X002103Y005277D01*
X002059Y005198D02*
X001972Y005198D01*
X001972Y005120D02*
X002034Y005120D01*
X002034Y005041D02*
X001972Y005041D01*
X001972Y004962D02*
X002052Y004962D01*
X002085Y004884D02*
X001972Y004884D01*
X001652Y004962D02*
X001624Y004962D01*
X001652Y005041D02*
X001522Y005041D01*
X001474Y005120D02*
X001652Y005120D01*
X001652Y005198D02*
X001604Y005198D01*
X001626Y005748D02*
X001652Y005748D01*
X001652Y005826D02*
X001527Y005826D01*
X001470Y005905D02*
X001652Y005905D01*
X001652Y005984D02*
X001602Y005984D01*
X001729Y006219D02*
X001783Y006219D01*
X001729Y006298D02*
X001862Y006298D01*
X001940Y006376D02*
X001717Y006376D01*
X001685Y006455D02*
X001934Y006455D01*
X001934Y006533D02*
X001627Y006533D01*
X001532Y006612D02*
X001965Y006612D01*
X002017Y006690D02*
X001465Y006690D01*
X001600Y006769D02*
X002123Y006769D01*
X001629Y007319D02*
X004883Y007319D01*
X004961Y007397D02*
X001537Y007397D01*
X001460Y007476D02*
X005040Y007476D01*
X005119Y007554D02*
X004903Y007554D01*
X004981Y007633D02*
X005197Y007633D01*
X005276Y007711D02*
X005060Y007711D01*
X005138Y007790D02*
X005704Y007790D01*
X005783Y007869D02*
X005142Y007869D01*
X005142Y007947D02*
X005861Y007947D01*
X005940Y008026D02*
X005142Y008026D01*
X005142Y008104D02*
X005984Y008104D01*
X005984Y008183D02*
X005108Y008183D01*
X005030Y008261D02*
X005994Y008261D01*
X005917Y008340D02*
X004951Y008340D01*
X005584Y009125D02*
X009751Y009125D01*
X009784Y009092D02*
X009926Y009033D01*
X010080Y009033D01*
X010222Y009092D01*
X010331Y009201D01*
X010390Y009344D01*
X010390Y009498D01*
X010331Y009640D01*
X010222Y009749D01*
X010080Y009808D01*
X009926Y009808D01*
X009784Y009749D01*
X009674Y009640D01*
X009616Y009498D01*
X009616Y009344D01*
X009674Y009201D01*
X009784Y009092D01*
X009894Y009047D02*
X005662Y009047D01*
X005741Y008968D02*
X009798Y008968D01*
X009784Y008962D02*
X009674Y008853D01*
X009645Y008781D01*
X008395Y008781D01*
X008302Y008688D01*
X007703Y008089D01*
X007677Y008099D01*
X007546Y008099D01*
X007426Y008049D01*
X007334Y007957D01*
X007284Y007837D01*
X007284Y007706D01*
X007334Y007585D01*
X007426Y007493D01*
X007546Y007443D01*
X007677Y007443D01*
X007797Y007493D01*
X007890Y007585D01*
X007940Y007706D01*
X007940Y007837D01*
X007929Y007862D01*
X008284Y008217D01*
X008284Y008106D01*
X008334Y007985D01*
X008426Y007893D01*
X008546Y007843D01*
X008677Y007843D01*
X008797Y007893D01*
X008890Y007985D01*
X008940Y008106D01*
X008940Y008237D01*
X008890Y008357D01*
X008797Y008449D01*
X008769Y008461D01*
X009655Y008461D01*
X009674Y008414D01*
X009784Y008305D01*
X009926Y008246D01*
X010080Y008246D01*
X010222Y008305D01*
X010331Y008414D01*
X010390Y008556D01*
X010390Y008711D01*
X010331Y008853D01*
X010222Y008962D01*
X010080Y009021D01*
X009926Y009021D01*
X009784Y008962D01*
X009711Y008890D02*
X005820Y008890D01*
X005898Y008811D02*
X009657Y008811D01*
X009673Y008418D02*
X008829Y008418D01*
X008897Y008340D02*
X009749Y008340D01*
X009889Y008261D02*
X008930Y008261D01*
X008940Y008183D02*
X009803Y008183D01*
X009713Y008104D02*
X008939Y008104D01*
X008906Y008026D02*
X009658Y008026D01*
X009625Y007947D02*
X008851Y007947D01*
X008738Y007869D02*
X009616Y007869D01*
X009616Y007790D02*
X007940Y007790D01*
X007940Y007711D02*
X009639Y007711D01*
X009672Y007633D02*
X007909Y007633D01*
X007859Y007554D02*
X009747Y007554D01*
X009884Y007476D02*
X007756Y007476D01*
X007935Y007869D02*
X008485Y007869D01*
X008372Y007947D02*
X008014Y007947D01*
X008092Y008026D02*
X008317Y008026D01*
X008284Y008104D02*
X008171Y008104D01*
X008249Y008183D02*
X008284Y008183D01*
X008032Y008418D02*
X006529Y008418D01*
X006597Y008340D02*
X007954Y008340D01*
X007875Y008261D02*
X006630Y008261D01*
X006640Y008183D02*
X007797Y008183D01*
X007718Y008104D02*
X006639Y008104D01*
X006606Y008026D02*
X007402Y008026D01*
X007329Y007947D02*
X006551Y007947D01*
X006438Y007869D02*
X007297Y007869D01*
X007284Y007790D02*
X006157Y007790D01*
X006078Y007711D02*
X007284Y007711D01*
X007314Y007633D02*
X005999Y007633D01*
X005921Y007554D02*
X007365Y007554D01*
X007468Y007476D02*
X006933Y007476D01*
X007012Y007397D02*
X009808Y007397D01*
X009715Y007319D02*
X007090Y007319D01*
X007169Y007240D02*
X009659Y007240D01*
X009626Y007162D02*
X007248Y007162D01*
X007326Y007083D02*
X009616Y007083D01*
X009616Y007005D02*
X007405Y007005D01*
X007483Y006926D02*
X009639Y006926D01*
X009671Y006848D02*
X007562Y006848D01*
X007640Y006769D02*
X009745Y006769D01*
X009880Y006690D02*
X007719Y006690D01*
X007797Y006612D02*
X009813Y006612D01*
X009717Y006533D02*
X007876Y006533D01*
X007954Y006455D02*
X009660Y006455D01*
X009627Y006376D02*
X008033Y006376D01*
X008111Y006298D02*
X009616Y006298D01*
X009616Y006219D02*
X008190Y006219D01*
X008269Y006141D02*
X009638Y006141D01*
X009670Y006062D02*
X008347Y006062D01*
X008426Y005984D02*
X009743Y005984D01*
X009875Y005905D02*
X008504Y005905D01*
X008583Y005826D02*
X009817Y005826D01*
X009719Y005748D02*
X008661Y005748D01*
X008740Y005669D02*
X009660Y005669D01*
X009628Y005591D02*
X008818Y005591D01*
X008897Y005512D02*
X009616Y005512D01*
X009616Y005434D02*
X009565Y005434D01*
X009359Y005434D02*
X008975Y005434D01*
X009054Y005355D02*
X009232Y005355D01*
X010131Y005905D02*
X010302Y005905D01*
X010302Y005826D02*
X010189Y005826D01*
X010287Y005748D02*
X010302Y005748D01*
X010302Y005984D02*
X010263Y005984D01*
X010289Y006533D02*
X010302Y006533D01*
X010302Y006612D02*
X010193Y006612D01*
X010126Y006690D02*
X010302Y006690D01*
X010302Y006769D02*
X010261Y006769D01*
X010291Y007319D02*
X010302Y007319D01*
X010226Y007397D02*
X010198Y007397D01*
X010147Y007476D02*
X010122Y007476D01*
X010367Y007711D02*
X010525Y007711D01*
X010525Y007633D02*
X010442Y007633D01*
X010521Y007554D02*
X010525Y007554D01*
X010525Y007790D02*
X010390Y007790D01*
X010390Y007869D02*
X010525Y007869D01*
X010525Y007947D02*
X010381Y007947D01*
X010348Y008026D02*
X010525Y008026D01*
X010525Y008104D02*
X010293Y008104D01*
X010203Y008183D02*
X010525Y008183D01*
X010525Y008261D02*
X010117Y008261D01*
X010257Y008340D02*
X010525Y008340D01*
X010525Y008418D02*
X010333Y008418D01*
X010366Y008497D02*
X010525Y008497D01*
X010525Y008575D02*
X010390Y008575D01*
X010390Y008654D02*
X010525Y008654D01*
X010525Y008733D02*
X010381Y008733D01*
X010349Y008811D02*
X010525Y008811D01*
X010525Y008890D02*
X010295Y008890D01*
X010208Y008968D02*
X010525Y008968D01*
X010525Y009047D02*
X010112Y009047D01*
X010255Y009125D02*
X010525Y009125D01*
X010525Y009204D02*
X010332Y009204D01*
X010365Y009282D02*
X010525Y009282D01*
X010525Y009361D02*
X010390Y009361D01*
X010390Y009439D02*
X010525Y009439D01*
X010525Y009518D02*
X010382Y009518D01*
X010350Y009597D02*
X010525Y009597D01*
X010525Y009675D02*
X010297Y009675D01*
X010212Y009754D02*
X010525Y009754D01*
X010525Y009832D02*
X010107Y009832D01*
X010080Y009821D02*
X010222Y009880D01*
X010331Y009989D01*
X010390Y010131D01*
X010390Y010285D01*
X010331Y010428D01*
X010222Y010537D01*
X010080Y010596D01*
X009926Y010596D01*
X009784Y010537D01*
X009674Y010428D01*
X009616Y010285D01*
X009616Y010131D01*
X009674Y009989D01*
X004720Y009989D01*
X004799Y009911D02*
X009753Y009911D01*
X009784Y009880D02*
X009926Y009821D01*
X010080Y009821D01*
X010253Y009911D02*
X010525Y009911D01*
X010525Y009989D02*
X010332Y009989D01*
X010364Y010068D02*
X010525Y010068D01*
X010525Y010146D02*
X010390Y010146D01*
X010390Y010225D02*
X010525Y010225D01*
X010525Y010303D02*
X010383Y010303D01*
X010350Y010382D02*
X010525Y010382D01*
X010525Y010461D02*
X010299Y010461D01*
X010217Y010539D02*
X010525Y010539D01*
X010525Y010618D02*
X010103Y010618D01*
X010080Y010608D02*
X010222Y010667D01*
X010331Y010776D01*
X010390Y010919D01*
X010390Y011073D01*
X010331Y011215D01*
X010222Y011324D01*
X010080Y011383D01*
X009926Y011383D01*
X009784Y011324D01*
X009448Y011324D01*
X009448Y011319D02*
X009402Y011208D01*
X009318Y011124D01*
X009208Y011078D01*
X009088Y011078D01*
X008978Y011124D01*
X008894Y011208D01*
X008848Y011319D01*
X008848Y011438D01*
X008894Y011548D01*
X008978Y011633D01*
X009088Y011678D01*
X009208Y011678D01*
X009318Y011633D01*
X009402Y011548D01*
X009448Y011438D01*
X009448Y011319D01*
X009418Y011246D02*
X009705Y011246D01*
X009674Y011215D02*
X009616Y011073D01*
X009616Y010919D01*
X009674Y010776D01*
X009784Y010667D01*
X009926Y010608D01*
X010080Y010608D01*
X010251Y010696D02*
X010525Y010696D01*
X010525Y010775D02*
X010330Y010775D01*
X010363Y010853D02*
X010525Y010853D01*
X010525Y010932D02*
X010390Y010932D01*
X010390Y011010D02*
X010525Y011010D01*
X010525Y011089D02*
X010384Y011089D01*
X010351Y011167D02*
X010525Y011167D01*
X010525Y011246D02*
X010301Y011246D01*
X010222Y011324D02*
X010525Y011324D01*
X010525Y011403D02*
X009448Y011403D01*
X009430Y011482D02*
X010525Y011482D01*
X010525Y011560D02*
X009390Y011560D01*
X009303Y011639D02*
X010525Y011639D01*
X010525Y011717D02*
X007592Y011717D01*
X007671Y011639D02*
X008993Y011639D01*
X008906Y011560D02*
X007749Y011560D01*
X007772Y011482D02*
X008866Y011482D01*
X008848Y011403D02*
X007772Y011403D01*
X007772Y011324D02*
X008848Y011324D01*
X008878Y011246D02*
X007772Y011246D01*
X007772Y011167D02*
X008934Y011167D01*
X009063Y011089D02*
X007772Y011089D01*
X007772Y011010D02*
X009616Y011010D01*
X009616Y010932D02*
X007772Y010932D01*
X007772Y010853D02*
X009643Y010853D01*
X009676Y010775D02*
X007772Y010775D01*
X007772Y010696D02*
X009755Y010696D01*
X009903Y010618D02*
X007772Y010618D01*
X007858Y010539D02*
X009789Y010539D01*
X009707Y010461D02*
X007909Y010461D01*
X007940Y010382D02*
X009656Y010382D01*
X009623Y010303D02*
X007940Y010303D01*
X007927Y010225D02*
X009616Y010225D01*
X009616Y010146D02*
X007894Y010146D01*
X007822Y010068D02*
X009642Y010068D01*
X009674Y009989D02*
X009784Y009880D01*
X009899Y009832D02*
X004877Y009832D01*
X004956Y009754D02*
X009794Y009754D01*
X009709Y009675D02*
X005034Y009675D01*
X005113Y009597D02*
X009656Y009597D01*
X009624Y009518D02*
X005191Y009518D01*
X005270Y009439D02*
X009616Y009439D01*
X009616Y009361D02*
X005348Y009361D01*
X005427Y009282D02*
X009641Y009282D01*
X009674Y009204D02*
X005505Y009204D01*
X005977Y008733D02*
X008347Y008733D01*
X008268Y008654D02*
X006055Y008654D01*
X006134Y008575D02*
X008190Y008575D01*
X008111Y008497D02*
X006383Y008497D01*
X006240Y008497D02*
X006212Y008497D01*
X005838Y008418D02*
X002491Y008418D01*
X002412Y008497D02*
X005760Y008497D01*
X006733Y010068D02*
X004641Y010068D01*
X004563Y010146D02*
X006287Y010146D01*
X006790Y010068D02*
X007401Y010068D01*
X007329Y010146D02*
X006859Y010146D01*
X006873Y010225D02*
X007296Y010225D01*
X007284Y010303D02*
X006887Y010303D01*
X006901Y010382D02*
X007284Y010382D01*
X007314Y010461D02*
X006915Y010461D01*
X006928Y010539D02*
X007365Y010539D01*
X007452Y010618D02*
X006942Y010618D01*
X006956Y010696D02*
X007452Y010696D01*
X007452Y010775D02*
X006970Y010775D01*
X006984Y010853D02*
X007452Y010853D01*
X007452Y010932D02*
X006998Y010932D01*
X007011Y011010D02*
X007452Y011010D01*
X007452Y011089D02*
X007025Y011089D01*
X007135Y011167D02*
X007452Y011167D01*
X007452Y011246D02*
X007250Y011246D01*
X007306Y011324D02*
X007452Y011324D01*
X007452Y011403D02*
X007338Y011403D01*
X007340Y011482D02*
X007375Y011482D01*
X007513Y011796D02*
X010525Y011796D01*
X010525Y011874D02*
X007435Y011874D01*
X007356Y011953D02*
X010525Y011953D01*
X010525Y012031D02*
X007278Y012031D01*
X007199Y012110D02*
X010525Y012110D01*
X009784Y011324D02*
X009674Y011215D01*
X009655Y011167D02*
X009361Y011167D01*
X009233Y011089D02*
X009622Y011089D01*
X006938Y011796D02*
X002262Y011796D01*
X002184Y011717D02*
X006794Y011717D01*
X006726Y011639D02*
X002105Y011639D01*
X002027Y011560D02*
X006693Y011560D01*
X006684Y011482D02*
X005740Y011482D01*
X006186Y011403D02*
X006685Y011403D01*
X006639Y011324D02*
X006631Y011324D01*
X005842Y010225D02*
X004484Y010225D01*
X004406Y010303D02*
X005396Y010303D01*
X005179Y010382D02*
X004327Y010382D01*
X002499Y008575D02*
X002334Y008575D01*
X002255Y008654D02*
X002421Y008654D01*
X002342Y008733D02*
X002177Y008733D01*
X002098Y008811D02*
X002282Y008811D01*
X002282Y008890D02*
X002020Y008890D01*
X001941Y008968D02*
X002282Y008968D01*
X002282Y009047D02*
X001862Y009047D01*
X001784Y009125D02*
X002282Y009125D01*
X002253Y009204D02*
X001705Y009204D01*
X001704Y009282D02*
X002174Y009282D01*
X002096Y009361D02*
X001729Y009361D01*
X001729Y009439D02*
X002017Y009439D01*
X001939Y009518D02*
X001721Y009518D01*
X001688Y009597D02*
X001860Y009597D01*
X001782Y009675D02*
X001635Y009675D01*
X001703Y009754D02*
X001551Y009754D01*
X001625Y009832D02*
X001446Y009832D01*
X001237Y009832D02*
X001072Y009832D01*
X001072Y009754D02*
X001132Y009754D01*
X001091Y009911D02*
X001072Y009911D01*
X001072Y010539D02*
X001128Y010539D01*
X001072Y010618D02*
X001242Y010618D01*
X001093Y010696D02*
X001072Y010696D01*
X001720Y008733D02*
X001724Y008733D01*
X001729Y008654D02*
X001803Y008654D01*
X001729Y008575D02*
X001881Y008575D01*
X001960Y008497D02*
X001704Y008497D01*
X001672Y008418D02*
X002038Y008418D01*
X002117Y008340D02*
X001596Y008340D01*
X001455Y008261D02*
X002195Y008261D01*
X002274Y008183D02*
X001541Y008183D01*
X001631Y008104D02*
X002282Y008104D01*
X002282Y008026D02*
X001687Y008026D01*
X001719Y007947D02*
X002282Y007947D01*
X002282Y007869D02*
X001729Y007869D01*
X001729Y007790D02*
X002285Y007790D01*
X002363Y007711D02*
X001705Y007711D01*
X001673Y007633D02*
X002442Y007633D01*
X002520Y007554D02*
X001598Y007554D01*
X001223Y007476D02*
X001151Y007476D01*
X001085Y007554D02*
X001072Y007554D01*
X001072Y008183D02*
X001142Y008183D01*
X001072Y008261D02*
X001228Y008261D01*
X001087Y008340D02*
X001072Y008340D01*
X003922Y005512D02*
X004452Y005512D01*
X004452Y005434D02*
X003922Y005434D01*
X003922Y005355D02*
X004452Y005355D01*
X004452Y005277D02*
X003922Y005277D01*
X003922Y005198D02*
X004424Y005198D01*
X004346Y005120D02*
X003922Y005120D01*
X003922Y005041D02*
X004306Y005041D01*
X004284Y004962D02*
X003922Y004962D01*
X003922Y004884D02*
X004284Y004884D01*
X004304Y004805D02*
X003922Y004805D01*
X003922Y004727D02*
X004342Y004727D01*
X004421Y004648D02*
X003922Y004648D01*
X004016Y004099D02*
X003615Y004099D01*
X003537Y004020D02*
X004002Y004020D01*
X003988Y003941D02*
X003458Y003941D01*
X003379Y003863D02*
X003974Y003863D01*
X003960Y003784D02*
X003301Y003784D01*
X003222Y003706D02*
X003947Y003706D01*
X003926Y003587D02*
X003843Y003116D01*
X003846Y003079D01*
X003858Y003044D01*
X003879Y003014D01*
X003908Y002990D01*
X003941Y002975D01*
X004659Y002848D01*
X004763Y003439D01*
X003926Y003587D01*
X003919Y003549D02*
X003065Y003549D01*
X003144Y003627D02*
X004156Y003627D01*
X004142Y003549D02*
X004601Y003549D01*
X004587Y003470D02*
X004768Y003470D01*
X004754Y003392D02*
X004835Y003392D01*
X004822Y003313D02*
X004740Y003313D01*
X004727Y003235D02*
X004808Y003235D01*
X004794Y003156D02*
X004713Y003156D01*
X004699Y003077D02*
X004780Y003077D01*
X004766Y002999D02*
X004685Y002999D01*
X004671Y002920D02*
X004752Y002920D01*
X004739Y002842D02*
X002372Y002842D01*
X002372Y002763D02*
X005141Y002763D01*
X004890Y002401D02*
X004534Y002401D01*
X004282Y002149D01*
X004282Y001793D01*
X004534Y001541D01*
X004890Y001541D01*
X005142Y001793D01*
X005142Y002149D01*
X004890Y002401D01*
X004920Y002371D02*
X005503Y002371D01*
X005424Y002292D02*
X004999Y002292D01*
X005078Y002213D02*
X005346Y002213D01*
X005282Y002135D02*
X005142Y002135D01*
X005142Y002056D02*
X005282Y002056D01*
X005282Y001978D02*
X005142Y001978D01*
X005142Y001899D02*
X005282Y001899D01*
X005282Y001821D02*
X005142Y001821D01*
X005091Y001742D02*
X005333Y001742D01*
X005411Y001664D02*
X005012Y001664D01*
X004934Y001585D02*
X005490Y001585D01*
X005534Y001401D02*
X005282Y001149D01*
X005282Y000793D01*
X005534Y000541D01*
X005890Y000541D01*
X006142Y000793D01*
X006142Y001149D01*
X005890Y001401D01*
X005534Y001401D01*
X005482Y001349D02*
X004942Y001349D01*
X004890Y001401D02*
X004534Y001401D01*
X004282Y001149D01*
X004282Y000793D01*
X004534Y000541D01*
X004890Y000541D01*
X005142Y000793D01*
X005142Y001149D01*
X004890Y001401D01*
X005020Y001271D02*
X005403Y001271D01*
X005325Y001192D02*
X005099Y001192D01*
X005142Y001114D02*
X005282Y001114D01*
X005282Y001035D02*
X005142Y001035D01*
X005142Y000957D02*
X005282Y000957D01*
X005282Y000878D02*
X005142Y000878D01*
X005142Y000800D02*
X005282Y000800D01*
X005354Y000721D02*
X005070Y000721D01*
X004991Y000643D02*
X005432Y000643D01*
X005511Y000564D02*
X004912Y000564D01*
X004511Y000564D02*
X003912Y000564D01*
X003890Y000541D02*
X004142Y000793D01*
X004142Y001149D01*
X003890Y001401D01*
X003534Y001401D01*
X003282Y001149D01*
X003282Y000793D01*
X003534Y000541D01*
X003890Y000541D01*
X003991Y000643D02*
X004432Y000643D01*
X004354Y000721D02*
X004070Y000721D01*
X004142Y000800D02*
X004282Y000800D01*
X004282Y000878D02*
X004142Y000878D01*
X004142Y000957D02*
X004282Y000957D01*
X004282Y001035D02*
X004142Y001035D01*
X004142Y001114D02*
X004282Y001114D01*
X004325Y001192D02*
X004099Y001192D01*
X004020Y001271D02*
X004403Y001271D01*
X004482Y001349D02*
X003942Y001349D01*
X003890Y001541D02*
X004142Y001793D01*
X004142Y002149D01*
X003890Y002401D01*
X003534Y002401D01*
X003282Y002149D01*
X003282Y001793D01*
X003534Y001541D01*
X003890Y001541D01*
X003934Y001585D02*
X004490Y001585D01*
X004411Y001664D02*
X004012Y001664D01*
X004091Y001742D02*
X004333Y001742D01*
X004282Y001821D02*
X004142Y001821D01*
X004142Y001899D02*
X004282Y001899D01*
X004282Y001978D02*
X004142Y001978D01*
X004142Y002056D02*
X004282Y002056D01*
X004282Y002135D02*
X004142Y002135D01*
X004078Y002213D02*
X004346Y002213D01*
X004424Y002292D02*
X003999Y002292D01*
X003920Y002371D02*
X004503Y002371D01*
X004250Y002920D02*
X002437Y002920D01*
X002515Y002999D02*
X003898Y002999D01*
X003846Y003077D02*
X002594Y003077D01*
X002673Y003156D02*
X003850Y003156D01*
X003864Y003235D02*
X002751Y003235D01*
X002830Y003313D02*
X003877Y003313D01*
X003891Y003392D02*
X002908Y003392D01*
X002987Y003470D02*
X003905Y003470D01*
X003503Y002371D02*
X002920Y002371D01*
X002999Y002292D02*
X003424Y002292D01*
X003346Y002213D02*
X003078Y002213D01*
X003142Y002135D02*
X003282Y002135D01*
X003282Y002056D02*
X003142Y002056D01*
X003142Y001978D02*
X003282Y001978D01*
X003282Y001899D02*
X003142Y001899D01*
X003142Y001821D02*
X003282Y001821D01*
X003333Y001742D02*
X003091Y001742D01*
X003012Y001664D02*
X003411Y001664D01*
X003490Y001585D02*
X002934Y001585D01*
X002942Y001349D02*
X003482Y001349D01*
X003403Y001271D02*
X003020Y001271D01*
X003099Y001192D02*
X003325Y001192D01*
X003282Y001114D02*
X003142Y001114D01*
X003142Y001035D02*
X003282Y001035D01*
X003282Y000957D02*
X003142Y000957D01*
X003142Y000878D02*
X003282Y000878D01*
X003282Y000800D02*
X003142Y000800D01*
X003070Y000721D02*
X003354Y000721D01*
X003432Y000643D02*
X002991Y000643D01*
X002912Y000564D02*
X003511Y000564D01*
X002511Y000564D02*
X001912Y000564D01*
X001991Y000643D02*
X002432Y000643D01*
X002354Y000721D02*
X002070Y000721D01*
X002142Y000800D02*
X002282Y000800D01*
X002282Y000878D02*
X002142Y000878D01*
X002142Y000957D02*
X002282Y000957D01*
X002282Y001035D02*
X002142Y001035D01*
X002142Y001114D02*
X002282Y001114D01*
X002540Y001428D02*
X006052Y001428D01*
X006052Y001507D02*
X002540Y001507D01*
X002424Y002292D02*
X002372Y002292D01*
X002372Y002371D02*
X002503Y002371D01*
X002372Y002449D02*
X006052Y002449D01*
X006052Y002371D02*
X005920Y002371D01*
X005999Y002292D02*
X006052Y002292D01*
X006052Y002528D02*
X002372Y002528D01*
X002372Y002606D02*
X006052Y002606D01*
X006052Y002685D02*
X002372Y002685D01*
X002052Y002371D02*
X001963Y002371D01*
X002041Y002292D02*
X002052Y002292D01*
X001052Y002292D02*
X001041Y002292D01*
X001052Y001585D02*
X000976Y001585D01*
X000752Y001585D02*
X000672Y001585D01*
X004295Y006731D02*
X004295Y006731D01*
X005384Y004020D02*
X006037Y004020D01*
X006052Y003941D02*
X005724Y003941D01*
X005772Y003863D02*
X006052Y003863D01*
X006052Y003784D02*
X005768Y003784D01*
X005754Y003706D02*
X006052Y003706D01*
X006052Y003235D02*
X005671Y003235D01*
X005657Y003156D02*
X006052Y003156D01*
X006052Y003077D02*
X005643Y003077D01*
X005629Y002999D02*
X006052Y002999D01*
X006052Y002920D02*
X005615Y002920D01*
X005602Y002842D02*
X006052Y002842D01*
X006052Y002763D02*
X005572Y002763D01*
X006012Y001664D02*
X006052Y001664D01*
X006052Y001585D02*
X005933Y001585D01*
X005942Y001349D02*
X006107Y001349D01*
X006186Y001271D02*
X006020Y001271D01*
X006099Y001192D02*
X006264Y001192D01*
X006282Y001114D02*
X006142Y001114D01*
X006142Y001035D02*
X006282Y001035D01*
X006282Y000957D02*
X006142Y000957D01*
X006142Y000878D02*
X006282Y000878D01*
X006282Y000800D02*
X006142Y000800D01*
X006070Y000721D02*
X006354Y000721D01*
X006432Y000643D02*
X005991Y000643D01*
X005912Y000564D02*
X006511Y000564D01*
X006912Y000564D02*
X007511Y000564D01*
X007432Y000643D02*
X006991Y000643D01*
X007070Y000721D02*
X007354Y000721D01*
X007282Y000800D02*
X007142Y000800D01*
X007142Y000878D02*
X007282Y000878D01*
X007282Y000957D02*
X007142Y000957D01*
X007142Y001035D02*
X007282Y001035D01*
X007282Y001114D02*
X007142Y001114D01*
X007099Y001192D02*
X007325Y001192D01*
X007403Y001271D02*
X007020Y001271D01*
X006942Y001349D02*
X007407Y001349D01*
X007329Y001428D02*
X006481Y001428D01*
X006403Y001507D02*
X007250Y001507D01*
X007172Y001585D02*
X006934Y001585D01*
X007012Y001664D02*
X007093Y001664D01*
X007367Y002292D02*
X007424Y002292D01*
X006490Y001585D02*
X006372Y001585D01*
X006372Y001664D02*
X006411Y001664D01*
D14*
X006862Y003871D03*
X005512Y005221D03*
X005112Y005571D03*
X005462Y005971D03*
X004812Y006421D03*
X004112Y005571D03*
X003762Y006121D03*
X004612Y004921D03*
X002912Y003071D03*
X001712Y002871D03*
X002212Y001471D03*
X002362Y005071D03*
X002262Y006471D03*
X004862Y010771D03*
X006312Y008171D03*
X007212Y008571D03*
X007612Y007771D03*
X007612Y007171D03*
X007262Y005921D03*
X006512Y006971D03*
X008612Y008171D03*
X007612Y010321D03*
X007012Y011471D03*
X010312Y011571D03*
X009462Y005121D03*
X009562Y004271D03*
X008712Y002971D03*
X009262Y002921D03*
X008512Y004321D03*
D15*
X008062Y004321D01*
X006062Y006321D01*
X005262Y006321D01*
X004612Y005671D01*
X004362Y005921D01*
X004362Y006571D01*
X003012Y006571D01*
X002362Y005921D01*
X002362Y005071D01*
X001812Y006021D02*
X002262Y006471D01*
X001812Y006021D02*
X001812Y003671D01*
X001212Y003071D01*
X001212Y001521D01*
X001712Y001021D01*
X001712Y000971D01*
X002212Y001471D02*
X002212Y002921D01*
X003762Y004471D01*
X003762Y006121D01*
X004112Y005571D02*
X004112Y004871D01*
X004809Y004174D01*
X004809Y003472D01*
X003312Y003472D01*
X002912Y003071D01*
X001712Y002871D02*
X001712Y001971D01*
X004612Y004921D02*
X004612Y005671D01*
X005112Y005571D02*
X005812Y005571D01*
X006462Y004921D01*
X006462Y002971D01*
X007212Y002221D01*
X007212Y001771D01*
X007512Y001471D01*
X008212Y001471D01*
X008712Y000971D01*
X009712Y002571D02*
X007562Y002571D01*
X006862Y003271D01*
X006862Y003871D01*
X006212Y004071D02*
X005512Y004771D01*
X005512Y005221D01*
X005462Y005971D02*
X005812Y005971D01*
X008712Y003071D01*
X008712Y002971D01*
X009212Y003021D02*
X009212Y004271D01*
X007962Y005521D01*
X007162Y005521D01*
X006612Y006071D01*
X006612Y006871D01*
X006512Y006971D01*
X006812Y007371D02*
X005762Y007371D01*
X004812Y006421D01*
X004362Y006571D02*
X005412Y007621D01*
X005762Y007621D01*
X006312Y008171D01*
X003487Y010996D01*
X001342Y010996D01*
X000912Y011321D02*
X001162Y011571D01*
X001812Y011571D01*
X002212Y011971D01*
X007112Y011971D01*
X007612Y011471D01*
X007612Y010321D01*
X007012Y011471D02*
X006312Y010771D01*
X006128Y010771D01*
X006101Y010799D01*
X004889Y010799D01*
X004862Y010771D01*
X002712Y008971D02*
X001475Y010208D01*
X001342Y010208D01*
X001342Y009421D02*
X001342Y009341D01*
X002712Y007971D01*
X001342Y007059D02*
X000912Y007489D01*
X000912Y011321D01*
X006212Y004071D02*
X006212Y001471D01*
X006712Y000971D01*
X009262Y002921D02*
X009262Y002971D01*
X009212Y003021D01*
X009712Y002571D02*
X010462Y003321D01*
X010462Y007387D01*
X010003Y007846D01*
X009991Y008621D02*
X010003Y008634D01*
X009991Y008621D02*
X008462Y008621D01*
X007612Y007771D01*
X007212Y007571D02*
X007212Y008571D01*
X007212Y008771D01*
X010012Y011571D01*
X010312Y011571D01*
X007212Y007571D02*
X007612Y007171D01*
X006812Y007371D02*
X009062Y005121D01*
X009462Y005121D01*
X009562Y004271D02*
X007912Y005921D01*
X007262Y005921D01*
M02*
